<svg width="141" height="76" viewBox="0 0 141 76" fill="none" xmlns="http://www.w3.org/2000/svg">
<g id="Asset 1 1">
<g id="Layer 2">
<g id="Layer 1">
<g id="Group">
<g id="Group_2">
<path id="Vector" d="M27.3766 29.6231H34.5526C35.5147 29.6231 36.4373 30.0073 37.1176 30.6913C37.7979 31.3753 38.18 32.3029 38.18 33.2702C38.18 33.4084 38.1254 33.5409 38.0283 33.6386C37.9311 33.7363 37.7993 33.7912 37.6618 33.7912H24.1887C23.5015 33.7912 22.8424 33.5167 22.3565 33.0282C21.8706 32.5396 21.5977 31.877 21.5977 31.1861V31.0111C21.5977 30.3986 21.8123 29.8057 22.2039 29.3365L32.4011 17.1188H25.2251C24.263 17.1188 23.3404 16.7346 22.6601 16.0506C21.9798 15.3667 21.5977 14.439 21.5977 13.4717C21.5977 13.3336 21.6523 13.201 21.7494 13.1033C21.8466 13.0056 21.9784 12.9507 22.1159 12.9507H35.589C36.2762 12.9507 36.9352 13.2252 37.4212 13.7137C37.9071 14.2023 38.18 14.8649 38.18 15.5558V15.7298C38.1803 16.3422 37.966 16.935 37.5748 17.4043L27.3766 29.6231Z" fill="white"/>
<path id="Vector_2" d="M13.9914 12.9507H1.5546C1.41716 12.9507 1.28536 13.0056 1.18818 13.1033C1.09099 13.2011 1.0364 13.3336 1.0364 13.4718C1.0364 14.439 1.41857 15.3667 2.09884 16.0506C2.77911 16.7346 3.70175 17.1188 4.6638 17.1188H13.9914C14.1288 17.1188 14.2606 17.1737 14.3578 17.2714C14.455 17.3691 14.5096 17.5017 14.5096 17.6398V21.2869H4.6638C3.42688 21.2869 2.24063 21.781 1.36599 22.6603C0.491363 23.5397 0 24.7324 0 25.976L0 29.1021C0 30.3457 0.491363 31.5384 1.36599 32.4178C2.24063 33.2972 3.42688 33.7912 4.6638 33.7912H12.955C13.4378 33.7918 13.9159 33.6951 14.3609 33.5068C14.8059 33.3186 15.2089 33.0425 15.546 32.695C15.8831 33.0425 16.2861 33.3186 16.7311 33.5068C17.1761 33.6951 17.6542 33.7918 18.137 33.7912C18.2744 33.7912 18.4062 33.7363 18.5034 33.6386C18.6006 33.5409 18.6552 33.4084 18.6552 33.2702V17.6398C18.6552 16.3962 18.1638 15.2035 17.2892 14.3241C16.4146 13.4448 15.2283 12.9507 13.9914 12.9507ZM13.9914 29.6231H4.6638C4.52636 29.6231 4.39455 29.5682 4.29737 29.4705C4.20019 29.3728 4.1456 29.2403 4.1456 29.1021V25.976C4.1456 25.8378 4.20019 25.7053 4.29737 25.6076C4.39455 25.5099 4.52636 25.455 4.6638 25.455H14.5096V29.1021C14.5096 29.2403 14.455 29.3728 14.3578 29.4705C14.2606 29.5682 14.1288 29.6231 13.9914 29.6231Z" fill="white"/>
<g id="Group_3">
<path id="Vector_3" d="M45.2667 5.13558V30.1441C45.2667 31.1114 44.8845 32.039 44.2043 32.723C43.524 33.407 42.6013 33.7912 41.6393 33.7912C41.5019 33.7912 41.3701 33.7363 41.2729 33.6386C41.1757 33.5409 41.1211 33.4084 41.1211 33.2702V8.26165C41.1211 7.29438 41.5033 6.36673 42.1835 5.68277C42.8638 4.99881 43.7864 4.61457 44.7485 4.61457C44.8859 4.61457 45.0177 4.66946 45.1149 4.76717C45.2121 4.86488 45.2667 4.9974 45.2667 5.13558Z" fill="white"/>
<path id="Vector_4" d="M57.5519 31.9864C57.6491 32.0841 57.7036 32.2166 57.7036 32.3547C57.7036 32.4929 57.6491 32.6254 57.5519 32.7231C57.2151 33.0618 56.8152 33.3305 56.3751 33.5138C55.9349 33.6971 55.4632 33.7914 54.9868 33.7914C54.5104 33.7914 54.0387 33.6971 53.5986 33.5138C53.1585 33.3305 52.7586 33.0618 52.4217 32.7231L46.052 26.3178L43.1211 23.3709L46.052 20.4241L52.4217 14.0188C52.7586 13.6801 53.1585 13.4114 53.5986 13.2281C54.0387 13.0448 54.5104 12.9505 54.9868 12.9505C55.4632 12.9505 55.9349 13.0448 56.3751 13.2281C56.8152 13.4114 57.2151 13.6801 57.5519 14.0188C57.6491 14.1165 57.7036 14.249 57.7036 14.3871C57.7036 14.5253 57.6491 14.6578 57.5519 14.7555L48.983 23.3709L57.5519 31.9864Z" fill="white"/>
</g>
<path id="Vector_5" d="M64.7901 13.4718V30.1441C64.7901 31.1114 64.408 32.039 63.7277 32.723C63.0474 33.407 62.1248 33.7912 61.1627 33.7912C61.0253 33.7912 60.8935 33.7363 60.7963 33.6386C60.6991 33.5409 60.6445 33.4084 60.6445 33.2702V16.5978C60.6445 15.6306 61.0267 14.7029 61.707 14.019C62.3872 13.335 63.3099 12.9507 64.2719 12.9507C64.4094 12.9507 64.5412 13.0056 64.6383 13.1033C64.7355 13.2011 64.7901 13.3336 64.7901 13.4718Z" fill="white"/>
<path id="Vector_6" d="M62.718 9.82468C64.1489 9.82468 65.3089 8.65835 65.3089 7.21962C65.3089 5.78088 64.1489 4.61456 62.718 4.61456C61.287 4.61456 60.127 5.78088 60.127 7.21962C60.127 8.65835 61.287 9.82468 62.718 9.82468Z" fill="white"/>
</g>
<g id="Group_4">
<path id="Vector_7" d="M66.8081 47.9399H60.7193C59.9461 47.9376 59.1942 48.1943 58.5822 48.6693C57.9697 48.1944 57.2176 47.9378 56.4441 47.9399H50.3553C49.4276 47.9399 48.5379 48.3104 47.8819 48.97C47.2259 49.6295 46.8574 50.524 46.8574 51.4567V63.0492C46.8574 63.1874 46.912 63.32 47.0092 63.4177C47.1064 63.5154 47.2382 63.5703 47.3756 63.5703C47.6649 63.5704 47.9513 63.5132 48.2186 63.402C48.4858 63.2908 48.7287 63.1277 48.9332 62.922C49.1378 62.7164 49.3 62.4722 49.4106 62.2035C49.5212 61.9348 49.5781 61.6468 49.578 61.356V51.4567C49.578 51.2495 49.6599 51.0507 49.8056 50.9041C49.9514 50.7576 50.1491 50.6752 50.3553 50.6752H56.4441C56.6503 50.6752 56.848 50.7576 56.9937 50.9041C57.1395 51.0507 57.2214 51.2495 57.2214 51.4567V61.356C57.2214 61.9432 57.4534 62.5064 57.8665 62.9217C58.2795 63.337 58.8397 63.5703 59.4238 63.5703C59.5612 63.5703 59.693 63.5154 59.7902 63.4177C59.8874 63.32 59.942 63.1874 59.942 63.0492V51.4567C59.942 51.2495 60.0239 51.0507 60.1696 50.9041C60.3154 50.7576 60.5131 50.6752 60.7193 50.6752H66.8081C67.0143 50.6752 67.212 50.7576 67.3577 50.9041C67.5035 51.0507 67.5854 51.2495 67.5854 51.4567V61.356C67.5854 61.9432 67.8174 62.5064 68.2305 62.9217C68.6435 63.337 69.2036 63.5703 69.7877 63.5703C69.9252 63.5703 70.057 63.5154 70.1542 63.4177C70.2514 63.32 70.3059 63.1874 70.3059 63.0492V51.4567C70.3059 50.524 69.9374 49.6295 69.2815 48.97C68.6255 48.3104 67.7358 47.9399 66.8081 47.9399Z" fill="white"/>
<path id="Vector_8" d="M12.0481 54.1921H3.8865C3.57727 54.1921 3.2807 54.0686 3.06205 53.8487C2.84339 53.6289 2.72055 53.3307 2.72055 53.0198V51.8475C2.72055 51.5366 2.84339 51.2384 3.06205 51.0186C3.2807 50.7987 3.57727 50.6752 3.8865 50.6752H12.4368C13.0552 50.6752 13.6484 50.4282 14.0857 49.9885C14.523 49.5488 14.7687 48.9525 14.7687 48.3307C14.7687 48.227 14.7277 48.1277 14.6549 48.0544C14.582 47.9811 14.4831 47.9399 14.38 47.9399H3.49785C2.57016 47.9399 1.68047 48.3104 1.0245 48.97C0.368522 49.6295 0 50.524 0 51.4568L0 53.4105C0 54.3433 0.368522 55.2378 1.0245 55.8973C1.68047 56.5569 2.57016 56.9274 3.49785 56.9274H11.6595C11.9687 56.9274 12.2653 57.0509 12.4839 57.2707C12.7026 57.4906 12.8254 57.7887 12.8254 58.0996V59.6627C12.8254 59.9736 12.7026 60.2718 12.4839 60.4916C12.2653 60.7114 11.9687 60.835 11.6595 60.835H3.1092C2.49074 60.835 1.89761 61.082 1.4603 61.5217C1.02298 61.9613 0.777299 62.5577 0.777299 63.1795C0.777299 63.2831 0.818246 63.3825 0.891132 63.4558C0.964018 63.5291 1.06287 63.5703 1.16595 63.5703H12.0481C12.9758 63.5703 13.8655 63.1997 14.5215 62.5402C15.1775 61.8807 15.546 60.9862 15.546 60.0534V57.7089C15.546 56.7762 15.1775 55.8816 14.5215 55.2221C13.8655 54.5626 12.9758 54.1921 12.0481 54.1921Z" fill="white"/>
<path id="Vector_9" d="M28.5826 47.9399H20.0323C19.9293 47.9399 19.8304 47.9811 19.7575 48.0544C19.6846 48.1277 19.6437 48.227 19.6437 48.3307C19.6437 48.9525 19.8894 49.5488 20.3267 49.9885C20.764 50.4282 21.3571 50.6752 21.9756 50.6752H28.5826C28.7888 50.6752 28.9865 50.7576 29.1323 50.9041C29.278 51.0507 29.3599 51.2495 29.3599 51.4568V54.1921H21.5652C20.6413 54.192 19.7548 54.5596 19.0995 55.2144C18.4441 55.8692 18.0731 56.7581 18.0673 57.687L18.0528 60.0316C18.0495 60.4955 18.1376 60.9556 18.3119 61.3852C18.4862 61.8149 18.7433 62.2056 19.0684 62.5349C19.3935 62.8642 19.7802 63.1256 20.2063 63.304C20.6323 63.4824 21.0892 63.5743 21.5507 63.5744H28.3909C28.6978 63.5748 29.0017 63.514 29.2851 63.3956C29.5684 63.2772 29.8257 63.1036 30.0419 62.8846C30.2591 63.1042 30.5176 63.2782 30.8022 63.3966C31.0869 63.5151 31.3921 63.5755 31.7001 63.5744C31.802 63.5728 31.8992 63.5309 31.9706 63.4577C32.0419 63.3846 32.0818 63.2861 32.0815 63.1837V51.4568C32.0815 50.9948 31.991 50.5374 31.8152 50.1107C31.6393 49.6839 31.3816 49.2962 31.0567 48.9696C30.7317 48.643 30.346 48.384 29.9215 48.2073C29.497 48.0307 29.0421 47.9398 28.5826 47.9399ZM29.3599 60.0534C29.3599 60.2607 29.278 60.4595 29.1323 60.6061C28.9865 60.7526 28.7888 60.835 28.5826 60.835H21.5289C21.3228 60.835 21.125 60.7526 20.9793 60.6061C20.8335 60.4595 20.7516 60.2607 20.7516 60.0534V57.7089C20.7516 57.5016 20.8335 57.3028 20.9793 57.1563C21.125 57.0097 21.3228 56.9274 21.5289 56.9274H29.3599V60.0534Z" fill="white"/>
<path id="Vector_10" d="M83.3414 47.9399H74.7911C74.688 47.9399 74.5892 47.9811 74.5163 48.0544C74.4434 48.1277 74.4024 48.2271 74.4024 48.3307C74.4024 48.9525 74.6481 49.5489 75.0854 49.9886C75.5228 50.4282 76.1159 50.6753 76.7343 50.6753H83.3414C83.5475 50.6753 83.7452 50.7576 83.891 50.9042C84.0368 51.0507 84.1187 51.2495 84.1187 51.4568V54.1921H76.3239C75.4001 54.1921 74.5138 54.5596 73.8586 55.2145C73.2034 55.8693 72.8326 56.7582 72.8271 57.687L72.8126 60.0316C72.809 60.4956 72.8969 60.9556 73.071 61.3853C73.2451 61.815 73.5022 62.2058 73.8272 62.5351C74.1523 62.8645 74.539 63.1259 74.965 63.3043C75.391 63.4826 75.8479 63.5745 76.3094 63.5745H83.1496C83.4567 63.5748 83.7607 63.514 84.0443 63.3956C84.3278 63.2772 84.5852 63.1036 84.8017 62.8846C85.0188 63.1044 85.2772 63.2785 85.5619 63.3969C85.8466 63.5153 86.1518 63.5757 86.4599 63.5745C86.5619 63.5731 86.6592 63.5312 86.7306 63.4581C86.8021 63.3849 86.8419 63.2862 86.8413 63.1837V51.4568C86.8413 50.9948 86.7508 50.5373 86.5748 50.1105C86.3989 49.6836 86.1411 49.2959 85.8161 48.9693C85.491 48.6427 85.1052 48.3837 84.6806 48.2071C84.256 48.0304 83.8009 47.9397 83.3414 47.9399ZM84.1187 60.0535C84.1187 60.2607 84.0368 60.4595 83.891 60.6061C83.7452 60.7526 83.5475 60.835 83.3414 60.835H76.2877C76.0815 60.835 75.8838 60.7526 75.738 60.6061C75.5922 60.4595 75.5104 60.2607 75.5104 60.0535V57.7089C75.5104 57.5016 75.5922 57.3029 75.738 57.1563C75.8838 57.0097 76.0815 56.9274 76.2877 56.9274H84.1187V60.0535Z" fill="white"/>
<path id="Vector_11" d="M44.8938 47.94H38.0857C37.6264 47.94 37.1715 48.0309 36.7472 48.2077C36.3228 48.3844 35.9372 48.6434 35.6124 48.97C35.2876 49.2966 35.0299 49.6843 34.8541 50.111C34.6784 50.5376 34.5879 50.9949 34.5879 51.4568V63.1795C34.5879 63.2832 34.6288 63.3826 34.7017 63.4558C34.7746 63.5291 34.8735 63.5703 34.9765 63.5703C35.2829 63.5706 35.5864 63.5101 35.8696 63.3924C36.1527 63.2747 36.41 63.1021 36.6268 62.8843C36.8435 62.6666 37.0155 62.408 37.1328 62.1234C37.2501 61.8389 37.3105 61.5338 37.3105 61.2257V51.8475C37.3105 51.5366 37.4333 51.2385 37.652 51.0186C37.8707 50.7988 38.1672 50.6753 38.4765 50.6753H42.9527C43.5711 50.6753 44.1643 50.4283 44.6016 49.9886C45.0389 49.5489 45.2846 48.9525 45.2846 48.3307C45.2846 48.2792 45.2744 48.2282 45.2548 48.1807C45.2351 48.1331 45.2063 48.09 45.17 48.0537C45.1337 48.0174 45.0906 47.9886 45.0432 47.9691C44.9958 47.9496 44.9451 47.9397 44.8938 47.94Z" fill="white"/>
<path id="Vector_12" d="M104.375 47.9399C104.086 47.9398 103.8 47.997 103.532 48.1082C103.265 48.2195 103.022 48.3826 102.818 48.5882C102.613 48.7938 102.451 49.038 102.34 49.3067C102.23 49.5754 102.173 49.8634 102.173 50.1542V60.0535C102.173 60.2607 102.091 60.4595 101.945 60.6061C101.8 60.7526 101.602 60.835 101.396 60.835H92.8455C92.6394 60.835 92.4416 60.7526 92.2959 60.6061C92.1501 60.4595 92.0682 60.2607 92.0682 60.0535V50.1542C92.0682 49.567 91.8362 49.0038 91.4232 48.5885C91.0101 48.1732 90.45 47.9399 89.8659 47.9399C89.7284 47.9399 89.5966 47.9948 89.4994 48.0926C89.4023 48.1903 89.3477 48.3228 89.3477 48.461V60.0535C89.3477 60.9862 89.7162 61.8807 90.3722 62.5402C91.0281 63.1998 91.9178 63.5703 92.8455 63.5703H101.396C101.657 63.57 101.918 63.5403 102.173 63.4817V67.8686C102.173 68.0759 102.091 68.2747 101.945 68.4212C101.8 68.5678 101.602 68.6502 101.396 68.6502H91.6796C91.0611 68.6502 90.468 68.8972 90.0307 69.3369C89.5933 69.7765 89.3477 70.3729 89.3477 70.9947C89.3475 71.0461 89.3575 71.0969 89.377 71.1444C89.3964 71.1919 89.4251 71.235 89.4612 71.2713C89.4973 71.3076 89.5402 71.3364 89.5874 71.356C89.6346 71.3756 89.6852 71.3856 89.7363 71.3855H101.396C102.323 71.3852 103.213 71.0146 103.869 70.3551C104.525 69.6956 104.893 68.8013 104.894 67.8686V60.0535V48.461C104.894 48.3228 104.839 48.1903 104.742 48.0926C104.645 47.9948 104.513 47.9399 104.375 47.9399Z" fill="white"/>
<path id="Vector_13" d="M119.449 47.9399H110.894C109.967 47.9399 109.077 48.3105 108.421 48.97C107.765 49.6295 107.396 50.524 107.396 51.4568V60.0534C107.396 60.9862 107.765 61.8807 108.421 62.5402C109.077 63.1998 109.967 63.5703 110.894 63.5703H121.777C121.88 63.5703 121.978 63.5291 122.051 63.4558C122.124 63.3825 122.165 63.2831 122.165 63.1795C122.165 62.5577 121.919 61.9614 121.482 61.5217C121.045 61.082 120.452 60.835 119.833 60.835H110.894C110.688 60.835 110.49 60.7526 110.345 60.6061C110.199 60.4595 110.117 60.2607 110.117 60.0534V56.9274H119.445C120.372 56.9274 121.262 56.5569 121.918 55.8973C122.574 55.2378 122.942 54.3433 122.942 53.4105V51.4568C122.942 50.5248 122.575 49.6309 121.919 48.9715C121.264 48.312 120.376 47.941 119.449 47.9399ZM120.226 53.4105C120.226 53.6178 120.144 53.8166 119.998 53.9632C119.853 54.1097 119.655 54.1921 119.449 54.1921H110.121V51.4568C110.121 51.2495 110.203 51.0507 110.349 50.9041C110.495 50.7576 110.692 50.6752 110.898 50.6752H119.449C119.655 50.6752 119.853 50.7576 119.998 50.9041C120.144 51.0507 120.226 51.2495 120.226 51.4568V53.4105Z" fill="white"/>
<path id="Vector_14" d="M141.001 51.4568C141.001 50.524 140.632 49.6295 139.976 48.97C139.32 48.3104 138.431 47.9399 137.503 47.9399H128.953C128.691 47.9401 128.43 47.9698 128.176 48.0285V40.5155C128.176 40.4122 128.135 40.3132 128.062 40.2399C127.99 40.1667 127.892 40.1253 127.789 40.1248C127.17 40.1248 126.577 40.3718 126.14 40.8115C125.703 41.2511 125.457 41.8475 125.457 42.4693V58.0632V63.0493C125.457 63.1874 125.512 63.32 125.609 63.4177C125.706 63.5154 125.838 63.5703 125.975 63.5703C126.264 63.5704 126.551 63.5132 126.818 63.402C127.085 63.2908 127.328 63.1277 127.533 62.922C127.737 62.7164 127.9 62.4722 128.01 62.2035C128.121 61.9348 128.178 61.6468 128.178 61.356V51.4568C128.178 51.2495 128.259 51.0507 128.405 50.9041C128.551 50.7576 128.749 50.6752 128.955 50.6752H137.505C137.711 50.6752 137.909 50.7576 138.055 50.9041C138.201 51.0507 138.282 51.2495 138.282 51.4568V61.356C138.282 61.6466 138.339 61.9345 138.45 62.203C138.56 62.4716 138.722 62.7157 138.926 62.9213C139.131 63.1269 139.373 63.29 139.64 63.4014C139.907 63.5127 140.194 63.5701 140.483 63.5703C140.62 63.5703 140.752 63.5154 140.849 63.4177C140.946 63.32 141.001 63.1874 141.001 63.0493V51.4568Z" fill="white"/>
</g>
</g>
</g>
</g>
</g>
</svg>
