<svg width="211" height="70" viewBox="0 0 211 70" fill="none" xmlns="http://www.w3.org/2000/svg">
<g id="logo 4">
<g id="Group">
<path id="Vector" d="M191.491 8.78894H183.151C182.658 8.78894 182.137 8.81992 181.645 8.88189L95.2842 18.4556C94.0389 18.5795 93.3728 19.2301 93.3728 20.5314V21.5229C93.3728 22.6382 94.2416 23.5677 95.2842 23.5677H191.491C193.576 23.5677 195.285 21.7397 195.285 19.509V12.8477C195.285 10.6169 193.576 8.78894 191.491 8.78894Z" fill="white"/>
<g id="Group_2">
<path id="Vector_2" d="M38.6664 57.8656H36.4654C35.9441 57.8656 35.5097 57.4009 35.5097 56.8432V55.7278C33.2218 57.153 30.818 58.2374 28.1537 58.2374C24.0992 58.2374 20.3633 56.3475 20.3633 49.965V49.3454C20.3633 43.8304 23.3752 41.073 31.8896 41.073H35.4228V39.0281C35.4228 34.7215 34.0327 33.2343 30.2968 33.2343C27.198 33.2343 24.8811 33.4512 22.9697 33.6371C22.8829 33.6371 22.8249 33.6371 22.738 33.6371C22.3036 33.6371 21.8692 33.4822 21.8692 32.8316V31.0346C21.8692 30.4769 22.2168 30.167 22.8829 30.0741C24.8522 29.7023 27.0532 29.4235 30.2968 29.4235C36.9577 29.4235 39.6221 33.0175 39.6221 39.0281V56.8742C39.6221 57.4319 39.2166 57.8656 38.6664 57.8656ZM35.4228 44.2642H31.8896C26.0975 44.2642 24.5626 45.6584 24.5626 49.2834V49.9031C24.5626 53.59 26.1844 54.5505 28.9646 54.5505C31.1656 54.5505 33.1349 53.8379 35.4228 52.5056V44.2642Z" fill="white"/>
<path id="Vector_3" d="M62.5878 57.8656H48.1364C46.0802 57.8656 45.2114 56.4714 45.2114 55.0462V54.0857C45.2114 52.6605 45.501 51.886 46.3119 50.7706L58.6491 34.3497C58.736 34.1948 58.8518 34.0399 58.8518 33.885C58.8518 33.6681 58.765 33.5132 58.3595 33.5132H46.7463C46.225 33.5132 45.7906 33.0484 45.7906 32.4907V30.7557C45.7906 30.198 46.225 29.7333 46.7463 29.7333H60.7922C62.7615 29.7333 63.4566 30.6937 63.4566 32.2429V33.4822C63.4566 34.5666 63.1091 35.3102 62.3561 36.3016L49.7872 53.1253C49.5845 53.3421 49.5555 53.528 49.5555 53.683C49.5555 53.9308 49.6134 54.0857 49.932 54.0857H62.5588C63.0801 54.0857 63.5145 54.5505 63.5145 55.1082V56.8432C63.5435 57.4319 63.1091 57.8656 62.5878 57.8656Z" fill="white"/>
<path id="Vector_4" d="M96.6742 57.8656H94.3864C93.8651 57.8656 93.4307 57.4009 93.4307 56.8432V29.5783C93.4307 29.0206 93.8651 28.5559 94.3864 28.5559H96.6742C97.1955 28.5559 97.6299 29.0206 97.6299 29.5783V56.8432C97.6299 57.4318 97.1955 57.8656 96.6742 57.8656Z" fill="white"/>
<path id="Vector_5" d="M128.386 29.7333L122.362 52.9703C121.175 57.5248 118.25 58.3303 115.441 58.3303C112.632 58.3303 109.765 57.5248 108.548 52.9703L102.582 29.7333C102.524 29.6403 102.524 29.5164 102.524 29.4234C102.524 28.8967 102.872 28.5559 103.277 28.5559H109.591C110.083 28.5559 110.46 29.0207 110.604 29.6403L114.717 49.6861C114.862 50.4607 115.093 50.7705 115.441 50.7705C115.788 50.7705 116.049 50.4607 116.194 49.6861L120.306 29.6403C120.451 29.0207 120.827 28.5559 121.32 28.5559H127.633C128.068 28.5559 128.444 28.9277 128.444 29.4234C128.444 29.5474 128.444 29.6403 128.386 29.7333Z" fill="white"/>
<path id="Vector_6" d="M152.481 57.8655H147.124C146.602 57.8655 146.168 57.4008 146.168 56.8431V56.0376C144.314 57.4628 142.403 58.3303 139.507 58.3303C135.337 58.3303 131.34 56.1925 131.34 49.5312V49.0664C131.34 43.0868 134.931 40.4222 143.098 40.4222H145.676V38.5943C145.676 35.6819 144.343 35.0622 142.084 35.0622C139.015 35.0622 135.626 35.2791 134.149 35.434H133.918C133.425 35.434 133.049 35.1862 133.049 34.5045V30.3529C133.049 29.7952 133.396 29.3924 133.947 29.2375C135.713 28.7727 139.073 28.1531 142.229 28.1531C149.122 28.1531 153.408 31.1274 153.408 38.5943V56.8431C153.437 57.4318 153.003 57.8655 152.481 57.8655ZM145.849 45.3485H143.127C139.768 45.3485 138.928 46.5878 138.928 49.0974V49.5622C138.928 51.7 139.941 52.1337 141.94 52.1337C143.388 52.1337 144.72 51.607 145.849 51.0184V45.3485Z" fill="white"/>
<path id="Vector_7" d="M194.271 57.8656H188.479C187.958 57.8656 187.524 57.3389 187.524 56.7812V39.3689C187.524 36.0848 186.8 35.1243 184.599 35.1243C183.788 35.1243 182.34 35.3412 180.921 36.0538C181.008 37.0762 181.065 38.2536 181.065 39.3689V56.8122C181.065 57.3699 180.631 57.8966 180.11 57.8966H174.318C173.796 57.8966 173.304 57.3699 173.304 56.8122V39.3689C173.304 36.0848 172.725 35.1243 170.524 35.1243C169.626 35.1243 168.381 35.651 166.904 36.4566V56.8122C166.904 57.3699 166.469 57.8966 165.948 57.8966H160.156C159.635 57.8966 159.142 57.3699 159.142 56.8122V29.5784C159.142 29.0207 159.577 28.556 160.098 28.556H165.543C166.064 28.556 166.498 29.0207 166.498 29.5784V30.6938C168.497 29.2686 170.813 28.1222 173.565 28.1222C176.113 28.1222 177.88 28.8968 179.212 30.6318C181.992 28.9587 183.904 28.1222 187.002 28.1222C193.316 28.1222 195.227 32.6147 195.227 39.3379V56.8122C195.285 57.3699 194.793 57.8656 194.271 57.8656Z" fill="white"/>
<path id="Vector_8" d="M73.3611 44.636V56.8742C73.3611 57.4319 72.9267 57.8966 72.4054 57.8966H70.1176C69.5963 57.8966 69.1619 57.4319 69.1619 56.8742V20.4384C69.1619 19.8808 69.5963 19.416 70.1176 19.416H72.4054C72.9267 19.416 73.3611 19.8808 73.3611 20.4384V41.7236V44.636Z" fill="white"/>
<path id="Vector_9" d="M88.5366 56.5334L78.2556 43.2108L88.5366 29.8882C88.942 29.3615 88.5945 28.5559 87.9574 28.5559H85.2061C84.7428 28.5559 84.3084 28.7728 84.0188 29.1756L73.1875 43.2417L84.0188 57.3079C84.3084 57.6797 84.7428 57.9276 85.2061 57.9276H87.9574C88.5945 57.8656 88.942 57.091 88.5366 56.5334Z" fill="white"/>
</g>
</g>
</g>
</svg>
