<svg width="56" height="56" viewBox="0 0 56 56" fill="none" xmlns="http://www.w3.org/2000/svg">
<path d="M4 12.5747H15.7503V53.0002H6C4.89543 53.0002 4 52.1048 4 51.0002V12.5747Z" fill="#EBF1FF"/>
<path d="M4 12.5747H15.7503V53.0002H6C4.89543 53.0002 4 52.1048 4 51.0002V12.5747Z" fill="#EBF1FF"/>
<path d="M4 12.0909L15.7503 3V53H6C4.89543 53 4 52.1046 4 51V12.0909Z" fill="#DBEEFF"/>
<path d="M15.7503 3L4.77617 11.4904C4.2866 11.8692 4 12.4533 4 13.0723V52C4 52.5523 4.44772 53 5 53H6.13642V15.1093C6.13642 14.1814 6.56577 13.3057 7.29932 12.7375L15.7503 6.19149V3Z" fill="white"/>
<path d="M15.7503 3L9.87516 7.54545L6.93758 9.81818L4.77617 11.4904C4.2866 11.8692 4 12.4533 4 13.0723V19.7614V22.3182V32.5455V52C4 52.5523 4.44771 53 5 53H15.7503" stroke="url(#paint0_linear_717_8489)" stroke-width="0.5" stroke-linecap="round" stroke-linejoin="round"/>
<path d="M25.5003 3H15.75V20.0213H27.5003V5C27.5003 3.89543 26.6049 3 25.5003 3Z" fill="#99CEFF"/>
<path d="M27.5003 20.0213V5C27.5003 3.89543 26.6049 3 25.5003 3H15.75V20.0213" stroke="url(#paint1_linear_717_8489)" stroke-width="0.5" stroke-linecap="round" stroke-linejoin="round"/>
<path d="M49 20.0215H44.4961H40L44.4961 28V36.4637V52.9058H50C50.5523 52.9058 51 52.4581 51 51.9058V22.0215C51 20.9169 50.1046 20.0215 49 20.0215Z" fill="#99CEFF"/>
<path d="M42.4988 20.0215H15.75V52.9059H44.4988V22.0215C44.4988 20.9169 43.6034 20.0215 42.4988 20.0215Z" fill="#EBF5FF"/>
<path d="M23.0016 35.5727L23.0002 42.9998C23.0001 43.5522 23.4478 44 24.0002 44H39.9987C40.5509 44 40.9986 43.5525 40.9987 43.0003L41 38.203V24.5L34.1082 32.2662V33.5727C34.1082 34.6773 33.2127 35.5727 32.1082 35.5727H23.0016Z" fill="#ADD8FF"/>
<path d="M40 50H19C18.4477 50 18 50.4477 18 51V52C18 52.5523 18.4477 53 19 53H40C40.5523 53 41 52.5523 41 52V51C41 50.4477 40.5523 50 40 50Z" fill="url(#paint2_linear_717_8489)" stroke="url(#paint3_linear_717_8489)" stroke-opacity="0.4" stroke-width="0.5" stroke-linejoin="round"/>
<path d="M40 46H24C23.4477 46 23 46.4477 23 47V48C23 48.5523 23.4477 49 24 49H40C40.5523 49 41 48.5523 41 48V47C41 46.4477 40.5523 46 40 46Z" fill="url(#paint4_linear_717_8489)" stroke="url(#paint5_linear_717_8489)" stroke-opacity="0.4" stroke-width="0.5" stroke-linejoin="round"/>
<path d="M15.75 38.0099V53.0002H44.5917V22.0215C44.5917 20.9169 43.6963 20.0215 42.5917 20.0215H15.75V23.084" stroke="url(#paint6_linear_717_8489)" stroke-width="0.5" stroke-linecap="round" stroke-linejoin="round"/>
<path d="M44.5938 53.0002H50.0017C50.554 53.0002 51.0017 52.5525 51.0017 52.0002V22.0215C51.0017 20.9169 50.1063 20.0215 49.0017 20.0215H42.5938" stroke="url(#paint7_linear_717_8489)" stroke-width="0.5" stroke-linecap="round" stroke-linejoin="round"/>
<path d="M18.381 24.2764C17.7911 24.2764 17.2313 24.5368 16.8513 24.9879L10.4102 32.635V33.9785C10.4102 35.0831 11.3056 35.9785 12.4102 35.9785H32.3478C33.4524 35.9785 34.3478 35.0831 34.3478 33.9785V32.635L40.9728 24.7696C41.1372 24.5745 40.9985 24.2764 40.7434 24.2764H18.381Z" fill="url(#paint8_linear_717_8489)" stroke="url(#paint9_linear_717_8489)" stroke-opacity="0.4" stroke-width="0.5" stroke-linejoin="round"/>
<path d="M10.4102 32.7869H34.3932V33.9784C34.3932 35.0829 33.4978 35.9784 32.3932 35.9784H12.4102C11.3056 35.9784 10.4102 35.0829 10.4102 33.9784V32.7869Z" fill="url(#paint10_linear_717_8489)" stroke="url(#paint11_linear_717_8489)" stroke-opacity="0.4" stroke-width="0.5" stroke-linejoin="round"/>
<defs>
<linearGradient id="paint0_linear_717_8489" x1="6.066" y1="51.0824" x2="12.9909" y2="2.55821" gradientUnits="userSpaceOnUse">
<stop stop-color="#1B217C"/>
<stop offset="1" stop-color="#1B217C" stop-opacity="0"/>
</linearGradient>
<linearGradient id="paint1_linear_717_8489" x1="17.816" y1="18.8366" x2="20.4922" y2="-11.5168" gradientUnits="userSpaceOnUse">
<stop stop-color="#1B217C"/>
<stop offset="1" stop-color="#1B217C" stop-opacity="0"/>
</linearGradient>
<linearGradient id="paint2_linear_717_8489" x1="40.2418" y1="52.6325" x2="18.5055" y2="52.6325" gradientUnits="userSpaceOnUse">
<stop stop-color="#008FFF"/>
<stop offset="1" stop-color="#8BCEFF"/>
</linearGradient>
<linearGradient id="paint3_linear_717_8489" x1="41.4452" y1="53" x2="23.7423" y2="36.4916" gradientUnits="userSpaceOnUse">
<stop stop-color="white"/>
<stop offset="1" stop-color="white" stop-opacity="0"/>
</linearGradient>
<linearGradient id="paint4_linear_717_8489" x1="40.4125" y1="48.6325" x2="23.6125" y2="48.6325" gradientUnits="userSpaceOnUse">
<stop stop-color="#008FFF"/>
<stop offset="1" stop-color="#8BCEFF"/>
</linearGradient>
<linearGradient id="paint5_linear_717_8489" x1="41.3427" y1="49" x2="24.5072" y2="36.8659" gradientUnits="userSpaceOnUse">
<stop stop-color="white"/>
<stop offset="1" stop-color="white" stop-opacity="0"/>
</linearGradient>
<linearGradient id="paint6_linear_717_8489" x1="23.4623" y1="50.7048" x2="28.0743" y2="-8.20079" gradientUnits="userSpaceOnUse">
<stop stop-color="#1B217C"/>
<stop offset="1" stop-color="#1B217C" stop-opacity="0"/>
</linearGradient>
<linearGradient id="paint7_linear_717_8489" x1="46.499" y1="50.6171" x2="64.074" y2="-2.68525" gradientUnits="userSpaceOnUse">
<stop stop-color="#1B217C"/>
<stop offset="1" stop-color="#1B217C" stop-opacity="0"/>
</linearGradient>
<linearGradient id="paint8_linear_717_8489" x1="40.367" y1="34.5451" x2="11.091" y2="34.5451" gradientUnits="userSpaceOnUse">
<stop stop-color="#008FFF"/>
<stop offset="1" stop-color="#8BCEFF"/>
</linearGradient>
<linearGradient id="paint9_linear_717_8489" x1="41.988" y1="35.9785" x2="1.59756" y2="22.9732" gradientUnits="userSpaceOnUse">
<stop stop-color="white"/>
<stop offset="1" stop-color="white" stop-opacity="0"/>
</linearGradient>
<linearGradient id="paint10_linear_717_8489" x1="33.6026" y1="35.5874" x2="10.9373" y2="35.5874" gradientUnits="userSpaceOnUse">
<stop stop-color="#008FFF"/>
<stop offset="1" stop-color="#8BCEFF"/>
</linearGradient>
<linearGradient id="paint11_linear_717_8489" x1="34.8575" y1="35.9784" x2="16.0546" y2="18.7918" gradientUnits="userSpaceOnUse">
<stop stop-color="white"/>
<stop offset="1" stop-color="white" stop-opacity="0"/>
</linearGradient>
</defs>
</svg>
