<svg width="32" height="32" viewBox="0 0 32 32" fill="none" xmlns="http://www.w3.org/2000/svg">
<g id="clipboard-tick">
<g id="Vector">
<path d="M12.6842 5.09091H19.3158C19.9262 5.09091 20.4211 5.57933 20.4211 6.18182H23.1842C24.0636 6.18182 24.907 6.52662 25.5288 7.14038C26.1507 7.75413 26.5 8.58657 26.5 9.45455V22.1527C26.5 23.7035 25.8759 25.1908 24.7648 26.2874C23.6538 27.384 22.147 28 20.5758 28H11.4242C9.85301 28 8.34616 27.384 7.23515 26.2874C6.12415 25.1908 5.5 23.7035 5.5 22.1527V9.45455C5.5 8.58657 5.84934 7.75413 6.47117 7.14038C7.093 6.52662 7.93639 6.18182 8.81579 6.18182H11.5789C11.5789 5.57933 12.0738 5.09091 12.6842 5.09091Z" fill="#008FFF" fill-opacity="0.34"/>
<path fill-rule="evenodd" clip-rule="evenodd" d="M20.6382 15.2172C21.0762 15.6368 21.0867 16.3275 20.6615 16.7598L17.1299 20.3512C16.2878 21.2076 14.9049 21.2372 14.0258 20.4178L12.4779 18.9749C12.0342 18.5612 12.0142 17.8708 12.4333 17.4328C12.8524 16.9948 13.552 16.975 13.9957 17.3887L15.5436 18.8316L19.0753 15.2402C19.5004 14.8079 20.2002 14.7976 20.6382 15.2172Z" fill="#2341DF"/>
<path fill-rule="evenodd" clip-rule="evenodd" d="M10.4737 6.18182C10.4737 4.97683 11.4634 4 12.6842 4H19.3158C20.5366 4 21.5263 4.97683 21.5263 6.18182V8.36364C21.5263 9.56862 20.5366 10.5455 19.3158 10.5455H12.6842C11.4634 10.5455 10.4737 9.56862 10.4737 8.36364V6.18182ZM19.3158 6.18182H12.6842V8.36364H19.3158V6.18182Z" fill="#2341DF"/>
</g>
</g>
</svg>
