<svg width="49" height="48" viewBox="0 0 49 48" fill="none" xmlns="http://www.w3.org/2000/svg">
<path d="M15.7608 17.6962C15.8153 17.4239 15.4788 17.3328 15.2402 17.475C14.2139 18.0866 12.2519 18.5001 10 18.5001C7.74823 18.5001 5.78615 18.0866 4.75987 17.475C4.52133 17.3328 4.1848 17.4239 4.23926 17.6962L4.39616 18.4807C4.86358 20.8178 6.91565 22.5001 9.29906 22.5001L10.701 22.5001C13.0844 22.5001 15.1365 20.8178 15.6039 18.4807L15.7608 17.6962Z" fill="#2341DF" fill-opacity="0.3"/>
<path d="M16 16.5C16 17.6046 13.3137 18.5 10 18.5C6.68629 18.5 4 17.6046 4 16.5C4 15.3954 6.68629 14.5 10 14.5C13.3137 14.5 16 15.3954 16 16.5Z" fill="#2341DF" fill-opacity="0.15"/>
<path fillRule="evenodd" clipRule="evenodd" d="M4.50335 16.4668C4.51638 16.3984 4.57374 16.2776 4.781 16.1142C5.02199 15.9243 5.4017 15.7314 5.91547 15.5601C6.9378 15.2194 8.38193 15 10 15C11.6181 15 13.0622 15.2194 14.0845 15.5601C14.5983 15.7314 14.978 15.9243 15.219 16.1142C15.4268 16.2779 15.4839 16.3989 15.4967 16.4673L15.4674 16.6141C15.432 16.6828 15.3604 16.7744 15.219 16.8858C14.978 17.0757 14.5983 17.2686 14.0845 17.4399C13.0622 17.7806 11.6181 18 10 18C8.38193 18 6.9378 17.7806 5.91547 17.4399C5.4017 17.2686 5.02199 17.0757 4.781 16.8858C4.64005 16.7747 4.56843 16.6833 4.53293 16.6147L4.50335 16.4668ZM3.5 16.5C3.5 16.6459 3.52617 16.7828 3.57232 16.9107L3.90592 18.5786C4.42009 21.1495 6.67737 23 9.29911 23H10.7011C13.3228 23 15.5801 21.1495 16.0943 18.5786L16.4281 16.9094C16.4722 16.787 16.4979 16.6561 16.4999 16.5171C16.5003 16.5051 16.5003 16.493 16.4999 16.4811C16.4923 15.995 16.194 15.6094 15.838 15.3288C15.4717 15.0402 14.9728 14.8021 14.4008 14.6114C13.2515 14.2284 11.6956 14 10 14C8.30436 14 6.74849 14.2284 5.59925 14.6114C5.02724 14.8021 4.52826 15.0402 4.16202 15.3288C3.80142 15.613 3.5 16.005 3.5 16.5ZM15.1747 18.0773L15.1137 18.3825C14.693 20.4859 12.8461 22 10.7011 22H9.29911C7.15405 22 5.30718 20.4859 4.8865 18.3825L4.82548 18.0774C5.06169 18.1925 5.32188 18.2961 5.59925 18.3886C6.74849 18.7716 8.30436 19 10 19C11.6956 19 13.2515 18.7716 14.4008 18.3886C14.6782 18.2961 14.9385 18.1924 15.1747 18.0773Z" fill="#040A1F" fill-opacity="0.87"/>
<path d="M44.7608 12.6962C44.8153 12.4239 44.4788 12.3328 44.2402 12.475C43.2139 13.0866 41.2519 13.5001 39 13.5001C36.7482 13.5001 34.7861 13.0866 33.7599 12.475C33.5213 12.3328 33.1848 12.4239 33.2393 12.6962L33.3962 13.4807C33.8636 15.8178 35.9157 17.5001 38.2991 17.5001L39.701 17.5001C42.0844 17.5001 44.1365 15.8178 44.6039 13.4807L44.7608 12.6962Z" fill="#2341DF" fill-opacity="0.15"/>
<path fillRule="evenodd" clipRule="evenodd" d="M32.5 11.5C32.5 11.6459 32.5262 11.7828 32.5723 11.9107L32.9059 13.5786C33.4201 16.1495 35.6774 18 38.2991 18H39.7011C42.3228 18 44.5801 16.1495 45.0943 13.5786L45.4281 11.9094C45.4722 11.787 45.4979 11.6561 45.4999 11.5171C45.5003 11.5051 45.5003 11.493 45.4999 11.4811C45.4923 10.995 45.194 10.6094 44.838 10.3288C44.4717 10.0402 43.9728 9.80211 43.4008 9.61144C42.2515 9.22836 40.6956 9 39 9C37.3044 9 35.7485 9.22836 34.5992 9.61144C34.0272 9.80211 33.5283 10.0402 33.162 10.3288C32.8014 10.613 32.5 11.005 32.5 11.5ZM33.5034 11.4668C33.5164 11.3984 33.5737 11.2776 33.781 11.1142C34.022 10.9243 34.4017 10.7314 34.9155 10.5601C35.9378 10.2194 37.3819 10 39 10C40.6181 10 42.0622 10.2194 43.0845 10.5601C43.5983 10.7314 43.978 10.9243 44.219 11.1142C44.4268 11.2779 44.4839 11.3989 44.4967 11.4673L44.4674 11.6141C44.432 11.6828 44.3604 11.7744 44.219 11.8858C43.978 12.0757 43.5983 12.2686 43.0845 12.4399C42.0622 12.7806 40.6181 13 39 13C37.3819 13 35.9378 12.7806 34.9155 12.4399C34.4017 12.2686 34.022 12.0757 33.781 11.8858C33.6401 11.7747 33.5684 11.6833 33.5329 11.6147L33.5034 11.4668ZM44.1747 13.0773L44.1137 13.3825C43.693 15.4859 41.8461 17 39.7011 17H38.2991C36.154 17 34.3072 15.4859 33.8865 13.3825L33.8255 13.0774C34.0617 13.1925 34.3219 13.2961 34.5992 13.3886C35.7485 13.7716 37.3044 14 39 14C40.6956 14 42.2515 13.7716 43.4008 13.3886C43.6782 13.2961 43.9385 13.1924 44.1747 13.0773Z" fill="#040A1F" fill-opacity="0.87"/>
<circle cx="24.5" cy="21.5" r="3" fill="#2341DF" fill-opacity="0.8"/>
<path d="M28.4719 21.977C28.4904 21.8206 28.5 21.6614 28.5 21.5Lnan nanL28.5 21.5C28.5 20.9472 28.8386 20.4028 29.3837 20.3103L43 18C42.6916 18.9252 41.904 19.6091 40.9447 19.7848L28.4719 21.977Z" fill="#2341DF" fill-opacity="0.15"/>
<path d="M18.4761 22.2204C19.3153 22.073 20.0862 22.6916 20.4993 23.4367Lnan nanL20.4993 23.4367L8.2733 25.6753C7.19712 25.8724 6.10688 25.4103 5.5 24.5L18.4761 22.2204Z" fill="#2341DF" fill-opacity="0.15"/>
<path d="M21.0616 44.5H21.5L22.7843 35.9382C22.9205 35.0299 23.4653 34.2341 24.2627 33.7785L26.5 32.5H23.8423C22.4657 32.5 21.2658 33.4369 20.9319 34.7724L19.1213 42.0149C18.8057 43.2772 19.7604 44.5 21.0616 44.5Z" fill="#2341DF" fill-opacity="0.15"/>
<path fillRule="evenodd" clipRule="evenodd" d="M25.0002 14.5469L25.0002 17C25.0002 17.2761 24.7763 17.5 24.5002 17.5C24.2241 17.5 24.0002 17.2761 24.0002 17L24.0002 14.5469C24.0002 14.2707 24.2241 14.0469 24.5002 14.0469C24.7764 14.0469 25.0002 14.2707 25.0002 14.5469ZM25.0002 3.5L25.0002 12C25.0002 12.2761 24.7763 12.5 24.5002 12.5C24.2241 12.5 24.0002 12.2761 24.0002 12L24.0002 3.5C24.0002 3.22386 24.2241 3 24.5002 3C24.7764 3 25.0002 3.22386 25.0002 3.5ZM24.0002 32H23.0618C21.9146 32 20.9147 32.7807 20.6364 33.8937L18.6364 41.8937C18.242 43.4715 19.4354 45 21.0618 45H27.9387C29.5651 45 30.7585 43.4715 30.364 41.8937L28.364 33.8937C28.0858 32.7807 27.0858 32 25.9387 32H25.0002V26.5C25.0002 26.2239 24.7764 26 24.5002 26C24.2241 26 24.0002 26.2239 24.0002 26.5V32ZM24.5002 33H25.9387C26.627 33 27.2269 33.4684 27.3939 34.1362L29.3939 42.1362C29.6306 43.0829 28.9145 44 27.9387 44H21.0618C20.0859 44 19.3699 43.0829 19.6066 42.1362L21.6066 34.1362C21.7735 33.4684 22.3735 33 23.0618 33H24.5002Z" fill="#040A1F" fill-opacity="0.87"/>
<path fillRule="evenodd" clipRule="evenodd" d="M34.6409 17.387C34.9133 17.3416 35.1709 17.5257 35.2163 17.7981C35.2616 18.0704 35.0776 18.328 34.8052 18.3734L28.0824 19.4932C27.81 19.5385 27.5524 19.3545 27.5071 19.0821C27.4617 18.8097 27.6457 18.5521 27.9181 18.5068L34.6409 17.387ZM42.6911 18.064C42.6432 17.7921 42.8247 17.5327 43.0967 17.4848C43.3686 17.4368 43.628 17.6184 43.6759 17.8904C43.8677 18.9781 43.1414 20.0155 42.0536 20.2073L28.5839 22.4929C28.3117 22.5391 28.0535 22.3559 28.0073 22.0836C27.9611 21.8114 28.1444 21.5532 28.4166 21.507L41.88 19.2225L41.8814 19.2222C42.4245 19.1256 42.7869 18.6074 42.6911 18.064ZM20.4134 23.0076C20.6854 22.9596 20.9447 23.1412 20.9927 23.4131C21.0406 23.6851 20.859 23.9444 20.5871 23.9924L7.58534 26.285C6.49755 26.4768 5.46023 25.7504 5.26842 24.6626C5.22047 24.3907 5.40205 24.1314 5.674 24.0834C5.94595 24.0355 6.20528 24.217 6.25323 24.489C6.34913 25.0329 6.86779 25.396 7.41169 25.3001L20.4134 23.0076ZM20.4151 20.0073C20.6872 19.9602 20.9459 20.1427 20.993 20.4148C21.04 20.6869 20.8576 20.9456 20.5855 20.9926L17.2048 21.5772C16.9327 21.6242 16.674 21.4418 16.6269 21.1697C16.5799 20.8976 16.7623 20.6389 17.0344 20.5918L20.4151 20.0073Z" fill="#040A1F" fill-opacity="0.87"/>
<path d="M42.4999 32.5C42.4999 34.1569 41.1568 35.5 39.4999 35.5C37.8431 35.5 36.4999 34.1569 36.4999 32.5C36.4999 30.8431 37.8431 29.5 39.4999 29.5C41.1568 29.5 42.4999 30.8431 42.4999 32.5Z" fill="#2341DF" fill-opacity="0.08"/>
<path d="M10.1875 36.0069C10.123 35.8328 9.87676 35.8328 9.81233 36.0069L8.81092 38.7132C8.7939 38.7592 8.76057 38.7973 8.71728 38.8203L6.8318 39.8234C6.69038 39.8987 6.69038 40.1013 6.8318 40.1766L8.71728 41.1796C8.76057 41.2027 8.7939 41.2408 8.81092 41.2868L9.81233 43.9931C9.87676 44.1672 10.123 44.1672 10.1875 43.9931L11.1889 41.2868C11.2059 41.2408 11.2392 41.2027 11.2825 41.1796L13.168 40.1766C13.3094 40.1013 13.3094 39.8987 13.168 39.8234L11.2825 38.8203C11.2392 38.7973 11.2059 38.7592 11.1889 38.7132L10.1875 36.0069Z" fill="#2341DF" fill-opacity="0.08"/>
<path d="M7.47485 5C7.47485 4.72386 7.251 4.5 6.97485 4.5C6.69871 4.5 6.47485 4.72386 6.47485 5V5.97485H5.5C5.22386 5.97485 5 6.19871 5 6.47485C5 6.751 5.22386 6.97485 5.5 6.97485H6.47485V7.94976C6.47485 8.2259 6.69871 8.44976 6.97485 8.44976C7.251 8.44976 7.47485 8.2259 7.47485 7.94976V6.97485H8.44976C8.7259 6.97485 8.94976 6.751 8.94976 6.47485C8.94976 6.19871 8.7259 5.97485 8.44976 5.97485H7.47485V5Z" fill="#2341DF" fill-opacity="0.08"/>
</svg>
