<svg width="32" height="32" viewBox="0 0 32 32" fill="none" xmlns="http://www.w3.org/2000/svg">
<g id="Compare_fancy">
<g id="Vector">
<path d="M24.9919 7.67776C25.5764 7.52971 25.9317 6.92964 25.7856 6.33745C25.6395 5.74526 25.0472 5.38521 24.4627 5.53326L7.00814 9.95426C6.42364 10.1023 6.06826 10.7024 6.21439 11.2946C6.36052 11.8868 6.95281 12.2468 7.53731 12.0988L24.9919 7.67776Z" fill="#008FFF" fill-opacity="0.34"/>
<path d="M18.1818 16.5528C17.5793 16.5528 17.0909 17.0476 17.0909 17.658C17.0909 20.7101 19.533 23.1843 22.5455 23.1843C25.5579 23.1843 28 20.7101 28 17.658C28 17.0476 27.5116 16.5528 26.9091 16.5528H18.1818Z" fill="#008FFF" fill-opacity="0.34"/>
<path d="M5.09091 19.8685C4.48842 19.8685 4 20.3633 4 20.9738C4 24.0258 6.44208 26.5 9.45455 26.5C12.467 26.5 14.9091 24.0258 14.9091 20.9738C14.9091 20.3633 14.4207 19.8685 13.8182 19.8685H5.09091Z" fill="#008FFF" fill-opacity="0.34"/>
<path d="M17.0909 7.40043V6.60552C17.0909 5.99511 16.6025 5.50027 16 5.50027C15.3975 5.50027 14.9091 5.99511 14.9091 6.60552V7.71077C14.9091 7.79176 14.9177 7.87071 14.934 7.94675L17.0909 7.40043Z" fill="#2341DF"/>
<path d="M8.36364 11.8895V19.8685H10.5455V11.3368L8.36364 11.8895Z" fill="#2341DF"/>
<path d="M23.6364 8.02109L21.4545 8.57371V16.5528H23.6364V8.02109Z" fill="#2341DF"/>
</g>
</g>
</svg>
