<svg width="32" height="32" viewBox="0 0 32 32" fill="none" xmlns="http://www.w3.org/2000/svg">
<g id="company-name">
<g id="Vector">
<path d="M6.18182 10.5455C5.57933 10.5455 5.09091 11.0339 5.09091 11.6364V21.4545C5.09091 22.057 5.57933 22.5455 6.18182 22.5455H21.4545C22.057 22.5455 22.5455 22.057 22.5455 21.4545V11.6364C22.5455 11.0339 22.057 10.5455 21.4545 10.5455H6.18182Z" fill="#008FFF" fill-opacity="0.34"/>
<path d="M26.9091 5.09091C26.9091 4.48842 26.4207 4 25.8182 4C25.2157 4 24.7273 4.48842 24.7273 5.09091V6.18182H19.2727C19.2727 5.57933 18.7843 5.09091 18.1818 5.09091C17.5793 5.09091 17.0909 5.57933 17.0909 6.18182H10.5455C10.5455 5.57933 10.057 5.09091 9.45455 5.09091C8.85205 5.09091 8.36364 5.57933 8.36364 6.18182H5.09091C4.48842 6.18182 4 6.67023 4 7.27273C4 7.87522 4.48842 8.36364 5.09091 8.36364H8.36364V10.5455H10.5455V8.36364H17.0909V10.5455H19.2727V8.36364H24.7273V26.9091C24.7273 27.5116 25.2157 28 25.8182 28C26.4207 28 26.9091 27.5116 26.9091 26.9091V8.36364C27.5116 8.36364 28 7.87522 28 7.27273C28 6.67023 27.5116 6.18182 26.9091 6.18182V5.09091Z" fill="#2341DF"/>
<path d="M11.0909 15.4545C10.4884 15.4545 10 15.943 10 16.5455C10 17.1479 10.4884 17.6364 11.0909 17.6364H16.5455C17.1479 17.6364 17.6364 17.1479 17.6364 16.5455C17.6364 15.943 17.1479 15.4545 16.5455 15.4545H11.0909Z" fill="#2341DF"/>
</g>
</g>
</svg>
