<svg width="48" height="48" viewBox="0 0 48 48" fill="none" xmlns="http://www.w3.org/2000/svg">
<g id="USP">
<g id="compare">
<g id="left">
<path id="Subtract" d="M15.2608 17.6962C15.3153 17.4239 14.9788 17.3328 14.7402 17.475C13.7139 18.0866 11.7519 18.5001 9.50004 18.5001C7.24823 18.5001 5.28615 18.0866 4.25987 17.475C4.02133 17.3328 3.6848 17.4239 3.73926 17.6962L3.89616 18.4807C4.36358 20.8178 6.41565 22.5001 8.79906 22.5001L10.201 22.5001C12.5844 22.5001 14.6365 20.8178 15.1039 18.4807L15.2608 17.6962Z" fill="#2341DF" fill-opacity="0.3"/>
<path id="Ellipse 586" d="M15.5 16.5C15.5 17.6046 12.8137 18.5 9.5 18.5C6.18629 18.5 3.5 17.6046 3.5 16.5C3.5 15.3954 6.18629 14.5 9.5 14.5C12.8137 14.5 15.5 15.3954 15.5 16.5Z" fill="#2341DF" fill-opacity="0.15"/>
<path id="Union" fill-rule="evenodd" clip-rule="evenodd" d="M4.00335 16.4668C4.01638 16.3984 4.07374 16.2776 4.281 16.1142C4.52199 15.9243 4.9017 15.7314 5.41547 15.5601C6.4378 15.2194 7.88193 15 9.5 15C11.1181 15 12.5622 15.2194 13.5845 15.5601C14.0983 15.7314 14.478 15.9243 14.719 16.1142C14.9268 16.2779 14.9839 16.3989 14.9967 16.4673L14.9674 16.6141C14.932 16.6828 14.8604 16.7744 14.719 16.8858C14.478 17.0757 14.0983 17.2686 13.5845 17.4399C12.5622 17.7806 11.1181 18 9.5 18C7.88193 18 6.4378 17.7806 5.41547 17.4399C4.9017 17.2686 4.52199 17.0757 4.281 16.8858C4.14005 16.7747 4.06843 16.6833 4.03293 16.6147L4.00335 16.4668ZM3 16.5C3 16.6459 3.02617 16.7828 3.07232 16.9107L3.40592 18.5786C3.92009 21.1495 6.17737 23 8.79911 23H10.2011C12.8228 23 15.0801 21.1495 15.5943 18.5786L15.9281 16.9094C15.9722 16.787 15.9979 16.6561 15.9999 16.5171C16.0003 16.5051 16.0003 16.493 15.9999 16.4811C15.9923 15.995 15.694 15.6094 15.338 15.3288C14.9717 15.0402 14.4728 14.8021 13.9008 14.6114C12.7515 14.2284 11.1956 14 9.5 14C7.80436 14 6.24849 14.2284 5.09925 14.6114C4.52724 14.8021 4.02826 15.0402 3.66202 15.3288C3.30142 15.613 3 16.005 3 16.5ZM14.6747 18.0773L14.6137 18.3825C14.193 20.4859 12.3461 22 10.2011 22H8.79911C6.65405 22 4.80718 20.4859 4.3865 18.3825L4.32548 18.0774C4.56169 18.1925 4.82188 18.2961 5.09925 18.3886C6.24849 18.7716 7.80436 19 9.5 19C11.1956 19 12.7515 18.7716 13.9008 18.3886C14.1782 18.2961 14.4385 18.1924 14.6747 18.0773Z" fill="#040A1F" fill-opacity="0.87"/>
</g>
<g id="right">
<path id="Subtract_2" d="M44.2608 12.6962C44.3153 12.4239 43.9788 12.3328 43.7402 12.475C42.7139 13.0866 40.7519 13.5001 38.5 13.5001C36.2482 13.5001 34.2861 13.0866 33.2599 12.475C33.0213 12.3328 32.6848 12.4239 32.7393 12.6962L32.8962 13.4807C33.3636 15.8178 35.4157 17.5001 37.7991 17.5001L39.201 17.5001C41.5844 17.5001 43.6365 15.8178 44.1039 13.4807L44.2608 12.6962Z" fill="#2341DF" fill-opacity="0.15"/>
<path id="Union_2" fill-rule="evenodd" clip-rule="evenodd" d="M32 11.5C32 11.6459 32.0262 11.7828 32.0723 11.9107L32.4059 13.5786C32.9201 16.1495 35.1774 18 37.7991 18H39.2011C41.8228 18 44.0801 16.1495 44.5943 13.5786L44.9281 11.9094C44.9722 11.787 44.9979 11.6561 44.9999 11.5171C45.0003 11.5051 45.0003 11.493 44.9999 11.4811C44.9923 10.995 44.694 10.6094 44.338 10.3288C43.9717 10.0402 43.4728 9.80211 42.9008 9.61144C41.7515 9.22836 40.1956 9 38.5 9C36.8044 9 35.2485 9.22836 34.0992 9.61144C33.5272 9.80211 33.0283 10.0402 32.662 10.3288C32.3014 10.613 32 11.005 32 11.5ZM33.0034 11.4668C33.0164 11.3984 33.0737 11.2776 33.281 11.1142C33.522 10.9243 33.9017 10.7314 34.4155 10.5601C35.4378 10.2194 36.8819 10 38.5 10C40.1181 10 41.5622 10.2194 42.5845 10.5601C43.0983 10.7314 43.478 10.9243 43.719 11.1142C43.9268 11.2779 43.9839 11.3989 43.9967 11.4673L43.9674 11.6141C43.932 11.6828 43.8604 11.7744 43.719 11.8858C43.478 12.0757 43.0983 12.2686 42.5845 12.4399C41.5622 12.7806 40.1181 13 38.5 13C36.8819 13 35.4378 12.7806 34.4155 12.4399C33.9017 12.2686 33.522 12.0757 33.281 11.8858C33.1401 11.7747 33.0684 11.6833 33.0329 11.6147L33.0034 11.4668ZM43.6747 13.0773L43.6137 13.3825C43.193 15.4859 41.3461 17 39.2011 17H37.7991C35.654 17 33.8072 15.4859 33.3865 13.3825L33.3255 13.0774C33.5617 13.1925 33.8219 13.2961 34.0992 13.3886C35.2485 13.7716 36.8044 14 38.5 14C40.1956 14 41.7515 13.7716 42.9008 13.3886C43.1782 13.2961 43.4385 13.1924 43.6747 13.0773Z" fill="#040A1F" fill-opacity="0.87"/>
</g>
<g id="scale">
<circle id="Ellipse 606" cx="24" cy="21.5" r="3" fill="#2341DF" fill-opacity="0.8"/>
<g id="Subtract_3">
<path d="M27.9719 21.977C27.9904 21.8206 28 21.6614 28 21.5L-nan -nanL28 21.5C28 20.9472 28.3386 20.4028 28.8837 20.3103L42.5 18C42.1916 18.9252 41.404 19.6091 40.4447 19.7848L27.9719 21.977Z" fill="#2341DF" fill-opacity="0.15"/>
<path d="M17.9761 22.2204C18.8153 22.073 19.5862 22.6916 19.9993 23.4367L-nan -nanL19.9993 23.4367L7.7733 25.6753C6.69712 25.8724 5.60688 25.4103 5 24.5L17.9761 22.2204Z" fill="#2341DF" fill-opacity="0.15"/>
</g>
<path id="Vector 543" d="M20.5616 44.5H21L22.2843 35.9382C22.4205 35.0299 22.9653 34.2341 23.7627 33.7785L26 32.5H23.3423C21.9657 32.5 20.7658 33.4369 20.4319 34.7724L18.6213 42.0149C18.3057 43.2772 19.2604 44.5 20.5616 44.5Z" fill="#2341DF" fill-opacity="0.15"/>
<path id="Union_3" fill-rule="evenodd" clip-rule="evenodd" d="M24.5 14.5469L24.5 17C24.5 17.2761 24.2761 17.5 24 17.5C23.7238 17.5 23.5 17.2761 23.5 17L23.5 14.5469C23.5 14.2707 23.7239 14.0469 24 14.0469C24.2761 14.0469 24.5 14.2707 24.5 14.5469ZM24.5 3.5L24.5 12C24.5 12.2761 24.2761 12.5 24 12.5C23.7238 12.5 23.5 12.2761 23.5 12L23.5 3.5C23.5 3.22386 23.7239 3 24 3C24.2761 3 24.5 3.22386 24.5 3.5ZM23.5 32H22.5615C21.4144 32 20.4144 32.7807 20.1362 33.8937L18.1362 41.8937C17.7417 43.4715 18.9351 45 20.5615 45H27.4384C29.0649 45 30.2583 43.4715 29.8638 41.8937L27.8638 33.8937C27.5856 32.7807 26.5856 32 25.4384 32H24.5V26.5C24.5 26.2239 24.2761 26 24 26C23.7238 26 23.5 26.2239 23.5 26.5V32ZM24 33H25.4384C26.1267 33 26.7267 33.4684 26.8936 34.1362L28.8936 42.1362C29.1303 43.0829 28.4143 44 27.4384 44H20.5615C19.5857 44 18.8696 43.0829 19.1063 42.1362L21.1063 34.1362C21.2733 33.4684 21.8732 33 22.5615 33H24Z" fill="#040A1F" fill-opacity="0.87"/>
<path id="Union_4" fill-rule="evenodd" clip-rule="evenodd" d="M34.1407 17.387C34.413 17.3416 34.6706 17.5257 34.716 17.7981C34.7614 18.0704 34.5773 18.328 34.305 18.3734L27.5822 19.4932C27.3098 19.5385 27.0522 19.3545 27.0068 19.0821C26.9614 18.8097 27.1455 18.5521 27.4179 18.5068L34.1407 17.387ZM42.1909 18.064C42.1429 17.7921 42.3245 17.5327 42.5965 17.4848C42.8684 17.4368 43.1277 17.6184 43.1757 17.8904C43.3675 18.9781 42.6412 20.0155 41.5534 20.2073L28.0837 22.4929C27.8114 22.5391 27.5533 22.3559 27.5071 22.0836C27.4609 21.8114 27.6441 21.5532 27.9164 21.507L41.3797 19.2225L41.3811 19.2222C41.9242 19.1256 42.2867 18.6074 42.1909 18.064ZM19.9132 23.0076C20.1851 22.9596 20.4445 23.1412 20.4924 23.4131C20.5404 23.6851 20.3588 23.9444 20.0868 23.9924L7.08509 26.285C5.9973 26.4768 4.95999 25.7504 4.76818 24.6626C4.72023 24.3907 4.90181 24.1314 5.17376 24.0834C5.44571 24.0355 5.70503 24.217 5.75299 24.489C5.84889 25.0329 6.36755 25.396 6.91144 25.3001L19.9132 23.0076ZM19.9148 20.0073C20.1869 19.9602 20.4457 20.1427 20.4927 20.4148C20.5398 20.6869 20.3573 20.9456 20.0852 20.9926L16.7045 21.5772C16.4324 21.6242 16.1737 21.4418 16.1267 21.1697C16.0796 20.8976 16.2621 20.6389 16.5342 20.5918L19.9148 20.0073Z" fill="#040A1F" fill-opacity="0.87"/>
</g>
<g id="Vector">
<path d="M41.9999 32.5C41.9999 34.1569 40.6568 35.5 38.9999 35.5C37.3431 35.5 35.9999 34.1569 35.9999 32.5C35.9999 30.8431 37.3431 29.5 38.9999 29.5C40.6568 29.5 41.9999 30.8431 41.9999 32.5Z" fill="#2341DF" fill-opacity="0.08"/>
<path d="M9.68747 36.0069C9.62304 35.8328 9.37676 35.8328 9.31233 36.0069L8.31092 38.7132C8.2939 38.7592 8.26057 38.7973 8.21728 38.8203L6.3318 39.8234C6.19038 39.8987 6.19038 40.1013 6.3318 40.1766L8.21728 41.1796C8.26057 41.2027 8.2939 41.2408 8.31092 41.2868L9.31233 43.9931C9.37676 44.1672 9.62304 44.1672 9.68747 43.9931L10.6889 41.2868C10.7059 41.2408 10.7392 41.2027 10.7825 41.1796L12.668 40.1766C12.8094 40.1013 12.8094 39.8987 12.668 39.8234L10.7825 38.8203C10.7392 38.7973 10.7059 38.7592 10.6889 38.7132L9.68747 36.0069Z" fill="#2341DF" fill-opacity="0.08"/>
<path d="M6.97485 5C6.97485 4.72386 6.751 4.5 6.47485 4.5C6.19871 4.5 5.97485 4.72386 5.97485 5V5.97485H5C4.72386 5.97485 4.5 6.19871 4.5 6.47485C4.5 6.751 4.72386 6.97485 5 6.97485H5.97485V7.94976C5.97485 8.2259 6.19871 8.44976 6.47485 8.44976C6.751 8.44976 6.97485 8.2259 6.97485 7.94976V6.97485H7.94976C8.2259 6.97485 8.44976 6.751 8.44976 6.47485C8.44976 6.19871 8.2259 5.97485 7.94976 5.97485H6.97485V5Z" fill="#2341DF" fill-opacity="0.08"/>
</g>
</g>
</g>
</svg>
