<svg width="176" height="176" viewBox="0 0 176 176" fill="none" xmlns="http://www.w3.org/2000/svg">
<path d="M138.652 132.746V119.752H141.816V117.005H67.2309C64.6636 117.005 62.5918 119.088 62.5918 121.678V130.843C62.5918 133.422 64.6636 135.516 67.2309 135.516H141.805V132.769H138.652V132.746Z" fill="#DBEEFF"/>
<path d="M64.9341 130.855V121.689C64.9341 119.11 67.0059 117.016 69.5732 117.016H67.5126C64.9454 117.016 62.8735 119.099 62.8735 121.689V130.855C62.8735 133.433 64.9454 135.527 67.5126 135.527H69.5732C67.0059 135.527 64.9341 133.444 64.9341 130.855Z" fill="white"/>
<path d="M104.816 116.993C102.249 116.993 100.177 119.077 100.177 121.666V130.843C100.177 131.688 99.5691 132.397 98.7359 132.397H62.8735C63.5154 134.199 65.2043 135.494 67.2199 135.494H141.805V132.746H138.641V119.752H141.805V117.005H104.816V116.993Z" fill="#BAE1FF"/>
<path d="M69.573 135.505H141.805V132.757H138.652V119.752H141.816V117.005H67.2309C64.6636 117.005 62.5918 119.088 62.5918 121.678V129.943" stroke="url(#paint0_linear_253_8791)" stroke-width="0.8" stroke-linecap="round" stroke-linejoin="round"/>
<path d="M107.608 119.752H138.641V132.746H107.608C105.751 132.746 104.23 131.237 104.23 129.368V123.13C104.23 121.272 105.739 119.752 107.608 119.752Z" fill="white"/>
<path d="M117.889 122.184H112.642C113.959 122.184 115.029 123.254 115.029 124.583V130.168C115.029 130.258 115.119 130.303 115.198 130.269L117.633 128.937C117.698 128.902 117.775 128.847 117.84 128.882C117.842 128.883 117.843 128.883 117.844 128.884L120.118 130.258C120.197 130.303 120.287 130.258 120.287 130.156V124.583C120.287 123.254 119.217 122.184 117.889 122.184Z" fill="url(#paint1_linear_253_8791)" stroke="url(#paint2_linear_253_8791)" stroke-opacity="0.4" stroke-width="0.8" stroke-linejoin="round"/>
<path d="M107.608 119.752H138.641V132.746H107.608C105.751 132.746 104.23 131.237 104.23 129.368V123.13C104.23 121.272 105.739 119.752 107.608 119.752Z" stroke="url(#paint3_linear_253_8791)" stroke-width="0.8" stroke-linecap="round" stroke-linejoin="round"/>
<path d="M106.562 122.184H138.652" stroke="#B0DCFF" stroke-width="0.8" stroke-linecap="round" stroke-linejoin="round"/>
<path d="M122.81 125.979H136.749" stroke="#B0DCFF" stroke-width="0.8" stroke-linecap="round" stroke-linejoin="round"/>
<path d="M106.133 125.979H113.069" stroke="#B0DCFF" stroke-width="0.8" stroke-linecap="round" stroke-linejoin="round"/>
<path d="M44.4627 67.247H108.543C108.858 67.247 109.129 67.4497 109.219 67.7537L120.509 106.299C120.696 106.939 120.216 107.58 119.549 107.58H94.5336C93.9814 107.58 93.5336 108.028 93.5336 108.58V108.731C93.5336 109.283 93.0859 109.731 92.5336 109.731H56.7308C56.2868 109.731 55.8959 109.438 55.7711 109.012L43.7984 68.1365C43.6745 67.6861 44.0011 67.247 44.4627 67.247Z" fill="url(#paint4_linear_253_8791)" stroke="url(#paint5_linear_253_8791)" stroke-opacity="0.4" stroke-width="0.8" stroke-linejoin="round"/>
<path d="M61.06 109.742H118.452L107.496 72.359C107.417 72.0775 107.147 71.8861 106.865 71.8861H50.8472C50.408 71.8861 50.0928 72.314 50.2166 72.7306L61.06 109.742Z" fill="white"/>
<path d="M95.5805 92.3026C95.5819 92.3012 95.5838 92.3004 95.5859 92.3004H102.652C103.987 92.3004 104.947 91.0185 104.572 89.7379L103.505 86.0971C103.478 86.007 103.446 85.8822 103.352 85.8822V85.8822H93.8487C93.8231 85.8822 93.801 85.8894 93.7833 85.9017C93.7054 85.956 93.7494 86.0743 93.7761 86.1654L95.5679 92.2994C95.5695 92.3049 95.5764 92.3067 95.5805 92.3026V92.3026Z" fill="#FFF4D7"/>
<path d="M81.3481 92.3026C81.3495 92.3012 81.3514 92.3004 81.3534 92.3004H88.4199C89.7543 92.3004 90.7145 91.0185 90.3392 89.7379L89.2721 86.0971C89.2457 86.007 89.2135 85.8822 89.1197 85.8822V85.8822H79.6163C79.5906 85.8822 79.5686 85.8894 79.5509 85.9017C79.473 85.956 79.517 86.0743 79.5436 86.1654L81.3355 92.2994C81.3371 92.3049 81.344 92.3067 81.3481 92.3026V92.3026Z" fill="#FFF4D7"/>
<path d="M67.1269 92.3026C67.1283 92.3012 67.1302 92.3004 67.1322 92.3004H74.1987C75.5331 92.3004 76.4933 91.0185 76.118 89.7379L75.0509 86.0971C75.0245 86.007 74.9923 85.8822 74.8985 85.8822V85.8822H65.3951C65.3695 85.8822 65.3474 85.8894 65.3297 85.9017C65.2518 85.956 65.2958 86.0743 65.3224 86.1654L67.1143 92.2994C67.1159 92.3049 67.1228 92.3067 67.1269 92.3026V92.3026Z" fill="#FFF4D7"/>
<path d="M97.9228 102.909C97.9242 102.908 97.9261 102.907 97.9281 102.907H104.995C106.329 102.907 107.289 101.625 106.914 100.345L105.847 96.7039C105.82 96.6139 105.788 96.4891 105.694 96.4891V96.4891H96.191C96.1654 96.4891 96.1433 96.4962 96.1256 96.5086C96.0477 96.5629 96.0917 96.6812 96.1183 96.7723L97.9102 102.906C97.9118 102.912 97.9187 102.914 97.9228 102.909V102.909Z" fill="#FFF4D7"/>
<path d="M83.7016 102.909C83.703 102.908 83.7049 102.907 83.707 102.907H90.7734C92.1078 102.907 93.068 101.625 92.6927 100.345L91.6256 96.7039C91.5993 96.6139 91.567 96.4891 91.4732 96.4891V96.4891H81.9698C81.9442 96.4891 81.9221 96.4962 81.9044 96.5086C81.8265 96.5629 81.8705 96.6812 81.8972 96.7723L83.689 102.906C83.6906 102.912 83.6975 102.914 83.7016 102.909V102.909Z" fill="url(#paint6_linear_253_8791)"/>
<path d="M69.4799 102.909C69.4813 102.908 69.4833 102.907 69.4853 102.907H76.5517C77.8861 102.907 78.8463 101.625 78.471 100.345L77.404 96.7039C77.3776 96.6139 77.3453 96.4891 77.2515 96.4891V96.4891H67.7481C67.7225 96.4891 67.7004 96.4962 67.6827 96.5086C67.6049 96.5629 67.6489 96.6812 67.6755 96.7723L69.4673 102.906C69.4689 102.912 69.4758 102.914 69.4799 102.909V102.909Z" fill="#FFF4D7"/>
<path opacity="0.8" d="M60.553 116.993H148.302C149.799 116.993 150.802 115.462 150.194 114.088L148.82 110.969C148.482 110.226 147.75 109.731 146.928 109.731H55.9702L57.4002 114.629C57.8168 116.025 59.0892 116.993 60.553 116.993Z" fill="#9CD3FF"/>
<g opacity="0.3">
<path d="M87.2245 109.674C88.0464 109.674 88.7896 110.158 89.1161 110.912L90.4898 114.032C91.0866 115.394 90.0845 116.937 88.5982 116.937H61.1014C59.6488 116.937 58.3539 115.968 57.9486 114.572L56.5186 109.674H87.2245Z" fill="#92CBF8"/>
<path opacity="0.8" d="M150.922 115.045C150.877 115.529 150.652 115.957 150.325 116.306C150.663 115.968 150.877 115.529 150.922 115.045Z" fill="#2341DF"/>
</g>
<path d="M91.2028 76.9981H74.3467" stroke="url(#paint7_linear_253_8791)" stroke-width="0.8" stroke-linecap="round" stroke-linejoin="round"/>
<path d="M91.2028 76.9981H74.3467" stroke="#B0DCFF" stroke-width="0.8" stroke-linecap="round" stroke-linejoin="round"/>
<g opacity="0.3">
<path d="M86.4059 80.2072H81.8682" stroke="url(#paint8_linear_253_8791)" stroke-width="0.8" stroke-linecap="round" stroke-linejoin="round"/>
<path d="M86.4059 80.2072H81.8682" stroke="#B0DCFF" stroke-width="0.8" stroke-linecap="round" stroke-linejoin="round"/>
</g>
<path d="M67.5459 109.742H142.278L139.328 107.58H70.496L67.5459 109.742Z" fill="#DBEEFF"/>
<path opacity="0.6" d="M66.9437 73.8603L57.98 67.1375H76.9724L69.4669 73.76C68.756 74.3873 67.7022 74.4292 66.9437 73.8603Z" fill="#177AFF"/>
<path d="M148.302 117.005H88.0498C89.5474 117.005 90.5495 115.462 89.9415 114.1L88.5678 110.981C88.23 110.226 87.4981 109.742 86.6761 109.742H55.9702L57.4002 114.651C57.8168 116.048 59.1005 117.016 60.553 117.016H148.302V117.005ZM148.302 117.005C148.865 117.005 149.349 116.791 149.721 116.442" stroke="url(#paint9_linear_253_8791)" stroke-width="0.8" stroke-linecap="round" stroke-linejoin="round"/>
<path d="M30.1211 135.189H149.423C150.17 135.189 150.772 135.859 150.772 136.69V143.688C150.772 144.519 150.17 145.189 149.423 145.189H30.1211C29.3739 145.189 28.772 144.519 28.772 143.688V136.69C28.772 135.859 29.3739 135.189 30.1211 135.189Z" fill="url(#paint10_linear_253_8791)" stroke="url(#paint11_linear_253_8791)" stroke-opacity="0.4" stroke-width="0.8" stroke-linejoin="round"/>
<path d="M142.772 135.189C142.772 135.195 142.777 135.201 142.784 135.201H149.725C150.305 135.201 150.772 135.87 150.772 136.7V143.69C150.772 144.52 150.305 145.189 149.725 145.189H143.772C143.22 145.189 142.772 144.741 142.772 144.189V135.189V135.189Z" fill="url(#paint12_linear_253_8791)" stroke="url(#paint13_linear_253_8791)" stroke-opacity="0.4" stroke-width="0.8" stroke-linejoin="round"/>
<path d="M32.3027 84.5997H36.1445L52.4859 44.995L49.6858 42.7437L32.3027 84.5997Z" fill="#9CD3FF"/>
<path d="M27.7551 86.3806C27.7551 85.395 27.1391 84.5997 26.3774 84.5997H44.2981C45.0598 84.5997 45.6758 85.4062 45.6758 86.3806C45.6758 87.355 45.0598 88.1615 44.2981 88.1615H26.3774C27.1391 88.1615 27.7551 87.355 27.7551 86.3806Z" fill="#9CD3FF"/>
<path d="M62.7569 130.017H66.8002L43.1337 88.1727H40.1992L62.7569 130.029V130.017Z" fill="#9CD3FF"/>
<path d="M49.8538 130.017H53.6283L32.1011 88.1727H29.189L49.8538 130.029V130.017Z" fill="#9CD3FF"/>
<path d="M44.2087 132.75C44.2087 131.238 43.2678 130.017 42.0918 130.017H69.6C70.7761 130.017 71.7169 131.238 71.7169 132.75C71.7169 134.262 70.7761 135.483 69.6 135.483H42.0918C43.2678 135.483 44.2087 134.262 44.2087 132.75Z" fill="#98D1FF"/>
<path d="M44.2087 132.75C44.2087 131.238 43.2678 130.017 42.0918 130.017H69.6C70.7761 130.017 71.7169 131.238 71.7169 132.75C71.7169 134.262 70.7761 135.483 69.6 135.483H42.0918C43.2678 135.483 44.2087 134.262 44.2087 132.75Z" stroke="url(#paint14_linear_253_8791)" stroke-width="0.8" stroke-linecap="round" stroke-linejoin="round"/>
<path d="M42.092 135.494C40.9271 135.494 39.9751 134.274 39.9751 132.762C39.9751 131.249 40.9271 130.029 42.092 130.029C43.2568 130.029 44.2089 131.249 44.2089 132.762C44.2089 134.274 43.2568 135.494 42.092 135.494Z" stroke="url(#paint15_linear_253_8791)" stroke-width="0.8" stroke-linecap="round" stroke-linejoin="round"/>
<path d="M26.3777 88.1615C25.616 88.1615 25 87.3662 25 86.3806C25 85.395 25.616 84.5997 26.3777 84.5997C27.1393 84.5997 27.7553 85.395 27.7553 86.3806C27.7553 87.3662 27.1393 88.1615 26.3777 88.1615Z" fill="#B3DDFF"/>
<path d="M47.1095 38.5828C47.1034 38.5797 47.1011 38.5722 47.1044 38.5662L50.2233 32.921C50.6489 32.1481 51.5337 31.7561 52.3962 31.9689L58.7977 33.4902C59.5612 33.6716 59.8364 34.6327 59.3542 35.2518C58.7566 36.019 58.2344 36.8586 57.806 37.7708L55.3643 42.9453C55.0794 43.5389 54.8448 44.1481 54.6572 44.7648C54.4353 45.4942 53.5362 45.8307 52.9418 45.3532L47.6024 41.0637C46.8664 40.4727 46.6633 39.4265 47.1147 38.5994C47.118 38.5934 47.1157 38.5858 47.1095 38.5828V38.5828Z" fill="url(#paint16_linear_253_8791)" stroke="url(#paint17_linear_253_8791)" stroke-opacity="0.4" stroke-width="0.8" stroke-linejoin="round"/>
<path opacity="0.2" d="M47.0983 38.5772L50.2232 32.921C50.5257 32.3722 51.0633 32.025 51.6569 31.9465L49.6184 37.8604C49.3048 38.8012 49.6856 39.8204 50.5593 40.3021L55.3418 42.9342C54.8042 44.0654 54.4458 45.2303 54.2554 46.4063L47.5911 41.0525C46.8519 40.4589 46.6503 39.406 47.1095 38.5772H47.0983Z" fill="#2341DF"/>
<path d="M55.353 42.923L57.7947 37.7484C60.7404 31.5209 67.8863 28.508 74.4162 30.7257L86.3446 34.7914C82.3349 33.9626 76.0066 39.4284 71.5825 47.8063C67.2367 56.0499 66.2511 64.2262 69.0176 67.1943L59.1388 59.298C54.233 55.3778 52.6761 48.6016 55.353 42.923Z" fill="#D6EDFF"/>
<path d="M67.4721 62.3781L61.1327 57.3155C57.0445 54.045 55.286 48.7808 56.3725 43.8302C57.3245 46.7535 59.2286 49.352 61.9279 51.1329L68.4801 55.445C67.7521 58.0099 67.4161 60.3732 67.4721 62.3781Z" fill="#BAE1FF"/>
<path d="M71.3138 65.3574C74.4275 67.0039 80.2181 62.1429 84.2391 54.5154C88.2712 46.8879 89.0217 39.3612 85.908 37.7148C82.7942 36.0683 77.0036 40.9293 72.9827 48.5568C68.9505 56.1843 68.2001 63.7109 71.3138 65.3574Z" fill="url(#paint18_linear_253_8791)" fill-opacity="0.6" stroke="url(#paint19_linear_253_8791)" stroke-opacity="0.4" stroke-width="0.8" stroke-linejoin="round"/>
<path d="M69.6223 57.9987L76.813 63.8789L76.7794 63.9013C75.5698 64.5958 74.6625 65.167 73.8449 65.4694C72.8929 65.7382 72.0304 65.727 71.3024 65.3462C69.5551 64.4166 69.0175 61.6277 69.6111 58.0099L69.6223 57.9987Z" fill="#4EABF4"/>
<g filter="url(#filter0_d_253_8791)">
<path d="M72.2991 55.0866L70.5854 54.1794C71.1679 52.3649 71.9743 50.472 72.9935 48.5568C74.0016 46.6415 75.1216 44.9054 76.2865 43.4046L78.0001 44.3118C80.9794 45.8799 82.1107 49.576 80.5426 52.5441C78.9746 55.5234 75.2784 56.6547 72.3103 55.0866H72.2991Z" fill="url(#paint20_linear_253_8791)"/>
</g>
<path opacity="0.4" d="M71.3807 52.9473C74.8976 54.8066 79.2322 53.5297 81.2147 50.1248C81.1475 50.9424 80.9346 51.7713 80.5314 52.5553C78.9634 55.5346 75.2672 56.6659 72.2991 55.0978L70.5854 54.1906C70.7423 53.7314 70.8991 53.2609 71.0783 52.7905L71.3919 52.9585L71.3807 52.9473Z" fill="white"/>
<path d="M55.353 42.9229L57.7947 37.7483C58.702 35.8443 59.9788 34.2538 61.5357 32.9994C60.8525 33.8282 60.2588 34.7466 59.7884 35.7547L57.3467 40.9293C54.6586 46.6079 56.2267 53.3729 61.1325 57.3043L67.4719 62.3669C67.5391 64.4726 68.0431 66.1526 69.0176 67.1831L59.1388 59.2868C54.233 55.3666 52.6761 48.5904 55.353 42.9117V42.9229Z" fill="#A8D9FF"/>
<path d="M73.4083 33.7162C66.8897 31.4985 59.7326 34.5226 56.7869 40.7501L54.3452 45.9247V45.9583C54.5468 44.9278 54.8828 43.9198 55.3421 42.9454L57.7837 37.7708C60.7295 31.5321 67.8753 28.5192 74.4052 30.7369L87.2745 35.1275L85.7848 37.9388L73.4083 33.7162Z" fill="white"/>
<path d="M71.5714 47.8175C76.3652 38.7564 83.3878 33.0778 87.2744 35.1275C91.1609 37.1771 90.4329 46.1823 85.6391 55.2546C80.8453 64.3158 73.8227 69.9944 69.9361 67.9447C66.0496 65.8838 66.7776 56.8899 71.5714 47.8175ZM71.3026 65.3574C74.4163 67.0039 80.2069 62.1429 84.2279 54.5154C88.26 46.8879 89.0104 39.3612 85.8967 37.7148C82.783 36.0683 76.9924 40.9293 72.9714 48.5568C68.9393 56.1843 68.1888 63.7109 71.3026 65.3574Z" fill="#BAE1FF"/>
<path d="M74.405 30.7369C67.8864 28.5192 60.7293 31.5433 57.7836 37.7708L55.3419 42.9454C52.6538 48.624 54.2219 55.389 59.1277 59.3204L69.9361 67.9671" stroke="url(#paint21_linear_253_8791)" stroke-width="0.8" stroke-linecap="round" stroke-linejoin="round"/>
<path d="M81.9652 33.313L76.4658 31.4425" stroke="url(#paint22_linear_253_8791)" stroke-width="0.8" stroke-linecap="round" stroke-linejoin="round"/>
<path d="M63.496 36.9195L62.1855 37.5467" stroke="white" stroke-width="0.8" stroke-linecap="round" stroke-linejoin="round"/>
<path d="M74.9764 36.3147L72.7923 35.6651C70.5634 34.993 68.1777 35.0602 65.9937 35.8219" stroke="white" stroke-width="0.8" stroke-linecap="round" stroke-linejoin="round"/>
<path opacity="0.6" d="M86.2664 39.3836C83.1527 37.7372 77.362 42.5981 73.3411 50.2256C70.6978 55.221 69.4769 60.1604 69.813 63.4421C68.7041 60.362 69.8466 54.5042 72.9827 48.5568C77.0148 40.9293 82.7942 36.0683 85.908 37.7148C86.972 38.2748 87.588 39.5516 87.756 41.2765C87.4424 40.3917 86.9496 39.7308 86.2664 39.3612V39.3836Z" fill="#4EABF4"/>
<path d="M87.2744 35.1275C91.1609 37.1883 90.4329 46.1823 85.6391 55.2546C80.8453 64.3158 73.8227 69.9944 69.9361 67.9447C66.0496 65.8838 66.7776 56.8899 71.5714 47.8175C75.0547 41.2317 79.7253 36.4267 83.4998 35.0827" stroke="url(#paint23_linear_253_8791)" stroke-width="0.8" stroke-linecap="round" stroke-linejoin="round"/>
<path d="M78.7956 44.8158C81.1589 46.5855 81.9541 49.856 80.5316 52.5441C78.9636 55.5234 75.2674 56.6547 72.2993 55.0866" stroke="url(#paint24_linear_253_8791)" stroke-width="0.8" stroke-linecap="round" stroke-linejoin="round"/>
<path d="M77.6532 48.3328C77.3732 47.6383 77.5636 46.8879 78.09 46.6751C78.6164 46.4623 79.2773 46.8543 79.5573 47.5487C79.8373 48.2432 79.6469 48.9936 79.1205 49.2064C78.594 49.4192 77.9332 49.0272 77.6532 48.3328Z" fill="white"/>
<path d="M76.813 46.2271C76.5105 46.2271 76.2529 45.9807 76.2529 45.667C76.2529 45.3534 76.4993 45.107 76.813 45.107C77.1266 45.107 77.373 45.3534 77.373 45.667C77.373 45.9807 77.1266 46.2271 76.813 46.2271Z" fill="white"/>
<defs>
<filter id="filter0_d_253_8791" x="65.5854" y="40.4046" width="18.6626" height="20.3877" filterUnits="userSpaceOnUse" color-interpolation-filters="sRGB">
<feFlood flood-opacity="0" result="BackgroundImageFix"/>
<feColorMatrix in="SourceAlpha" type="matrix" values="0 0 0 0 0 0 0 0 0 0 0 0 0 0 0 0 0 0 127 0" result="hardAlpha"/>
<feOffset dx="-1" dy="1"/>
<feGaussianBlur stdDeviation="2"/>
<feComposite in2="hardAlpha" operator="out"/>
<feColorMatrix type="matrix" values="0 0 0 0 1 0 0 0 0 0.823529 0 0 0 0 0.341176 0 0 0 0.36 0"/>
<feBlend mode="normal" in2="BackgroundImageFix" result="effect1_dropShadow_253_8791"/>
<feBlend mode="normal" in="SourceGraphic" in2="effect1_dropShadow_253_8791" result="shape"/>
</filter>
<linearGradient id="paint0_linear_253_8791" x1="36.2507" y1="95.5998" x2="149.689" y2="126.425" gradientUnits="userSpaceOnUse">
<stop stop-color="#1B217C"/>
<stop offset="1" stop-color="#1B217C" stop-opacity="0"/>
</linearGradient>
<linearGradient id="paint1_linear_253_8791" x1="120.095" y1="129.289" x2="112.757" y2="129.289" gradientUnits="userSpaceOnUse">
<stop stop-color="#008FFF"/>
<stop offset="1" stop-color="#33A5FF"/>
</linearGradient>
<linearGradient id="paint2_linear_253_8791" x1="120.501" y1="130.281" x2="109.478" y2="128.995" gradientUnits="userSpaceOnUse">
<stop stop-color="white"/>
<stop offset="1" stop-color="white" stop-opacity="0"/>
</linearGradient>
<linearGradient id="paint3_linear_253_8791" x1="106.96" y1="126.369" x2="141.857" y2="126.369" gradientUnits="userSpaceOnUse">
<stop stop-color="#1B217C"/>
<stop offset="1" stop-color="#1B217C" stop-opacity="0"/>
</linearGradient>
<linearGradient id="paint4_linear_253_8791" x1="118.946" y1="104.531" x2="44.9351" y2="104.531" gradientUnits="userSpaceOnUse">
<stop stop-color="#008FFF"/>
<stop offset="1" stop-color="#33A5FF"/>
</linearGradient>
<linearGradient id="paint5_linear_253_8791" x1="123.044" y1="109.734" x2="15.7433" y2="85.676" gradientUnits="userSpaceOnUse">
<stop stop-color="white"/>
<stop offset="1" stop-color="white" stop-opacity="0"/>
</linearGradient>
<linearGradient id="paint6_linear_253_8791" x1="93.0616" y1="102.131" x2="82.1102" y2="102.131" gradientUnits="userSpaceOnUse">
<stop stop-color="#FFBB00"/>
<stop offset="1" stop-color="#FFE18F"/>
</linearGradient>
<linearGradient id="paint7_linear_253_8791" x1="75.6839" y1="77.5073" x2="92.7784" y2="77.5073" gradientUnits="userSpaceOnUse">
<stop stop-color="#1B217C"/>
<stop offset="1" stop-color="#1B217C" stop-opacity="0"/>
</linearGradient>
<linearGradient id="paint8_linear_253_8791" x1="82.2282" y1="80.7164" x2="86.8301" y2="80.7164" gradientUnits="userSpaceOnUse">
<stop stop-color="#1B217C"/>
<stop offset="1" stop-color="#1B217C" stop-opacity="0"/>
</linearGradient>
<linearGradient id="paint9_linear_253_8791" x1="93.6779" y1="113.052" x2="51.453" y2="109.674" gradientUnits="userSpaceOnUse">
<stop stop-color="#1B217C"/>
<stop offset="1" stop-color="#1B217C" stop-opacity="0"/>
</linearGradient>
<linearGradient id="paint10_linear_253_8791" x1="147.706" y1="143.965" x2="30.6122" y2="143.965" gradientUnits="userSpaceOnUse">
<stop stop-color="#008FFF"/>
<stop offset="1" stop-color="#33A5FF"/>
</linearGradient>
<linearGradient id="paint11_linear_253_8791" x1="154.189" y1="145.19" x2="99.6842" y2="63.0486" gradientUnits="userSpaceOnUse">
<stop stop-color="white"/>
<stop offset="1" stop-color="white" stop-opacity="0"/>
</linearGradient>
<linearGradient id="paint12_linear_253_8791" x1="150.571" y1="143.965" x2="142.893" y2="143.965" gradientUnits="userSpaceOnUse">
<stop stop-color="#008FFF"/>
<stop offset="1" stop-color="#33A5FF"/>
</linearGradient>
<linearGradient id="paint13_linear_253_8791" x1="150.996" y1="145.19" x2="139.418" y2="144.046" gradientUnits="userSpaceOnUse">
<stop stop-color="white"/>
<stop offset="1" stop-color="white" stop-opacity="0"/>
</linearGradient>
<linearGradient id="paint14_linear_253_8791" x1="44.4421" y1="132.801" x2="74.486" y2="132.801" gradientUnits="userSpaceOnUse">
<stop stop-color="#1B217C"/>
<stop offset="1" stop-color="#1B217C" stop-opacity="0"/>
</linearGradient>
<linearGradient id="paint15_linear_253_8791" x1="40.311" y1="132.812" x2="44.6046" y2="132.812" gradientUnits="userSpaceOnUse">
<stop stop-color="#1B217C"/>
<stop offset="1" stop-color="#1B217C" stop-opacity="0"/>
</linearGradient>
<linearGradient id="paint16_linear_253_8791" x1="60.2064" y1="44.6419" x2="47.0822" y2="44.6419" gradientUnits="userSpaceOnUse">
<stop stop-color="#008FFF"/>
<stop offset="1" stop-color="#33A5FF"/>
</linearGradient>
<linearGradient id="paint17_linear_253_8791" x1="60.933" y1="46.4187" x2="41.2165" y2="44.1229" gradientUnits="userSpaceOnUse">
<stop stop-color="white"/>
<stop offset="1" stop-color="white" stop-opacity="0"/>
</linearGradient>
<linearGradient id="paint18_linear_253_8791" x1="87.3663" y1="62.2158" x2="69.6702" y2="62.2158" gradientUnits="userSpaceOnUse">
<stop stop-color="#008FFF"/>
<stop offset="1" stop-color="#33A5FF"/>
</linearGradient>
<linearGradient id="paint19_linear_253_8791" x1="88.3461" y1="65.6803" x2="61.5742" y2="63.5245" gradientUnits="userSpaceOnUse">
<stop stop-color="white"/>
<stop offset="1" stop-color="white" stop-opacity="0"/>
</linearGradient>
<linearGradient id="paint20_linear_253_8791" x1="80.8967" y1="54.2749" x2="70.8198" y2="54.2749" gradientUnits="userSpaceOnUse">
<stop stop-color="#FFBB00"/>
<stop offset="1" stop-color="#FFE18F"/>
</linearGradient>
<linearGradient id="paint21_linear_253_8791" x1="55.6539" y1="49.3397" x2="76.3087" y2="49.3397" gradientUnits="userSpaceOnUse">
<stop stop-color="#1B217C"/>
<stop offset="1" stop-color="#1B217C" stop-opacity="0"/>
</linearGradient>
<linearGradient id="paint22_linear_253_8791" x1="76.9021" y1="32.395" x2="82.4793" y2="32.395" gradientUnits="userSpaceOnUse">
<stop stop-color="#1B217C"/>
<stop offset="1" stop-color="#1B217C" stop-opacity="0"/>
</linearGradient>
<linearGradient id="paint23_linear_253_8791" x1="69.2103" y1="52.0297" x2="91.8595" y2="52.0297" gradientUnits="userSpaceOnUse">
<stop stop-color="#1B217C"/>
<stop offset="1" stop-color="#1B217C" stop-opacity="0"/>
</linearGradient>
<linearGradient id="paint24_linear_253_8791" x1="73.0085" y1="50.4052" x2="82.0746" y2="50.4052" gradientUnits="userSpaceOnUse">
<stop stop-color="#1B217C"/>
<stop offset="1" stop-color="#1B217C" stop-opacity="0"/>
</linearGradient>
</defs>
</svg>
