<svg width="48" height="48" viewBox="0 0 48 48" fill="none" xmlns="http://www.w3.org/2000/svg">
<g id="Everywhere_Everytime">
<g id="Map_Clock">
<g id="particles">
<path id="Vector" d="M11.1131 13.3869C11.6041 13.3869 12 12.991 12 12.5C12 12.009 11.6041 11.6131 11.1131 11.6131H9.38688V9.88688C9.38688 9.39593 8.99095 9 8.5 9C8.00905 9 7.61312 9.39593 7.61312 9.88688V11.6131H5.88688C5.39593 11.6131 5 12.009 5 12.5C5 12.991 5.39593 13.3869 5.88688 13.3869H7.61312V15.1131C7.61312 15.6041 8.00905 16 8.5 16C8.99095 16 9.38688 15.6041 9.38688 15.1131V13.3869H11.1131Z" fill="#2341DF" fill-opacity="0.08"/>
<path id="Vector_2" d="M31 41.5C31 42.8839 32.1161 44 33.5 44C34.8839 44 36 42.8839 36 41.5C36 40.1161 34.8839 39 33.5 39C32.1161 39 31 40.1161 31 41.5Z" fill="#2341DF" fill-opacity="0.08"/>
<path id="Vector_3" d="M17 7C17 8.65254 18.3475 10 20 10C21.6525 10 23 8.65254 23 7C23 5.34746 21.6525 4 20 4C18.3475 4 17 5.34746 17 7Z" fill="#2341DF" fill-opacity="0.08"/>
</g>
<g id="map">
<path id="Vector_4" d="M6.92188 36.6528L10.226 35.5127L13.2376 39.6268L17.3542 41.2626L18.6 44.7918L8.73101 45L6.92188 36.6528Z" fill="#2341DF" fill-opacity="0.15"/>
<path id="Vector_5" d="M27.4512 26.9573L30.7553 28.2956L32.3911 31.2994L36.7893 35.1459L38.2843 39.2799L30.3869 38.0407L27.4512 26.9573Z" fill="#2341DF" fill-opacity="0.3"/>
<path id="Vector_6" d="M25.9227 41.2626L24.5469 36.3058L26.096 33.9662L25.1427 28.4741L27.4502 26.9573L30.3859 38.0407L25.9227 41.2626Z" fill="#2341DF" fill-opacity="0.15"/>
<path id="Vector_7" d="M10.2257 19.6806V22.3077L7.89657 24.1318V29.2175L5.57828 29.0292L3 18.6199L10.2257 19.6806Z" fill="#2341DF" fill-opacity="0.15"/>
<path id="Vector_8" d="M30.3862 38.0405L21.1022 44.7322L15.0898 20.0572L24.0163 14L30.3862 38.0405Z" fill="#2341DF" fill-opacity="0.15"/>
<path id="Vector_9" opacity="0.87" d="M5.75161 31.2892L3 18.6196L15.0898 20.0571L21.1021 44.7321L8.73072 44.9997L6.21744 33.4405" stroke="#040A1F" stroke-opacity="0.87" stroke-linecap="round" stroke-linejoin="round"/>
<path id="Vector_10" opacity="0.87" d="M30.3862 38.0405L21.1022 44.7322L15.0898 20.0572L24.0163 14" stroke="#040A1F" stroke-opacity="0.87" stroke-linecap="round" stroke-linejoin="round"/>
<path id="Vector_11" opacity="0.87" d="M40.5 24.4852L44.9998 40.3303L30.3859 38.0403L24.8936 17.301" stroke="#040A1F" stroke-opacity="0.87" stroke-linecap="round" stroke-linejoin="round"/>
</g>
<g id="clock">
<g id="Group">
<path id="Vector_12" opacity="0.87" d="M27.4692 9.11834C27.6964 8.43696 28.0087 7.78396 28.392 7.18774" stroke="#040A1F" stroke-opacity="0.87" stroke-linecap="round" stroke-linejoin="round"/>
<path id="Vector_13" opacity="0.87" d="M31.5994 4.14984C32.9054 3.41167 34.3959 3 36 3C40.9685 3 45 7.03155 45 12C45 16.9685 40.9685 21 36 21C31.0315 21 27 16.9685 27 12" stroke="#040A1F" stroke-opacity="0.87" stroke-linecap="round" stroke-linejoin="round"/>
</g>
<path id="Vector_14" d="M36.0017 19.1259C39.9374 19.1259 43.1279 15.9354 43.1279 11.9997C43.1279 8.06404 39.9374 4.87354 36.0017 4.87354C32.066 4.87354 28.8755 8.06404 28.8755 11.9997C28.8755 15.9354 32.066 19.1259 36.0017 19.1259Z" fill="#2341DF" fill-opacity="0.08"/>
<path id="Vector_15" d="M39.3653 13.0651H35.7881C35.206 13.0651 34.7234 12.5824 34.7234 12.0004V7.62815C34.7234 7.04613 35.206 6.56348 35.7881 6.56348C36.3701 6.56348 36.8527 7.04613 36.8527 7.62815V10.9357H39.3653C39.9474 10.9357 40.43 11.4184 40.43 12.0004C40.43 12.5824 39.9474 13.0651 39.3653 13.0651Z" fill="#2341DF" fill-opacity="0.8"/>
</g>
</g>
</g>
</svg>
