<svg width="48" height="48" viewBox="0 0 48 48" fill="none" xmlns="http://www.w3.org/2000/svg">
<path fillRule="evenodd" clipRule="evenodd" d="M20.4866 28.8848C20.5502 29.1536 20.3839 29.423 20.1152 29.4866L16.0905 30.439L23.504 32.3369C23.8294 32.4202 24.1706 32.4202 24.496 32.3369L31.9095 30.439L27.8848 29.4866C27.6161 29.423 27.4498 29.1536 27.5134 28.8848C27.577 28.6161 27.8464 28.4498 28.1152 28.5134L34.1152 29.9334C34.339 29.9864 34.4979 30.1854 34.5 30.4154C34.5021 30.6455 34.3469 30.8473 34.124 30.9044L24.124 33.4644C24.0426 33.4852 23.9574 33.4852 23.876 33.4644L13.876 30.9044C13.6531 30.8473 13.4979 30.6455 13.5 30.4154C13.5021 30.1854 13.661 29.9864 13.8848 29.9334L19.8848 28.5134C20.1536 28.4498 20.423 28.6161 20.4866 28.8848Z" fill="#040A1F" fill-opacity="0.87"/>
<path d="M14.5 32.5C14.5 32.2239 14.2761 32 14 32C13.7239 32 13.5 32.2239 13.5 32.5V41.5204C13.5 41.7415 13.6453 41.9364 13.8572 41.9995L23.8504 44.9772C23.9389 45.005 24.036 45.0085 24.1317 44.9824C24.1359 44.9812 24.1402 44.98 24.1444 44.9787L34.1428 41.9995C34.3547 41.9364 34.5 41.7415 34.5 41.5204V32.5C34.5 32.2239 34.2761 32 34 32C33.7239 32 33.5 32.2239 33.5 32.5V40.9985C33.5 41.087 33.4419 41.1649 33.3571 41.1902L24.7571 43.7527C24.6289 43.7909 24.5 43.6948 24.5 43.561V35.4551C24.5 35.179 24.2761 34.9551 24 34.9551C23.7239 34.9551 23.5 35.179 23.5 35.4551V43.561C23.5 43.6948 23.3711 43.7909 23.2429 43.7527L14.6429 41.1902C14.5581 41.1649 14.5 41.087 14.5 40.9985V32.5Z" fill="#040A1F" fill-opacity="0.87"/>
<path fillRule="evenodd" clipRule="evenodd" d="M17.5713 31.8505V35.7677C17.5713 36.0809 17.8559 36.317 18.1637 36.2591L18.7844 36.1424C18.9217 36.1166 19.0636 36.1494 19.1756 36.2329L19.6296 36.5713C19.9594 36.8172 20.4284 36.5818 20.4284 36.1704V32.5819L17.5713 31.8505Z" fill="#2341DF" fill-opacity="0.8"/>
<path fillRule="evenodd" clipRule="evenodd" d="M23.5 4C15.4359 4 8.72255 9.11111 6.95619 15.9182C6.77253 16.626 7.02347 17.2319 7.50184 17.6272C7.98982 18.0305 8.72138 18.215 9.47111 18.0041C10.0623 17.8378 10.6878 17.8378 11.279 18.0041L13.5314 18.6378C14.3284 18.862 15.1717 18.862 15.9687 18.6378L17.6356 18.1688C18.6097 17.8948 19.6404 17.8948 20.6145 18.1688L22.2814 18.6378C23.0784 18.862 23.9217 18.862 24.7187 18.6378L26.3856 18.1688C27.3597 17.8948 28.3904 17.8948 29.3645 18.1688L31.0314 18.6378C31.8284 18.862 32.6717 18.862 33.4687 18.6378L35.7211 18.0041C36.3123 17.8378 36.9378 17.8378 37.529 18.0041C38.2787 18.215 39.0103 18.0305 39.4983 17.6272C39.9766 17.2319 40.2276 16.626 40.0439 15.9182C38.2775 9.11111 31.5642 4 23.5 4ZM5.98825 15.6671C7.88009 8.37637 15.0259 3 23.5 3C31.9742 3 39.12 8.37637 41.0118 15.6671C41.3005 16.7796 40.8895 17.7748 40.1353 18.3981C39.3906 19.0135 38.3188 19.2651 37.2582 18.9668C36.8441 18.8503 36.406 18.8503 35.9919 18.9668L33.7395 19.6004C32.7654 19.8744 31.7347 19.8744 30.7606 19.6004L29.0937 19.1315C28.2967 18.9073 27.4534 18.9073 26.6564 19.1315L24.9895 19.6004C24.0154 19.8744 22.9847 19.8744 22.0106 19.6004L20.3437 19.1315C19.5467 18.9073 18.7034 18.9073 17.9064 19.1315L16.2395 19.6004C15.2654 19.8744 14.2347 19.8744 13.2606 19.6004L11.0082 18.9668C10.5941 18.8503 10.156 18.8503 9.74192 18.9668C8.68126 19.2651 7.60949 19.0135 6.86483 18.3981C6.11057 17.7748 5.69955 16.7796 5.98825 15.6671Z" fill="#040A1F" fill-opacity="0.87"/>
<path d="M15.4228 19.5C15.4228 9.65385 20.8074 4.73077 23.4997 3.5C13.8347 3.5 6.48584 8.88567 6.48584 17.7222L15.4228 19.5Z" fill="#2341DF" fill-opacity="0.15"/>
<path d="M31.5769 19.5C31.5769 9.65385 26.192 4.73077 23.4997 3.5C33.1647 3.5 40.5139 8.88567 40.5139 17.7222L31.5769 19.5Z" fill="#2341DF" fill-opacity="0.15"/>
<path fillRule="evenodd" clipRule="evenodd" d="M18.7466 20.5691C18.9846 20.4291 19.291 20.5086 19.431 20.7466L23.5001 27.6639V22.0001C23.5001 21.7239 23.7239 21.5001 24.0001 21.5001C24.2762 21.5001 24.5001 21.7239 24.5001 22.0001V27.6639L26.6941 23.9341C26.8341 23.6961 27.1406 23.6166 27.3786 23.7566C27.6166 23.8966 27.6961 24.2031 27.556 24.4411L24.431 29.7536C24.3412 29.9063 24.1773 30.0001 24.0001 30.0001C23.8229 30.0001 23.6589 29.9063 23.5691 29.7536L18.5691 21.2536C18.4291 21.0156 18.5086 20.7091 18.7466 20.5691ZM29.2536 20.5691C29.4916 20.7091 29.5711 21.0156 29.431 21.2536L28.4935 22.8473C28.3535 23.0854 28.0471 23.1648 27.8091 23.0248C27.5711 22.8848 27.4916 22.5783 27.6316 22.3403L28.5691 20.7466C28.7091 20.5086 29.0156 20.4291 29.2536 20.5691Z" fill="#040A1F" fill-opacity="0.87"/>
<circle r="3" transform="matrix(-1 0 0 1 42 26.5)" fill="#2341DF" fill-opacity="0.08"/>
<circle r="1" transform="matrix(-1 0 0 1 9 38)" fill="#2341DF" fill-opacity="0.08"/>
<path d="M6.14962 23.7439C6.26998 23.4187 6.73002 23.4187 6.85038 23.7439L7.57556 25.7037C7.6134 25.806 7.69402 25.8866 7.79628 25.9244L9.75606 26.6496C10.0813 26.77 10.0813 27.23 9.75606 27.3504L7.79628 28.0756C7.69402 28.1134 7.6134 28.194 7.57556 28.2963L6.85038 30.2561C6.73002 30.5813 6.26998 30.5813 6.14962 30.2561L5.42444 28.2963C5.3866 28.194 5.30598 28.1134 5.20372 28.0756L3.24394 27.3504C2.91869 27.23 2.91869 26.77 3.24394 26.6496L5.20372 25.9244C5.30598 25.8866 5.3866 25.806 5.42444 25.7037L6.14962 23.7439Z" fill="#2341DF" fill-opacity="0.08"/>
</svg>
