<svg width="176" height="176" viewBox="0 0 176 176" fill="none" xmlns="http://www.w3.org/2000/svg">
<path d="M73.2183 156.577H96.5801" stroke="url(#paint0_linear_253_8786)" stroke-width="0.8" stroke-linecap="round" stroke-linejoin="round"/>
<path d="M67.3625 146.72H65.0044" stroke="url(#paint1_linear_253_8786)" stroke-width="0.8" stroke-linecap="round" stroke-linejoin="round"/>
<path d="M59.0587 156.577H27.2515" stroke="url(#paint2_linear_253_8786)" stroke-width="0.8" stroke-linecap="round" stroke-linejoin="round"/>
<path d="M22.061 112.292C22.0634 112.294 22.0675 112.293 22.068 112.29C23.2046 103.802 27.424 96.4709 33.4399 91.2815C34.0603 90.7464 33.8557 89.7318 33.0461 89.606C32.3224 89.4936 31.5796 89.4332 30.8208 89.4332C23.1915 89.4332 17 95.2653 17 102.466C17 106.469 18.9181 110.064 21.9347 112.453C21.9741 112.485 22.0341 112.456 22.0395 112.406C22.0435 112.369 22.0488 112.332 22.0541 112.294C22.0546 112.291 22.0587 112.29 22.061 112.292V112.292Z" fill="url(#paint3_linear_253_8786)" stroke="url(#paint4_linear_253_8786)" stroke-opacity="0.4" stroke-width="0.8" stroke-linejoin="round"/>
<path d="M87.0335 105.099C87.0325 105.098 87.0324 105.097 87.0334 105.095C88.8527 102.893 89.9535 100.123 89.9535 97.1089C89.9535 89.9086 83.7619 84.0765 76.1327 84.0765C74.2365 84.0765 72.4322 84.444 70.7866 85.1033C70.0244 85.4087 70.0631 86.4437 70.7939 86.8179C78.3338 90.6783 84.1216 97.2488 87.0385 105.096C87.0396 105.099 87.0358 105.102 87.0335 105.099V105.099Z" fill="url(#paint5_linear_253_8786)" stroke="url(#paint6_linear_253_8786)" stroke-opacity="0.4" stroke-width="0.8" stroke-linejoin="round"/>
<path d="M44.7404 148.711C44.7378 148.713 44.7391 148.718 44.7428 148.718L44.7961 148.729C44.8208 148.734 44.8316 148.763 44.8159 148.783L39.4934 155.511C39.0876 156.033 38.4847 156.369 37.8354 156.45L36.9774 156.555C36.6063 156.601 36.2237 156.578 35.8643 156.462C35.5049 156.346 35.1802 156.161 34.9019 155.894C34.6237 155.639 34.415 155.326 34.2758 154.978C34.1367 154.63 34.0787 154.247 34.0903 153.876L34.6036 145.197C34.6513 144.392 35.5898 143.965 36.2519 144.426C38.8653 146.247 41.7255 147.688 44.7386 148.703C44.7419 148.704 44.7429 148.708 44.7404 148.711V148.711Z" fill="url(#paint7_linear_253_8786)" stroke="url(#paint8_linear_253_8786)" stroke-opacity="0.4" stroke-width="0.8" stroke-linejoin="round"/>
<path d="M82.1848 137.168C82.1848 137.166 82.1876 137.165 82.1882 137.167L85.4661 147.233C85.582 147.592 85.6168 147.975 85.5705 148.346C85.5241 148.717 85.3849 149.088 85.1878 149.401C84.9907 149.714 84.724 149.981 84.3994 150.201C84.0863 150.398 83.7153 150.537 83.3443 150.584L82.4863 150.688C81.8486 150.757 81.1993 150.584 80.6775 150.201L73.9165 145.096C73.8819 145.069 73.8653 145.026 73.8738 144.983V144.983C73.8797 144.954 73.8973 144.928 73.9225 144.911C77.0947 142.817 79.8983 140.194 82.1845 137.169C82.1847 137.169 82.1848 137.168 82.1848 137.168V137.168Z" fill="url(#paint9_linear_253_8786)" stroke="url(#paint10_linear_253_8786)" stroke-opacity="0.4" stroke-width="0.8" stroke-linejoin="round"/>
<path d="M49.0126 83.717L48.3633 78.3023L53.0127 77.6878L53.662 83.1025C52.8736 83.1025 52.0968 83.1605 51.3083 83.2532C50.5199 83.3576 49.7546 83.5083 49.001 83.717H49.0126Z" fill="#31A4FF"/>
<path d="M56.1664 72.7602L56.6302 76.3545C56.6882 76.8299 56.3519 77.2705 55.8765 77.3284L45.0819 78.7314C44.6065 78.7894 44.166 78.4531 44.108 77.9777L43.6442 74.3834C43.5862 73.908 43.9225 73.4674 44.3978 73.4095L55.1925 72.0065C55.6678 71.9485 56.1084 72.2848 56.1664 72.7602Z" fill="#31A4FF"/>
<path d="M22.067 112.298C24.5367 93.8623 41.4996 80.9227 59.9351 83.3924C78.3706 85.8736 91.3102 102.825 88.829 121.26C86.3593 139.696 69.3964 152.636 50.9609 150.166C32.5254 147.685 19.5858 130.733 22.067 112.298Z" fill="#AAD9FF"/>
<path d="M59.9351 83.4041C48.7115 81.8968 38.0212 86.1173 30.8325 93.8045C37.9516 87.2188 47.8419 83.7404 58.1959 85.1433C76.6314 87.6246 89.571 104.576 87.0897 123.011C86.1274 130.212 82.9273 136.577 78.3242 141.505C83.878 136.38 87.739 129.342 88.8289 121.272C91.2986 102.837 78.3706 85.8854 59.9351 83.4041Z" fill="white"/>
<path d="M45.3143 84.6564C49.8942 83.2071 54.8567 82.7201 59.9351 83.4042C78.3706 85.8854 91.3102 102.837 88.829 121.272C86.3593 139.708 69.3964 152.647 50.9609 150.166C32.5254 147.685 19.5858 130.734 22.067 112.298C23.0526 105.017 26.2875 98.5816 30.9949 93.6191" stroke="url(#paint11_linear_253_8786)" stroke-width="0.8" stroke-linecap="round" stroke-linejoin="round"/>
<path d="M35.7837 89.4449C37.6272 88.1115 39.6099 86.9752 41.6854 86.0477" stroke="url(#paint12_linear_253_8786)" stroke-width="0.8" stroke-linecap="round" stroke-linejoin="round"/>
<path d="M33.8003 90.987C33.9742 90.8478 34.1481 90.6855 34.3336 90.5464" stroke="url(#paint13_linear_253_8786)" stroke-width="0.8" stroke-linecap="round" stroke-linejoin="round"/>
<path opacity="0.9" d="M78.1036 134.223C73.4657 140.218 66.6365 144.137 59.1232 145.099C53.4998 145.83 47.7952 144.867 42.7283 142.351C37.6499 139.835 33.441 135.87 30.6235 130.965C27.806 126.049 26.5074 120.414 26.9016 114.768C27.2959 109.121 29.3481 103.706 32.8033 99.2308C36.2585 94.7553 40.9775 91.4045 46.3575 89.5957C51.7258 87.7985 57.5115 87.6362 62.9726 89.1203C68.4337 90.6044 73.3382 93.6886 77.0601 97.9554C80.782 102.222 83.1357 107.509 83.8545 113.121C84.8053 120.635 82.7415 128.229 78.1152 134.223H78.1036Z" fill="white"/>
<path d="M47.3434 116.391C47.9231 112.054 51.9117 109.017 56.2481 109.608C60.5845 110.188 63.6223 114.176 63.0425 118.513C62.4628 122.849 58.4742 125.887 54.1378 125.295C49.8014 124.716 46.7636 120.727 47.3434 116.391Z" fill="#DBEEFF"/>
<path d="M50.8912 116.866C51.2043 114.489 53.3957 112.831 55.761 113.156C58.1263 113.469 59.8075 115.649 59.4828 118.026C59.1698 120.403 56.9784 122.061 54.6131 121.736C52.2478 121.423 50.5666 119.243 50.8912 116.866Z" fill="#9ED1FF"/>
<path d="M78.1036 134.223C73.4657 140.218 66.6365 144.137 59.1232 145.099C53.4998 145.83 47.7952 144.867 42.7283 142.351C37.6499 139.835 33.441 135.87 30.6235 130.965C27.806 126.049 26.5074 120.414 26.9016 114.768C27.2959 109.121 29.3481 103.706 32.8033 99.2308C36.2585 94.7553 40.9775 91.4045 46.3575 89.5957C51.7258 87.7985 57.5115 87.6362 62.9726 89.1203C68.4337 90.6044 73.3382 93.6886 77.0601 97.9554C80.782 102.222 83.1357 107.509 83.8545 113.121C84.8053 120.635 82.7415 128.229 78.1152 134.223H78.1036ZM68.2829 139.14C71.2164 137.458 73.802 135.209 75.8658 132.531C77.9297 129.852 79.4486 126.791 80.3414 123.51C81.2226 120.24 81.4545 116.832 81.0255 113.481C80.3762 108.425 78.2311 103.672 74.8687 99.8338C71.5178 95.9959 67.0887 93.2248 62.1726 91.903C57.2448 90.5696 52.0388 90.732 47.2039 92.3668C42.3689 93.9901 38.1253 97.0163 35.0063 101.063C31.8873 105.098 30.0438 109.979 29.7076 115.069C29.3597 120.159 30.5424 125.238 33.0816 129.655C35.6208 134.073 39.4239 137.644 43.9922 139.905C48.572 142.177 53.7085 143.024 58.7637 142.363C62.1262 141.934 65.3611 140.844 68.2945 139.151L68.2829 139.14Z" fill="#DBEEFF"/>
<path d="M29.1745 128.275C29.1815 128.275 29.1879 128.28 29.1908 128.286C31.3361 133.082 34.7663 137.194 39.0995 140.183C34.3573 136.206 31.0412 130.803 29.6382 124.785C28.2353 118.768 28.815 112.449 31.2963 106.791C33.7775 101.121 38.0444 96.4249 43.4243 93.3756C48.8158 90.3262 55.0305 89.1203 61.1757 89.9088C65.686 90.4885 69.9992 92.1349 73.7327 94.7205C69.8021 91.4045 65.0599 89.2015 59.9698 88.3551C54.8914 87.5087 49.6854 88.0536 44.8852 89.9203C40.085 91.7871 35.8878 94.906 32.7224 98.9642C29.5571 103.011 27.5396 107.846 26.9019 112.947C26.2299 118.161 27.0167 123.456 29.1581 128.265C29.161 128.271 29.1674 128.275 29.1745 128.275V128.275Z" fill="url(#paint14_linear_253_8786)" stroke="url(#paint15_linear_253_8786)" stroke-opacity="0.4" stroke-width="0.8" stroke-linejoin="round"/>
<path d="M72.9095 101.515C69.8949 98.0596 65.9063 95.5667 61.4772 94.3725C60.0278 93.9783 58.5437 93.7464 57.048 93.6304C56.0393 93.5609 55.1929 94.3725 55.1929 95.3696C55.1929 96.2856 55.9001 97.0393 56.8045 97.0972C58.0683 97.1784 59.3322 97.3987 60.5612 97.7234C64.3295 98.7437 67.7035 100.854 70.2775 103.787C72.8515 106.721 74.4864 110.362 74.9733 114.234C75.0429 114.744 75.0777 115.254 75.1009 115.753C75.1357 116.692 75.9009 117.434 76.8401 117.434C77.8372 117.434 78.6372 116.599 78.5909 115.591C78.5677 114.988 78.5097 114.385 78.4285 113.782C77.8372 109.225 75.9125 104.958 72.8979 101.492L72.9095 101.515Z" fill="#DBEEFF"/>
<path d="M67.2859 105.845C67.2859 105.848 67.2887 105.849 67.2904 105.847C67.475 105.687 67.6936 105.584 67.9236 105.55L71.0835 105.192C71.878 105.102 72.4514 105.935 72.0843 106.645L70.6368 109.446C70.544 109.643 70.3701 109.817 70.173 109.91L56.387 117.678C55.8188 117.991 55.1115 117.817 54.7521 117.284C54.3927 116.75 54.5086 116.043 55.0072 115.637L67.2815 105.843C67.2833 105.842 67.2859 105.843 67.2859 105.845V105.845Z" fill="url(#paint16_linear_253_8786)" stroke="url(#paint17_linear_253_8786)" stroke-opacity="0.4" stroke-width="0.8" stroke-linejoin="round"/>
<path d="M74.9852 114.246C75.0548 114.756 75.0896 115.266 75.1128 115.765C75.1476 116.704 75.9128 117.446 76.852 117.446C77.8491 117.446 78.6491 116.611 78.6028 115.602C78.5796 114.999 78.5216 114.397 78.4404 113.794C78.1738 111.718 77.6056 109.701 76.8172 107.799L73.6519 109.26C74.3012 110.849 74.7649 112.518 74.9852 114.234V114.246Z" fill="#F19E39"/>
<path d="M152.232 26.9976L151.794 26.5589C150.85 25.6156 149.578 25.0892 148.262 25.0892H146.814C148.832 25.0892 150.467 26.7234 150.467 28.7525V65.1443C150.467 65.9889 150.105 66.7347 149.545 67.2721L149.589 67.305C149.468 67.3818 149.041 68.018 147.549 68.0618H127.872C127.532 68.0618 127.214 67.9851 126.907 67.8863L129.408 70.4858C130.099 71.1987 131.042 71.6045 132.04 71.6045H150.467C151.476 71.6045 152.375 71.1987 153.033 70.5406C153.702 69.8825 154.119 68.9612 154.119 67.9412V31.1435C154.119 29.5641 153.439 28.0505 152.243 27.0086H152.221L152.232 26.9976Z" fill="#2DA3FF"/>
<path d="M147.538 25.1001H128.322C126.447 25.1001 124.944 26.6247 124.944 28.4892V65.1443C124.944 66.7566 126.25 68.0728 127.862 68.0728H147.538C149.151 68.0728 150.456 66.7566 150.456 65.1443V28.0286C150.456 26.4163 149.151 25.1001 147.538 25.1001Z" fill="#AAD9FF"/>
<path d="M124.931 49.8964C124.933 49.898 124.934 49.8998 124.935 49.9017L132.512 62.2488C132.655 62.4791 132.918 62.6327 133.203 62.6327H153.097C153.65 62.6327 154.097 62.1849 154.097 61.6327V60.7653C154.097 60.3618 153.855 59.9979 153.482 59.8425L126.307 48.5026C125.649 48.2277 124.922 48.7116 124.922 49.4254V49.8758C124.922 49.8835 124.925 49.8909 124.931 49.8964V49.8964Z" fill="url(#paint18_linear_253_8786)" stroke="url(#paint19_linear_253_8786)" stroke-opacity="0.4" stroke-width="0.8" stroke-linejoin="round"/>
<path opacity="0.7" d="M150.456 47.3433H124.933V28.7525C124.933 26.7344 126.567 25.0892 129.935 25.0892H148.152C148.821 25.0892 150.445 26.7234 150.445 28.7525V47.3433H150.456Z" fill="white"/>
<path d="M124.845 26.9976L127.269 25.1001H147.769C149.205 25.1001 150.357 26.2737 150.357 27.6995V47.3432H149.118L148.482 29.9589C148.427 28.5111 147.253 27.3595 145.816 27.3376L124.834 26.9976H124.845Z" fill="white"/>
<path d="M152.233 26.9976C153.428 28.0505 154.108 29.5532 154.108 31.1326V67.9522C154.108 69.9703 152.474 71.6155 150.456 71.6155H132.523C131.207 71.6155 129.946 71.111 129.002 70.1896" stroke="url(#paint20_linear_253_8786)" stroke-width="0.8" stroke-linecap="round" stroke-linejoin="round"/>
<path d="M124.933 30.7267V28.4892C124.933 26.6137 126.447 25.1001 128.311 25.1001H135.462" stroke="url(#paint21_linear_253_8786)" stroke-width="0.8" stroke-linecap="round" stroke-linejoin="round"/>
<g opacity="0.4">
<path d="M135.737 34.8507H139.817C140.223 34.8507 140.552 35.1797 140.552 35.5856V47.3433H135.024V35.5856C135.024 35.1797 135.353 34.8507 135.759 34.8507H135.737Z" fill="url(#paint22_linear_253_8786)"/>
</g>
<path d="M152.277 69.8387L151.366 68.9503" stroke="url(#paint23_linear_253_8786)" stroke-width="0.8" stroke-linecap="round" stroke-linejoin="round"/>
<path d="M150.456 65.1443C150.456 66.7566 149.151 68.0728 147.538 68.0728H127.862C126.25 68.0728 124.944 66.7566 124.944 65.1443V33.688" stroke="url(#paint24_linear_253_8786)" stroke-width="0.8" stroke-linecap="round" stroke-linejoin="round"/>
<path d="M124.933 47.069L134.179 58.728C134.87 59.5945 135.923 60.11 137.031 60.11H158.967C159.581 60.11 159.921 59.408 159.537 58.9254L150.138 47.069H131.141" fill="white"/>
<g filter="url(#filter0_d_253_8786)">
<path d="M140.223 47.069H134.695L140.53 53.7595H146.069L140.223 47.069Z" fill="url(#paint25_linear_253_8786)"/>
</g>
<path d="M147.779 47.069H128.991" stroke="url(#paint26_linear_253_8786)" stroke-width="0.8" stroke-linecap="round" stroke-linejoin="round"/>
<path d="M124.933 47.0691L134.398 59.0023C134.947 59.7042 135.791 60.11 136.68 60.11H158.967C159.581 60.11 159.921 59.4081 159.537 58.9255L151.366 48.5168C150.774 47.76 150.445 46.8168 150.445 45.8406V43.1425" stroke="url(#paint27_linear_253_8786)" stroke-width="0.8" stroke-linecap="round" stroke-linejoin="round"/>
<path d="M139.422 25.1001H147.538C149.151 25.1001 150.456 26.4163 150.456 28.0286V38.7991" stroke="url(#paint28_linear_253_8786)" stroke-width="0.8" stroke-linecap="round" stroke-linejoin="round"/>
<path opacity="0.15" d="M137.601 30.9899C138.654 30.9899 139.499 30.1344 139.499 29.0925C139.499 28.0505 138.654 27.195 137.601 27.195C136.548 27.195 135.704 28.0505 135.704 29.0925C135.704 30.1344 136.559 30.9899 137.601 30.9899Z" fill="#2341DF"/>
<path d="M137.601 29.268V23.5865C137.601 21.6013 139.202 20 141.177 20C143.151 20 144.752 21.6013 144.752 23.5865V25.1001" stroke="url(#paint29_linear_253_8786)" stroke-width="0.8" stroke-linecap="round" stroke-linejoin="round"/>
<path d="M117.321 26.9976L116.883 26.5589C115.939 25.6156 114.667 25.0892 113.351 25.0892H111.903C113.921 25.0892 115.555 26.7234 115.555 28.7525V65.1443C115.555 65.9889 115.193 66.7347 114.634 67.2721L114.678 67.305C114.557 67.3818 114.13 68.018 112.638 68.0618H92.9613C92.6213 68.0618 92.3032 67.9851 91.9961 67.8863L94.4968 70.4858C95.1878 71.1987 96.131 71.6045 97.1291 71.6045H115.555C116.553 71.6045 117.464 71.1987 118.122 70.5406C118.791 69.8825 119.208 68.9612 119.208 67.9412V31.1435C119.208 29.5641 118.528 28.0505 117.332 27.0086H117.31L117.321 26.9976Z" fill="#2DA3FF"/>
<path d="M112.627 25.1001H93.4109C91.5353 25.1001 90.0327 26.6247 90.0327 28.4892V65.1443C90.0327 66.7566 91.3489 68.0728 92.9502 68.0728H112.627C114.239 68.0728 115.544 66.7566 115.544 65.1443V28.0286C115.544 26.4163 114.228 25.1001 112.627 25.1001Z" fill="#AAD9FF"/>
<path opacity="0.7" d="M115.545 47.3433H90.022V28.7525C90.022 26.7344 91.6562 25.0892 95.0234 25.0892H113.241C113.91 25.0892 115.534 26.7234 115.534 28.7525V47.3433H115.545Z" fill="white"/>
<path d="M90.0327 26.9976L92.4566 25.1001H112.956C114.393 25.1001 115.555 26.2737 115.555 27.6995V47.3432H114.316L113.68 29.9589C113.625 28.5111 112.451 27.3595 111.015 27.3376L90.0327 26.9976Z" fill="white"/>
<path d="M117.322 26.9976C118.517 28.0505 119.197 29.5532 119.197 31.1326V67.9522C119.197 69.9703 117.563 71.6155 115.545 71.6155H97.612C96.3068 71.6155 95.0346 71.111 94.0913 70.1896" stroke="url(#paint30_linear_253_8786)" stroke-width="0.8" stroke-linecap="round" stroke-linejoin="round"/>
<g filter="url(#filter1_d_253_8786)">
<path d="M100.069 47.3213H105.597V59.079C105.597 59.4848 105.268 59.8139 104.862 59.8139H100.782C100.376 59.8139 100.047 59.4848 100.047 59.079V47.3213H100.069Z" fill="url(#paint31_linear_253_8786)"/>
</g>
<g opacity="0.4">
<g filter="url(#filter2_d_253_8786)">
<path d="M100.803 34.8397H104.883C105.289 34.8397 105.618 35.1688 105.618 35.5746V47.3323H100.09V35.5746C100.09 35.1688 100.419 34.8397 100.825 34.8397H100.803Z" fill="url(#paint32_linear_253_8786)"/>
</g>
</g>
<path d="M117.376 69.8386L115.556 68.0618" stroke="url(#paint33_linear_253_8786)" stroke-width="0.8" stroke-linecap="round" stroke-linejoin="round"/>
<path d="M104.522 25.1001H112.638C114.25 25.1001 115.556 26.4163 115.556 28.0286V65.1443C115.556 66.7566 114.25 68.0728 112.638 68.0728H92.9614C91.3491 68.0728 90.0439 66.7566 90.0439 65.1443V33.688" stroke="url(#paint34_linear_253_8786)" stroke-width="0.8" stroke-linecap="round" stroke-linejoin="round"/>
<path d="M113.307 47.3433H93.7949" stroke="url(#paint35_linear_253_8786)" stroke-width="0.8" stroke-linecap="round" stroke-linejoin="round"/>
<path d="M104.521 25.1001H112.638C114.25 25.1001 115.555 26.4163 115.555 28.0286V47.3432" stroke="url(#paint36_linear_253_8786)" stroke-width="0.8" stroke-linecap="round" stroke-linejoin="round"/>
<path d="M90 30.7048V28.4673C90 26.5918 91.5136 25.0782 93.3781 25.0782H100.529" stroke="url(#paint37_linear_253_8786)" stroke-width="0.8" stroke-linecap="round" stroke-linejoin="round"/>
<path d="M102.69 29.268V23.5865C102.69 21.6013 104.291 20 106.266 20C108.24 20 109.841 21.6013 109.841 23.5865V25.1001" stroke="url(#paint38_linear_253_8786)" stroke-width="0.8" stroke-linecap="round" stroke-linejoin="round"/>
<path opacity="0.15" d="M102.668 31.1545C103.721 31.1545 104.565 30.299 104.565 29.257C104.565 28.2151 103.721 27.3596 102.668 27.3596C101.615 27.3596 100.771 28.2151 100.771 29.257C100.771 30.299 101.615 31.1545 102.668 31.1545Z" fill="#2341DF"/>
<defs>
<filter id="filter0_d_253_8786" x="129.695" y="44.069" width="19.374" height="14.6905" filterUnits="userSpaceOnUse" color-interpolation-filters="sRGB">
<feFlood flood-opacity="0" result="BackgroundImageFix"/>
<feColorMatrix in="SourceAlpha" type="matrix" values="0 0 0 0 0 0 0 0 0 0 0 0 0 0 0 0 0 0 127 0" result="hardAlpha"/>
<feOffset dx="-1" dy="1"/>
<feGaussianBlur stdDeviation="2"/>
<feComposite in2="hardAlpha" operator="out"/>
<feColorMatrix type="matrix" values="0 0 0 0 1 0 0 0 0 0.823529 0 0 0 0 0.341176 0 0 0 0.36 0"/>
<feBlend mode="normal" in2="BackgroundImageFix" result="effect1_dropShadow_253_8786"/>
<feBlend mode="normal" in="SourceGraphic" in2="effect1_dropShadow_253_8786" result="shape"/>
</filter>
<filter id="filter1_d_253_8786" x="95.0469" y="44.3213" width="13.5498" height="20.4926" filterUnits="userSpaceOnUse" color-interpolation-filters="sRGB">
<feFlood flood-opacity="0" result="BackgroundImageFix"/>
<feColorMatrix in="SourceAlpha" type="matrix" values="0 0 0 0 0 0 0 0 0 0 0 0 0 0 0 0 0 0 127 0" result="hardAlpha"/>
<feOffset dx="-1" dy="1"/>
<feGaussianBlur stdDeviation="2"/>
<feComposite in2="hardAlpha" operator="out"/>
<feColorMatrix type="matrix" values="0 0 0 0 1 0 0 0 0 0.823529 0 0 0 0 0.341176 0 0 0 0.36 0"/>
<feBlend mode="normal" in2="BackgroundImageFix" result="effect1_dropShadow_253_8786"/>
<feBlend mode="normal" in="SourceGraphic" in2="effect1_dropShadow_253_8786" result="shape"/>
</filter>
<filter id="filter2_d_253_8786" x="95.0903" y="31.8397" width="13.5278" height="20.4926" filterUnits="userSpaceOnUse" color-interpolation-filters="sRGB">
<feFlood flood-opacity="0" result="BackgroundImageFix"/>
<feColorMatrix in="SourceAlpha" type="matrix" values="0 0 0 0 0 0 0 0 0 0 0 0 0 0 0 0 0 0 127 0" result="hardAlpha"/>
<feOffset dx="-1" dy="1"/>
<feGaussianBlur stdDeviation="2"/>
<feComposite in2="hardAlpha" operator="out"/>
<feColorMatrix type="matrix" values="0 0 0 0 1 0 0 0 0 0.823529 0 0 0 0 0.341176 0 0 0 0.36 0"/>
<feBlend mode="normal" in2="BackgroundImageFix" result="effect1_dropShadow_253_8786"/>
<feBlend mode="normal" in="SourceGraphic" in2="effect1_dropShadow_253_8786" result="shape"/>
</filter>
<linearGradient id="paint0_linear_253_8786" x1="75.0717" y1="157.086" x2="98.7638" y2="157.086" gradientUnits="userSpaceOnUse">
<stop stop-color="#1B217C"/>
<stop offset="1" stop-color="#1B217C" stop-opacity="0"/>
</linearGradient>
<linearGradient id="paint1_linear_253_8786" x1="65.1915" y1="147.229" x2="67.5829" y2="147.229" gradientUnits="userSpaceOnUse">
<stop stop-color="#1B217C"/>
<stop offset="1" stop-color="#1B217C" stop-opacity="0"/>
</linearGradient>
<linearGradient id="paint2_linear_253_8786" x1="29.7749" y1="157.086" x2="62.0317" y2="157.086" gradientUnits="userSpaceOnUse">
<stop stop-color="#1B217C"/>
<stop offset="1" stop-color="#1B217C" stop-opacity="0"/>
</linearGradient>
<linearGradient id="paint3_linear_253_8786" x1="34.52" y1="109.703" x2="17.2711" y2="109.703" gradientUnits="userSpaceOnUse">
<stop stop-color="#008FFF"/>
<stop offset="1" stop-color="#33A5FF"/>
</linearGradient>
<linearGradient id="paint4_linear_253_8786" x1="35.475" y1="112.532" x2="9.45091" y2="110.03" gradientUnits="userSpaceOnUse">
<stop stop-color="white"/>
<stop offset="1" stop-color="white" stop-opacity="0"/>
</linearGradient>
<linearGradient id="paint5_linear_253_8786" x1="89.4269" y1="102.535" x2="69.318" y2="102.535" gradientUnits="userSpaceOnUse">
<stop stop-color="#008FFF"/>
<stop offset="1" stop-color="#33A5FF"/>
</linearGradient>
<linearGradient id="paint6_linear_253_8786" x1="90.5403" y1="105.111" x2="60.3776" y2="101.399" gradientUnits="userSpaceOnUse">
<stop stop-color="white"/>
<stop offset="1" stop-color="white" stop-opacity="0"/>
</linearGradient>
<linearGradient id="paint7_linear_253_8786" x1="44.5797" y1="154.951" x2="34.2512" y2="154.951" gradientUnits="userSpaceOnUse">
<stop stop-color="#008FFF"/>
<stop offset="1" stop-color="#33A5FF"/>
</linearGradient>
<linearGradient id="paint8_linear_253_8786" x1="45.1515" y1="156.578" x2="29.5804" y2="155.02" gradientUnits="userSpaceOnUse">
<stop stop-color="white"/>
<stop offset="1" stop-color="white" stop-opacity="0"/>
</linearGradient>
<linearGradient id="paint9_linear_253_8786" x1="85.2955" y1="149.045" x2="74.0368" y2="149.045" gradientUnits="userSpaceOnUse">
<stop stop-color="#008FFF"/>
<stop offset="1" stop-color="#33A5FF"/>
</linearGradient>
<linearGradient id="paint10_linear_253_8786" x1="85.9189" y1="150.704" x2="68.9694" y2="148.891" gradientUnits="userSpaceOnUse">
<stop stop-color="white"/>
<stop offset="1" stop-color="white" stop-opacity="0"/>
</linearGradient>
<linearGradient id="paint11_linear_253_8786" x1="27.1071" y1="117.406" x2="95.431" y2="117.406" gradientUnits="userSpaceOnUse">
<stop stop-color="#1B217C"/>
<stop offset="1" stop-color="#1B217C" stop-opacity="0"/>
</linearGradient>
<linearGradient id="paint12_linear_253_8786" x1="36.2519" y1="87.7776" x2="42.237" y2="87.7776" gradientUnits="userSpaceOnUse">
<stop stop-color="#1B217C"/>
<stop offset="1" stop-color="#1B217C" stop-opacity="0"/>
</linearGradient>
<linearGradient id="paint13_linear_253_8786" x1="33.8426" y1="90.7707" x2="34.3835" y2="90.7707" gradientUnits="userSpaceOnUse">
<stop stop-color="#1B217C"/>
<stop offset="1" stop-color="#1B217C" stop-opacity="0"/>
</linearGradient>
<linearGradient id="paint14_linear_253_8786" x1="72.5498" y1="133.792" x2="27.3784" y2="133.792" gradientUnits="userSpaceOnUse">
<stop stop-color="#008FFF"/>
<stop offset="1" stop-color="#33A5FF"/>
</linearGradient>
<linearGradient id="paint15_linear_253_8786" x1="75.0508" y1="140.188" x2="7.11149" y2="132.623" gradientUnits="userSpaceOnUse">
<stop stop-color="white"/>
<stop offset="1" stop-color="white" stop-opacity="0"/>
</linearGradient>
<linearGradient id="paint16_linear_253_8786" x1="72.4816" y1="116.26" x2="54.8205" y2="116.26" gradientUnits="userSpaceOnUse">
<stop stop-color="#008FFF"/>
<stop offset="1" stop-color="#33A5FF"/>
</linearGradient>
<linearGradient id="paint17_linear_253_8786" x1="73.4595" y1="117.835" x2="47.3831" y2="113.222" gradientUnits="userSpaceOnUse">
<stop stop-color="white"/>
<stop offset="1" stop-color="white" stop-opacity="0"/>
</linearGradient>
<linearGradient id="paint18_linear_253_8786" x1="153.364" y1="60.8323" x2="125.362" y2="60.8323" gradientUnits="userSpaceOnUse">
<stop stop-color="#008FFF"/>
<stop offset="1" stop-color="#33A5FF"/>
</linearGradient>
<linearGradient id="paint19_linear_253_8786" x1="154.914" y1="62.6339" x2="114.692" y2="52.7782" gradientUnits="userSpaceOnUse">
<stop stop-color="white"/>
<stop offset="1" stop-color="white" stop-opacity="0"/>
</linearGradient>
<linearGradient id="paint20_linear_253_8786" x1="113.299" y1="40.4649" x2="156.63" y2="48.8108" gradientUnits="userSpaceOnUse">
<stop stop-color="#1B217C"/>
<stop offset="1" stop-color="#1B217C" stop-opacity="0"/>
</linearGradient>
<linearGradient id="paint21_linear_253_8786" x1="118.347" y1="26.7984" x2="131.711" y2="35.3586" gradientUnits="userSpaceOnUse">
<stop stop-color="#1B217C"/>
<stop offset="1" stop-color="#1B217C" stop-opacity="0"/>
</linearGradient>
<linearGradient id="paint22_linear_253_8786" x1="140.37" y1="45.813" x2="135.145" y2="45.813" gradientUnits="userSpaceOnUse">
<stop stop-color="#FFBB00"/>
<stop offset="1" stop-color="#FFE18F"/>
</linearGradient>
<linearGradient id="paint23_linear_253_8786" x1="150.797" y1="69.2184" x2="152.248" y2="69.7273" gradientUnits="userSpaceOnUse">
<stop stop-color="#1B217C"/>
<stop offset="1" stop-color="#1B217C" stop-opacity="0"/>
</linearGradient>
<linearGradient id="paint24_linear_253_8786" x1="108.987" y1="44.0666" x2="151.885" y2="54.9613" gradientUnits="userSpaceOnUse">
<stop stop-color="#1B217C"/>
<stop offset="1" stop-color="#1B217C" stop-opacity="0"/>
</linearGradient>
<linearGradient id="paint25_linear_253_8786" x1="145.694" y1="52.94" x2="134.945" y2="52.94" gradientUnits="userSpaceOnUse">
<stop stop-color="#FFBB00"/>
<stop offset="1" stop-color="#FFE18F"/>
</linearGradient>
<linearGradient id="paint26_linear_253_8786" x1="117.24" y1="47.3709" x2="118.033" y2="52.4765" gradientUnits="userSpaceOnUse">
<stop stop-color="#1B217C"/>
<stop offset="1" stop-color="#1B217C" stop-opacity="0"/>
</linearGradient>
<linearGradient id="paint27_linear_253_8786" x1="103.187" y1="48.2639" x2="144.898" y2="77.5191" gradientUnits="userSpaceOnUse">
<stop stop-color="#1B217C"/>
<stop offset="1" stop-color="#1B217C" stop-opacity="0"/>
</linearGradient>
<linearGradient id="paint28_linear_253_8786" x1="132.52" y1="29.235" x2="150.875" y2="34.2955" gradientUnits="userSpaceOnUse">
<stop stop-color="#1B217C"/>
<stop offset="1" stop-color="#1B217C" stop-opacity="0"/>
</linearGradient>
<linearGradient id="paint29_linear_253_8786" x1="133.128" y1="22.7974" x2="145.094" y2="25.9577" gradientUnits="userSpaceOnUse">
<stop stop-color="#1B217C"/>
<stop offset="1" stop-color="#1B217C" stop-opacity="0"/>
</linearGradient>
<linearGradient id="paint30_linear_253_8786" x1="78.3881" y1="40.4649" x2="121.718" y2="48.8108" gradientUnits="userSpaceOnUse">
<stop stop-color="#1B217C"/>
<stop offset="1" stop-color="#1B217C" stop-opacity="0"/>
</linearGradient>
<linearGradient id="paint31_linear_253_8786" x1="105.414" y1="58.2836" x2="100.169" y2="58.2836" gradientUnits="userSpaceOnUse">
<stop stop-color="#FFBB00"/>
<stop offset="1" stop-color="#FFE18F"/>
</linearGradient>
<linearGradient id="paint32_linear_253_8786" x1="105.436" y1="45.8021" x2="100.212" y2="45.8021" gradientUnits="userSpaceOnUse">
<stop stop-color="#FFBB00"/>
<stop offset="1" stop-color="#FFE18F"/>
</linearGradient>
<linearGradient id="paint33_linear_253_8786" x1="114.417" y1="68.5981" x2="117.319" y2="69.616" gradientUnits="userSpaceOnUse">
<stop stop-color="#1B217C"/>
<stop offset="1" stop-color="#1B217C" stop-opacity="0"/>
</linearGradient>
<linearGradient id="paint34_linear_253_8786" x1="74.0869" y1="38.0708" x2="117.94" y2="46.9825" gradientUnits="userSpaceOnUse">
<stop stop-color="#1B217C"/>
<stop offset="1" stop-color="#1B217C" stop-opacity="0"/>
</linearGradient>
<linearGradient id="paint35_linear_253_8786" x1="81.5905" y1="47.6451" x2="82.3562" y2="52.7595" gradientUnits="userSpaceOnUse">
<stop stop-color="#1B217C"/>
<stop offset="1" stop-color="#1B217C" stop-opacity="0"/>
</linearGradient>
<linearGradient id="paint36_linear_253_8786" x1="105.397" y1="36.4267" x2="116.587" y2="36.4267" gradientUnits="userSpaceOnUse">
<stop stop-color="#1B217C"/>
<stop offset="1" stop-color="#1B217C" stop-opacity="0"/>
</linearGradient>
<linearGradient id="paint37_linear_253_8786" x1="83.4141" y1="26.7765" x2="96.7775" y2="35.3367" gradientUnits="userSpaceOnUse">
<stop stop-color="#1B217C"/>
<stop offset="1" stop-color="#1B217C" stop-opacity="0"/>
</linearGradient>
<linearGradient id="paint38_linear_253_8786" x1="98.217" y1="22.7974" x2="110.182" y2="25.9577" gradientUnits="userSpaceOnUse">
<stop stop-color="#1B217C"/>
<stop offset="1" stop-color="#1B217C" stop-opacity="0"/>
</linearGradient>
</defs>
</svg>
