<svg width="56" height="56" viewBox="0 0 56 56" fill="none" xmlns="http://www.w3.org/2000/svg">
<path d="M4.09074 13.8152C4.05245 13.2619 4.47181 12.7815 5.02531 12.7447L37.1691 10.6057C37.7229 10.5689 38.1993 10.9902 38.2302 11.5444L40.3332 49.2292C40.3641 49.7826 39.939 50.2572 39.3855 50.2872L7.71782 52.0041C7.17353 52.0336 6.70743 51.6217 6.66979 51.0779L4.09074 13.8152Z" fill="#99CEFF"/>
<path d="M4.12112 12.2591C4.08503 11.7086 4.5016 11.2312 5.05201 11.1924L12.5331 10.665L37.2691 9.32396C37.8202 9.29408 38.2897 9.71641 38.3181 10.2676L40.3299 49.2321C40.3584 49.784 39.9339 50.256 39.382 50.2859L7.71375 52.0028C7.16805 52.0324 6.70122 51.6184 6.66548 51.0731L4.12112 12.2591Z" stroke="url(#paint0_linear_717_8481)" stroke-width="0.5" stroke-linecap="round" stroke-linejoin="round"/>
<path d="M11.2773 4C11.2773 3.44772 11.7251 3 12.2773 3H46.6665C47.2188 3 47.6665 3.44772 47.6665 4V46.9201C47.6665 47.4724 47.2188 47.9201 46.6665 47.9201H12.2773C11.7251 47.9201 11.2773 47.4724 11.2773 46.9201V4Z" fill="#E5F4FF"/>
<g style="mix-blend-mode:overlay">
<path d="M11.2773 3H47.6665V47.9201H11.2773V3Z" fill="url(#paint1_linear_717_8481)"/>
</g>
<path d="M12.2773 3C11.7251 3 11.2773 3.44772 11.2773 4V46.9201C11.2773 47.4724 11.7251 47.9201 12.2773 47.9201H13.3567V7.08935C13.3567 5.98478 14.2521 5.08936 15.3567 5.08936H47.6665V4C47.6665 3.44772 47.2188 3 46.6665 3H12.2773Z" fill="white"/>
<g style="mix-blend-mode:overlay" filter="url(#filter0_d_717_8481)">
<ellipse cx="23.2333" cy="34.8621" rx="4.67861" ry="4.70095" fill="black"/>
</g>
<path d="M12.2773 47.9201H46.6665C47.2188 47.9201 47.6665 47.4724 47.6665 46.9201V25.4601V14.23V4C47.6665 3.44772 47.2188 3 46.6665 3H43.1179H38.5692H29.4719H12.2773C11.7251 3 11.2773 3.44772 11.2773 4V46.9201C11.2773 47.4724 11.7251 47.9201 12.2773 47.9201Z" stroke="url(#paint2_linear_717_8481)" stroke-width="0.5" stroke-linecap="round" stroke-linejoin="round"/>
<g style="mix-blend-mode:overlay" filter="url(#filter1_d_717_8481)">
<path fill-rule="evenodd" clip-rule="evenodd" d="M16.9961 11.3573C16.9961 11.0688 17.2288 10.835 17.5159 10.835H34.151C34.4381 10.835 34.6708 11.0688 34.6708 11.3573C34.6708 11.6458 34.4381 11.8796 34.151 11.8796H17.5159C17.2288 11.8796 16.9961 11.6458 16.9961 11.3573ZM16.9961 14.4913C16.9961 14.2028 17.2288 13.9689 17.5159 13.9689H27.9128C28.1999 13.9689 28.4327 14.2028 28.4327 14.4913C28.4327 14.7797 28.1999 15.0136 27.9128 15.0136H17.5159C17.2288 15.0136 16.9961 14.7797 16.9961 14.4913ZM20.1152 17.6252C20.1152 17.3367 20.3479 17.1029 20.635 17.1029H24.7938C25.0809 17.1029 25.3136 17.3367 25.3136 17.6252C25.3136 17.9137 25.0809 18.1475 24.7938 18.1475H20.635C20.3479 18.1475 20.1152 17.9137 20.1152 17.6252Z" fill="black"/>
</g>
<path fill-rule="evenodd" clip-rule="evenodd" d="M25.1637 37.3891C25.0997 36.8516 24.4539 36.647 24.1129 37.0564L20.7006 41.153C19.3354 42.7921 16.7813 42.3107 16.0555 40.2774C15.8857 39.8017 16.1187 39.2728 16.5759 39.0961C17.0331 38.9194 17.5414 39.1618 17.7112 39.6375C17.9697 40.3619 18.8796 40.5334 19.3659 39.9495L22.7782 35.8528C24.121 34.2407 26.6645 35.0462 26.9165 37.1633L27.386 41.1092C27.3883 41.1287 27.3933 41.1352 27.3954 41.1379C27.3995 41.1432 27.4079 41.1507 27.4211 41.1561C27.4343 41.1614 27.4453 41.1617 27.4518 41.1607C27.4551 41.1602 27.463 41.159 27.4774 41.1462L28.8008 39.9743C30.9023 38.1134 34.1261 38.8122 35.3386 41.3914C35.5529 41.8473 35.3714 42.3976 34.9333 42.6206C34.4952 42.8436 33.9663 42.6548 33.752 42.1989C33.046 40.6972 31.169 40.2903 29.9455 41.3738L28.6221 42.5457C27.5178 43.5236 25.8114 42.8324 25.6332 41.335L25.1637 37.3891Z" fill="url(#paint3_linear_717_8481)" stroke="url(#paint4_linear_717_8481)" stroke-opacity="0.4" stroke-width="0.5" stroke-linejoin="round"/>
<path d="M35.5223 29.7085C35.1214 29.8884 34.6511 29.7852 34.3629 29.4541L30.3823 24.8807C30.2084 24.6809 30.1209 24.42 30.139 24.1551L30.7217 15.6344C30.7766 14.8326 31.7035 14.4168 32.3343 14.9111L39.0349 20.1626C39.2431 20.3258 39.3781 20.5652 39.4101 20.8285L40.1438 26.8595C40.1969 27.2961 39.9595 27.7169 39.5587 27.8968L35.5223 29.7085Z" fill="#99CEFF"/>
<path d="M42.4695 29.5395C42.399 29.8461 42.1891 30.102 41.9026 30.2306L35.6859 33.0208C35.3994 33.1494 35.0696 33.1357 34.7953 32.9839L34.2001 32.6543C33.8105 32.4387 33.6111 31.9902 33.7112 31.5548L33.8642 30.8894C33.9347 30.5829 34.1446 30.3269 34.4311 30.1984L40.6478 27.4081C40.9343 27.2795 41.2641 27.2932 41.5384 27.445L42.1336 27.7746C42.5232 27.9902 42.7226 28.4388 42.6225 28.8741L42.4695 29.5395Z" fill="url(#paint5_linear_717_8481)" stroke="url(#paint6_linear_717_8481)" stroke-opacity="0.4" stroke-width="0.5" stroke-linejoin="round"/>
<path d="M38.7971 31.6244L37.9112 32.0221C37.3869 32.2574 37.1668 32.8858 37.4297 33.3967L46.2467 50.5274C46.4586 50.939 46.9543 51.1125 47.3767 50.923C47.7991 50.7334 48.0012 50.2466 47.8374 49.8135L41.0195 31.7853C40.8162 31.2477 40.2036 30.9932 39.6794 31.2284L38.7971 31.6244Z" fill="url(#paint7_linear_717_8481)" stroke="url(#paint8_linear_717_8481)" stroke-opacity="0.4" stroke-width="0.5" stroke-linejoin="round"/>
<path d="M35.5703 24.3117C36.3674 23.9539 36.7214 23.0066 36.361 22.1957C36.0005 21.3849 35.062 21.0176 34.2649 21.3754C33.4677 21.7332 33.1138 22.6805 33.4742 23.4914C33.8347 24.3022 34.7732 24.6695 35.5703 24.3117Z" fill="#EBF5FF" stroke="url(#paint9_linear_717_8481)" stroke-opacity="0.4" stroke-width="0.5" stroke-linejoin="round"/>
<path d="M31.1953 14.9131L33.9704 21.014" stroke="url(#paint10_linear_717_8481)" stroke-opacity="0.4" stroke-width="0.5" stroke-linecap="round" stroke-linejoin="round"/>
<defs>
<filter id="filter0_d_717_8481" x="16.5547" y="29.1611" width="13.3572" height="13.4019" filterUnits="userSpaceOnUse" color-interpolation-filters="sRGB">
<feFlood flood-opacity="0" result="BackgroundImageFix"/>
<feColorMatrix in="SourceAlpha" type="matrix" values="0 0 0 0 0 0 0 0 0 0 0 0 0 0 0 0 0 0 127 0" result="hardAlpha"/>
<feOffset dy="1"/>
<feGaussianBlur stdDeviation="1"/>
<feComposite in2="hardAlpha" operator="out"/>
<feColorMatrix type="matrix" values="0 0 0 0 0 0 0 0 0 0.4 0 0 0 0 1 0 0 0 0.2 0"/>
<feBlend mode="normal" in2="BackgroundImageFix" result="effect1_dropShadow_717_8481"/>
<feBlend mode="normal" in="SourceGraphic" in2="effect1_dropShadow_717_8481" result="shape"/>
</filter>
<filter id="filter1_d_717_8481" x="14.9961" y="9.83496" width="21.6748" height="11.3126" filterUnits="userSpaceOnUse" color-interpolation-filters="sRGB">
<feFlood flood-opacity="0" result="BackgroundImageFix"/>
<feColorMatrix in="SourceAlpha" type="matrix" values="0 0 0 0 0 0 0 0 0 0 0 0 0 0 0 0 0 0 127 0" result="hardAlpha"/>
<feOffset dy="1"/>
<feGaussianBlur stdDeviation="1"/>
<feComposite in2="hardAlpha" operator="out"/>
<feColorMatrix type="matrix" values="0 0 0 0 0 0 0 0 0 0.4 0 0 0 0 1 0 0 0 0.2 0"/>
<feBlend mode="normal" in2="BackgroundImageFix" result="effect1_dropShadow_717_8481"/>
<feBlend mode="normal" in="SourceGraphic" in2="effect1_dropShadow_717_8481" result="shape"/>
</filter>
<linearGradient id="paint0_linear_717_8481" x1="-10.6528" y1="-1.7729" x2="43.1096" y2="53.7205" gradientUnits="userSpaceOnUse">
<stop stop-color="#1B217C"/>
<stop offset="1" stop-color="#1B217C" stop-opacity="0"/>
</linearGradient>
<linearGradient id="paint1_linear_717_8481" x1="55.4995" y1="-1.50002" x2="25.8597" y2="41.008" gradientUnits="userSpaceOnUse">
<stop/>
<stop offset="1" stop-opacity="0"/>
</linearGradient>
<linearGradient id="paint2_linear_717_8481" x1="-6.3974" y1="-5.98403" x2="39.3438" y2="33.419" gradientUnits="userSpaceOnUse">
<stop stop-color="#1B217C"/>
<stop offset="1" stop-color="#1B217C" stop-opacity="0"/>
</linearGradient>
<linearGradient id="paint3_linear_717_8481" x1="34.7881" y1="42.0201" x2="16.427" y2="42.0201" gradientUnits="userSpaceOnUse">
<stop stop-color="#008FFF"/>
<stop offset="1" stop-color="#33A5FF"/>
</linearGradient>
<linearGradient id="paint4_linear_717_8481" x1="35.8047" y1="43" x2="10.0904" y2="35.4042" gradientUnits="userSpaceOnUse">
<stop stop-color="white"/>
<stop offset="1" stop-color="white" stop-opacity="0"/>
</linearGradient>
<linearGradient id="paint5_linear_717_8481" x1="42.9603" y1="29.3412" x2="34.2054" y2="33.2333" gradientUnits="userSpaceOnUse">
<stop stop-color="#008FFF"/>
<stop offset="1" stop-color="#33A5FF"/>
</linearGradient>
<linearGradient id="paint6_linear_717_8481" x1="43.5979" y1="29.4697" x2="30.0756" y2="29.997" gradientUnits="userSpaceOnUse">
<stop stop-color="white"/>
<stop offset="1" stop-color="white" stop-opacity="0"/>
</linearGradient>
<linearGradient id="paint7_linear_717_8481" x1="48.0517" y1="47.7844" x2="44.5497" y2="49.3413" gradientUnits="userSpaceOnUse">
<stop stop-color="#008FFF"/>
<stop offset="1" stop-color="#33A5FF"/>
</linearGradient>
<linearGradient id="paint8_linear_717_8481" x1="49.2962" y1="50.0614" x2="43.9119" y2="52.3061" gradientUnits="userSpaceOnUse">
<stop stop-color="white"/>
<stop offset="1" stop-color="white" stop-opacity="0"/>
</linearGradient>
<linearGradient id="paint9_linear_717_8481" x1="37.0695" y1="23.6388" x2="32.7513" y2="24.9707" gradientUnits="userSpaceOnUse">
<stop stop-color="white"/>
<stop offset="1" stop-color="white" stop-opacity="0"/>
</linearGradient>
<linearGradient id="paint10_linear_717_8481" x1="33.5261" y1="20.9717" x2="28.6252" y2="13.6202" gradientUnits="userSpaceOnUse">
<stop stop-color="white"/>
<stop offset="1" stop-color="white" stop-opacity="0"/>
</linearGradient>
</defs>
</svg>
