<svg width="128" height="128" viewBox="0 0 128 128" fill="none" xmlns="http://www.w3.org/2000/svg">
<g id="Group">
<g id="Layer 1">
<path id="Vector" d="M130.477 -2.47656H-2.47632V130.476H130.477V-2.47656Z" fill="#00B2FF"/>
<g id="Group_2">
<g id="Group_3">
<path id="Vector_2" d="M83.4272 97.6152H44.8029C41.7796 97.6152 39.3284 100.066 39.3284 103.09V103.55C39.3284 105.087 39.9622 106.475 40.9803 107.468C43.3641 109.79 45.0973 112.698 45.7676 115.96L48.547 147.348H79.8458L82.7317 116.526C83.2758 113.108 84.7959 109.877 87.2639 107.454C88.2735 106.461 88.9017 105.078 88.9017 103.55V103.09C88.9017 100.066 86.4505 97.6152 83.4272 97.6152Z" fill="#F7E4E8" stroke="black" stroke-width="0.280456" stroke-linecap="round" stroke-linejoin="round"/>
<path id="Vector_3" fill-rule="evenodd" clip-rule="evenodd" d="M53.6962 114.967C54.0075 114.967 54.2627 115.203 54.2627 115.494C54.2627 115.786 54.0103 116.022 53.6962 116.022C53.3821 116.022 53.1296 115.786 53.1296 115.494C53.1296 115.203 53.3821 114.967 53.6962 114.967Z" fill="#F1BBCE" stroke="#F1BBCE" stroke-width="0.280456" stroke-linecap="round" stroke-linejoin="round"/>
<path id="Vector_4" fill-rule="evenodd" clip-rule="evenodd" d="M74.9435 114.967C75.2548 114.967 75.51 115.203 75.51 115.494C75.51 115.786 75.2576 116.022 74.9435 116.022C74.6294 116.022 74.377 115.786 74.377 115.494C74.377 115.203 74.6294 114.967 74.9435 114.967Z" fill="#F1BBCE" stroke="#F1BBCE" stroke-width="0.280456" stroke-linecap="round" stroke-linejoin="round"/>
</g>
<g id="Group_4">
<path id="Vector_5" d="M89.0923 104.873C89.0923 105.636 88.9716 106.371 88.7529 107.064L88.7333 107.122C88.6996 107.223 88.666 107.324 88.6267 107.422L84.8938 118.893C81.534 128.493 84.5853 144.241 84.5853 154.41V154.623L77.7366 156.407C68.4844 158.934 58.7133 158.864 49.5003 156.199L43.7369 154.623V154.533C43.7369 144.283 46.7603 128.459 43.3499 118.792L39.6255 107.448C39.5834 107.338 39.5441 107.226 39.5077 107.111L39.4908 107.064C39.2721 106.371 39.1543 105.636 39.1543 104.873C39.1543 100.989 40.4276 98.2292 44.6176 97.6598C45.6777 97.5168 46.878 97.3597 48.1541 97.1999C54.9215 96.3417 63.7082 95.3489 63.7082 95.3489C63.7082 95.3489 73.3166 96.3136 80.1541 97.169C81.5564 97.3429 82.8409 97.514 83.9038 97.6682C87.4319 98.1843 89.0923 101.098 89.0923 104.873Z" fill="#0089CA" stroke="black" stroke-width="0.280456" stroke-linecap="round" stroke-linejoin="round"/>
<g id="Group_5">
<path id="Vector_6" d="M66.9782 91.6245H61.0466C59.2266 91.6245 57.7512 93.0999 57.7512 94.9199V95.0601C57.7512 96.8801 59.2266 98.3554 61.0466 98.3554H66.9782C68.7982 98.3554 70.2736 96.8801 70.2736 95.0601V94.9199C70.2736 93.0999 68.7982 91.6245 66.9782 91.6245Z" fill="#F7E4E8" stroke="black" stroke-width="0.280456" stroke-linecap="round" stroke-linejoin="round"/>
<path id="Vector_7" fill-rule="evenodd" clip-rule="evenodd" d="M70.153 95.9828C70.296 96.1763 70.3745 96.3782 70.3745 96.5858C70.3745 97.859 67.5195 98.8911 63.9998 98.8911C60.48 98.8911 57.625 97.859 57.625 96.5858C57.625 96.3754 57.7035 96.1735 57.8466 95.98C58.5814 96.9616 61.0578 97.6823 63.9998 97.6823C66.9417 97.6823 69.4182 96.9616 70.153 95.9828Z" fill="#00408A" stroke="black" stroke-width="0.280456" stroke-linecap="round" stroke-linejoin="round"/>
</g>
</g>
<g id="Group_6">
<path id="Vector_8" d="M39.4407 101.996C39.4211 102.072 39.4127 102.147 39.3987 102.22L39.3706 102.215L34.3112 129.071C33.7503 131.379 35.1694 133.707 37.4775 134.268C39.7857 134.829 42.1135 133.41 42.6744 131.102L50.3645 105.249C50.429 105.067 50.4851 104.879 50.5328 104.688C51.276 101.626 49.3969 98.5408 46.3343 97.7976C43.2718 97.0544 40.1867 98.9334 39.4435 101.996H39.4407Z" stroke="black" stroke-width="0.280456" stroke-linecap="round" stroke-linejoin="round"/>
<path id="Vector_9" d="M34.1963 129.859C34.1878 130.014 34.1878 130.168 34.1963 130.317L34.2299 157.423C34.1486 158.971 35.3349 160.289 36.8802 160.373C38.4283 160.454 39.7465 159.268 39.8306 157.723L42.7389 130.774C42.7642 130.625 42.781 130.474 42.7894 130.319C42.9156 127.947 41.0955 125.919 38.72 125.793C36.3473 125.667 34.3197 127.487 34.1934 129.862L34.1963 129.859Z" fill="#F7E4E8" stroke="black" stroke-width="0.280456" stroke-linecap="round" stroke-linejoin="round"/>
<path id="Vector_10" d="M39.4407 101.996C39.4211 102.072 39.4127 102.147 39.3987 102.22L39.3706 102.215L34.3112 129.071C33.7503 131.379 35.1694 133.707 37.4775 134.268C39.7857 134.829 42.1135 133.41 42.6744 131.102L50.3645 105.249C50.429 105.067 50.4851 104.879 50.5328 104.688C51.276 101.626 49.3969 98.5408 46.3343 97.7976C43.2718 97.0544 40.1867 98.9334 39.4435 101.996H39.4407Z" fill="#0089CA" stroke="black" stroke-width="0.280456" stroke-linecap="round" stroke-linejoin="round"/>
<path id="mask" d="M44.4075 97.8173L55.7912 96.4431L55.7884 118.35H45.0048L44.4075 97.8173Z" fill="#0089CA"/>
</g>
<g id="Group_7">
<path id="Vector_11" d="M89.0139 101.996C89.0335 102.072 89.0419 102.147 89.056 102.22L89.084 102.215L94.1434 129.071C94.7043 131.379 93.2852 133.707 90.9771 134.268C88.6689 134.829 86.3411 133.41 85.7802 131.102L78.0901 105.249C78.0256 105.067 77.9695 104.879 77.9219 104.688C77.1786 101.626 79.0577 98.5408 82.1203 97.7976C85.1829 97.0544 88.2679 98.9334 89.0111 101.996H89.0139Z" stroke="black" stroke-width="0.280456" stroke-linecap="round" stroke-linejoin="round"/>
<path id="Vector_12" d="M94.2585 129.859C94.2669 130.014 94.2669 130.168 94.2585 130.317L94.2249 157.423C94.3062 158.971 93.1199 160.289 91.5746 160.373C90.0264 160.454 88.7083 159.268 88.6242 157.723L85.7158 130.774C85.6906 130.625 85.6738 130.474 85.6654 130.319C85.5392 127.947 87.3593 125.919 89.7348 125.793C92.1074 125.667 94.1351 127.487 94.2613 129.862L94.2585 129.859Z" fill="#F7E4E8" stroke="black" stroke-width="0.280456" stroke-linecap="round" stroke-linejoin="round"/>
<path id="Vector_13" d="M89.0139 101.996C89.0335 102.072 89.0419 102.147 89.056 102.22L89.084 102.215L94.1434 129.071C94.7043 131.379 93.2852 133.707 90.9771 134.268C88.6689 134.829 86.3411 133.41 85.7802 131.102L78.0901 105.249C78.0256 105.067 77.9695 104.879 77.9219 104.688C77.1786 101.626 79.0577 98.5408 82.1203 97.7976C85.1829 97.0544 88.2679 98.9334 89.0111 101.996H89.0139Z" fill="#0089CA" stroke="black" stroke-width="0.280456" stroke-linecap="round" stroke-linejoin="round"/>
<path id="mask_2" d="M83.3515 97.7164L72.6633 96.4431V118.352H83.4497L83.9096 98.3586C83.918 98.0333 83.6768 97.7556 83.3543 97.7192L83.3515 97.7164Z" fill="#0089CA"/>
</g>
<g id="Group_8">
<path id="Vector_14" d="M77.8238 37.6987H50.3447C41.2479 37.6987 33.8735 45.0731 33.8735 54.1699V78.6537C33.8735 87.7505 41.2479 95.1248 50.3447 95.1248H77.8238C86.9205 95.1248 94.2949 87.7505 94.2949 78.6537V54.1699C94.2949 45.0731 86.9205 37.6987 77.8238 37.6987Z" fill="#0089CA" stroke="black" stroke-width="0.280456" stroke-linecap="round" stroke-linejoin="round"/>
<g id="Group_9">
<path id="Vector_15" d="M35.3208 48.7572L93.1087 32.76C95.8459 32.76 98.0615 34.9784 98.0615 37.7129V69.2052C98.0615 71.9425 95.8431 74.1581 93.1087 74.1581H35.3208C32.5835 74.1581 30.3679 71.9397 30.3679 69.2052V53.7101C30.3679 50.9728 32.5863 48.7572 35.3208 48.7572Z" fill="#0089CA" stroke="black" stroke-width="0.280456" stroke-linecap="round" stroke-linejoin="round"/>
<g id="Vector_16">
<path d="M30.3679 61.0214V56.8903C30.3679 55.8022 29.4873 54.9215 28.3991 54.9215H25.8554C23.8585 54.9215 22.2375 53.3033 22.2375 51.3036C22.2375 49.3068 23.8557 47.6858 25.8554 47.6858H30.6427C31.7309 47.6858 32.6115 46.8051 32.6115 45.717C32.6115 44.6288 31.7309 43.7482 30.6427 43.7482H21.9178C20.1453 43.7482 18.7065 42.3094 18.7065 40.537C18.7065 38.7645 20.1453 37.3257 21.9178 37.3257H30.7044C31.0522 37.3257 31.3327 37.0453 31.3327 36.6975C31.3327 36.3498 31.0522 36.0693 30.7044 36.0693H27.698C25.2187 36.0693 23.2135 34.036 23.2611 31.5483C23.306 29.1056 25.401 27.1929 27.8466 27.1929H86.0103C91.0417 27.1929 95.1195 31.2707 95.1195 36.3021V37.0116" fill="#0089CA"/>
<path d="M30.3679 61.0214V56.8903C30.3679 55.8022 29.4873 54.9215 28.3991 54.9215H25.8554C23.8585 54.9215 22.2375 53.3033 22.2375 51.3036C22.2375 49.3068 23.8557 47.6858 25.8554 47.6858H30.6427C31.7309 47.6858 32.6115 46.8051 32.6115 45.717C32.6115 44.6288 31.7309 43.7482 30.6427 43.7482H21.9178C20.1453 43.7482 18.7065 42.3094 18.7065 40.537C18.7065 38.7645 20.1453 37.3257 21.9178 37.3257H30.7044C31.0522 37.3257 31.3327 37.0453 31.3327 36.6975C31.3327 36.3498 31.0522 36.0693 30.7044 36.0693H27.698C25.2187 36.0693 23.2135 34.036 23.2611 31.5483C23.306 29.1056 25.401 27.1929 27.8466 27.1929H86.0103C91.0417 27.1929 95.1195 31.2707 95.1195 36.3021V37.0116" stroke="black" stroke-width="0.280456" stroke-linecap="round" stroke-linejoin="round"/>
</g>
<g id="Group_10">
<path id="Vector_17" d="M47.7815 35.3486H63.6272" stroke="black" stroke-width="0.280456" stroke-linecap="round" stroke-linejoin="round"/>
<path id="Vector_18" d="M37.2476 32.76H75.7317" stroke="black" stroke-width="0.280456" stroke-linecap="round" stroke-linejoin="round"/>
<path id="Vector_19" d="M37.9739 29.8264H73.4347" stroke="black" stroke-width="0.280456" stroke-linecap="round" stroke-linejoin="round"/>
</g>
</g>
<g id="Group_11" style="mix-blend-mode:multiply">
<path id="Vector_20" d="M93.1061 72.9152H35.321C32.5866 72.9152 30.3682 70.6968 30.3682 67.9624V69.2048C30.3682 71.9421 32.5866 74.1577 35.321 74.1577H93.1089C95.8462 74.1577 98.0618 71.9393 98.0618 69.2048V67.9624C98.0618 70.6997 95.8434 72.9152 93.1089 72.9152H93.1061Z" fill="#0089CA"/>
</g>
<g id="Group_12">
<path id="Vector_21" d="M38.2318 71.3C39.0788 73.1202 38.8348 74.3177 36.1733 76.4997C33.5118 78.6788 29.5854 78.289 27.4062 75.6275C25.2271 72.9659 25.6169 69.0396 28.2785 66.8604C30.94 64.6813 36.8576 68.3525 38.2318 71.3028V71.3Z" fill="#F7E4E8" stroke="black" stroke-width="0.280456" stroke-linecap="round" stroke-linejoin="round"/>
<g id="Vector_22" style="mix-blend-mode:multiply">
<path d="M28.6908 68.103C31.3439 65.9294 37.2279 69.5697 38.6301 72.5145C38.5713 72.1303 38.4338 71.7349 38.2319 71.3002C36.8577 68.3498 30.94 64.6786 28.2785 66.8577C26.0461 68.6863 25.4179 71.7405 26.5593 74.2506C26.0769 72.035 26.8202 69.6371 28.6936 68.1002L28.6908 68.103Z" fill="#F7E4E8"/>
</g>
<g id="Vector_23" style="mix-blend-mode:multiply">
<path d="M32.8245 72.5454C32.8245 72.5454 28.4775 69.9259 29.891 75.0751C29.891 75.0751 27.0499 71.4067 30.8108 68.2769C30.8108 68.2769 29.7339 69.8474 31.3577 70.6467C34.0024 71.9508 32.8245 72.5454 32.8245 72.5454Z" fill="#F7E4E8"/>
</g>
<path id="Vector_24" d="M29.8377 74.9826C27.1398 71.0058 30.8081 68.3499 30.8081 68.3499" stroke="black" stroke-width="0.280456" stroke-linecap="round" stroke-linejoin="round"/>
<path id="Vector_25" d="M32.7545 72.3967C32.7545 72.3967 31.6271 70.1138 28.9768 71.0617" stroke="black" stroke-width="0.280456" stroke-linecap="round" stroke-linejoin="round"/>
</g>
<g id="Group_13">
<path id="Vector_26" d="M89.8611 71.3C89.0141 73.1202 89.2581 74.3177 91.9196 76.4997C94.5811 78.6788 98.5075 78.289 100.687 75.6275C102.866 72.9659 102.476 69.0396 99.8145 66.8604C97.1529 64.6813 91.2353 68.3525 89.8611 71.3028V71.3Z" fill="#F7E4E8" stroke="black" stroke-width="0.280456" stroke-linecap="round" stroke-linejoin="round"/>
<g id="Vector_27" style="mix-blend-mode:multiply">
<path d="M99.3993 68.103C96.7462 65.9294 90.8622 69.5697 89.46 72.5145C89.5217 72.1303 89.6563 71.7349 89.8582 71.3002C91.2324 68.3498 97.1501 64.6786 99.8116 66.8577C102.044 68.6863 102.672 71.7405 101.531 74.2506C102.013 72.035 101.27 69.6371 99.3965 68.1002L99.3993 68.103Z" fill="#F7E4E8"/>
</g>
<g id="Vector_28" style="mix-blend-mode:multiply">
<path d="M95.2683 72.5454C95.2683 72.5454 99.6153 69.9259 98.2018 75.0751C98.2018 75.0751 101.043 71.4067 97.2819 68.2769C97.2819 68.2769 98.3589 69.8474 96.7351 70.6467C94.0904 71.9508 95.2683 72.5454 95.2683 72.5454Z" fill="#F7E4E8"/>
</g>
<path id="Vector_29" d="M98.2524 74.9826C100.95 71.0058 97.282 68.3499 97.282 68.3499" stroke="black" stroke-width="0.280456" stroke-linecap="round" stroke-linejoin="round"/>
<path id="Vector_30" d="M95.3357 72.3967C95.3357 72.3967 96.4631 70.1138 99.1134 71.0617" stroke="black" stroke-width="0.280456" stroke-linecap="round" stroke-linejoin="round"/>
</g>
<g id="Group_14">
<path id="Vector_31" d="M77.8238 37.6987H50.3447C41.2479 37.6987 33.8735 45.0731 33.8735 54.1699V78.6537C33.8735 87.7505 41.2479 95.1248 50.3447 95.1248H77.8238C86.9205 95.1248 94.2949 87.7505 94.2949 78.6537V54.1699C94.2949 45.0731 86.9205 37.6987 77.8238 37.6987Z" fill="#F1CDD5" stroke="black" stroke-width="0.280456" stroke-linecap="round" stroke-linejoin="round"/>
<path id="Vector_32" d="M76.7412 39.5356H49.4276C40.8373 39.5356 33.8735 46.4994 33.8735 55.0897V76.9625C33.8735 85.5527 40.8373 92.5165 49.4276 92.5165H76.7412C85.3315 92.5165 92.2953 85.5527 92.2953 76.9625V55.0897C92.2953 46.4994 85.3315 39.5356 76.7412 39.5356Z" fill="#F7E4E8"/>
<path id="Vector_33" d="M77.8238 37.6987H50.3447C41.2479 37.6987 33.8735 45.0731 33.8735 54.1699V78.6537C33.8735 87.7505 41.2479 95.1248 50.3447 95.1248H77.8238C86.9205 95.1248 94.2949 87.7505 94.2949 78.6537V54.1699C94.2949 45.0731 86.9205 37.6987 77.8238 37.6987Z" stroke="black" stroke-width="0.280456" stroke-linecap="round" stroke-linejoin="round"/>
</g>
<path id="Vector_34" d="M94.811 38.8121C94.811 45.8908 89.0729 51.629 81.9942 51.629C76.3318 51.629 71.7407 47.0379 71.7407 41.3755V38.3718" fill="#F1CDD5"/>
<g id="Group_15">
<g id="Group_16">
<path id="Vector_35" d="M70.9218 54.0017L77.0049 54.299C78.2894 54.3607 79.3832 53.3707 79.4449 52.0862C79.4982 51.0064 78.7998 50.0304 77.7593 49.7331L71.7436 48.0111C70.2992 47.5989 68.8465 48.6366 68.7735 50.137L68.7034 51.5645C68.6417 52.849 69.6317 53.9428 70.9162 54.0045L70.9218 54.0017Z" fill="#0089CA" stroke="black" stroke-width="0.280456" stroke-linecap="round" stroke-linejoin="round"/>
<path id="Vector_36" d="M70.9217 54.0019L77.0048 54.2992C78.2276 54.3581 79.2737 53.4634 79.4279 52.2715C79.0297 52.8829 78.7184 53.2026 73.687 53.2026C70.1308 53.2026 69.2025 51.3852 68.765 50.3616L68.7061 51.5619C68.6444 52.8464 69.6344 53.9402 70.9189 54.0019H70.9217Z" fill="#004CA1"/>
<path id="Vector_37" d="M70.9218 54.0017L77.0049 54.299C78.2894 54.3607 79.3832 53.3707 79.4449 52.0862C79.4982 51.0064 78.7998 50.0304 77.7593 49.7331L71.7436 48.0111C70.2992 47.5989 68.8465 48.6366 68.7735 50.137L68.7034 51.5645C68.6417 52.849 69.6317 53.9428 70.9162 54.0045L70.9218 54.0017Z" stroke="black" stroke-width="0.280456" stroke-linecap="round" stroke-linejoin="round"/>
<path id="Vector_38" d="M71.5303 54.0298C70.9161 52.0694 71.3144 49.9323 72.5596 48.3281" stroke="black" stroke-width="0.280456" stroke-linecap="round" stroke-linejoin="round"/>
<path id="Vector_39" d="M73.8919 54.1448C73.4264 52.3667 73.7741 50.4708 74.8174 48.9788" stroke="black" stroke-width="0.280456" stroke-linecap="round" stroke-linejoin="round"/>
<path id="Vector_40" d="M76.3486 54.299C76.0233 52.692 76.3486 51.0177 77.232 49.6519" stroke="black" stroke-width="0.280456" stroke-linecap="round" stroke-linejoin="round"/>
</g>
<g id="Group_17">
<path id="Vector_41" d="M57.2525 54.0017L51.1694 54.299C49.8849 54.3607 48.7911 53.3707 48.7294 52.0862C48.6761 51.0064 49.3745 50.0304 50.415 49.7331L56.4307 48.0111C57.8751 47.5989 59.3278 48.6366 59.4008 50.137L59.4709 51.5645C59.5326 52.849 58.5426 53.9428 57.2581 54.0045L57.2525 54.0017Z" fill="#0089CA" stroke="black" stroke-width="0.280456" stroke-linecap="round" stroke-linejoin="round"/>
<path id="Vector_42" d="M57.2526 54.0019L51.1695 54.2992C49.9467 54.3581 48.9006 53.4634 48.7463 52.2715C49.1446 52.8829 49.4559 53.2026 54.4873 53.2026C58.0434 53.2026 58.9718 51.3852 59.4093 50.3616L59.4682 51.5619C59.5299 52.8464 58.5399 53.9402 57.2554 54.0019H57.2526Z" fill="#004CA1"/>
<path id="Vector_43" d="M57.2525 54.0017L51.1694 54.299C49.8849 54.3607 48.7911 53.3707 48.7294 52.0862C48.6761 51.0064 49.3745 50.0304 50.415 49.7331L56.4307 48.0111C57.8751 47.5989 59.3278 48.6366 59.4008 50.137L59.4709 51.5645C59.5326 52.849 58.5426 53.9428 57.2581 54.0045L57.2525 54.0017Z" stroke="black" stroke-width="0.280456" stroke-linecap="round" stroke-linejoin="round"/>
<path id="Vector_44" d="M56.6438 54.0298C57.258 52.0694 56.8597 49.9323 55.6145 48.3281" stroke="black" stroke-width="0.280456" stroke-linecap="round" stroke-linejoin="round"/>
<path id="Vector_45" d="M54.2851 54.1448C54.7507 52.3667 54.4029 50.4708 53.3596 48.9788" stroke="black" stroke-width="0.280456" stroke-linecap="round" stroke-linejoin="round"/>
<path id="Vector_46" d="M51.8258 54.299C52.1511 52.692 51.8258 51.0177 50.9424 49.6519" stroke="black" stroke-width="0.280456" stroke-linecap="round" stroke-linejoin="round"/>
</g>
<g id="Vector_47" style="mix-blend-mode:multiply">
<path d="M64.4993 75.4033C64.4993 73.9898 63.3522 72.8428 61.9387 72.8428C61.0609 72.8428 60.3598 73.3364 59.8269 73.9534C58.0881 75.9727 56.7419 77.3553 52.3219 78.0929C49.8258 78.508 46.6679 78.3734 42.7892 77.0496C42.4106 76.9038 41.5356 76.6345 40.812 76.6345C38.086 76.6345 35.876 78.8445 35.876 81.5706C35.876 83.5758 37.0623 85.3146 38.7871 86.0691C40.2146 86.6945 44.5421 88.3828 49.7838 87.5302C54.0355 86.8403 59.1566 84.2461 62.9624 78.7155C63.327 78.1855 64.5021 76.6766 64.5021 75.4005L64.4993 75.4033Z" fill="#F7E4E8"/>
</g>
<g id="Vector_48" style="mix-blend-mode:multiply">
<path d="M63.672 75.4033C63.672 73.9898 64.8191 72.8428 66.2326 72.8428C67.1104 72.8428 67.8115 73.3364 68.3444 73.9534C70.0832 75.9727 71.4294 77.3553 75.8494 78.0929C78.3454 78.508 81.5034 78.3734 85.3821 77.0496C85.7607 76.9038 86.6357 76.6345 87.3593 76.6345C90.0853 76.6345 92.2953 78.8445 92.2953 81.5706C92.2953 83.5758 91.109 85.3146 89.3842 86.0691C87.9567 86.6945 83.6292 88.3828 78.3875 87.5302C74.1358 86.8403 69.0147 84.2461 65.2089 78.7155C64.8443 78.1855 63.6692 76.6766 63.6692 75.4005L63.672 75.4033Z" fill="#F7E4E8"/>
</g>
<path id="Vector_49" d="M61.692 80.631C62.5137 80.6983 63.3074 80.8133 64.0843 80.8133C64.8752 80.8133 65.6605 80.746 66.4794 80.673C66.1176 80.8722 65.7222 81.004 65.3155 81.0881C64.9173 81.1807 64.4966 81.2199 64.0843 81.2255C63.6636 81.2199 63.2457 81.1667 62.8475 81.0601C62.4492 80.9619 62.0594 80.8273 61.6892 80.6282L61.692 80.631Z" fill="#1D1D1B"/>
<g id="Vector_50">
<path d="M68.4509 74.1609C68.4509 76.57 66.4962 78.5248 64.087 78.5248C61.6779 78.5248 59.7231 76.57 59.7231 74.1609" fill="#F1CDD5"/>
<path d="M68.4509 74.1609C68.4509 76.57 66.4962 78.5248 64.087 78.5248C61.6779 78.5248 59.7231 76.57 59.7231 74.1609" stroke="black" stroke-width="0.280456" stroke-linecap="round" stroke-linejoin="round"/>
</g>
<g id="Group_18">
<path id="Vector_51" d="M64.0842 74.1609C64.0842 72.7474 62.9372 71.6003 61.5237 71.6003C60.6459 71.6003 59.9447 72.0939 59.4119 72.7109C57.673 74.7302 56.3268 76.1129 51.9069 76.8505C49.4108 77.2655 46.2529 77.1309 42.3742 75.8072C41.9956 75.6613 41.1205 75.3921 40.397 75.3921C37.6709 75.3921 35.4609 77.6021 35.4609 80.3281C35.4609 82.3334 36.6473 84.0722 38.3721 84.8266C39.7996 85.452 44.127 87.1404 49.3687 86.2878C53.6204 85.5979 58.7416 83.0037 62.5474 77.4731C62.9119 76.943 64.0871 75.4342 64.0871 74.1581L64.0842 74.1609Z" fill="#0089CA"/>
<path id="Vector_52" d="M38.372 84.8267C39.7995 85.4521 44.1269 87.1404 49.3686 86.2878C53.6203 85.5979 58.7415 83.0037 62.5472 77.4731C62.8361 77.0524 63.627 76.0232 63.9467 74.9827C61.6919 77.2684 55.6789 82.5774 47.5905 83.6544C42.3348 84.3527 38.2401 82.6055 35.4749 80.7124C35.6151 82.5522 36.7593 84.1199 38.372 84.8267Z" fill="#004CA1"/>
<path id="Vector_53" d="M64.0842 74.1609C64.0842 72.7474 62.9372 71.6003 61.5237 71.6003C60.6459 71.6003 59.9447 72.0939 59.4119 72.7109C57.673 74.7302 56.3268 76.1129 51.9069 76.8505C49.4108 77.2655 46.2529 77.1309 42.3742 75.8072C41.9956 75.6613 41.1205 75.3921 40.397 75.3921C37.6709 75.3921 35.4609 77.6021 35.4609 80.3281C35.4609 82.3334 36.6473 84.0722 38.3721 84.8266C39.7996 85.452 44.127 87.1404 49.3687 86.2878C53.6204 85.5979 58.7416 83.0037 62.5474 77.4731C62.9119 76.943 64.0871 75.4342 64.0871 74.1581L64.0842 74.1609Z" stroke="black" stroke-width="0.280456" stroke-linecap="round" stroke-linejoin="round"/>
<path id="Vector_54" d="M37.7129 84.4368C37.3568 82.5549 37.0903 78.7379 39.721 75.4846" stroke="black" stroke-width="0.280456" stroke-linecap="round" stroke-linejoin="round"/>
<path id="Vector_55" d="M43.3641 76.2334C42.4105 77.7282 40.6184 81.3461 41.9141 85.9372" stroke="black" stroke-width="0.280456" stroke-linecap="round" stroke-linejoin="round"/>
<path id="Vector_56" d="M61.6023 78.5949C60.6431 77.8461 58.9716 76.2643 58.3406 73.9309" stroke="black" stroke-width="0.280456" stroke-linecap="round" stroke-linejoin="round"/>
<path id="Vector_57" d="M54.9834 76.1719C55.1489 77.4648 55.7659 80.1375 58.0348 82.2718" stroke="black" stroke-width="0.280456" stroke-linecap="round" stroke-linejoin="round"/>
<path id="Vector_58" d="M52.4706 85.4353C51.6685 84.2069 50.297 81.3378 51.2534 77.0188" stroke="black" stroke-width="0.280456" stroke-linecap="round" stroke-linejoin="round"/>
<path id="Vector_59" d="M47.2063 77.0525C46.5557 78.3959 45.0047 82.3896 47.125 86.487" stroke="black" stroke-width="0.280456" stroke-linecap="round" stroke-linejoin="round"/>
</g>
<g id="Group_19">
<path id="Vector_60" d="M64.0843 74.1609C64.0843 72.7474 65.2314 71.6003 66.6449 71.6003C67.5227 71.6003 68.2239 72.0939 68.7567 72.7109C70.4956 74.7302 71.8418 76.1129 76.2617 76.8505C78.7578 77.2655 81.9157 77.1309 85.7944 75.8072C86.173 75.6613 87.0481 75.3921 87.7716 75.3921C90.4977 75.3921 92.7077 77.6021 92.7077 80.3281C92.7077 82.3334 91.5213 84.0722 89.7965 84.8266C88.369 85.452 84.0416 87.1404 78.7999 86.2878C74.5482 85.5979 69.427 83.0037 65.6212 77.4731C65.2566 76.943 64.0815 75.4342 64.0815 74.1581L64.0843 74.1609Z" fill="#0089CA"/>
<path id="Vector_61" d="M89.7994 84.8267C88.3718 85.4521 84.0444 87.1404 78.8027 86.2878C74.551 85.5979 69.4299 83.0037 65.6241 77.4731C65.3352 77.0524 64.5443 76.0232 64.2246 74.9827C66.4795 77.2684 72.4924 82.5774 80.5808 83.6544C85.8365 84.3527 89.9312 82.6055 92.6965 80.7124C92.5562 82.5522 91.412 84.1199 89.7994 84.8267Z" fill="#004CA1"/>
<path id="Vector_62" d="M64.0843 74.1609C64.0843 72.7474 65.2314 71.6003 66.6449 71.6003C67.5227 71.6003 68.2239 72.0939 68.7567 72.7109C70.4956 74.7302 71.8418 76.1129 76.2617 76.8505C78.7578 77.2655 81.9157 77.1309 85.7944 75.8072C86.173 75.6613 87.0481 75.3921 87.7716 75.3921C90.4977 75.3921 92.7077 77.6021 92.7077 80.3281C92.7077 82.3334 91.5213 84.0722 89.7965 84.8266C88.369 85.452 84.0416 87.1404 78.7999 86.2878C74.5481 85.5979 69.427 83.0037 65.6212 77.4731C65.2566 76.943 64.0815 75.4342 64.0815 74.1581L64.0843 74.1609Z" stroke="black" stroke-width="0.280456" stroke-linecap="round" stroke-linejoin="round"/>
<path id="Vector_63" d="M90.4585 84.4368C90.8147 82.5549 91.0811 78.7379 88.4504 75.4846" stroke="black" stroke-width="0.280456" stroke-linecap="round" stroke-linejoin="round"/>
<path id="Vector_64" d="M84.8071 76.2334C85.7607 77.7282 87.5528 81.3461 86.2571 85.9372" stroke="black" stroke-width="0.280456" stroke-linecap="round" stroke-linejoin="round"/>
<path id="Vector_65" d="M66.5691 78.5949C67.5283 77.8461 69.1998 76.2643 69.8308 73.9309" stroke="black" stroke-width="0.280456" stroke-linecap="round" stroke-linejoin="round"/>
<path id="Vector_66" d="M73.1851 76.1719C73.0197 77.4648 72.4027 80.1375 70.1338 82.2718" stroke="black" stroke-width="0.280456" stroke-linecap="round" stroke-linejoin="round"/>
<path id="Vector_67" d="M75.7009 85.4353C76.503 84.2069 77.8745 81.3378 76.9181 77.0188" stroke="black" stroke-width="0.280456" stroke-linecap="round" stroke-linejoin="round"/>
<path id="Vector_68" d="M80.9651 77.0525C81.6157 78.3959 83.1667 82.3896 81.0464 86.487" stroke="black" stroke-width="0.280456" stroke-linecap="round" stroke-linejoin="round"/>
</g>
<g id="Group_20">
<path id="Vector_69" d="M61.6217 70.3916H66.5493C67.2196 70.3916 67.7609 69.8476 67.7609 69.1801C67.7609 68.5098 67.2168 67.9685 66.5493 67.9685H61.6217C60.9514 67.9685 60.4102 68.5126 60.4102 69.1801C60.4102 69.8504 60.9542 70.3916 61.6217 70.3916Z" fill="#F3AECA" stroke="black" stroke-width="0.280456" stroke-linecap="round" stroke-linejoin="round"/>
<path id="Vector_70" d="M66.5661 69.5109C66.5661 70.8767 65.4611 71.9817 64.0953 71.9817C62.7295 71.9817 61.6245 70.8767 61.6245 69.5109C61.6245 66.5885 62.7295 59.8015 64.0953 59.8015C65.4611 59.8015 66.5661 66.6474 66.5661 69.5109Z" fill="#F3AECA" stroke="black" stroke-width="0.280456" stroke-linecap="round" stroke-linejoin="round"/>
<path id="Vector_71" d="M62.7295 70.3915C63.2203 70.3859 63.669 70.442 64.1009 70.442C64.5412 70.4448 64.9872 70.3999 65.478 70.4196C65.276 70.571 65.0545 70.672 64.8189 70.7477C64.5889 70.8178 64.3477 70.8515 64.0981 70.8571C63.8513 70.8543 63.6073 70.8122 63.3773 70.7337C63.1474 70.6551 62.9258 70.5514 62.7295 70.3915Z" fill="#1D1D1B"/>
</g>
<g id="Group_21">
<path id="Vector_72" d="M57.8079 60.0371C57.8079 60.8953 57.118 61.5908 56.2682 61.5908C55.4184 61.5908 54.7285 60.8953 54.7285 60.0371C54.7285 59.1789 55.4184 58.4834 56.2682 58.4834C57.118 58.4834 57.8079 59.1789 57.8079 60.0371Z" fill="#111111"/>
<path id="Vector_73" d="M58.2706 62.2107C57.7911 62.8053 57.0955 63.2568 56.3075 63.3887C55.9204 63.4504 55.5054 63.4868 55.1239 63.3634C54.9276 63.3213 54.7509 63.226 54.5742 63.1475C54.4004 63.0549 54.2405 62.9371 54.0891 62.8193C54.0834 62.8137 54.0806 62.8053 54.0891 62.7969C54.0919 62.7913 54.1003 62.7913 54.1059 62.7913C54.2994 62.8334 54.4761 62.8979 54.6556 62.9455C54.8407 62.9764 55.0118 63.0465 55.194 63.0605C55.2838 63.0774 55.3735 63.097 55.4605 63.1082L55.7297 63.1362C55.8195 63.1531 55.9092 63.1503 56.0018 63.1531C56.0915 63.1531 56.1841 63.1587 56.2738 63.1419C56.6384 63.111 56.9974 63.0044 57.3311 62.8362C57.6677 62.6763 57.9818 62.4575 58.2482 62.1883C58.2482 62.1883 58.265 62.1799 58.2706 62.1883C58.2763 62.1939 58.2763 62.2023 58.2706 62.2079V62.2107Z" fill="#111111"/>
<path id="Vector_74" d="M58.2707 62.9623C58.1389 63.4306 57.8725 63.8822 57.4574 64.1794C57.2555 64.3309 57.0143 64.4543 56.7563 64.4767C56.501 64.5132 56.243 64.4655 56.0131 64.3758C56.0074 64.3758 56.0046 64.3674 56.0074 64.3617C56.0074 64.3589 56.0131 64.3561 56.0159 64.3561C56.1421 64.3365 56.2599 64.3449 56.3777 64.3281C56.4954 64.3085 56.6104 64.3057 56.7226 64.272C56.947 64.2271 57.1657 64.1626 57.3649 64.042C57.564 63.9214 57.7407 63.7616 57.8865 63.5737C58.0351 63.3886 58.1613 63.1782 58.2511 62.9567C58.2511 62.951 58.2595 62.9482 58.2651 62.9511C58.2707 62.9511 58.2735 62.9595 58.2707 62.9651V62.9623Z" fill="#111111"/>
<g id="Group_22">
<path id="Vector_75" d="M49.801 60.312H50.7742" stroke="black" stroke-width="0.140228" stroke-linecap="round" stroke-linejoin="round"/>
<path id="Vector_76" d="M49.801 59.479H50.7742" stroke="black" stroke-width="0.140228" stroke-linecap="round" stroke-linejoin="round"/>
<path id="Vector_77" d="M49.543 59.8828H50.7742" stroke="black" stroke-width="0.140228" stroke-linecap="round" stroke-linejoin="round"/>
</g>
</g>
<g id="Group_23">
<path id="Vector_78" d="M70.3635 60.0371C70.3635 60.8953 71.0534 61.5908 71.9032 61.5908C72.753 61.5908 73.4429 60.8953 73.4429 60.0371C73.4429 59.1789 72.753 58.4834 71.9032 58.4834C71.0534 58.4834 70.3635 59.1789 70.3635 60.0371Z" fill="#111111"/>
<path id="Vector_79" d="M69.9232 62.191C70.1897 62.4574 70.5038 62.6762 70.8403 62.8388C71.1741 63.0043 71.5331 63.1137 71.8977 63.1445C71.9874 63.1585 72.0799 63.1557 72.1697 63.1557C72.2594 63.1557 72.352 63.1557 72.4417 63.1389L72.711 63.1109C72.8007 63.0968 72.8905 63.0772 72.9774 63.0632C73.1597 63.0492 73.3308 62.9791 73.5159 62.9482C73.6954 62.9005 73.8721 62.8332 74.0656 62.794C74.0656 62.794 74.0824 62.7968 74.0852 62.8052C74.0852 62.8108 74.0852 62.8164 74.0796 62.822C73.9282 62.9398 73.7683 63.0576 73.5944 63.1501C73.4177 63.2315 73.2382 63.3268 73.0447 63.3661C72.6633 63.4895 72.2482 63.453 71.8612 63.3913C71.0759 63.2595 70.3804 62.808 69.898 62.2134C69.8924 62.2078 69.8924 62.1966 69.898 62.191C69.9036 62.1854 69.912 62.1854 69.9176 62.191H69.9232Z" fill="#111111"/>
<path id="Vector_80" d="M69.9205 62.9567C70.0103 63.181 70.1365 63.3886 70.2851 63.5737C70.4309 63.7616 70.6076 63.9214 70.8067 64.042C71.0059 64.1626 71.2274 64.2271 71.449 64.272C71.5612 64.3056 71.6762 64.3085 71.794 64.3281C71.9117 64.3421 72.0295 64.3365 72.1557 64.3561C72.1557 64.3561 72.1642 64.3617 72.1642 64.3673C72.1642 64.3702 72.1614 64.373 72.1585 64.3758C71.9286 64.4627 71.6706 64.5104 71.4153 64.4767C71.1573 64.4543 70.9161 64.3309 70.7142 64.1794C70.2991 63.8794 70.0327 63.4306 69.9009 62.9623C69.9009 62.9567 69.9009 62.951 69.9093 62.9482C69.9149 62.9482 69.9205 62.9482 69.9233 62.9539L69.9205 62.9567Z" fill="#111111"/>
<g id="Group_24">
<path id="Vector_81" d="M78.3678 60.312H77.3975" stroke="black" stroke-width="0.140228" stroke-linecap="round" stroke-linejoin="round"/>
<path id="Vector_82" d="M78.3678 59.479H77.3975" stroke="black" stroke-width="0.140228" stroke-linecap="round" stroke-linejoin="round"/>
<path id="Vector_83" d="M78.6287 59.8828H77.3975" stroke="black" stroke-width="0.140228" stroke-linecap="round" stroke-linejoin="round"/>
</g>
</g>
</g>
<g id="Vector_84">
<path d="M80.4686 39.2722C80.4686 41.6196 81.7334 42.5675 84.0808 42.5675C86.4282 42.5675 88.3437 40.652 88.3325 38.2962C88.3213 36.0021 86.4114 34.1707 84.1201 34.0669C83.4638 34.0361 82.8608 34.0557 82.3111 34.109C77.4761 34.5942 75.4147 40.6408 79.013 43.9053C80.4629 45.2206 82.4233 45.9807 84.5632 45.8461C88.3213 45.6133 91.3783 42.5535 91.6139 38.7954C91.8859 34.4091 88.4111 30.7688 84.0836 30.7688C84.0836 30.7688 75.0782 29.8797 73.4908 38.3859C72.3213 44.6569 77.3863 49.4387 84.0836 49.4022C90.2088 49.3686 95.1364 45.1814 95.1364 39.059L95.0999 36.3022" fill="#0089CA"/>
<path d="M80.4685 39.2722C80.4685 41.6196 81.7334 42.5675 84.0808 42.5675C86.4282 42.5675 88.3437 40.652 88.3325 38.2962C88.3213 36.0021 86.4114 34.1707 84.1201 34.0669C83.4638 34.0361 82.8608 34.0557 82.3111 34.109C77.4761 34.5942 75.4147 40.6408 79.013 43.9053C80.4629 45.2206 82.4233 45.9807 84.5632 45.8461C88.3213 45.6133 91.3783 42.5535 91.6139 38.7954C91.8859 34.4091 88.4111 30.7688 84.0836 30.7688C84.0836 30.7688 75.0782 29.8797 73.4908 38.3859C72.3213 44.6569 77.3863 49.4387 84.0836 49.4022C90.2088 49.3686 95.1364 45.1814 95.1364 39.059L95.0999 36.3022" stroke="black" stroke-width="0.280456" stroke-linecap="round" stroke-linejoin="round"/>
</g>
</g>
</g>
<path id="Vector_85" d="M84.0304 140.738H44.8058C45.42 135.956 44.6235 124.553 44.6235 124.553L44.646 121.266L44.8058 97.6181L57.7881 95.9802C57.7881 95.9802 57.9115 102.972 64.0142 105.37C64.0142 105.37 71.2107 102.22 70.2151 96.1709C70.2039 96.1064 70.2432 95.9802 70.2432 95.9802L84.0304 97.6181L84.1902 121.266L84.2127 124.553C84.2127 124.553 83.4162 135.956 84.0304 140.738Z" fill="white" stroke="black" stroke-width="0.280456" stroke-linecap="round" stroke-linejoin="round"/>
<path id="Vector_86" d="M57.7852 95.9802C55.5387 96.8973 53.2165 99.0204 53.0847 100.857C55.4714 102.745 59.4567 104.144 64.0141 105.37C60.887 102.108 58.4835 98.9362 57.788 95.9802H57.7852Z" fill="#FF0000" stroke="black" stroke-width="0.280456" stroke-linecap="round" stroke-linejoin="round"/>
<path id="Vector_87" d="M70.2401 95.9802C72.4866 96.8973 74.8088 99.0204 74.9406 100.857C72.5539 102.745 68.5686 104.144 64.0112 105.37C67.1383 102.108 69.5418 98.9362 70.2373 95.9802H70.2401Z" fill="#FF0000" stroke="black" stroke-width="0.280456" stroke-linecap="round" stroke-linejoin="round"/>
<path id="Vector_88" d="M84.0304 140.738H44.8058C45.42 135.956 44.6235 124.553 44.6235 124.553L44.646 121.266H84.1902L84.2127 124.553C84.2127 124.553 83.4162 135.956 84.0304 140.738Z" fill="#FF0000" stroke="black" stroke-width="0.280456" stroke-linecap="round" stroke-linejoin="round"/>
<path id="Vector_89" d="M64.0142 105.37V131.435" stroke="black" stroke-width="0.280456" stroke-linecap="round" stroke-linejoin="round"/>
<path id="Vector_90" opacity="0.25" d="M80.1543 97.1694C76.8758 96.7599 72.9606 96.3252 69.7746 95.9831H70.156L70.2766 95.1277H57.7543L57.8468 95.9831H58.2255C55.2218 96.3336 51.4497 96.7852 48.1543 97.2031C51.5142 98.3698 55.3171 99.1102 59.266 99.4355C60.7804 102.117 64.0141 105.373 64.0141 105.373C64.5553 104.986 68.7734 99.4215 68.7734 99.4215H68.7706C72.7503 99.0821 76.643 98.3361 80.1543 97.1722V97.1694ZM64 104.537C64 104.537 62.0929 102.145 61.0917 99.5533C63.1587 99.6542 65.2509 99.643 67.3319 99.5196C66.4624 101.643 64 104.537 64 104.537Z" fill="black"/>
<g id="Group_25">
<path id="Vector_91" d="M75.4255 115.865C75.863 115.865 76.2724 115.755 76.6314 115.562C76.0817 116.078 75.3413 116.395 74.528 116.395C72.8284 116.395 71.4514 115.018 71.4514 113.318C71.4514 111.618 72.8284 110.241 74.528 110.241C75.3413 110.241 76.0817 110.558 76.6342 111.074C76.2753 110.881 75.863 110.772 75.4255 110.772C74.0204 110.772 72.8789 111.91 72.8789 113.318C72.8789 114.726 74.0176 115.865 75.4255 115.865Z" fill="#FF0000" stroke="black" stroke-width="0.280456" stroke-linecap="round" stroke-linejoin="round"/>
<path id="Vector_92" d="M69.4182 108.69V117.943H78.6704V108.69H69.4182ZM78.0675 117.34H70.0212V109.293H78.0675V117.34Z" fill="#FF0000" stroke="black" stroke-width="0.280456" stroke-linecap="round" stroke-linejoin="round"/>
</g>
</g>
</g>
</svg>
