<svg width="128" height="128" viewBox="0 0 128 128" fill="none" xmlns="http://www.w3.org/2000/svg">
<g id="Group">
<g id="Layer 1">
<path id="Vector" d="M130.477 -2.47632H-2.47632V130.477H130.477V-2.47632Z" fill="#00B2FF"/>
<g id="Group_2">
<g id="Group_3">
<path id="Vector_2" d="M83.4272 96.6143H44.8029C41.7796 96.6143 39.3284 99.0654 39.3284 102.089V102.549C39.3284 104.086 39.9622 105.474 40.9803 106.467C43.3641 108.789 45.0973 111.697 45.7676 114.959L48.547 146.347H79.8458L82.7317 115.525C83.2758 112.107 84.7959 108.876 87.2639 106.453C88.2735 105.46 88.9017 104.077 88.9017 102.549V102.089C88.9017 99.0654 86.4505 96.6143 83.4272 96.6143Z" fill="#F6E3E7" stroke="black" stroke-width="0.280456" stroke-linecap="round" stroke-linejoin="round"/>
<path id="Vector_3" fill-rule="evenodd" clip-rule="evenodd" d="M53.6962 113.966C54.0075 113.966 54.2627 114.202 54.2627 114.493C54.2627 114.785 54.0103 115.021 53.6962 115.021C53.3821 115.021 53.1296 114.785 53.1296 114.493C53.1296 114.202 53.3821 113.966 53.6962 113.966Z" fill="#F0BACD" stroke="#F0BACD" stroke-width="0.280456" stroke-linecap="round" stroke-linejoin="round"/>
<path id="Vector_4" fill-rule="evenodd" clip-rule="evenodd" d="M74.9435 113.966C75.2548 113.966 75.51 114.202 75.51 114.493C75.51 114.785 75.2576 115.021 74.9435 115.021C74.6294 115.021 74.377 114.785 74.377 114.493C74.377 114.202 74.6294 113.966 74.9435 113.966Z" fill="#F0BACD" stroke="#F0BACD" stroke-width="0.280456" stroke-linecap="round" stroke-linejoin="round"/>
</g>
<path id="Vector_5" d="M89.0898 103.872C89.0898 104.635 88.972 105.37 88.7533 106.06L88.7336 106.122C88.7 106.223 88.6663 106.321 88.6271 106.422L84.8942 117.892C81.5343 127.492 84.5857 143.237 84.5857 153.409V153.622L77.737 155.403C68.4847 157.933 58.7136 157.86 49.4979 155.199L43.7373 153.622V153.533C43.7373 143.282 46.7606 127.456 43.3503 117.789L39.6258 106.447C39.5838 106.335 39.5445 106.223 39.508 106.11L39.4912 106.06C39.2724 105.37 39.1519 104.635 39.1519 103.872C39.1519 99.9853 40.4279 97.2256 44.6179 96.6563C45.0442 96.5974 45.493 96.5385 45.9613 96.4768C52.8297 95.5765 63.7086 94.3481 63.7086 94.3481C63.7086 94.3481 75.3166 95.5148 82.0952 96.4123C82.7487 96.4992 83.3545 96.5834 83.9042 96.6647C87.4295 97.1836 89.0898 100.097 89.0898 103.872Z" fill="#813C0B" stroke="black" stroke-width="0.280456" stroke-linecap="round" stroke-linejoin="round"/>
<g id="Group_4">
<path id="Vector_6" d="M39.4407 100.995C39.4211 101.071 39.4127 101.147 39.3987 101.22L39.3706 101.214L34.3112 128.07C33.7503 130.379 35.1694 132.706 37.4775 133.267C39.7857 133.828 42.1135 132.409 42.6744 130.101L50.3645 104.249C50.429 104.066 50.4851 103.878 50.5328 103.688C51.276 100.625 49.3969 97.5401 46.3343 96.7969C43.2718 96.0536 40.1867 97.9327 39.4435 100.995H39.4407Z" stroke="black" stroke-width="0.280456" stroke-linecap="round" stroke-linejoin="round"/>
<path id="Vector_7" d="M34.1963 128.858C34.1878 129.013 34.1878 129.167 34.1963 129.316L34.2299 156.422C34.1486 157.97 35.3349 159.288 36.8802 159.372C38.4283 159.453 39.7465 158.267 39.8306 156.722L42.7389 129.773C42.7642 129.624 42.781 129.473 42.7894 129.318C42.9156 126.946 41.0955 124.918 38.72 124.792C36.3473 124.666 34.3197 126.486 34.1934 128.861L34.1963 128.858Z" fill="#F6E3E7" stroke="black" stroke-width="0.280456" stroke-linecap="round" stroke-linejoin="round"/>
<path id="Vector_8" d="M39.4407 100.995C39.4211 101.071 39.4127 101.147 39.3987 101.22L39.3706 101.214L34.3112 128.07C33.7503 130.379 35.1694 132.706 37.4775 133.267C39.7857 133.828 42.1135 132.409 42.6744 130.101L50.3645 104.249C50.429 104.066 50.4851 103.878 50.5328 103.688C51.276 100.625 49.3969 97.5401 46.3343 96.7969C43.2718 96.0536 40.1867 97.9327 39.4435 100.995H39.4407Z" fill="#813C0B" stroke="black" stroke-width="0.280456" stroke-linecap="round" stroke-linejoin="round"/>
<path id="mask" d="M44.4075 96.8136L55.7912 95.4421L55.7884 117.349H45.0048L44.4075 96.8136Z" fill="#813C0B"/>
</g>
<g id="Group_5">
<path id="Vector_9" d="M89.0139 100.995C89.0335 101.071 89.0419 101.146 89.056 101.219L89.084 101.214L94.1434 128.07C94.7043 130.378 93.2852 132.706 90.9771 133.267C88.6689 133.828 86.3411 132.409 85.7802 130.101L78.0901 104.248C78.0256 104.066 77.9695 103.878 77.9219 103.687C77.1786 100.625 79.0577 97.5398 82.1203 96.7966C85.1829 96.0534 88.2679 97.9325 89.0111 100.995H89.0139Z" stroke="black" stroke-width="0.280456" stroke-linecap="round" stroke-linejoin="round"/>
<path id="Vector_10" d="M94.2585 128.858C94.2669 129.013 94.2669 129.167 94.2585 129.316L94.2249 156.422C94.3062 157.97 93.1199 159.288 91.5746 159.372C90.0264 159.453 88.7083 158.267 88.6242 156.722L85.7158 129.773C85.6906 129.624 85.6738 129.473 85.6654 129.318C85.5392 126.946 87.3593 124.918 89.7348 124.792C92.1074 124.666 94.1351 126.486 94.2613 128.861L94.2585 128.858Z" fill="#F6E3E7" stroke="black" stroke-width="0.280456" stroke-linecap="round" stroke-linejoin="round"/>
<path id="Vector_11" d="M89.0139 100.995C89.0335 101.071 89.0419 101.146 89.056 101.219L89.084 101.214L94.1434 128.07C94.7043 130.378 93.2852 132.706 90.9771 133.267C88.6689 133.828 86.3411 132.409 85.7802 130.101L78.0901 104.248C78.0256 104.066 77.9695 103.878 77.9219 103.687C77.1786 100.625 79.0577 97.5398 82.1203 96.7966C85.1829 96.0534 88.2679 97.9325 89.0111 100.995H89.0139Z" fill="#813C0B" stroke="black" stroke-width="0.280456" stroke-linecap="round" stroke-linejoin="round"/>
<path id="mask_2" d="M83.3515 96.7154L72.6633 95.4421V117.351H83.4497L83.9096 97.3577C83.918 97.0323 83.6768 96.7547 83.3543 96.7182L83.3515 96.7154Z" fill="#813C0B"/>
</g>
<path id="Vector_12" fill-rule="evenodd" clip-rule="evenodd" d="M75.0641 95.6187L73.9423 105.987C73.7488 107.785 72.6326 109.35 70.9947 110.115L63.944 113.641L56.8934 110.115C55.2583 109.347 54.1421 107.782 53.9458 105.987L52.824 95.6187L63.7029 94.3455L75.0613 95.6187H75.0641Z" fill="white" stroke="black" stroke-width="0.280456" stroke-linecap="round" stroke-linejoin="round"/>
<g id="Vector_13">
<path d="M63.947 113.641L62.2193 114.28C61.8043 114.435 61.5322 114.827 61.5322 115.27V129.142" fill="#813C0B"/>
<path d="M63.947 113.641L62.2193 114.28C61.8043 114.435 61.5322 114.827 61.5322 115.27V129.142" stroke="black" stroke-width="0.280456" stroke-linecap="round" stroke-linejoin="round"/>
</g>
<path id="Vector_14" d="M64.0141 97.5708L63.9468 113.641" stroke="black" stroke-width="0.280456" stroke-linecap="round" stroke-linejoin="round"/>
<path id="Vector_15" d="M63.9469 117.292C64.4348 117.292 64.8303 116.897 64.8303 116.409C64.8303 115.921 64.4348 115.525 63.9469 115.525C63.459 115.525 63.0635 115.921 63.0635 116.409C63.0635 116.897 63.459 117.292 63.9469 117.292Z" fill="#42210B" stroke="black" stroke-width="0.280456" stroke-linecap="round" stroke-linejoin="round"/>
<path id="Vector_16" d="M63.9469 124.573C64.4348 124.573 64.8303 124.177 64.8303 123.69C64.8303 123.202 64.4348 122.806 63.9469 122.806C63.459 122.806 63.0635 123.202 63.0635 123.69C63.0635 124.177 63.459 124.573 63.9469 124.573Z" fill="#42210B" stroke="black" stroke-width="0.280456" stroke-linecap="round" stroke-linejoin="round"/>
<g id="Group_6">
<path id="Vector_17" d="M64.9143 99.1414C65.1017 99.1414 65.2537 98.9894 65.2537 98.802C65.2537 98.6146 65.1017 98.4626 64.9143 98.4626C64.7269 98.4626 64.575 98.6146 64.575 98.802C64.575 98.9894 64.7269 99.1414 64.9143 99.1414Z" fill="#969696" stroke="black" stroke-width="0.280456" stroke-linecap="round" stroke-linejoin="round"/>
<path id="Vector_18" d="M64.9143 103.491C65.1017 103.491 65.2537 103.339 65.2537 103.152C65.2537 102.964 65.1017 102.812 64.9143 102.812C64.7269 102.812 64.575 102.964 64.575 103.152C64.575 103.339 64.7269 103.491 64.9143 103.491Z" fill="#969696" stroke="black" stroke-width="0.280456" stroke-linecap="round" stroke-linejoin="round"/>
<path id="Vector_19" d="M64.9143 107.841C65.1017 107.841 65.2537 107.689 65.2537 107.502C65.2537 107.314 65.1017 107.162 64.9143 107.162C64.7269 107.162 64.575 107.314 64.575 107.502C64.575 107.689 64.7269 107.841 64.9143 107.841Z" fill="#969696" stroke="black" stroke-width="0.280456" stroke-linecap="round" stroke-linejoin="round"/>
<path id="Vector_20" d="M64.9143 112.191C65.1017 112.191 65.2537 112.039 65.2537 111.852C65.2537 111.664 65.1017 111.512 64.9143 111.512C64.7269 111.512 64.575 111.664 64.575 111.852C64.575 112.039 64.7269 112.191 64.9143 112.191Z" fill="#969696" stroke="black" stroke-width="0.280456" stroke-linecap="round" stroke-linejoin="round"/>
</g>
<path id="Vector_21" opacity="0.42" d="M50.7906 95.8656C47.1138 100.022 47.2652 103.101 49.0265 107.064C50.7878 111.027 56.3744 123.964 56.8736 129.24C57.3757 134.515 57.3841 129.24 57.3841 129.24L52.6023 106.683C52.6023 106.683 52.1227 97.7811 52.1452 97.6829C52.1676 97.5848 51.789 95.7422 51.789 95.7422L50.785 95.8656H50.7906Z" fill="black"/>
<path id="Vector_22" opacity="0.42" d="M76.7329 95.8656C80.4097 100.022 80.2583 103.101 78.497 107.064C76.7357 111.027 71.149 123.964 70.6498 129.24C70.1478 134.515 70.1394 129.24 70.1394 129.24L74.9212 106.683C74.9212 106.683 75.4008 97.7811 75.3783 97.6829C75.3559 97.5848 75.7345 95.7422 75.7345 95.7422L76.7385 95.8656H76.7329Z" fill="black"/>
<path id="Vector_23" d="M66.9787 90.6238H61.0471C59.2271 90.6238 57.7517 92.0992 57.7517 93.9191V94.0594C57.7517 95.8793 59.2271 97.3547 61.0471 97.3547H66.9787C68.7987 97.3547 70.2741 95.8793 70.2741 94.0594V93.9191C70.2741 92.0992 68.7987 90.6238 66.9787 90.6238Z" fill="#F6E3E7" stroke="black" stroke-width="0.280456" stroke-linecap="round" stroke-linejoin="round"/>
<path id="Vector_24" fill-rule="evenodd" clip-rule="evenodd" d="M57.8947 95.0156L57.4011 98.914L64.0143 97.3546L57.8947 95.0156Z" fill="white" stroke="black" stroke-width="0.280456" stroke-linecap="round" stroke-linejoin="round"/>
<path id="Vector_25" fill-rule="evenodd" clip-rule="evenodd" d="M70.1337 95.0156L70.6273 98.914L64.0142 97.3546L70.1337 95.0156Z" fill="white" stroke="black" stroke-width="0.280456" stroke-linecap="round" stroke-linejoin="round"/>
<g id="Group_7">
<path id="Vector_26" d="M52.5324 95.4027C52.1762 95.4279 51.8509 95.6186 51.6517 95.9159C47.8431 101.618 48.9734 103.328 50.1345 107.14C51.3292 111.055 54.9695 116.257 57.3843 129.242L53.5813 95.815C53.5504 95.5457 53.3148 95.3494 53.0428 95.369L52.5268 95.4055L52.5324 95.4027Z" fill="#813C0B" stroke="black" stroke-width="0.280456" stroke-linecap="round" stroke-linejoin="round"/>
<path id="Vector_27" d="M75.6951 95.4167C75.9027 95.4307 76.0962 95.5401 76.214 95.714C80.1824 101.576 79.0382 103.281 77.8631 107.134C76.6683 111.049 73.028 116.252 70.6133 129.237L74.4163 95.8093C74.4471 95.5401 74.6827 95.3438 74.9547 95.3634L75.6979 95.4139L75.6951 95.4167Z" fill="#813C0B" stroke="black" stroke-width="0.280456" stroke-linecap="round" stroke-linejoin="round"/>
</g>
<path id="Vector_28" opacity="0.42" d="M63.0633 113.201L62.1238 113.635C61.4395 113.952 60.9964 114.634 60.9879 115.388L60.7944 129.697L61.5292 128.48V115.268C61.5292 115.268 61.4311 114.681 61.9303 114.44C62.4295 114.199 63.4924 113.806 63.4924 113.806L63.742 113.534L63.0661 113.198L63.0633 113.201Z" fill="black"/>
<path id="Vector_29" opacity="0.25" d="M54.3468 95.4421L55.3705 106.89C55.4434 107.72 55.9202 108.461 56.6409 108.873L63.0606 112.556L63.944 97.8989V112.556L71.1938 109.238C71.1938 109.238 72.1249 108.879 72.4839 108.021C72.8429 107.162 73.9899 95.4421 73.9899 95.4421L74.52 95.5599L72.9719 108.489L71.4799 109.858L64.2217 113.506L63.2849 113.316L56.7728 110.059C56.7728 110.059 55.5275 109.479 55.0423 108.657L53.4634 95.5487L54.344 95.4449L54.3468 95.4421Z" fill="black"/>
<path id="Vector_30" opacity="0.25" d="M57.4011 98.9141L63.947 97.8988L70.6274 98.9141L64.0143 97.3547L57.4011 98.9141Z" fill="black"/>
<path id="Vector_31" opacity="0.25" d="M82.0951 96.4123C79.327 97.7276 76.2336 98.4624 72.9663 98.4624H54.9582C51.7414 98.4624 48.6928 97.7501 45.9612 96.4768C47.6243 96.258 49.523 96.0225 51.4441 95.7869C51.5899 95.7701 52.0106 95.512 52.1564 95.4952C52.6416 95.4363 52.7286 95.4391 53.2082 95.383C53.382 95.3634 53.4325 95.5569 53.6064 95.5373C58.7415 94.9595 63.7084 94.3481 63.7084 94.3481C63.7084 94.3481 69.0343 94.9006 74.4359 95.5064C74.5621 95.5205 74.6658 95.3662 74.792 95.3802C75.3389 95.4419 75.2716 95.3746 75.8213 95.4391C75.9671 95.4559 76.0681 95.6999 76.2139 95.7168C78.1547 95.9411 80.4797 96.1991 82.0951 96.4123Z" fill="black"/>
<g id="Group_8">
<path id="Vector_32" d="M77.8238 37.699H50.3447C41.2479 37.699 33.8735 45.0734 33.8735 54.1701V78.6539C33.8735 87.7507 41.2479 95.1251 50.3447 95.1251H77.8238C86.9205 95.1251 94.2949 87.7507 94.2949 78.6539V54.1701C94.2949 45.0734 86.9205 37.699 77.8238 37.699Z" fill="#0088C9" stroke="black" stroke-width="0.280456" stroke-linecap="round" stroke-linejoin="round"/>
<g id="Group_9">
<path id="Vector_33" d="M35.3208 48.7575L93.1087 32.7603C95.8459 32.7603 98.0615 34.9787 98.0615 37.7131V69.2055C98.0615 71.9427 95.8431 74.1583 93.1087 74.1583H35.3208C32.5835 74.1583 30.3679 71.9399 30.3679 69.2055V53.7103C30.3679 50.973 32.5863 48.7575 35.3208 48.7575Z" fill="white" stroke="black" stroke-width="0.280456" stroke-linecap="round" stroke-linejoin="round"/>
<g id="Vector_34">
<path d="M30.3679 61.0217V56.8906C30.3679 55.8024 29.4873 54.9218 28.3991 54.9218H25.8554C23.8585 54.9218 22.2375 53.3035 22.2375 51.3039C22.2375 49.307 23.8557 47.686 25.8554 47.686H30.6427C31.7309 47.686 32.6115 46.8054 32.6115 45.7172C32.6115 44.629 31.7309 43.7484 30.6427 43.7484H21.9178C20.1453 43.7484 18.7065 42.3097 18.7065 40.5372C18.7065 38.7647 20.1453 37.326 21.9178 37.326H30.7044C31.0522 37.326 31.3327 37.0455 31.3327 36.6978C31.3327 36.35 31.0522 36.0695 30.7044 36.0695H27.698C25.2187 36.0695 23.2135 34.0362 23.2611 31.5486C23.306 29.1058 25.401 27.1931 27.8466 27.1931H86.0103C91.0417 27.1931 95.1195 31.2709 95.1195 36.3023V37.0119" fill="white"/>
<path d="M30.3679 61.0217V56.8906C30.3679 55.8024 29.4873 54.9218 28.3991 54.9218H25.8554C23.8585 54.9218 22.2375 53.3035 22.2375 51.3039C22.2375 49.307 23.8557 47.686 25.8554 47.686H30.6427C31.7309 47.686 32.6115 46.8054 32.6115 45.7172C32.6115 44.629 31.7309 43.7484 30.6427 43.7484H21.9178C20.1453 43.7484 18.7065 42.3097 18.7065 40.5372C18.7065 38.7647 20.1453 37.326 21.9178 37.326H30.7044C31.0522 37.326 31.3327 37.0455 31.3327 36.6978C31.3327 36.35 31.0522 36.0695 30.7044 36.0695H27.698C25.2187 36.0695 23.2135 34.0362 23.2611 31.5486C23.306 29.1058 25.401 27.1931 27.8466 27.1931H86.0103C91.0417 27.1931 95.1195 31.2709 95.1195 36.3023V37.0119" stroke="black" stroke-width="0.280456" stroke-linecap="round" stroke-linejoin="round"/>
</g>
<g id="Group_10">
<path id="Vector_35" d="M47.7815 35.3489H63.6272" stroke="black" stroke-width="0.280456" stroke-linecap="round" stroke-linejoin="round"/>
<path id="Vector_36" d="M37.2476 32.7603H75.7317" stroke="black" stroke-width="0.280456" stroke-linecap="round" stroke-linejoin="round"/>
<path id="Vector_37" d="M37.9739 29.8267H73.4347" stroke="black" stroke-width="0.280456" stroke-linecap="round" stroke-linejoin="round"/>
</g>
</g>
<g id="Group_11" style="mix-blend-mode:multiply">
<path id="Vector_38" d="M93.1061 72.9155H35.321C32.5866 72.9155 30.3682 70.6971 30.3682 67.9626V69.2051C30.3682 71.9423 32.5866 74.1579 35.321 74.1579H93.1089C95.8462 74.1579 98.0618 71.9395 98.0618 69.2051V67.9626C98.0618 70.6999 95.8434 72.9155 93.1089 72.9155H93.1061Z" fill="#0088C9"/>
</g>
<g id="Group_12">
<path id="Vector_39" d="M38.2318 71.3003C39.0788 73.1204 38.8348 74.318 36.1733 76.4999C33.5118 78.6791 29.5854 78.2892 27.4062 75.6277C25.2271 72.9662 25.6169 69.0398 28.2785 66.8607C30.94 64.6815 36.8576 68.3527 38.2318 71.3031V71.3003Z" fill="#F6E3E7" stroke="black" stroke-width="0.280456" stroke-linecap="round" stroke-linejoin="round"/>
<g id="Vector_40" style="mix-blend-mode:multiply">
<path d="M28.6908 68.1032C31.3439 65.9297 37.2279 69.57 38.6301 72.5148C38.5713 72.1306 38.4338 71.7351 38.2319 71.3004C36.8577 68.35 30.94 64.6788 28.2785 66.858C26.0461 68.6866 25.4179 71.7407 26.5593 74.2508C26.0769 72.0352 26.8202 69.6373 28.6936 68.1004L28.6908 68.1032Z" fill="#F6E3E7"/>
</g>
<g id="Vector_41" style="mix-blend-mode:multiply">
<path d="M32.8245 72.5456C32.8245 72.5456 28.4775 69.9262 29.891 75.0753C29.891 75.0753 27.0499 71.407 30.8108 68.2771C30.8108 68.2771 29.7339 69.8477 31.3577 70.6469C34.0024 71.9511 32.8245 72.5456 32.8245 72.5456Z" fill="#F6E3E7"/>
</g>
<path id="Vector_42" d="M29.8377 74.9829C27.1398 71.006 30.8081 68.3501 30.8081 68.3501" stroke="black" stroke-width="0.280456" stroke-linecap="round" stroke-linejoin="round"/>
<path id="Vector_43" d="M32.7545 72.397C32.7545 72.397 31.6271 70.1141 28.9768 71.062" stroke="black" stroke-width="0.280456" stroke-linecap="round" stroke-linejoin="round"/>
</g>
<g id="Group_13">
<path id="Vector_44" d="M89.8611 71.3003C89.0141 73.1204 89.2581 74.318 91.9196 76.4999C94.5811 78.6791 98.5075 78.2892 100.687 75.6277C102.866 72.9662 102.476 69.0398 99.8145 66.8607C97.1529 64.6815 91.2353 68.3527 89.8611 71.3031V71.3003Z" fill="#F6E3E7" stroke="black" stroke-width="0.280456" stroke-linecap="round" stroke-linejoin="round"/>
<g id="Vector_45" style="mix-blend-mode:multiply">
<path d="M99.3993 68.1032C96.7462 65.9297 90.8622 69.57 89.46 72.5148C89.5217 72.1306 89.6563 71.7351 89.8582 71.3004C91.2324 68.35 97.1501 64.6788 99.8116 66.858C102.044 68.6866 102.672 71.7407 101.531 74.2508C102.013 72.0352 101.27 69.6373 99.3965 68.1004L99.3993 68.1032Z" fill="#F6E3E7"/>
</g>
<g id="Vector_46" style="mix-blend-mode:multiply">
<path d="M95.2683 72.5456C95.2683 72.5456 99.6153 69.9262 98.2018 75.0753C98.2018 75.0753 101.043 71.407 97.2819 68.2771C97.2819 68.2771 98.3589 69.8477 96.7351 70.6469C94.0904 71.9511 95.2683 72.5456 95.2683 72.5456Z" fill="#F6E3E7"/>
</g>
<path id="Vector_47" d="M98.2524 74.9829C100.95 71.006 97.282 68.3501 97.282 68.3501" stroke="black" stroke-width="0.280456" stroke-linecap="round" stroke-linejoin="round"/>
<path id="Vector_48" d="M95.3357 72.397C95.3357 72.397 96.4631 70.1141 99.1134 71.062" stroke="black" stroke-width="0.280456" stroke-linecap="round" stroke-linejoin="round"/>
</g>
<g id="Group_14">
<path id="Vector_49" d="M77.8238 37.699H50.3447C41.2479 37.699 33.8735 45.0734 33.8735 54.1701V78.6539C33.8735 87.7507 41.2479 95.1251 50.3447 95.1251H77.8238C86.9205 95.1251 94.2949 87.7507 94.2949 78.6539V54.1701C94.2949 45.0734 86.9205 37.699 77.8238 37.699Z" fill="#F0CCD4" stroke="black" stroke-width="0.280456" stroke-linecap="round" stroke-linejoin="round"/>
<path id="Vector_50" d="M76.7412 39.5359H49.4276C40.8373 39.5359 33.8735 46.4997 33.8735 55.09V76.9627C33.8735 85.553 40.8373 92.5168 49.4276 92.5168H76.7412C85.3315 92.5168 92.2953 85.553 92.2953 76.9627V55.09C92.2953 46.4997 85.3315 39.5359 76.7412 39.5359Z" fill="#F6E3E7"/>
<path id="Vector_51" d="M77.8238 37.699H50.3447C41.2479 37.699 33.8735 45.0734 33.8735 54.1701V78.6539C33.8735 87.7507 41.2479 95.1251 50.3447 95.1251H77.8238C86.9205 95.1251 94.2949 87.7507 94.2949 78.6539V54.1701C94.2949 45.0734 86.9205 37.699 77.8238 37.699Z" stroke="black" stroke-width="0.280456" stroke-linecap="round" stroke-linejoin="round"/>
</g>
<path id="Vector_52" d="M94.811 38.8124C94.811 45.8911 89.0729 51.6292 81.9942 51.6292C76.3318 51.6292 71.7407 47.0382 71.7407 41.3757V38.3721" fill="#F0CCD4"/>
<g id="Group_15">
<g id="Group_16">
<path id="Vector_53" d="M70.9218 54.0019L77.0049 54.2992C78.2894 54.3609 79.3832 53.3709 79.4449 52.0864C79.4982 51.0067 78.7998 50.0307 77.7593 49.7334L71.7436 48.0114C70.2992 47.5991 68.8465 48.6368 68.7735 50.1372L68.7034 51.5648C68.6417 52.8493 69.6317 53.943 70.9162 54.0047L70.9218 54.0019Z" fill="white" stroke="black" stroke-width="0.280456" stroke-linecap="round" stroke-linejoin="round"/>
<path id="Vector_54" d="M70.9217 54.0019L77.0048 54.2992C78.2276 54.3581 79.2737 53.4634 79.4279 52.2715C79.0297 52.8829 78.7184 53.2026 73.687 53.2026C70.1308 53.2026 69.2025 51.3852 68.765 50.3616L68.7061 51.5619C68.6444 52.8464 69.6344 53.9402 70.9189 54.0019H70.9217Z" fill="#C9C9C9"/>
<path id="Vector_55" d="M70.9218 54.0019L77.0049 54.2992C78.2894 54.3609 79.3832 53.3709 79.4449 52.0864C79.4982 51.0067 78.7998 50.0307 77.7593 49.7334L71.7436 48.0114C70.2992 47.5991 68.8465 48.6368 68.7735 50.1372L68.7034 51.5648C68.6417 52.8493 69.6317 53.943 70.9162 54.0047L70.9218 54.0019Z" stroke="black" stroke-width="0.280456" stroke-linecap="round" stroke-linejoin="round"/>
<path id="Vector_56" d="M71.5303 54.03C70.9161 52.0696 71.3144 49.9326 72.5596 48.3284" stroke="black" stroke-width="0.280456" stroke-linecap="round" stroke-linejoin="round"/>
<path id="Vector_57" d="M73.8919 54.145C73.4264 52.3669 73.7741 50.471 74.8174 48.979" stroke="black" stroke-width="0.280456" stroke-linecap="round" stroke-linejoin="round"/>
<path id="Vector_58" d="M76.3486 54.2993C76.0233 52.6922 76.3486 51.0179 77.232 49.6521" stroke="black" stroke-width="0.280456" stroke-linecap="round" stroke-linejoin="round"/>
</g>
<g id="Group_17">
<path id="Vector_59" d="M57.2525 54.0019L51.1694 54.2992C49.8849 54.3609 48.7911 53.3709 48.7294 52.0864C48.6761 51.0067 49.3745 50.0307 50.415 49.7334L56.4307 48.0114C57.8751 47.5991 59.3278 48.6368 59.4008 50.1372L59.4709 51.5648C59.5326 52.8493 58.5426 53.943 57.2581 54.0047L57.2525 54.0019Z" fill="white" stroke="black" stroke-width="0.280456" stroke-linecap="round" stroke-linejoin="round"/>
<path id="Vector_60" d="M57.2526 54.0019L51.1695 54.2992C49.9467 54.3581 48.9006 53.4634 48.7463 52.2715C49.1446 52.8829 49.4559 53.2026 54.4873 53.2026C58.0434 53.2026 58.9718 51.3852 59.4093 50.3616L59.4682 51.5619C59.5299 52.8464 58.5399 53.9402 57.2554 54.0019H57.2526Z" fill="#C9C9C9"/>
<path id="Vector_61" d="M57.2525 54.0019L51.1694 54.2992C49.8849 54.3609 48.7911 53.3709 48.7294 52.0864C48.6761 51.0067 49.3745 50.0307 50.415 49.7334L56.4307 48.0114C57.8751 47.5991 59.3278 48.6368 59.4008 50.1372L59.4709 51.5648C59.5326 52.8493 58.5426 53.943 57.2581 54.0047L57.2525 54.0019Z" stroke="black" stroke-width="0.280456" stroke-linecap="round" stroke-linejoin="round"/>
<path id="Vector_62" d="M56.6438 54.03C57.258 52.0696 56.8597 49.9326 55.6145 48.3284" stroke="black" stroke-width="0.280456" stroke-linecap="round" stroke-linejoin="round"/>
<path id="Vector_63" d="M54.2851 54.145C54.7507 52.3669 54.4029 50.471 53.3596 48.979" stroke="black" stroke-width="0.280456" stroke-linecap="round" stroke-linejoin="round"/>
<path id="Vector_64" d="M51.8258 54.2993C52.1511 52.6922 51.8258 51.0179 50.9424 49.6521" stroke="black" stroke-width="0.280456" stroke-linecap="round" stroke-linejoin="round"/>
</g>
<g id="Vector_65" style="mix-blend-mode:multiply">
<path d="M64.4993 75.4036C64.4993 73.9901 63.3522 72.843 61.9387 72.843C61.0609 72.843 60.3598 73.3366 59.8269 73.9536C58.0881 75.9729 56.7419 77.3556 52.3219 78.0931C49.8258 78.5082 46.6679 78.3736 42.7892 77.0499C42.4106 76.904 41.5356 76.6348 40.812 76.6348C38.086 76.6348 35.876 78.8448 35.876 81.5708C35.876 83.5761 37.0623 85.3149 38.7871 86.0693C40.2146 86.6947 44.5421 88.3831 49.7838 87.5305C54.0355 86.8406 59.1566 84.2463 62.9624 78.7158C63.327 78.1857 64.5021 76.6768 64.5021 75.4008L64.4993 75.4036Z" fill="#F6E3E7"/>
</g>
<g id="Vector_66" style="mix-blend-mode:multiply">
<path d="M63.672 75.4036C63.672 73.9901 64.8191 72.843 66.2326 72.843C67.1104 72.843 67.8115 73.3366 68.3444 73.9536C70.0832 75.9729 71.4294 77.3556 75.8494 78.0931C78.3454 78.5082 81.5034 78.3736 85.3821 77.0499C85.7607 76.904 86.6357 76.6348 87.3593 76.6348C90.0853 76.6348 92.2953 78.8448 92.2953 81.5708C92.2953 83.5761 91.109 85.3149 89.3842 86.0693C87.9567 86.6947 83.6292 88.3831 78.3875 87.5305C74.1358 86.8406 69.0147 84.2463 65.2089 78.7158C64.8443 78.1857 63.6692 76.6768 63.6692 75.4008L63.672 75.4036Z" fill="#F6E3E7"/>
</g>
<path id="Vector_67" d="M61.692 80.6312C62.5137 80.6985 63.3074 80.8135 64.0843 80.8135C64.8752 80.8135 65.6605 80.7462 66.4794 80.6733C66.1176 80.8724 65.7222 81.0042 65.3155 81.0884C64.9173 81.1809 64.4966 81.2202 64.0843 81.2258C63.6636 81.2202 63.2457 81.1669 62.8475 81.0603C62.4492 80.9622 62.0594 80.8275 61.6892 80.6284L61.692 80.6312Z" fill="#1D1D1B"/>
<g id="Vector_68">
<path d="M68.4509 74.1609C68.4509 76.57 66.4962 78.5248 64.087 78.5248C61.6779 78.5248 59.7231 76.57 59.7231 74.1609" fill="#F0CCD4"/>
<path d="M68.4509 74.1609C68.4509 76.57 66.4962 78.5248 64.087 78.5248C61.6779 78.5248 59.7231 76.57 59.7231 74.1609" stroke="black" stroke-width="0.280456" stroke-linecap="round" stroke-linejoin="round"/>
</g>
<g id="Group_18">
<path id="Vector_69" d="M64.0842 74.1611C64.0842 72.7476 62.9372 71.6006 61.5237 71.6006C60.6459 71.6006 59.9447 72.0942 59.4119 72.7112C57.673 74.7305 56.3268 76.1131 51.9069 76.8507C49.4108 77.2658 46.2529 77.1312 42.3742 75.8074C41.9956 75.6616 41.1205 75.3923 40.397 75.3923C37.6709 75.3923 35.4609 77.6023 35.4609 80.3284C35.4609 82.3336 36.6473 84.0724 38.3721 84.8269C39.7996 85.4523 44.127 87.1406 49.3687 86.2881C53.6204 85.5981 58.7416 83.0039 62.5474 77.4733C62.9119 76.9433 64.0871 75.4344 64.0871 74.1583L64.0842 74.1611Z" fill="white"/>
<path id="Vector_70" d="M38.372 84.8269C39.7995 85.4523 44.1269 87.1407 49.3686 86.2881C53.6203 85.5982 58.7415 83.0039 62.5472 77.4734C62.8361 77.0527 63.627 76.0234 63.9467 74.9829C61.6919 77.2686 55.6789 82.5777 47.5905 83.6546C42.3348 84.3529 38.2401 82.6057 35.4749 80.7126C35.6151 82.5524 36.7593 84.1202 38.372 84.8269Z" fill="#C9C9C9"/>
<path id="Vector_71" d="M64.0842 74.1611C64.0842 72.7476 62.9372 71.6006 61.5237 71.6006C60.6459 71.6006 59.9447 72.0942 59.4119 72.7112C57.673 74.7305 56.3268 76.1131 51.9069 76.8507C49.4108 77.2658 46.2529 77.1312 42.3742 75.8074C41.9956 75.6616 41.1205 75.3923 40.397 75.3923C37.6709 75.3923 35.4609 77.6023 35.4609 80.3284C35.4609 82.3336 36.6473 84.0724 38.3721 84.8269C39.7996 85.4523 44.127 87.1406 49.3687 86.2881C53.6204 85.5981 58.7416 83.0039 62.5474 77.4733C62.9119 76.9433 64.0871 75.4344 64.0871 74.1583L64.0842 74.1611Z" stroke="black" stroke-width="0.280456" stroke-linecap="round" stroke-linejoin="round"/>
<path id="Vector_72" d="M37.7129 84.437C37.3568 82.5552 37.0903 78.7381 39.721 75.4849" stroke="black" stroke-width="0.280456" stroke-linecap="round" stroke-linejoin="round"/>
<path id="Vector_73" d="M43.3641 76.2336C42.4105 77.7285 40.6184 81.3464 41.9141 85.9374" stroke="black" stroke-width="0.280456" stroke-linecap="round" stroke-linejoin="round"/>
<path id="Vector_74" d="M61.6023 78.5951C60.6431 77.8463 58.9716 76.2645 58.3406 73.9312" stroke="black" stroke-width="0.280456" stroke-linecap="round" stroke-linejoin="round"/>
<path id="Vector_75" d="M54.9834 76.1719C55.1489 77.4648 55.7659 80.1375 58.0348 82.2718" stroke="black" stroke-width="0.280456" stroke-linecap="round" stroke-linejoin="round"/>
<path id="Vector_76" d="M52.4706 85.4353C51.6685 84.2069 50.297 81.3378 51.2534 77.0188" stroke="black" stroke-width="0.280456" stroke-linecap="round" stroke-linejoin="round"/>
<path id="Vector_77" d="M47.2063 77.0527C46.5557 78.3961 45.0047 82.3898 47.125 86.4873" stroke="black" stroke-width="0.280456" stroke-linecap="round" stroke-linejoin="round"/>
</g>
<g id="Group_19">
<path id="Vector_78" d="M64.0843 74.1611C64.0843 72.7476 65.2314 71.6006 66.6449 71.6006C67.5227 71.6006 68.2239 72.0942 68.7567 72.7112C70.4956 74.7305 71.8418 76.1131 76.2617 76.8507C78.7578 77.2658 81.9157 77.1312 85.7944 75.8074C86.173 75.6616 87.0481 75.3923 87.7716 75.3923C90.4977 75.3923 92.7077 77.6023 92.7077 80.3284C92.7077 82.3336 91.5213 84.0724 89.7965 84.8269C88.369 85.4523 84.0416 87.1406 78.7999 86.2881C74.5482 85.5981 69.427 83.0039 65.6212 77.4733C65.2566 76.9433 64.0815 75.4344 64.0815 74.1583L64.0843 74.1611Z" fill="white"/>
<path id="Vector_79" d="M89.7994 84.8269C88.3718 85.4523 84.0444 87.1407 78.8027 86.2881C74.551 85.5982 69.4299 83.0039 65.6241 77.4734C65.3352 77.0527 64.5443 76.0234 64.2246 74.9829C66.4795 77.2686 72.4924 82.5777 80.5808 83.6546C85.8365 84.3529 89.9312 82.6057 92.6965 80.7126C92.5562 82.5524 91.412 84.1202 89.7994 84.8269Z" fill="#C9C9C9"/>
<path id="Vector_80" d="M64.0843 74.1611C64.0843 72.7476 65.2314 71.6006 66.6449 71.6006C67.5227 71.6006 68.2239 72.0942 68.7567 72.7112C70.4956 74.7305 71.8418 76.1131 76.2617 76.8507C78.7578 77.2658 81.9157 77.1312 85.7944 75.8074C86.173 75.6616 87.0481 75.3923 87.7716 75.3923C90.4977 75.3923 92.7077 77.6023 92.7077 80.3284C92.7077 82.3336 91.5213 84.0724 89.7965 84.8269C88.369 85.4523 84.0416 87.1406 78.7999 86.2881C74.5481 85.5981 69.427 83.0039 65.6212 77.4733C65.2566 76.9433 64.0815 75.4344 64.0815 74.1583L64.0843 74.1611Z" stroke="black" stroke-width="0.280456" stroke-linecap="round" stroke-linejoin="round"/>
<path id="Vector_81" d="M90.4585 84.437C90.8147 82.5552 91.0811 78.7381 88.4504 75.4849" stroke="black" stroke-width="0.280456" stroke-linecap="round" stroke-linejoin="round"/>
<path id="Vector_82" d="M84.8071 76.2336C85.7607 77.7285 87.5528 81.3464 86.2571 85.9374" stroke="black" stroke-width="0.280456" stroke-linecap="round" stroke-linejoin="round"/>
<path id="Vector_83" d="M66.5691 78.5951C67.5283 77.8463 69.1998 76.2645 69.8308 73.9312" stroke="black" stroke-width="0.280456" stroke-linecap="round" stroke-linejoin="round"/>
<path id="Vector_84" d="M73.1851 76.1719C73.0197 77.4648 72.4027 80.1375 70.1338 82.2718" stroke="black" stroke-width="0.280456" stroke-linecap="round" stroke-linejoin="round"/>
<path id="Vector_85" d="M75.7009 85.4353C76.503 84.2069 77.8745 81.3378 76.9181 77.0188" stroke="black" stroke-width="0.280456" stroke-linecap="round" stroke-linejoin="round"/>
<path id="Vector_86" d="M80.9651 77.0527C81.6157 78.3961 83.1667 82.3898 81.0464 86.4873" stroke="black" stroke-width="0.280456" stroke-linecap="round" stroke-linejoin="round"/>
</g>
<g id="Group_20">
<path id="Vector_87" d="M61.6217 70.3919H66.5493C67.2196 70.3919 67.7609 69.8478 67.7609 69.1803C67.7609 68.51 67.2168 67.9688 66.5493 67.9688H61.6217C60.9514 67.9688 60.4102 68.5128 60.4102 69.1803C60.4102 69.8506 60.9542 70.3919 61.6217 70.3919Z" fill="#F2ADC9" stroke="black" stroke-width="0.280456" stroke-linecap="round" stroke-linejoin="round"/>
<path id="Vector_88" d="M66.5661 69.5111C66.5661 70.877 65.4611 71.982 64.0953 71.982C62.7295 71.982 61.6245 70.877 61.6245 69.5111C61.6245 66.5888 62.7295 59.8018 64.0953 59.8018C65.4611 59.8018 66.5661 66.6477 66.5661 69.5111Z" fill="#F2ADC9" stroke="black" stroke-width="0.280456" stroke-linecap="round" stroke-linejoin="round"/>
<path id="Vector_89" d="M62.7295 70.3918C63.2203 70.3861 63.669 70.4422 64.1009 70.4422C64.5412 70.445 64.9872 70.4002 65.478 70.4198C65.276 70.5712 65.0545 70.6722 64.8189 70.7479C64.5889 70.818 64.3477 70.8517 64.0981 70.8573C63.8513 70.8545 63.6073 70.8124 63.3773 70.7339C63.1474 70.6554 62.9258 70.5516 62.7295 70.3918Z" fill="#1D1D1B"/>
</g>
<g id="Group_21">
<path id="Vector_90" d="M57.8082 60.0376C57.8082 60.8958 57.1182 61.5913 56.2685 61.5913C55.4187 61.5913 54.7288 60.8958 54.7288 60.0376C54.7288 59.1794 55.4187 58.4839 56.2685 58.4839C57.1182 58.4839 57.8082 59.1794 57.8082 60.0376Z" fill="#111111"/>
<path id="Vector_91" d="M58.2706 62.2112C57.7911 62.8058 57.0955 63.2573 56.3075 63.3891C55.9204 63.4508 55.5054 63.4873 55.1239 63.3639C54.9276 63.3218 54.7509 63.2265 54.5742 63.148C54.4004 63.0554 54.2405 62.9376 54.0891 62.8198C54.0834 62.8142 54.0806 62.8058 54.0891 62.7974C54.0919 62.7918 54.1003 62.7918 54.1059 62.7918C54.2994 62.8338 54.4761 62.8984 54.6556 62.946C54.8407 62.9769 55.0118 63.047 55.194 63.061C55.2838 63.0778 55.3735 63.0975 55.4605 63.1087L55.7297 63.1367C55.8195 63.1536 55.9092 63.1508 56.0018 63.1536C56.0915 63.1536 56.1841 63.1592 56.2738 63.1423C56.6384 63.1115 56.9974 63.0049 57.3311 62.8367C57.6677 62.6768 57.9818 62.458 58.2482 62.1888C58.2482 62.1888 58.265 62.1804 58.2706 62.1888C58.2763 62.1944 58.2763 62.2028 58.2706 62.2084V62.2112Z" fill="#111111"/>
<path id="Vector_92" d="M58.2707 62.9628C58.1389 63.4311 57.8725 63.8827 57.4574 64.1799C57.2555 64.3314 57.0143 64.4548 56.7563 64.4772C56.501 64.5137 56.243 64.466 56.0131 64.3763C56.0074 64.3763 56.0046 64.3678 56.0074 64.3622C56.0074 64.3594 56.0131 64.3566 56.0159 64.3566C56.1421 64.337 56.2599 64.3454 56.3777 64.3286C56.4954 64.3089 56.6104 64.3061 56.7226 64.2725C56.947 64.2276 57.1657 64.1631 57.3649 64.0425C57.564 63.9219 57.7407 63.7621 57.8865 63.5741C58.0351 63.389 58.1613 63.1787 58.2511 62.9571C58.2511 62.9515 58.2595 62.9487 58.2651 62.9515C58.2707 62.9515 58.2735 62.96 58.2707 62.9656V62.9628Z" fill="#111111"/>
<g id="Group_22">
<path id="Vector_93" d="M49.801 60.3125H50.7742" stroke="black" stroke-width="0.140228" stroke-linecap="round" stroke-linejoin="round"/>
<path id="Vector_94" d="M49.801 59.4795H50.7742" stroke="black" stroke-width="0.140228" stroke-linecap="round" stroke-linejoin="round"/>
<path id="Vector_95" d="M49.543 59.8833H50.7742" stroke="black" stroke-width="0.140228" stroke-linecap="round" stroke-linejoin="round"/>
</g>
</g>
<g id="Group_23">
<path id="Vector_96" d="M70.3635 60.0376C70.3635 60.8958 71.0534 61.5913 71.9032 61.5913C72.753 61.5913 73.4429 60.8958 73.4429 60.0376C73.4429 59.1794 72.753 58.4839 71.9032 58.4839C71.0534 58.4839 70.3635 59.1794 70.3635 60.0376Z" fill="#111111"/>
<path id="Vector_97" d="M69.9232 62.1915C70.1897 62.4579 70.5038 62.6767 70.8403 62.8393C71.1741 63.0048 71.5331 63.1142 71.8977 63.145C71.9874 63.159 72.0799 63.1562 72.1697 63.1562C72.2594 63.1562 72.352 63.1562 72.4417 63.1394L72.711 63.1114C72.8007 63.0973 72.8905 63.0777 72.9774 63.0637C73.1597 63.0497 73.3308 62.9795 73.5159 62.9487C73.6954 62.901 73.8721 62.8337 74.0656 62.7944C74.0656 62.7944 74.0824 62.7972 74.0852 62.8057C74.0852 62.8113 74.0852 62.8169 74.0796 62.8225C73.9282 62.9403 73.7683 63.0581 73.5944 63.1506C73.4177 63.232 73.2382 63.3273 73.0447 63.3666C72.6633 63.49 72.2482 63.4535 71.8612 63.3918C71.0759 63.26 70.3804 62.8085 69.898 62.2139C69.8924 62.2083 69.8924 62.1971 69.898 62.1915C69.9036 62.1859 69.912 62.1859 69.9176 62.1915H69.9232Z" fill="#111111"/>
<path id="Vector_98" d="M69.9205 62.9571C70.0103 63.1815 70.1365 63.389 70.2851 63.5741C70.4309 63.7621 70.6076 63.9219 70.8067 64.0425C71.0059 64.1631 71.2274 64.2276 71.449 64.2725C71.5584 64.3061 71.6762 64.3089 71.794 64.3286C71.9117 64.3426 72.0295 64.337 72.1557 64.3566C72.1557 64.3566 72.1642 64.3622 72.1642 64.3678C72.1642 64.3706 72.1614 64.3734 72.1585 64.3762C71.9286 64.4632 71.6706 64.5109 71.4153 64.4772C71.1573 64.4548 70.9161 64.3314 70.7142 64.1799C70.2991 63.8798 70.0327 63.4311 69.9009 62.9628C69.9009 62.9571 69.9009 62.9515 69.9093 62.9487C69.9149 62.9487 69.9205 62.9487 69.9233 62.9543L69.9205 62.9571Z" fill="#111111"/>
<g id="Group_24">
<path id="Vector_99" d="M78.3678 60.3125H77.3975" stroke="black" stroke-width="0.140228" stroke-linecap="round" stroke-linejoin="round"/>
<path id="Vector_100" d="M78.3678 59.4795H77.3975" stroke="black" stroke-width="0.140228" stroke-linecap="round" stroke-linejoin="round"/>
<path id="Vector_101" d="M78.6287 59.8833H77.3975" stroke="black" stroke-width="0.140228" stroke-linecap="round" stroke-linejoin="round"/>
</g>
</g>
</g>
<g id="Vector_102">
<path d="M80.4686 39.2724C80.4686 41.6198 81.7334 42.5678 84.0808 42.5678C86.4282 42.5678 88.3437 40.6523 88.3325 38.2964C88.3213 36.0023 86.4114 34.1709 84.1201 34.0672C83.4638 34.0363 82.8608 34.0559 82.3111 34.1092C77.4761 34.5944 75.4147 40.641 79.013 43.9056C80.4629 45.2209 82.4233 45.9809 84.5632 45.8463C88.3213 45.6135 91.3783 42.5538 91.6139 38.7957C91.8859 34.4093 88.4111 30.769 84.0836 30.769C84.0836 30.769 75.0782 29.88 73.4908 38.3862C72.3213 44.6572 77.3863 49.4389 84.0836 49.4025C90.2088 49.3688 95.1364 45.1816 95.1364 39.0593L95.0999 36.3024" fill="white"/>
<path d="M80.4685 39.2724C80.4685 41.6198 81.7334 42.5678 84.0808 42.5678C86.4282 42.5678 88.3437 40.6523 88.3325 38.2964C88.3213 36.0023 86.4114 34.1709 84.1201 34.0672C83.4638 34.0363 82.8608 34.0559 82.3111 34.1092C77.4761 34.5944 75.4147 40.641 79.013 43.9056C80.4629 45.2209 82.4233 45.9809 84.5632 45.8463C88.3213 45.6135 91.3783 42.5538 91.6139 38.7957C91.8859 34.4093 88.4111 30.769 84.0836 30.769C84.0836 30.769 75.0782 29.88 73.4908 38.3862C72.3213 44.6572 77.3863 49.4389 84.0836 49.4025C90.2088 49.3688 95.1364 45.1816 95.1364 39.0593L95.0999 36.3024" stroke="black" stroke-width="0.280456" stroke-linecap="round" stroke-linejoin="round"/>
</g>
</g>
<g id="Group_25">
<g id="Group_26">
<path id="Vector_103" opacity="0.1" d="M85.8619 59.4146L85.8843 64.5329C85.8984 67.402 83.5117 69.7382 80.5697 69.7354H79.2852L78.0091 69.7326H76.1581L72.8263 69.727C72.515 69.727 72.2065 69.6989 71.9092 69.6456C69.7245 69.267 67.9772 67.5759 67.6323 65.3715L66.9592 61.0581V61.0497L66.4516 57.7964C66.1374 55.7939 67.7641 53.9962 69.8423 54.0467L75.2579 54.1785L79.5012 54.2795L80.7296 54.3075C80.9343 54.3131 81.1362 54.3271 81.3353 54.358C81.756 54.4141 82.1599 54.5179 82.5441 54.6693C84.4821 55.4181 85.8479 57.2607 85.8591 59.4118L85.8619 59.4146Z" fill="#00FFFF" stroke="black" stroke-width="1.12182" stroke-linecap="round" stroke-linejoin="round"/>
<g id="Group_27" opacity="0.6">
<path id="Vector_104" d="M79.504 54.2794L76.161 69.7297H72.8292C72.5179 69.7269 72.2094 69.6989 71.9121 69.6456L75.2579 54.1785L79.5012 54.2794H79.504Z" fill="white"/>
<path id="Vector_105" d="M82.5469 54.6721L79.288 69.7354H78.012L81.3382 54.3608C81.7588 54.4169 82.1627 54.5207 82.5469 54.6721Z" fill="white"/>
</g>
</g>
<path id="Vector_106" d="M85.8617 59.4146L85.8841 64.5329C85.8981 67.402 83.5114 69.7382 80.5695 69.7354H79.285L78.0089 69.7326H76.1579L72.8261 69.727C72.5148 69.727 72.2063 69.6989 71.909 69.6456C69.7242 69.267 67.977 67.5759 67.632 65.3715L66.9589 61.0581V61.0497L66.4513 57.7964C66.1372 55.7939 67.7638 53.9962 69.842 54.0467L75.2576 54.1785L79.5009 54.2795L80.7293 54.3075C80.934 54.3131 81.136 54.3271 81.3351 54.358C81.7558 54.4141 82.1596 54.5179 82.5439 54.6693C84.4818 55.4181 85.8476 57.2607 85.8589 59.4118L85.8617 59.4146Z" stroke="black" stroke-width="1.12182" stroke-linecap="round" stroke-linejoin="round"/>
<g id="Group_28">
<path id="Vector_107" opacity="0.1" d="M42.3208 59.4146L42.2984 64.5329C42.2844 67.402 44.6711 69.7382 47.613 69.7354H48.8975L50.1736 69.7326H52.0246L55.3564 69.727C55.6677 69.727 55.9762 69.6989 56.2735 69.6456C58.4583 69.267 60.2055 67.5759 60.5505 65.3715L61.2236 61.0581V61.0497L61.7312 57.7964C62.0453 55.7939 60.4186 53.9962 58.3405 54.0467L52.9249 54.1785L48.6816 54.2795L47.4532 54.3075C47.2484 54.3131 47.0465 54.3271 46.8474 54.358C46.4267 54.4141 46.0229 54.5179 45.6386 54.6693C43.7007 55.4181 42.3349 57.2607 42.3236 59.4118L42.3208 59.4146Z" fill="#00FFFF" stroke="black" stroke-width="1.12182" stroke-linecap="round" stroke-linejoin="round"/>
<g id="Group_29" opacity="0.6">
<path id="Vector_108" d="M48.6758 54.2794L52.0188 69.7297H55.3506C55.6619 69.7269 55.9704 69.6989 56.2677 69.6456L52.9219 54.1785L48.6786 54.2794H48.6758Z" fill="white"/>
<path id="Vector_109" d="M45.6357 54.6721L48.8946 69.7354H50.1707L46.8445 54.3608C46.4238 54.4169 46.02 54.5207 45.6357 54.6721Z" fill="white"/>
</g>
</g>
<path id="Vector_110" d="M42.3208 59.4146L42.2984 64.5329C42.2844 67.402 44.6711 69.7382 47.613 69.7354H48.8975L50.1736 69.7326H52.0246L55.3564 69.727C55.6677 69.727 55.9762 69.6989 56.2735 69.6456C58.4583 69.267 60.2055 67.5759 60.5505 65.3715L61.2236 61.0581V61.0497L61.7312 57.7964C62.0453 55.7939 60.4186 53.9962 58.3405 54.0467L52.9249 54.1785L48.6816 54.2795L47.4532 54.3075C47.2484 54.3131 47.0465 54.3271 46.8474 54.358C46.4267 54.4141 46.0229 54.5179 45.6386 54.6693C43.7007 55.4181 42.3349 57.2607 42.3236 59.4118L42.3208 59.4146Z" stroke="black" stroke-width="1.12182" stroke-linecap="round" stroke-linejoin="round"/>
<path id="Vector_111" d="M61.2151 61.0495C61.4338 57.7569 66.7457 57.7569 66.9616 61.0495" stroke="black" stroke-width="1.12182" stroke-linecap="round" stroke-linejoin="round"/>
</g>
</g>
</g>
</g>
</svg>
