<svg width="128" height="128" viewBox="0 0 128 128" fill="none" xmlns="http://www.w3.org/2000/svg">
<g id="Group">
<g id="Layer 1">
<path id="Vector" d="M130.476 -2.47656H-2.47656V130.476H130.476V-2.47656Z" fill="#00B2FF"/>
<g id="Group_2">
<g id="Group_3">
<path id="Vector_2" d="M83.427 97.6152H44.8026C41.7793 97.6152 39.3281 100.066 39.3281 103.09V103.55C39.3281 105.087 39.962 106.475 40.98 107.468C43.3639 109.79 45.0971 112.698 45.7674 115.96L48.5467 147.348H79.8456L82.7315 116.526C83.2755 113.108 84.7956 109.877 87.2636 107.454C88.2733 106.461 88.9015 105.078 88.9015 103.55V103.09C88.9015 100.066 86.4503 97.6152 83.427 97.6152Z" fill="#F7E4E8" stroke="black" stroke-width="0.280456" stroke-linecap="round" stroke-linejoin="round"/>
<path id="Vector_3" fill-rule="evenodd" clip-rule="evenodd" d="M53.6959 114.967C54.0072 114.967 54.2624 115.203 54.2624 115.494C54.2624 115.786 54.01 116.022 53.6959 116.022C53.3818 116.022 53.1294 115.786 53.1294 115.494C53.1294 115.203 53.3818 114.967 53.6959 114.967Z" fill="#F1BBCE" stroke="#F1BBCE" stroke-width="0.280456" stroke-linecap="round" stroke-linejoin="round"/>
<path id="Vector_4" fill-rule="evenodd" clip-rule="evenodd" d="M74.9432 114.967C75.2545 114.967 75.5097 115.203 75.5097 115.494C75.5097 115.786 75.2573 116.022 74.9432 116.022C74.6291 116.022 74.3767 115.786 74.3767 115.494C74.3767 115.203 74.6291 114.967 74.9432 114.967Z" fill="#F1BBCE" stroke="#F1BBCE" stroke-width="0.280456" stroke-linecap="round" stroke-linejoin="round"/>
</g>
<g id="Group_4">
<path id="Vector_5" d="M89.0923 104.873C89.0923 105.636 88.9716 106.371 88.7529 107.063L88.7333 107.122C88.6996 107.223 88.666 107.324 88.6295 107.422L84.8938 118.893C81.534 128.493 84.5853 144.241 84.5853 154.41V154.623L77.7366 156.407C68.4844 158.934 58.7133 158.864 49.5003 156.199L43.7369 154.623V154.533C43.7369 144.283 46.7603 128.459 43.3499 118.792L39.6283 107.448C39.5834 107.338 39.5441 107.226 39.5077 107.111L39.4908 107.063C39.2721 106.371 39.1543 105.636 39.1543 104.873C39.1543 102.22 39.7489 100.091 41.4596 98.8293C42.2533 98.2404 43.2882 97.8421 44.6176 97.6598C51.298 96.7512 63.7082 95.3489 63.7082 95.3489C63.7082 95.3489 77.6609 96.7512 83.9038 97.6682C85.1743 97.8533 86.2035 98.3525 87 99.093C88.4135 100.394 89.0923 102.458 89.0923 104.873Z" fill="white" stroke="black" stroke-width="0.280456" stroke-linecap="round" stroke-linejoin="round"/>
<path id="Vector_6" d="M66.9782 91.6245H61.0466C59.2266 91.6245 57.7512 93.0999 57.7512 94.9199V95.0601C57.7512 96.8801 59.2266 98.3554 61.0466 98.3554H66.9782C68.7982 98.3554 70.2736 96.8801 70.2736 95.0601V94.9199C70.2736 93.0999 68.7982 91.6245 66.9782 91.6245Z" fill="#F7E4E8" stroke="black" stroke-width="0.280456" stroke-linecap="round" stroke-linejoin="round"/>
</g>
<g id="Group_5">
<path id="Vector_7" d="M39.4405 101.996C39.4209 102.072 39.4124 102.147 39.3984 102.22L39.3704 102.215L34.3109 129.071C33.75 131.379 35.1691 133.707 37.4773 134.268C39.7854 134.829 42.1132 133.41 42.6741 131.102L50.3642 105.249C50.4287 105.067 50.4848 104.879 50.5325 104.688C51.2757 101.626 49.3967 98.5408 46.3341 97.7976C43.2715 97.0544 40.1865 98.9334 39.4433 101.996H39.4405Z" stroke="black" stroke-width="0.280456" stroke-linecap="round" stroke-linejoin="round"/>
<path id="Vector_8" d="M34.1958 129.859C34.1873 130.013 34.1873 130.167 34.1958 130.316L34.2294 157.422C34.1481 158.97 35.3344 160.288 36.8797 160.372C38.4278 160.454 39.746 159.267 39.8301 157.722L42.7384 130.773C42.7637 130.625 42.7805 130.473 42.7889 130.319C42.9151 127.946 41.095 125.919 38.7195 125.792C36.3469 125.666 34.3192 127.486 34.193 129.862L34.1958 129.859Z" fill="#F7E4E8" stroke="black" stroke-width="0.280456" stroke-linecap="round" stroke-linejoin="round"/>
<path id="Vector_9" d="M39.4405 101.996C39.4209 102.072 39.4124 102.147 39.3984 102.22L39.3704 102.215L34.3109 129.071C33.75 131.379 35.1691 133.707 37.4773 134.268C39.7854 134.829 42.1132 133.41 42.6741 131.102L50.3642 105.249C50.4287 105.067 50.4848 104.879 50.5325 104.688C51.2757 101.626 49.3967 98.5408 46.3341 97.7976C43.2715 97.0544 40.1865 98.9334 39.4433 101.996H39.4405Z" fill="white" stroke="black" stroke-width="0.280456" stroke-linecap="round" stroke-linejoin="round"/>
<path id="mask" d="M44.4075 97.8171L55.7912 96.4429L55.7884 118.349H45.0048L44.4075 97.8171Z" fill="white"/>
</g>
<g id="Group_6">
<path id="Vector_10" d="M89.0139 101.996C89.0335 102.071 89.0419 102.147 89.056 102.22L89.084 102.215L94.1434 129.071C94.7043 131.379 93.2852 133.707 90.9771 134.268C88.6689 134.829 86.3411 133.41 85.7802 131.101L78.0901 105.249C78.0256 105.067 77.9695 104.879 77.9219 104.688C77.1786 101.626 79.0577 98.5406 82.1203 97.7973C85.1829 97.0541 88.2679 98.9332 89.0111 101.996H89.0139Z" stroke="black" stroke-width="0.280456" stroke-linecap="round" stroke-linejoin="round"/>
<path id="Vector_11" d="M94.2585 129.859C94.2669 130.013 94.2669 130.167 94.2585 130.316L94.2249 157.422C94.3062 158.97 93.1199 160.288 91.5746 160.372C90.0264 160.454 88.7083 159.267 88.6242 157.722L85.7158 130.773C85.6906 130.625 85.6738 130.473 85.6654 130.319C85.5392 127.946 87.3593 125.919 89.7348 125.792C92.1074 125.666 94.1351 127.486 94.2613 129.862L94.2585 129.859Z" fill="#F7E4E8" stroke="black" stroke-width="0.280456" stroke-linecap="round" stroke-linejoin="round"/>
<path id="Vector_12" d="M89.0139 101.996C89.0335 102.071 89.0419 102.147 89.056 102.22L89.084 102.215L94.1434 129.071C94.7043 131.379 93.2852 133.707 90.9771 134.268C88.6689 134.829 86.3411 133.41 85.7802 131.101L78.0901 105.249C78.0256 105.067 77.9695 104.879 77.9219 104.688C77.1786 101.626 79.0577 98.5406 82.1203 97.7973C85.1829 97.0541 88.2679 98.9332 89.0111 101.996H89.0139Z" fill="white" stroke="black" stroke-width="0.280456" stroke-linecap="round" stroke-linejoin="round"/>
<path id="mask_2" d="M83.3515 97.7161L72.6633 96.4429V118.352H83.4497L83.9096 98.3584C83.918 98.033 83.6768 97.7554 83.3543 97.7189L83.3515 97.7161Z" fill="white"/>
</g>
<g id="Group_7">
<path id="Vector_13" d="M77.8235 37.6987H50.3445C41.2477 37.6987 33.8733 45.0731 33.8733 54.1699V78.6536C33.8733 87.7504 41.2477 95.1248 50.3445 95.1248H77.8235C86.9203 95.1248 94.2947 87.7504 94.2947 78.6536V54.1699C94.2947 45.0731 86.9203 37.6987 77.8235 37.6987Z" fill="#0089CA" stroke="black" stroke-width="0.280456" stroke-linecap="round" stroke-linejoin="round"/>
<path id="Vector_14" d="M93.1054 32.7598L64.2128 40.7584L35.3203 32.7598C32.583 32.7598 30.3674 34.9782 30.3674 37.7126V69.2049C30.3674 71.9422 32.5858 74.1578 35.3203 74.1578H93.1082C95.8454 74.1578 98.061 71.9394 98.061 69.2049V37.7126C98.061 34.9754 95.8426 32.7598 93.1082 32.7598H93.1054Z" fill="#0089CA" stroke="black" stroke-width="0.280456" stroke-linecap="round" stroke-linejoin="round"/>
<g id="Group_8" style="mix-blend-mode:multiply">
<path id="Vector_15" d="M93.1059 72.9152H35.3208C32.5835 72.9152 30.3679 70.6968 30.3679 67.9624V69.2048C30.3679 71.9421 32.5863 74.1577 35.3208 74.1577H93.1087C95.8459 74.1577 98.0615 71.9393 98.0615 69.2048V67.9624C98.0615 70.6996 95.8431 72.9152 93.1087 72.9152H93.1059Z" fill="#0089CA"/>
</g>
<g id="Group_9">
<path id="Vector_16" d="M38.2316 71.2998C39.0786 73.1199 38.8346 74.3175 36.173 76.4994C33.5115 78.6786 29.5851 78.2887 27.406 75.6272C25.2269 72.9657 25.6167 69.0393 28.2782 66.8602C30.9397 64.681 36.8574 68.3522 38.2316 71.3026V71.2998Z" fill="#F7E4E8" stroke="black" stroke-width="0.280456" stroke-linecap="round" stroke-linejoin="round"/>
<g id="Vector_17" style="mix-blend-mode:multiply">
<path d="M28.6903 68.1027C31.3434 65.9292 37.2274 69.5695 38.6297 72.5143C38.5708 72.1301 38.4333 71.7346 38.2314 71.2999C36.8572 68.3495 30.9396 64.6784 28.278 66.8575C26.0456 68.6861 25.4174 71.7402 26.5588 74.2503C26.0765 72.0347 26.8197 69.6368 28.6931 68.0999L28.6903 68.1027Z" fill="#F7E4E8"/>
</g>
<g id="Vector_18" style="mix-blend-mode:multiply">
<path d="M32.8245 72.5451C32.8245 72.5451 28.4775 69.9257 29.891 75.0749C29.891 75.0749 27.0499 71.4065 30.8108 68.2766C30.8108 68.2766 29.7339 69.8472 31.3577 70.6465C34.0024 71.9506 32.8245 72.5451 32.8245 72.5451Z" fill="#F7E4E8"/>
</g>
<path id="Vector_19" d="M29.8375 74.9824C27.1395 71.0055 30.8079 68.3496 30.8079 68.3496" stroke="black" stroke-width="0.280456" stroke-linecap="round" stroke-linejoin="round"/>
<path id="Vector_20" d="M32.7543 72.3965C32.7543 72.3965 31.6269 70.1136 28.9766 71.0615" stroke="black" stroke-width="0.280456" stroke-linecap="round" stroke-linejoin="round"/>
</g>
<g id="Group_10">
<path id="Vector_21" d="M89.8611 71.3C89.0141 73.1202 89.2581 74.3177 91.9196 76.4997C94.5811 78.6788 98.5075 78.289 100.687 75.6275C102.866 72.9659 102.476 69.0396 99.8145 66.8604C97.1529 64.6813 91.2353 68.3524 89.8611 71.3028V71.3Z" fill="#F7E4E8" stroke="black" stroke-width="0.280456" stroke-linecap="round" stroke-linejoin="round"/>
<g id="Vector_22" style="mix-blend-mode:multiply">
<path d="M99.3993 68.103C96.7462 65.9294 90.8622 69.5697 89.46 72.5145C89.5217 72.1303 89.6563 71.7349 89.8582 71.3002C91.2324 68.3498 97.1501 64.6786 99.8116 66.8577C102.044 68.6863 102.672 71.7405 101.531 74.2505C102.013 72.0349 101.27 69.6371 99.3965 68.1002L99.3993 68.103Z" fill="#F7E4E8"/>
</g>
<g id="Vector_23" style="mix-blend-mode:multiply">
<path d="M95.2683 72.5454C95.2683 72.5454 99.6153 69.9259 98.2018 75.0751C98.2018 75.0751 101.043 71.4067 97.2819 68.2769C97.2819 68.2769 98.3589 69.8474 96.7351 70.6467C94.0904 71.9508 95.2683 72.5454 95.2683 72.5454Z" fill="#F7E4E8"/>
</g>
<path id="Vector_24" d="M98.2524 74.9826C100.95 71.0058 97.282 68.3499 97.282 68.3499" stroke="black" stroke-width="0.280456" stroke-linecap="round" stroke-linejoin="round"/>
<path id="Vector_25" d="M95.3357 72.3967C95.3357 72.3967 96.4631 70.1138 99.1134 71.0617" stroke="black" stroke-width="0.280456" stroke-linecap="round" stroke-linejoin="round"/>
</g>
<g id="Group_11">
<path id="Vector_26" d="M77.8235 37.6987H50.3445C41.2477 37.6987 33.8733 45.0731 33.8733 54.1699V78.6536C33.8733 87.7504 41.2477 95.1248 50.3445 95.1248H77.8235C86.9203 95.1248 94.2947 87.7504 94.2947 78.6536V54.1699C94.2947 45.0731 86.9203 37.6987 77.8235 37.6987Z" fill="#F1CDD5" stroke="black" stroke-width="0.280456" stroke-linecap="round" stroke-linejoin="round"/>
<path id="Vector_27" d="M76.741 39.5356H49.4274C40.8371 39.5356 33.8733 46.4994 33.8733 55.0897V76.9624C33.8733 85.5527 40.8371 92.5165 49.4274 92.5165H76.741C85.3312 92.5165 92.295 85.5527 92.295 76.9624V55.0897C92.295 46.4994 85.3312 39.5356 76.741 39.5356Z" fill="#F7E4E8"/>
<path id="Vector_28" d="M77.8235 37.6987H50.3445C41.2477 37.6987 33.8733 45.0731 33.8733 54.1699V78.6536C33.8733 87.7504 41.2477 95.1248 50.3445 95.1248H77.8235C86.9203 95.1248 94.2947 87.7504 94.2947 78.6536V54.1699C94.2947 45.0731 86.9203 37.6987 77.8235 37.6987Z" stroke="black" stroke-width="0.280456" stroke-linecap="round" stroke-linejoin="round"/>
</g>
<g id="Group_12">
<g id="Group_13">
<path id="Vector_29" d="M70.9213 54.0014L77.0044 54.2987C78.2889 54.3604 79.3827 53.3704 79.4444 52.0859C79.4977 51.0062 78.7993 50.0302 77.7588 49.7329L71.7431 48.0109C70.2987 47.5986 68.846 48.6363 68.773 50.1368L68.7029 51.5643C68.6412 52.8488 69.6312 53.9425 70.9157 54.0042L70.9213 54.0014Z" fill="#0089CA" stroke="black" stroke-width="0.280456" stroke-linecap="round" stroke-linejoin="round"/>
<path id="Vector_30" d="M70.9212 54.0014L77.0043 54.2987C78.2271 54.3576 79.2732 53.4629 79.4274 52.271C79.0292 52.8824 78.7179 53.2021 73.6865 53.2021C70.1303 53.2021 69.202 51.3847 68.7645 50.3611L68.7056 51.5614C68.6439 52.8459 69.6339 53.9397 70.9184 54.0014H70.9212Z" fill="#004CA1"/>
<path id="Vector_31" d="M70.9213 54.0014L77.0044 54.2987C78.2889 54.3604 79.3827 53.3704 79.4444 52.0859C79.4977 51.0062 78.7993 50.0302 77.7588 49.7329L71.7431 48.0109C70.2987 47.5986 68.846 48.6363 68.773 50.1368L68.7029 51.5643C68.6412 52.8488 69.6312 53.9425 70.9157 54.0042L70.9213 54.0014Z" stroke="black" stroke-width="0.280456" stroke-linecap="round" stroke-linejoin="round"/>
<path id="Vector_32" d="M71.5299 54.0295C70.9157 52.0692 71.3139 49.9321 72.5591 48.3279" stroke="black" stroke-width="0.280456" stroke-linecap="round" stroke-linejoin="round"/>
<path id="Vector_33" d="M73.8914 54.1445C73.4259 52.3664 73.7736 50.4705 74.8169 48.9785" stroke="black" stroke-width="0.280456" stroke-linecap="round" stroke-linejoin="round"/>
<path id="Vector_34" d="M76.3481 54.2988C76.0228 52.6918 76.3481 51.0174 77.2315 49.6516" stroke="black" stroke-width="0.280456" stroke-linecap="round" stroke-linejoin="round"/>
</g>
<g id="Group_14">
<path id="Vector_35" d="M57.2515 54.0014L51.1684 54.2987C49.8839 54.3604 48.7901 53.3704 48.7284 52.0859C48.6752 51.0062 49.3735 50.0302 50.414 49.7329L56.4298 48.0109C57.8741 47.5986 59.3269 48.6363 59.3998 50.1368L59.4699 51.5643C59.5316 52.8488 58.5416 53.9425 57.2571 54.0042L57.2515 54.0014Z" fill="#0089CA" stroke="black" stroke-width="0.280456" stroke-linecap="round" stroke-linejoin="round"/>
<path id="Vector_36" d="M57.2516 54.0014L51.1685 54.2987C49.9457 54.3576 48.8996 53.4629 48.7454 52.271C49.1436 52.8824 49.4549 53.2021 54.4863 53.2021C58.0425 53.2021 58.9708 51.3847 59.4083 50.3611L59.4672 51.5614C59.5289 52.8459 58.5389 53.9397 57.2544 54.0014H57.2516Z" fill="#004CA1"/>
<path id="Vector_37" d="M57.2515 54.0014L51.1684 54.2987C49.8839 54.3604 48.7901 53.3704 48.7284 52.0859C48.6752 51.0062 49.3735 50.0302 50.414 49.7329L56.4298 48.0109C57.8741 47.5986 59.3269 48.6363 59.3998 50.1368L59.4699 51.5643C59.5316 52.8488 58.5416 53.9425 57.2571 54.0042L57.2515 54.0014Z" stroke="black" stroke-width="0.280456" stroke-linecap="round" stroke-linejoin="round"/>
<path id="Vector_38" d="M56.6428 54.0295C57.257 52.0692 56.8587 49.9321 55.6135 48.3279" stroke="black" stroke-width="0.280456" stroke-linecap="round" stroke-linejoin="round"/>
<path id="Vector_39" d="M54.2841 54.1445C54.7497 52.3664 54.4019 50.4705 53.3586 48.9785" stroke="black" stroke-width="0.280456" stroke-linecap="round" stroke-linejoin="round"/>
<path id="Vector_40" d="M51.8246 54.2988C52.1499 52.6918 51.8246 51.0174 50.9412 49.6516" stroke="black" stroke-width="0.280456" stroke-linecap="round" stroke-linejoin="round"/>
</g>
<g id="Vector_41" style="mix-blend-mode:multiply">
<path d="M64.499 75.4031C64.499 73.9896 63.352 72.8425 61.9385 72.8425C61.0607 72.8425 60.3595 73.3361 59.8267 73.9531C58.0878 75.9724 56.7416 77.3551 52.3217 78.0927C49.8256 78.5077 46.6677 78.3731 42.789 77.0494C42.4104 76.9035 41.5353 76.6343 40.8118 76.6343C38.0857 76.6343 35.8757 78.8443 35.8757 81.5703C35.8757 83.5756 37.0621 85.3144 38.7869 86.0688C40.2144 86.6942 44.5418 88.3826 49.7835 87.53C54.0352 86.8401 59.1564 84.2458 62.9621 78.7153C63.3267 78.1852 64.5019 76.6764 64.5019 75.4003L64.499 75.4031Z" fill="#F7E4E8"/>
</g>
<g id="Vector_42" style="mix-blend-mode:multiply">
<path d="M63.6715 75.4031C63.6715 73.9896 64.8186 72.8425 66.2321 72.8425C67.1099 72.8425 67.811 73.3361 68.3439 73.9531C70.0827 75.9724 71.4289 77.3551 75.8489 78.0927C78.345 78.5077 81.5029 78.3731 85.3816 77.0494C85.7602 76.9035 86.6352 76.6343 87.3588 76.6343C90.0848 76.6343 92.2948 78.8443 92.2948 81.5703C92.2948 83.5756 91.1085 85.3144 89.3837 86.0688C87.9562 86.6942 83.6287 88.3826 78.387 87.53C74.1353 86.8401 69.0142 84.2458 65.2084 78.7153C64.8438 78.1852 63.6687 76.6764 63.6687 75.4003L63.6715 75.4031Z" fill="#F7E4E8"/>
</g>
<path id="Vector_43" d="M61.6913 80.6307C62.513 80.698 63.3067 80.813 64.0836 80.813C64.8745 80.813 65.6597 80.7457 66.4787 80.6728C66.1169 80.8719 65.7214 81.0037 65.3148 81.0879C64.9165 81.1804 64.4958 81.2197 64.0836 81.2253C63.6629 81.2197 63.245 81.1664 62.8468 81.0598C62.4485 80.9617 62.0587 80.8271 61.6885 80.6279L61.6913 80.6307Z" fill="#1D1D1B"/>
<g id="Vector_44">
<path d="M68.4504 74.1606C68.4504 76.5698 66.4957 78.5245 64.0865 78.5245C61.6774 78.5245 59.7227 76.5698 59.7227 74.1606" fill="#F1CDD5"/>
<path d="M68.4504 74.1606C68.4504 76.5698 66.4957 78.5245 64.0865 78.5245C61.6774 78.5245 59.7227 76.5698 59.7227 74.1606" stroke="black" stroke-width="0.280456" stroke-linecap="round" stroke-linejoin="round"/>
</g>
<g id="Group_15">
<path id="Vector_45" d="M64.0835 74.1604C64.0835 72.7469 62.9365 71.5999 61.523 71.5999C60.6451 71.5999 59.944 72.0935 59.4111 72.7105C57.6723 74.7297 56.3261 76.1124 51.9061 76.85C49.4101 77.265 46.2521 77.1304 42.3734 75.8067C41.9948 75.6608 41.1198 75.3916 40.3962 75.3916C37.6702 75.3916 35.4602 77.6016 35.4602 80.3276C35.4602 82.3329 36.6465 84.0717 38.3713 84.8261C39.7989 85.4515 44.1263 87.1399 49.368 86.2873C53.6197 85.5974 58.7408 83.0032 62.5466 77.4726C62.9112 76.9425 64.0863 75.4337 64.0863 74.1576L64.0835 74.1604Z" fill="#0089CA"/>
<path id="Vector_46" d="M38.3712 84.8262C39.7988 85.4516 44.1262 87.1399 49.3679 86.2873C53.6196 85.5974 58.7407 83.0032 62.5465 77.4726C62.8354 77.0519 63.6263 76.0227 63.946 74.9822C61.6911 77.2679 55.6782 82.5769 47.5898 83.6539C42.3341 84.3522 38.2394 82.605 35.4741 80.7119C35.6143 82.5517 36.7586 84.1194 38.3712 84.8262Z" fill="#004CA1"/>
<path id="Vector_47" d="M64.0835 74.1604C64.0835 72.7469 62.9365 71.5999 61.523 71.5999C60.6451 71.5999 59.944 72.0935 59.4111 72.7105C57.6723 74.7297 56.3261 76.1124 51.9061 76.85C49.4101 77.265 46.2521 77.1304 42.3734 75.8067C41.9948 75.6608 41.1198 75.3916 40.3962 75.3916C37.6702 75.3916 35.4602 77.6016 35.4602 80.3276C35.4602 82.3329 36.6465 84.0717 38.3713 84.8261C39.7989 85.4515 44.1263 87.1399 49.368 86.2873C53.6197 85.5974 58.7408 83.0032 62.5466 77.4726C62.9112 76.9425 64.0863 75.4337 64.0863 74.1576L64.0835 74.1604Z" stroke="black" stroke-width="0.280456" stroke-linecap="round" stroke-linejoin="round"/>
<path id="Vector_48" d="M37.7122 84.4363C37.356 82.5544 37.0896 78.7374 39.7203 75.4841" stroke="black" stroke-width="0.280456" stroke-linecap="round" stroke-linejoin="round"/>
<path id="Vector_49" d="M43.3634 76.2329C42.4098 77.7277 40.6177 81.3456 41.9134 85.9367" stroke="black" stroke-width="0.280456" stroke-linecap="round" stroke-linejoin="round"/>
<path id="Vector_50" d="M61.6015 78.5944C60.6424 77.8456 58.9709 76.2638 58.3398 73.9304" stroke="black" stroke-width="0.280456" stroke-linecap="round" stroke-linejoin="round"/>
<path id="Vector_51" d="M54.9827 76.1714C55.1481 77.4643 55.7651 80.137 58.034 82.2713" stroke="black" stroke-width="0.280456" stroke-linecap="round" stroke-linejoin="round"/>
<path id="Vector_52" d="M52.4698 85.4348C51.6677 84.2064 50.2963 81.3373 51.2527 77.0183" stroke="black" stroke-width="0.280456" stroke-linecap="round" stroke-linejoin="round"/>
<path id="Vector_53" d="M47.2058 77.052C46.5552 78.3954 45.0042 82.3891 47.1245 86.4865" stroke="black" stroke-width="0.280456" stroke-linecap="round" stroke-linejoin="round"/>
</g>
<g id="Group_16">
<path id="Vector_54" d="M64.0836 74.1607C64.0836 72.7472 65.2307 71.6001 66.6442 71.6001C67.522 71.6001 68.2231 72.0937 68.756 72.7107C70.4948 74.73 71.841 76.1126 76.261 76.8502C78.7571 77.2653 81.915 77.1307 85.7937 75.8069C86.1723 75.6611 87.0473 75.3919 87.7709 75.3919C90.4969 75.3919 92.7069 77.6018 92.7069 80.3279C92.7069 82.3331 91.5206 84.0719 89.7958 84.8264C88.3683 85.4518 84.0408 87.1401 78.7991 86.2876C74.5474 85.5976 69.4263 83.0034 65.6205 77.4728C65.2559 76.9428 64.0808 75.4339 64.0808 74.1579L64.0836 74.1607Z" fill="#0089CA"/>
<path id="Vector_55" d="M89.7986 84.8264C88.3711 85.4518 84.0437 87.1402 78.802 86.2876C74.5503 85.5977 69.4291 83.0034 65.6234 77.4729C65.3345 77.0522 64.5436 76.0229 64.2239 74.9824C66.4787 77.2681 72.4917 82.5772 80.5801 83.6541C85.8358 84.3524 89.9304 82.6052 92.6957 80.7121C92.5555 82.5519 91.4113 84.1197 89.7986 84.8264Z" fill="#004CA1"/>
<path id="Vector_56" d="M64.0836 74.1607C64.0836 72.7472 65.2307 71.6001 66.6442 71.6001C67.522 71.6001 68.2231 72.0937 68.756 72.7107C70.4948 74.73 71.841 76.1126 76.261 76.8502C78.7571 77.2653 81.915 77.1307 85.7937 75.8069C86.1723 75.6611 87.0473 75.3919 87.7709 75.3919C90.4969 75.3919 92.7069 77.6018 92.7069 80.3279C92.7069 82.3331 91.5206 84.0719 89.7958 84.8264C88.3683 85.4518 84.0408 87.1401 78.7991 86.2876C74.5474 85.5976 69.4263 83.0034 65.6205 77.4728C65.2559 76.9428 64.0808 75.4339 64.0808 74.1579L64.0836 74.1607Z" stroke="black" stroke-width="0.280456" stroke-linecap="round" stroke-linejoin="round"/>
<path id="Vector_57" d="M90.4575 84.4365C90.8137 82.5547 91.0801 78.7377 88.4495 75.4844" stroke="black" stroke-width="0.280456" stroke-linecap="round" stroke-linejoin="round"/>
<path id="Vector_58" d="M84.8066 76.2332C85.7602 77.728 87.5523 81.3459 86.2566 85.9369" stroke="black" stroke-width="0.280456" stroke-linecap="round" stroke-linejoin="round"/>
<path id="Vector_59" d="M66.5684 78.5946C67.5275 77.8458 69.199 76.2641 69.8301 73.9307" stroke="black" stroke-width="0.280456" stroke-linecap="round" stroke-linejoin="round"/>
<path id="Vector_60" d="M73.1844 76.1716C73.0189 77.4645 72.4019 80.1373 70.1331 82.2715" stroke="black" stroke-width="0.280456" stroke-linecap="round" stroke-linejoin="round"/>
<path id="Vector_61" d="M75.7 85.435C76.5021 84.2066 77.8735 81.3376 76.9171 77.0186" stroke="black" stroke-width="0.280456" stroke-linecap="round" stroke-linejoin="round"/>
<path id="Vector_62" d="M80.9644 77.0522C81.615 78.3956 83.1659 82.3893 81.0457 86.4868" stroke="black" stroke-width="0.280456" stroke-linecap="round" stroke-linejoin="round"/>
</g>
<g id="Group_17">
<path id="Vector_63" d="M61.6215 70.3914H66.5491C67.2194 70.3914 67.7607 69.8473 67.7607 69.1798C67.7607 68.5095 67.2166 67.9683 66.5491 67.9683H61.6215C60.9512 67.9683 60.4099 68.5123 60.4099 69.1798C60.4099 69.8501 60.954 70.3914 61.6215 70.3914Z" fill="#F3AECA" stroke="black" stroke-width="0.280456" stroke-linecap="round" stroke-linejoin="round"/>
<path id="Vector_64" d="M66.5659 69.5106C66.5659 70.8765 65.4609 71.9815 64.0951 71.9815C62.7293 71.9815 61.6243 70.8765 61.6243 69.5106C61.6243 66.5883 62.7293 59.8013 64.0951 59.8013C65.4609 59.8013 66.5659 66.6472 66.5659 69.5106Z" fill="#F3AECA" stroke="black" stroke-width="0.280456" stroke-linecap="round" stroke-linejoin="round"/>
<path id="Vector_65" d="M62.729 70.3913C63.2198 70.3857 63.6685 70.4417 64.1004 70.4417C64.5407 70.4445 64.9867 70.3997 65.4775 70.4193C65.2755 70.5708 65.054 70.6717 64.8184 70.7474C64.5884 70.8176 64.3444 70.8512 64.0976 70.8568C63.8508 70.854 63.6068 70.8119 63.3769 70.7334C63.1469 70.6549 62.9253 70.5511 62.729 70.3913Z" fill="#1D1D1B"/>
</g>
<g id="Group_18">
<path id="Vector_66" d="M57.8074 60.0371C57.8074 60.8953 57.1175 61.5908 56.2677 61.5908C55.418 61.5908 54.728 60.8953 54.728 60.0371C54.728 59.1789 55.418 58.4834 56.2677 58.4834C57.1175 58.4834 57.8074 59.1789 57.8074 60.0371Z" fill="#111111"/>
<path id="Vector_67" d="M58.2702 62.2107C57.7906 62.8053 57.095 63.2568 56.307 63.3887C55.9199 63.4504 55.5049 63.4868 55.1234 63.3634C54.9271 63.3213 54.7504 63.226 54.5737 63.1475C54.3999 63.0549 54.24 62.9371 54.0886 62.8193C54.083 62.8137 54.0801 62.8053 54.0886 62.7969C54.0914 62.7913 54.0998 62.7913 54.1054 62.7913C54.2989 62.8334 54.4756 62.8979 54.6551 62.9455C54.8402 62.9764 55.0113 63.0465 55.1936 63.0605C55.2833 63.0774 55.373 63.097 55.46 63.1082L55.7292 63.1362C55.819 63.1531 55.9087 63.1503 56.0013 63.1531C56.091 63.1531 56.1836 63.1587 56.2733 63.1419C56.6379 63.111 56.9969 63.0044 57.3306 62.8362C57.6672 62.6763 57.9813 62.4575 58.2477 62.1883C58.2477 62.1883 58.2645 62.1799 58.2702 62.1883C58.2758 62.1939 58.2758 62.2023 58.2702 62.2079V62.2107Z" fill="#111111"/>
<path id="Vector_68" d="M58.2702 62.9623C58.1384 63.4306 57.872 63.8822 57.4569 64.1794C57.255 64.3309 57.0138 64.4543 56.7558 64.4767C56.5006 64.5132 56.2425 64.4655 56.0126 64.3758C56.007 64.3758 56.0042 64.3674 56.007 64.3617C56.007 64.3589 56.0126 64.3561 56.0154 64.3561C56.1416 64.3365 56.2594 64.3449 56.3772 64.3281C56.495 64.3085 56.6099 64.3056 56.7221 64.272C56.9465 64.2271 57.1652 64.1626 57.3644 64.042C57.5635 63.9214 57.7402 63.7616 57.886 63.5737C58.0347 63.3886 58.1609 63.1782 58.2506 62.9567C58.2506 62.951 58.259 62.9482 58.2646 62.9511C58.2702 62.9511 58.273 62.9595 58.2702 62.9651V62.9623Z" fill="#111111"/>
<g id="Group_19">
<path id="Vector_69" d="M49.8008 60.3123H50.774" stroke="black" stroke-width="0.140228" stroke-linecap="round" stroke-linejoin="round"/>
<path id="Vector_70" d="M49.8008 59.4792H50.774" stroke="black" stroke-width="0.140228" stroke-linecap="round" stroke-linejoin="round"/>
<path id="Vector_71" d="M49.5427 59.8831H50.7739" stroke="black" stroke-width="0.140228" stroke-linecap="round" stroke-linejoin="round"/>
</g>
</g>
<g id="Group_20">
<path id="Vector_72" d="M70.3633 60.0369C70.3633 60.8951 71.0532 61.5906 71.903 61.5906C72.7528 61.5906 73.4427 60.8951 73.4427 60.0369C73.4427 59.1787 72.7528 58.4832 71.903 58.4832C71.0532 58.4832 70.3633 59.1787 70.3633 60.0369Z" fill="#111111"/>
<path id="Vector_73" d="M69.923 62.1907C70.1894 62.4572 70.5035 62.6759 70.8401 62.8386C71.1738 63.0041 71.5328 63.1134 71.8974 63.1443C71.9872 63.1583 72.0797 63.1555 72.1695 63.1555C72.2592 63.1555 72.3517 63.1555 72.4415 63.1387L72.7107 63.1106C72.8005 63.0966 72.8902 63.077 72.9772 63.0629C73.1595 63.0489 73.3305 62.9788 73.5156 62.948C73.6951 62.9003 73.8718 62.833 74.0653 62.7937C74.0653 62.7937 74.0822 62.7965 74.085 62.8049C74.085 62.8105 74.085 62.8161 74.0794 62.8218C73.9279 62.9395 73.7681 63.0573 73.5942 63.1499C73.4175 63.2312 73.238 63.3266 73.0445 63.3658C72.6631 63.4892 72.248 63.4528 71.861 63.3911C71.0757 63.2593 70.3801 62.8077 69.8978 62.2132C69.8922 62.2076 69.8922 62.1963 69.8978 62.1907C69.9034 62.1851 69.9118 62.1851 69.9174 62.1907H69.923Z" fill="#111111"/>
<path id="Vector_74" d="M69.9203 62.9564C70.01 63.1808 70.1362 63.3883 70.2849 63.5734C70.4307 63.7613 70.6074 63.9212 70.8065 64.0418C71.0056 64.1624 71.2272 64.2269 71.4487 64.2717C71.5609 64.3054 71.6759 64.3082 71.7937 64.3278C71.9115 64.3419 72.0293 64.3363 72.1555 64.3559C72.1555 64.3559 72.1639 64.3615 72.1639 64.3671C72.1639 64.3699 72.1611 64.3727 72.1583 64.3755C71.9283 64.4625 71.6703 64.5101 71.4151 64.4765C71.1571 64.454 70.9159 64.3306 70.714 64.1792C70.2989 63.8791 70.0324 63.4304 69.9006 62.962C69.9006 62.9564 69.9006 62.9508 69.909 62.948C69.9147 62.948 69.9203 62.948 69.9231 62.9536L69.9203 62.9564Z" fill="#111111"/>
<g id="Group_21">
<path id="Vector_75" d="M78.3676 60.3118H77.3972" stroke="black" stroke-width="0.140228" stroke-linecap="round" stroke-linejoin="round"/>
<path id="Vector_76" d="M78.3676 59.4788H77.3972" stroke="black" stroke-width="0.140228" stroke-linecap="round" stroke-linejoin="round"/>
<path id="Vector_77" d="M78.6284 59.8826H77.3972" stroke="black" stroke-width="0.140228" stroke-linecap="round" stroke-linejoin="round"/>
</g>
</g>
</g>
</g>
</g>
<g id="Group_22">
<path id="Vector_78" d="M61.4587 61.0946C60.4939 62.6259 58.8673 65.0098 56.9378 67.001C56.2282 67.7358 55.4794 68.4145 54.7053 68.9783C54.0014 69.4943 53.2806 69.915 52.5514 70.1926C52.4673 70.2263 52.3832 70.2543 52.299 70.2824C49.8787 71.1209 47.5537 70.6526 45.9691 69.3428C44.3088 67.9798 43.4535 65.6969 44.1378 63.0326C45.0549 59.4568 44.7351 57.1514 49.601 56.0324C51.2137 55.6594 53.3984 55.4182 56.3881 55.306C56.9434 55.2836 57.5267 55.2668 58.1381 55.2528C58.2419 55.25 58.3457 55.2528 58.4494 55.2612C59.0103 55.2948 59.5432 55.4491 60.02 55.7043C60.8613 56.153 61.5288 56.9131 61.8429 57.8638C62.2047 58.9436 62.0645 60.1299 61.4587 61.0946Z" fill="#333333" stroke="black" stroke-width="0.280456" stroke-linecap="round" stroke-linejoin="round"/>
<path id="Vector_79" d="M78.4935 70.6974C77.9578 70.717 77.4053 70.6666 76.8416 70.546C76.4433 70.4646 76.0451 70.3468 75.6412 70.1926C75.4169 70.1085 75.1953 70.0075 74.9709 69.8981C73.0526 68.939 71.1988 67.0823 69.6647 65.2005C68.4419 63.7001 67.4211 62.1828 66.7368 61.0946C66.1282 60.1299 65.9907 58.9435 66.3497 57.8638C66.8798 56.2764 68.383 55.2191 70.0545 55.2527C70.8735 55.2696 71.6391 55.2948 72.3571 55.3257C75.156 55.4547 77.2146 55.6987 78.7431 56.0689C79.4863 56.2455 80.1061 56.4531 80.6221 56.6915C81.2251 56.9663 81.6907 57.2804 82.0609 57.6366C83.3846 58.9099 83.4575 60.6992 84.0549 63.0326C85.1543 67.3039 82.2908 70.5993 78.4935 70.6974Z" fill="#333333" stroke="black" stroke-width="0.280456" stroke-linecap="round" stroke-linejoin="round"/>
<path id="Vector_80" d="M61.4561 61.0949C62.7994 59.286 63.5062 58.9045 64.0951 58.9045C64.6841 58.9045 65.3908 59.286 66.7342 61.0949" stroke="black" stroke-width="0.280456" stroke-linecap="round" stroke-linejoin="round"/>
<path id="Vector_81" d="M70.0548 55.2529C65.1075 54.5125 58.2756 55.2529 58.2756 55.2529" stroke="black" stroke-width="0.280456" stroke-linecap="round" stroke-linejoin="round"/>
</g>
<path id="Vector_82" opacity="0.25" d="M98.0613 44.7465C89.9813 50.5716 80.5973 54.3633 70.4953 55.4823C68.4311 55.7095 66.3361 55.8301 64.2159 55.8301C63.7615 55.8301 63.3072 55.8245 62.8557 55.8105C61.6329 55.7824 60.4185 55.7151 59.2126 55.6086C53.581 55.1121 48.1626 53.7884 43.0555 51.7411C38.5598 49.9434 34.3081 47.5875 30.3677 44.7465C35.9459 38.6045 42.1496 33.9322 48.7824 31.0743C52.6863 29.3832 56.7417 28.3202 60.9037 27.9556C61.9863 27.8547 63.0744 27.8042 64.171 27.8042H64.2159C65.2199 27.8042 66.2183 27.8463 67.2083 27.9276C78.5612 28.8363 89.1119 34.8913 98.0613 44.7465Z" fill="black"/>
<g id="Group_23">
<path id="Vector_83" d="M98.0608 41.3784H30.3672V44.7467H98.0608V41.3784Z" fill="#140F4B" stroke="black" stroke-width="0.280456" stroke-linecap="round" stroke-linejoin="round"/>
<path id="Vector_84" d="M105.538 34.1343C105.538 41.7458 86.9154 47.9159 63.9461 47.9159C40.9767 47.9159 22.3545 41.7458 22.3545 34.1343C22.3545 26.5227 41.03 12.7832 63.9994 12.7832C86.9687 12.7832 105.538 26.5199 105.538 34.1315V34.1343Z" fill="#1B1464" stroke="black" stroke-width="0.280456" stroke-linecap="round" stroke-linejoin="round"/>
<path id="Vector_85" d="M98.0608 44.7468C89.9809 48.3282 80.5968 50.6616 70.4948 51.3487C68.4306 51.4889 66.3356 51.5619 64.2154 51.5619C63.7611 51.5619 63.3067 51.5591 62.8552 51.5506C61.6324 51.5338 60.418 51.4918 59.2121 51.4272C53.5805 51.1216 48.1621 50.3082 43.055 49.049C38.5593 47.944 34.3076 46.494 30.3672 44.7468C35.9455 40.9691 42.1491 38.0972 48.7819 36.3387C52.6859 35.2983 56.7412 34.6448 60.9032 34.4204C61.9858 34.3587 63.0739 34.3279 64.1705 34.3279H64.2154C65.2194 34.3279 66.2178 34.3531 67.2079 34.4036C78.5607 34.9617 89.1114 38.6862 98.0608 44.7468Z" fill="#1B1464" stroke="black" stroke-width="0.280456" stroke-linecap="round" stroke-linejoin="round"/>
<path id="Vector_86" d="M98.0608 44.7354V44.7466C97.2643 44.2082 96.4538 43.6865 95.632 43.1845C95.0571 42.8339 94.4794 42.4918 93.8932 42.1636C85.0785 37.1659 74.9681 34.3277 64.2154 34.3277C53.4627 34.3277 43.3495 37.1659 34.5348 42.1636C33.9486 42.4918 33.3681 42.8339 32.7959 43.1845C31.9742 43.6865 31.1637 44.2082 30.3672 44.7466C30.6168 43.7314 31.0178 42.733 31.5563 41.7598C31.6657 41.5579 31.7835 41.3587 31.9041 41.1596C37.7824 31.5232 56.3234 27.249 64.2154 27.249C72.1074 27.249 90.654 31.526 96.5295 41.1624C96.6501 41.3615 96.7651 41.5607 96.8745 41.7598C97.4101 42.7302 97.8112 43.723 98.0608 44.7354Z" fill="#140F4B" stroke="black" stroke-width="0.280456" stroke-linecap="round" stroke-linejoin="round"/>
<path id="Vector_87" d="M98.0636 44.7467H98.0608C97.2643 44.2082 96.4538 43.6866 95.632 43.1846C95.0571 42.834 94.4794 42.4918 93.8932 42.1637C85.0785 37.166 74.9681 34.3278 64.2154 34.3278C53.4627 34.3278 43.3495 37.166 34.5348 42.1637C33.9486 42.4918 33.3681 42.834 32.7959 43.1846C31.9742 43.6866 31.1637 44.2082 30.3672 44.7467C30.6168 43.7314 30.5887 43.5744 31.1272 42.6012C39.3894 37.1211 49.8757 31.2119 64.2154 31.2119C78.5551 31.2119 88.9488 36.9304 97.211 42.4105C97.7467 43.3809 97.8112 43.7258 98.0608 44.7383C98.0608 44.7411 98.0636 44.7467 98.0636 44.7495V44.7467Z" fill="#FFCA00" stroke="black" stroke-width="0.280456" stroke-linecap="round" stroke-linejoin="round"/>
<path id="Vector_88" d="M98.0636 44.7466H98.0608V44.7354C98.0608 44.7354 98.0636 44.7438 98.0636 44.7466Z" fill="#00B2FF"/>
<g id="Group_24">
<g id="Vector_89" style="mix-blend-mode:overlay" opacity="0.25">
<path d="M60.9026 34.4202L59.2115 51.427C53.5799 51.1213 48.1615 50.308 43.0544 49.0487L48.7813 36.3385C52.6853 35.298 56.7407 34.6445 60.9026 34.4202Z" fill="white"/>
</g>
<g id="Vector_90" style="mix-blend-mode:overlay" opacity="0.25">
<path d="M70.4941 51.3485C68.43 51.4887 66.3349 51.5616 64.2147 51.5616C63.7604 51.5616 63.306 51.5588 62.8545 51.5504L64.1698 34.3276H64.2147C65.2187 34.3276 66.2172 34.3529 67.2072 34.4034L70.4941 51.3485Z" fill="white"/>
</g>
</g>
</g>
<g id="Group_25">
<g id="Group_26">
<path id="Vector_91" d="M63.8545 19.209L74.4615 20.4775L74.4092 20.9147C74.2004 22.6608 72.6134 23.9087 70.8674 23.6998L66.5901 23.1883C64.8441 22.9795 63.5962 21.3925 63.805 19.6465L63.8573 19.2093L63.8545 19.209Z" fill="#FFCA00" stroke="black" stroke-width="0.280456" stroke-linecap="round" stroke-linejoin="round"/>
<path id="Vector_92" d="M69.7326 21.3709H64.3843C64.0983 21.3709 63.8655 21.1381 63.8655 20.8521V19.5592L73.3589 17.7446C73.3589 19.7471 71.7351 21.3709 69.7326 21.3709Z" fill="#FFCA00" stroke="black" stroke-width="0.280456" stroke-linecap="round" stroke-linejoin="round"/>
<path id="Vector_93" d="M61.3072 23.1878L57.0299 23.6993C55.2838 23.9081 53.6969 22.6602 53.4881 20.9142L53.4358 20.477L64.0428 19.2085L64.0951 19.6457C64.3039 21.3917 63.056 22.9786 61.31 23.1874L61.3072 23.1878Z" fill="#FFCA00" stroke="black" stroke-width="0.280456" stroke-linecap="round" stroke-linejoin="round"/>
<path id="Vector_94" d="M58.1639 21.3709H63.5122C63.7982 21.3709 64.031 21.1381 64.031 20.8521V19.5592L54.5376 17.7446C54.5376 19.7471 56.1614 21.3709 58.1639 21.3709Z" fill="#FFCA00" stroke="black" stroke-width="0.280456" stroke-linecap="round" stroke-linejoin="round"/>
</g>
<path id="Vector_95" d="M63.9466 22.8125C65.5017 22.8125 66.7624 21.5518 66.7624 19.9967C66.7624 18.4416 65.5017 17.1809 63.9466 17.1809C62.3915 17.1809 61.1309 18.4416 61.1309 19.9967C61.1309 21.5518 62.3915 22.8125 63.9466 22.8125Z" fill="#FFCA00" stroke="black" stroke-width="0.280456" stroke-linecap="round" stroke-linejoin="round"/>
<path id="Vector_96" d="M63.9467 21.7384C64.9086 21.7384 65.6883 20.9586 65.6883 19.9968C65.6883 19.0349 64.9086 18.2551 63.9467 18.2551C62.9848 18.2551 62.2051 19.0349 62.2051 19.9968C62.2051 20.9586 62.9848 21.7384 63.9467 21.7384Z" fill="#FFCA00" stroke="black" stroke-width="0.280456" stroke-linecap="round" stroke-linejoin="round"/>
</g>
<g id="Group_27">
<path id="Vector_97" d="M70.1534 95.9829L63.501 98.7482C63.501 98.7482 64.3311 144.575 64.3311 156.699" stroke="black" stroke-width="0.280456" stroke-linecap="round" stroke-linejoin="round"/>
<path id="Vector_98" fill-rule="evenodd" clip-rule="evenodd" d="M64.2975 98.4173L57.6311 95.9829L56.7224 99.2951L60.7638 98.3556H62.4942L64.2975 98.4173Z" fill="#E6E6E6" stroke="black" stroke-width="0.280456" stroke-linecap="round" stroke-linejoin="round"/>
<path id="Vector_99" fill-rule="evenodd" clip-rule="evenodd" d="M63.501 98.7482L70.1534 95.9829L70.7592 99.2951L66.3897 98.406L64.9818 98.364L63.501 98.7482Z" fill="#E6E6E6" stroke="black" stroke-width="0.280456" stroke-linecap="round" stroke-linejoin="round"/>
<g id="Group_28">
<path id="Vector_100" d="M64.5358 100.167C64.7759 100.167 64.9705 99.9726 64.9705 99.7326C64.9705 99.4925 64.7759 99.2979 64.5358 99.2979C64.2957 99.2979 64.1011 99.4925 64.1011 99.7326C64.1011 99.9726 64.2957 100.167 64.5358 100.167Z" fill="#F9E6EA" stroke="black" stroke-width="0.280456" stroke-linecap="round" stroke-linejoin="round"/>
<path id="Vector_101" d="M64.6901 111.329C64.9302 111.329 65.1248 111.135 65.1248 110.895C65.1248 110.655 64.9302 110.46 64.6901 110.46C64.45 110.46 64.2554 110.655 64.2554 110.895C64.2554 111.135 64.45 111.329 64.6901 111.329Z" fill="#F9E6EA" stroke="black" stroke-width="0.280456" stroke-linecap="round" stroke-linejoin="round"/>
<path id="Vector_102" d="M64.8473 122.491C65.0874 122.491 65.282 122.297 65.282 122.057C65.282 121.817 65.0874 121.622 64.8473 121.622C64.6072 121.622 64.4126 121.817 64.4126 122.057C64.4126 122.297 64.6072 122.491 64.8473 122.491Z" fill="#F9E6EA" stroke="black" stroke-width="0.280456" stroke-linecap="round" stroke-linejoin="round"/>
</g>
</g>
<g id="Group_29">
<path id="Vector_103" d="M85.4271 99.2559L74.5398 98.5716C74.2846 98.5548 74.0491 98.4342 73.892 98.2351L72.1924 96.1064C72.0578 95.9381 72.1924 95.6941 72.4028 95.7138L83.3293 96.6701C83.506 96.6869 83.6715 96.7655 83.7921 96.8945L85.6291 98.824C85.7917 98.9951 85.6599 99.2755 85.4243 99.2615L85.4271 99.2559Z" fill="#1B1464" stroke="black" stroke-width="0.280456" stroke-linecap="round" stroke-linejoin="round"/>
<path id="Vector_104" d="M79.3272 98.8717L81.3942 99.0007L78.9682 96.2831L76.9321 96.1064L79.3272 98.8717Z" fill="#FFCA00" stroke="black" stroke-width="0.280456" stroke-linecap="round" stroke-linejoin="round"/>
<path id="Vector_105" d="M82.8552 99.0931L84.7876 99.2137L82.3168 96.5774L80.4097 96.4092L82.8552 99.0931Z" fill="#FFCA00" stroke="black" stroke-width="0.280456" stroke-linecap="round" stroke-linejoin="round"/>
</g>
<g id="Group_30">
<path id="Vector_106" d="M43.3079 99.2559L54.1952 98.5716C54.4504 98.5548 54.686 98.4342 54.8431 98.2351L56.5426 96.1064C56.6773 95.9381 56.5426 95.6941 56.3323 95.7138L45.4057 96.6701C45.2291 96.6869 45.0636 96.7655 44.943 96.8945L43.106 98.824C42.9433 98.9951 43.0752 99.2755 43.3107 99.2615L43.3079 99.2559Z" fill="#1B1464" stroke="black" stroke-width="0.280456" stroke-linecap="round" stroke-linejoin="round"/>
<path id="Vector_107" d="M49.408 98.8717L47.3411 99.0007L49.767 96.2831L51.8031 96.1064L49.408 98.8717Z" fill="#FFCA00" stroke="black" stroke-width="0.280456" stroke-linecap="round" stroke-linejoin="round"/>
<path id="Vector_108" d="M45.8796 99.0931L43.9473 99.2137L46.4181 96.5774L48.3252 96.4092L45.8796 99.0931Z" fill="#FFCA00" stroke="black" stroke-width="0.280456" stroke-linecap="round" stroke-linejoin="round"/>
</g>
<g id="Group_31">
<g id="Group_32">
<path id="Vector_109" d="M57.9559 112.673H48.8411V123.485H57.9559V112.673Z" fill="white" stroke="black" stroke-width="0.280456" stroke-linecap="round" stroke-linejoin="round"/>
<path id="Vector_110" d="M54.1247 113.714H52.1924V123.488H54.1247V113.714Z" fill="#C9C9C9" stroke="black" stroke-width="0.280456" stroke-linecap="round" stroke-linejoin="round"/>
<path id="Vector_111" d="M58.1213 114.967L53.3984 116.025L48.325 114.967V111.852H58.1213V114.967Z" fill="white" stroke="black" stroke-width="0.280456" stroke-linecap="round" stroke-linejoin="round"/>
</g>
<g id="Group_33">
<path id="Vector_112" d="M70.0434 123.488H79.1582V112.676H70.0434V123.488Z" fill="white" stroke="black" stroke-width="0.280456" stroke-linecap="round" stroke-linejoin="round"/>
<path id="Vector_113" d="M73.8772 123.488H75.8096V113.714H73.8772V123.488Z" fill="#C9C9C9" stroke="black" stroke-width="0.280456" stroke-linecap="round" stroke-linejoin="round"/>
<path id="Vector_114" d="M69.8779 114.967L74.6008 116.025L79.6742 114.967V111.852H69.8779V114.967Z" fill="white" stroke="black" stroke-width="0.280456" stroke-linecap="round" stroke-linejoin="round"/>
</g>
</g>
<path id="Vector_115" opacity="0.25" d="M63.15 98.3779L62.9285 98.65L63.9998 154.374L64.3307 155.546L63.5006 98.7481L64.3307 98.3779H63.15Z" fill="black"/>
<path id="Vector_116" opacity="0.25" d="M87.0001 99.0932C84.5265 100.58 81.6294 101.432 78.5332 101.432H50.3502C47.0744 101.432 44.0259 100.479 41.4597 98.8296C42.2534 98.2406 42.89 97.8311 44.2194 97.6488C44.469 97.3852 44.9794 96.729 45.2992 96.6841C48.5384 96.2466 53.0425 95.9829 56.3323 95.7081C56.6436 95.6829 56.6436 95.8652 56.5959 96.1709C56.753 96.2578 57.2886 96.0334 57.8804 95.9801C58.1749 95.9549 57.5775 95.1556 57.8496 95.1248C59.8829 94.8892 70.2737 95.0603 70.2737 95.0603C70.2737 95.0603 70.2092 95.7081 70.1531 95.9801C71.0871 96.0811 71.2722 96.0979 72.2538 96.2101C71.9845 95.9437 72.1808 95.6829 72.4024 95.7081C76.0567 96.1232 80.6001 96.4064 83.4159 96.6785C84.0609 96.7402 84.5181 97.7246 84.6106 97.7442C85.7549 97.9573 86.2653 98.4061 87.0029 99.0932H87.0001Z" fill="black"/>
<g id="Vector_117" style="mix-blend-mode:overlay" opacity="0.4">
<path d="M56.3884 55.3057L52.2994 70.282C49.879 71.1205 47.5541 70.6522 45.9695 69.3425L49.6014 56.032C51.214 55.659 53.3988 55.4178 56.3884 55.3057Z" fill="white"/>
</g>
<g id="Vector_118" style="mix-blend-mode:overlay" opacity="0.4">
<path d="M60.02 55.7039L56.9378 67.0006C56.2282 67.7354 55.4794 68.4141 54.7053 68.9778L58.4494 55.2607C59.0103 55.2944 59.5432 55.4486 60.02 55.7039Z" fill="white"/>
</g>
<g id="Vector_119" style="mix-blend-mode:overlay" opacity="0.4">
<path d="M78.7431 56.0684L74.971 69.8977C73.0527 68.9385 71.1989 67.0819 69.6648 65.2L72.3572 55.3252C75.1561 55.4542 77.2147 55.6982 78.7431 56.0684Z" fill="white"/>
</g>
<g id="Vector_120" style="mix-blend-mode:overlay" opacity="0.4">
<path d="M82.0613 57.6363L78.4939 70.6971C77.9583 70.7167 77.4058 70.6663 76.842 70.5457L80.6226 56.6912C81.2256 56.966 81.6911 57.2801 82.0613 57.6363Z" fill="white"/>
</g>
</g>
</g>
</svg>
