<svg width="128" height="128" viewBox="0 0 128 128" fill="none" xmlns="http://www.w3.org/2000/svg">
<g id="Group">
<g id="Layer 1">
<path id="Vector" d="M130.476 -2.47656H-2.47656V130.476H130.476V-2.47656Z" fill="#00B2FF"/>
<g id="Group_2">
<g id="Group_3">
<path id="Vector_2" d="M83.4277 97.6152H44.8034C41.78 97.6152 39.3289 100.066 39.3289 103.09V103.55C39.3289 105.087 39.9627 106.475 40.9807 107.468C43.3646 109.79 45.0978 112.698 45.7681 115.96L48.5474 147.348H79.8463L82.7322 116.526C83.2763 113.108 84.7963 109.877 87.2644 107.454C88.274 106.461 88.9022 105.078 88.9022 103.55V103.09C88.9022 100.066 86.451 97.6152 83.4277 97.6152Z" fill="#F6E3E7" stroke="black" stroke-width="0.280456" stroke-linecap="round" stroke-linejoin="round"/>
<path id="Vector_3" fill-rule="evenodd" clip-rule="evenodd" d="M53.6966 114.967C54.008 114.967 54.2632 115.203 54.2632 115.494C54.2632 115.786 54.0108 116.022 53.6966 116.022C53.3825 116.022 53.1301 115.786 53.1301 115.494C53.1301 115.203 53.3825 114.967 53.6966 114.967Z" fill="#F0BACD" stroke="#F0BACD" stroke-width="0.280456" stroke-linecap="round" stroke-linejoin="round"/>
<path id="Vector_4" fill-rule="evenodd" clip-rule="evenodd" d="M74.944 114.967C75.2553 114.967 75.5105 115.203 75.5105 115.494C75.5105 115.786 75.2581 116.022 74.944 116.022C74.6298 116.022 74.3774 115.786 74.3774 115.494C74.3774 115.203 74.6298 114.967 74.944 114.967Z" fill="#F0BACD" stroke="#F0BACD" stroke-width="0.280456" stroke-linecap="round" stroke-linejoin="round"/>
</g>
<path id="Vector_5" d="M89.0898 104.873C89.0898 101.098 87.4295 98.1845 83.9042 97.6685C77.6612 96.7514 63.7058 95.3491 63.7058 95.3491C63.7058 95.3491 51.2984 96.7514 44.6151 97.6601C40.4251 98.2294 39.1519 100.989 39.1519 104.873C39.1519 105.636 39.2696 106.371 39.4912 107.064L39.508 107.111C39.5445 107.224 39.5838 107.336 39.6258 107.448L43.3475 118.792C46.7578 128.46 43.7345 144.283 43.7345 154.534V154.623L49.4979 156.2C58.7108 158.864 68.4819 158.934 77.7342 156.407L84.5829 154.626V154.413C84.5829 144.241 81.5315 128.496 84.8914 118.896L88.6242 107.426C88.6607 107.327 88.6972 107.226 88.728 107.125L88.7476 107.067C88.9664 106.377 89.087 105.639 89.087 104.876L89.0898 104.873Z" fill="white" stroke="black" stroke-width="0.280456" stroke-linecap="round" stroke-linejoin="round"/>
<g id="Group_4">
<path id="Vector_6" d="M39.4405 101.996C39.4209 102.072 39.4124 102.147 39.3984 102.22L39.3704 102.215L34.3109 129.071C33.75 131.379 35.1691 133.707 37.4773 134.268C39.7854 134.829 42.1132 133.41 42.6741 131.102L50.3642 105.249C50.4287 105.067 50.4848 104.879 50.5325 104.688C51.2757 101.626 49.3967 98.5408 46.3341 97.7976C43.2715 97.0544 40.1865 98.9334 39.4433 101.996H39.4405Z" stroke="black" stroke-width="0.280456" stroke-linecap="round" stroke-linejoin="round"/>
<path id="Vector_7" d="M34.1958 129.859C34.1873 130.013 34.1873 130.168 34.1958 130.316L34.2294 157.422C34.1481 158.97 35.3344 160.289 36.8797 160.373C38.4278 160.454 39.746 159.268 39.8301 157.722L42.7384 130.773C42.7637 130.625 42.7805 130.473 42.7889 130.319C42.9151 127.946 41.095 125.919 38.7195 125.793C36.3469 125.666 34.3192 127.487 34.193 129.862L34.1958 129.859Z" fill="#F6E3E7" stroke="black" stroke-width="0.280456" stroke-linecap="round" stroke-linejoin="round"/>
<path id="Vector_8" d="M39.4405 101.996C39.4209 102.072 39.4124 102.147 39.3984 102.22L39.3704 102.215L34.3109 129.071C33.75 131.379 35.1691 133.707 37.4773 134.268C39.7854 134.829 42.1132 133.41 42.6741 131.102L50.3642 105.249C50.4287 105.067 50.4848 104.879 50.5325 104.688C51.2757 101.626 49.3967 98.5408 46.3341 97.7976C43.2715 97.0544 40.1865 98.9334 39.4433 101.996H39.4405Z" fill="white" stroke="black" stroke-width="0.280456" stroke-linecap="round" stroke-linejoin="round"/>
<path id="mask" d="M44.4075 97.8171L55.7912 96.4429L55.7884 118.349H45.0048L44.4075 97.8171Z" fill="white"/>
</g>
<g id="Group_5">
<path id="Vector_9" d="M89.014 101.996C89.0336 102.071 89.0421 102.147 89.0561 102.22L89.0841 102.215L94.1435 129.071C94.7044 131.379 93.2853 133.707 90.9772 134.268C88.669 134.829 86.3413 133.41 85.7803 131.101L78.0931 105.249C78.0286 105.067 77.9725 104.879 77.9248 104.688C77.1816 101.626 79.0606 98.5406 82.1232 97.7973C85.1858 97.0541 88.2708 98.9332 89.014 101.996Z" stroke="black" stroke-width="0.280456" stroke-linecap="round" stroke-linejoin="round"/>
<path id="Vector_10" d="M94.2585 129.859C94.2669 130.013 94.2669 130.168 94.2585 130.316L94.2249 157.422C94.3062 158.97 93.1199 160.289 91.5746 160.373C90.0264 160.454 88.7083 159.268 88.6242 157.722L85.7158 130.773C85.6906 130.625 85.6738 130.473 85.6654 130.319C85.5392 127.946 87.3593 125.919 89.7348 125.793C92.1074 125.666 94.1351 127.487 94.2613 129.862L94.2585 129.859Z" fill="#F6E3E7" stroke="black" stroke-width="0.280456" stroke-linecap="round" stroke-linejoin="round"/>
<path id="Vector_11" d="M89.014 101.996C89.0336 102.071 89.0421 102.147 89.0561 102.22L89.0841 102.215L94.1435 129.071C94.7044 131.379 93.2853 133.707 90.9772 134.268C88.669 134.829 86.3413 133.41 85.7803 131.101L78.0931 105.249C78.0286 105.067 77.9725 104.879 77.9248 104.688C77.1816 101.626 79.0606 98.5406 82.1232 97.7973C85.1858 97.0541 88.2708 98.9332 89.014 101.996Z" fill="white" stroke="black" stroke-width="0.280456" stroke-linecap="round" stroke-linejoin="round"/>
<path id="mask_2" d="M83.3515 97.7161L72.6633 96.4429V118.352H83.4497L83.9096 98.3584C83.918 98.033 83.6768 97.7554 83.3543 97.7189L83.3515 97.7161Z" fill="white"/>
</g>
<path id="Vector_12" d="M57.8582 96.0222C58.7051 99.4971 60.5421 105.981 63.6944 112.566C68.0303 105.552 69.2419 99.7635 70.1449 96.025C66.7907 95.6296 64.2974 95.3491 64.2974 95.3491C64.2974 95.3491 61.5041 95.6296 57.8582 96.0222Z" fill="#FFCB00" stroke="black" stroke-width="0.280456" stroke-linecap="round" stroke-linejoin="round"/>
<path id="Vector_13" d="M70.2766 94.9228V95.0602C70.2766 95.408 70.2233 95.7417 70.1224 96.0558C69.7017 97.3908 68.4509 98.3584 66.9785 98.3584H61.0496C59.653 98.3584 58.4582 97.489 57.9814 96.2634C57.8328 95.8904 57.7515 95.4865 57.7515 95.0602V94.9228C57.7515 94.7405 57.7655 94.561 57.7963 94.3843C58.0516 92.8194 59.4118 91.6274 61.0496 91.6274H66.9785C68.6696 91.6274 70.0635 92.8979 70.2542 94.5386C70.2682 94.6648 70.2766 94.7938 70.2766 94.9228Z" fill="#F0CCD4" stroke="black" stroke-width="0.280456" stroke-linecap="round" stroke-linejoin="round"/>
<path id="Vector_14" fill-rule="evenodd" clip-rule="evenodd" d="M70.1532 95.983C70.2962 96.1765 70.3748 96.3785 70.3748 96.586C70.3748 97.8593 67.5197 98.8913 64 98.8913C60.4803 98.8913 57.6252 97.8593 57.6252 96.586C57.6252 96.3757 57.7038 96.1737 57.8468 95.9802C58.5816 96.9618 61.058 97.6826 64 97.6826C66.942 97.6826 69.4184 96.9618 70.1532 95.983Z" fill="#FF7900" stroke="black" stroke-width="0.280456" stroke-linecap="round" stroke-linejoin="round"/>
<path id="Vector_15" d="M70.1534 95.9801L72.4055 96.2886L74.4472 97.7778L72.2092 100.033L73.5498 102.647L62.769 113.994C67.8761 106.309 69.1831 99.9626 70.1506 95.9773L70.1534 95.9801Z" fill="white" stroke="black" stroke-width="0.280456" stroke-linecap="round" stroke-linejoin="round"/>
<path id="Vector_16" d="M57.8468 95.983L55.5947 96.2915L53.553 97.7807L55.791 100.036L54.4504 102.649L63.2175 113.324C63.4194 112.979 63.5064 112.866 63.6943 112.566C60.5307 105.956 58.6909 99.4495 57.8496 95.9802L57.8468 95.983Z" fill="white" stroke="black" stroke-width="0.280456" stroke-linecap="round" stroke-linejoin="round"/>
<g id="Group_6">
<path id="Vector_17" fill-rule="evenodd" clip-rule="evenodd" d="M70.3242 124.704H78.2948L79.7952 124.146V115.191H70.3242V124.704Z" fill="white" stroke="black" stroke-width="0.280456" stroke-linecap="round" stroke-linejoin="round"/>
<path id="Vector_18" fill-rule="evenodd" clip-rule="evenodd" d="M70.3242 116.414L77.6694 117.059L80.2439 116.414V113.323H70.3242V116.414Z" fill="white" stroke="black" stroke-width="0.280456" stroke-linecap="round" stroke-linejoin="round"/>
</g>
<path id="Vector_19" d="M62.7744 113.997V133.654" stroke="black" stroke-width="0.280456" stroke-linecap="round" stroke-linejoin="round"/>
<g id="Group_7">
<path id="Vector_20" opacity="0.25" d="M77.6072 108.2C79.0011 104.405 78.7319 100.63 76.8248 97.7273C75.2738 95.3631 72.7862 93.9524 70.1752 93.9524C69.9704 93.9524 69.7797 94.0141 69.6255 94.1235C69.6395 94.2497 69.6479 94.3787 69.6479 94.5077V94.6451C69.6479 94.9929 69.5946 95.3266 69.4937 95.6407C69.6675 95.8118 69.9087 95.9156 70.1752 95.9156C72.1243 95.9156 73.995 96.9953 75.1841 98.8043C76.6172 100.983 76.9005 103.816 76.0227 106.747C75.9021 107.145 75.5711 107.448 75.1617 107.521C74.3007 107.675 72.8227 108.186 72.4889 109.863C72.1187 111.714 73.392 113.556 75.271 113.727C77.1501 113.898 78.715 112.429 78.715 110.595C78.715 109.635 78.2859 108.777 77.6072 108.202V108.2Z" fill="black"/>
<path id="Vector_21" opacity="0.25" d="M57.9107 106.96C58.0537 106.677 58.0537 106.329 57.8826 106.032C55.5492 101.976 53.5916 100.896 52.0267 100.734C52.1361 99.8447 52.5147 99.0201 53.1317 98.3526C54.2507 97.1411 56.0372 96.4988 58.3033 96.4988C58.4295 96.4988 58.5501 96.4764 58.6595 96.4315C58.5108 96.0585 58.4295 95.6547 58.4295 95.2284V95.0909C58.4295 94.9087 58.4435 94.7292 58.4744 94.5525C58.4183 94.5413 58.3622 94.5356 58.3033 94.5356C54.7303 94.5356 52.7334 95.8874 51.6901 97.0205C50.6861 98.1087 50.1168 99.4745 50.0411 100.936C48.5098 101.41 46.7794 102.86 45.4584 107.596C45.3659 107.925 45.4556 108.261 45.6632 108.502C44.359 114.055 45.6744 118.989 46.3166 120.119C46.9448 121.227 47.8535 121.813 49.2362 121.959C49.41 122.233 49.7157 122.419 50.0635 122.419H50.0747C50.2907 122.419 50.5178 122.407 50.7506 122.388C51.2919 122.348 51.6958 121.877 51.6565 121.336C51.6172 120.795 51.1405 120.391 50.6048 120.43C50.4113 120.444 50.2262 120.453 50.0551 120.455C49.741 120.458 49.4689 120.612 49.2894 120.842C48.1873 120.713 47.6768 120.245 47.2926 119.566C46.7906 118.68 45.5173 114.05 46.7513 108.777C47.0346 108.671 47.2646 108.435 47.3515 108.124C48.779 103 50.4421 102.789 51.1545 102.7C51.864 102.61 53.5271 102.4 56.1802 107.01C56.3429 107.294 56.6234 107.462 56.9235 107.495C59.4251 112.297 59.341 117.098 59.0745 118.083C58.8698 118.834 58.4912 119.415 57.4563 119.813C57.2263 119.634 56.9235 119.555 56.6206 119.628C56.4523 119.67 56.2728 119.707 56.0821 119.74C55.5492 119.836 55.193 120.346 55.2884 120.879C55.3725 121.356 55.7876 121.689 56.2532 121.689C56.3093 121.689 56.3682 121.684 56.427 121.675C56.6598 121.633 56.8814 121.588 57.0889 121.538C57.4311 121.454 57.6863 121.199 57.7873 120.887C59.0914 120.402 59.8262 119.611 60.1599 118.38C60.5021 117.126 60.5554 112.022 57.9135 106.965L57.9107 106.96Z" fill="black"/>
<path id="Vector_22" d="M76.1938 114.154C77.9317 114.154 79.3405 112.745 79.3405 111.007C79.3405 109.269 77.9317 107.86 76.1938 107.86C74.456 107.86 73.0471 109.269 73.0471 111.007C73.0471 112.745 74.456 114.154 76.1938 114.154Z" fill="#C9C9C9" stroke="black" stroke-width="0.280456" stroke-linecap="round" stroke-linejoin="round"/>
<path id="Vector_23" d="M49.2981 121.827C47.4864 121.827 46.373 121.244 45.6354 119.948C44.9651 118.764 43.5488 113.41 45.1838 107.538C46.6927 102.119 48.7008 101.197 50.2797 100.997C51.8587 100.798 54.0322 101.197 56.8368 106.071C59.8769 111.355 59.8321 116.891 59.4759 118.203C59.0328 119.827 57.8941 120.691 55.6701 121.086C55.3644 121.14 55.0727 120.938 55.0194 120.632C54.9661 120.326 55.1681 120.035 55.4738 119.981C57.5351 119.614 58.1213 118.916 58.3961 117.909C58.6766 116.877 58.7579 111.652 55.8692 106.629C53.0759 101.774 51.2164 102.01 50.4228 102.111C49.6291 102.212 47.7696 102.445 46.2664 107.838C44.7127 113.419 46.0869 118.461 46.6142 119.392C47.1302 120.301 47.8678 120.834 49.9572 120.677C50.2573 120.655 50.5349 120.885 50.5574 121.196C50.5798 121.507 50.3498 121.774 50.0385 121.796C49.7805 121.816 49.5337 121.824 49.2981 121.824V121.827Z" fill="#C9C9C9" stroke="black" stroke-width="0.280456" stroke-linecap="round" stroke-linejoin="round"/>
<path id="Vector_24" d="M55.572 121.518C55.1064 121.518 54.6914 121.184 54.6072 120.708C54.5119 120.175 54.8681 119.664 55.4009 119.569C55.5916 119.535 55.7739 119.496 55.9394 119.457C56.4667 119.328 56.9967 119.65 57.1257 120.178C57.2547 120.705 56.9322 121.235 56.405 121.364C56.1974 121.414 55.9759 121.462 55.7431 121.501C55.6842 121.513 55.6281 121.515 55.5692 121.515L55.572 121.518Z" fill="#0071B9" stroke="black" stroke-width="0.280456" stroke-linecap="round" stroke-linejoin="round"/>
<path id="Vector_25" d="M49.385 122.248C48.8465 122.248 48.409 121.816 48.4034 121.277C48.3978 120.736 48.8325 120.29 49.3738 120.284C49.5476 120.284 49.7327 120.273 49.9234 120.259C50.4619 120.217 50.9359 120.624 50.9752 121.165C51.0144 121.706 50.6106 122.177 50.0693 122.217C49.8365 122.234 49.6093 122.245 49.3934 122.248H49.3822H49.385Z" fill="#0071B9" stroke="black" stroke-width="0.280456" stroke-linecap="round" stroke-linejoin="round"/>
<path id="Vector_26" d="M52.4533 98.1844C51.8363 98.8519 51.4577 99.6764 51.3483 100.565C52.9132 100.728 54.8708 101.808 57.2042 105.863C57.4763 106.334 57.3136 106.935 56.8424 107.204C56.3741 107.476 55.7739 107.313 55.5018 106.842C52.8487 102.231 51.1856 102.442 50.4761 102.531C49.7637 102.621 48.1006 102.832 46.6731 107.955C46.5525 108.387 46.1571 108.673 45.728 108.673C45.641 108.673 45.5513 108.662 45.4643 108.637C44.9399 108.491 44.6342 107.95 44.78 107.428C46.101 102.691 47.8314 101.241 49.3627 100.767C49.4384 99.3062 50.0077 97.9404 51.0118 96.8523C52.055 95.7192 54.0519 94.3674 57.6249 94.3674C57.6838 94.3674 57.7399 94.373 57.796 94.3843C57.7651 94.5609 57.7511 94.7404 57.7511 94.9227V95.0602C57.7511 95.4864 57.8324 95.8903 57.9811 96.2633C57.8717 96.3082 57.7511 96.3306 57.6249 96.3306C55.3588 96.3306 53.5723 96.9729 52.4533 98.1844Z" fill="#0071B9" stroke="black" stroke-width="0.280456" stroke-linecap="round" stroke-linejoin="round"/>
<path id="Vector_27" d="M77.9047 109.448C77.7449 109.818 77.3831 110.039 77.0045 110.039C76.8726 110.039 76.7408 110.014 76.6146 109.961C76.1154 109.745 75.8882 109.167 76.1014 108.668C77.5962 105.215 77.4896 101.771 75.8125 99.2193C74.6234 97.4104 72.7527 96.3306 70.8036 96.3306C70.5371 96.3306 70.296 96.2268 70.1221 96.0558C70.223 95.7417 70.2763 95.4079 70.2763 95.0602V94.9227C70.2763 94.7937 70.2679 94.6647 70.2539 94.5385C70.4081 94.4291 70.5988 94.3674 70.8036 94.3674C73.4146 94.3674 75.9023 95.7781 77.4532 98.1424C79.5005 101.255 79.6632 105.375 77.9047 109.448Z" fill="#0071B9" stroke="black" stroke-width="0.280456" stroke-linecap="round" stroke-linejoin="round"/>
<path id="Vector_28" d="M76.1938 113.099C77.3492 113.099 78.286 112.162 78.286 111.007C78.286 109.852 77.3492 108.915 76.1938 108.915C75.0383 108.915 74.1016 109.852 74.1016 111.007C74.1016 112.162 75.0383 113.099 76.1938 113.099Z" fill="white" stroke="black" stroke-width="0.280456" stroke-linecap="round" stroke-linejoin="round"/>
<path id="Vector_29" d="M76.1939 111.756C76.6074 111.756 76.9427 111.42 76.9427 111.007C76.9427 110.593 76.6074 110.258 76.1939 110.258C75.7803 110.258 75.4451 110.593 75.4451 111.007C75.4451 111.42 75.7803 111.756 76.1939 111.756Z" fill="#C9C9C9" stroke="black" stroke-width="0.280456" stroke-linecap="round" stroke-linejoin="round"/>
</g>
<g id="Group_8">
<path id="Vector_30" d="M77.824 37.6987H50.3449C41.2482 37.6987 33.8738 45.0731 33.8738 54.1699V78.6536C33.8738 87.7504 41.2482 95.1248 50.3449 95.1248H77.824C86.9208 95.1248 94.2952 87.7504 94.2952 78.6536V54.1699C94.2952 45.0731 86.9208 37.6987 77.824 37.6987Z" fill="#0088C9" stroke="black" stroke-width="0.280456" stroke-linecap="round" stroke-linejoin="round"/>
<g id="Group_9">
<path id="Vector_31" d="M35.3213 48.7574L93.1092 32.7603C95.8464 32.7603 98.062 34.9787 98.062 37.7131V69.2054C98.062 71.9427 95.8436 74.1583 93.1092 74.1583H35.3213C32.584 74.1583 30.3684 71.9399 30.3684 69.2054V53.7103C30.3684 50.973 32.5868 48.7574 35.3213 48.7574Z" fill="#0088C9" stroke="black" stroke-width="0.280456" stroke-linecap="round" stroke-linejoin="round"/>
<g id="Vector_32">
<path d="M30.3684 61.0217V56.8905C30.3684 55.8024 29.4878 54.9217 28.3996 54.9217H25.8558C23.859 54.9217 22.238 53.3035 22.238 51.3039C22.238 49.307 23.8562 47.686 25.8558 47.686H30.6432C31.7314 47.686 32.612 46.8054 32.612 45.7172C32.612 44.629 31.7314 43.7484 30.6432 43.7484H21.9183C20.1458 43.7484 18.707 42.3097 18.707 40.5372C18.707 38.7647 20.1458 37.326 21.9183 37.326H30.7049C31.0527 37.326 31.3331 37.0455 31.3331 36.6978C31.3331 36.35 31.0527 36.0695 30.7049 36.0695H27.6984C25.2192 36.0695 23.214 34.0362 23.2616 31.5486C23.3065 29.1058 25.4015 27.1931 27.8471 27.1931H86.0108C91.0422 27.1931 95.12 31.2709 95.12 36.3023V37.0119" fill="#0088C9"/>
<path d="M30.3684 61.0217V56.8905C30.3684 55.8024 29.4878 54.9217 28.3996 54.9217H25.8558C23.859 54.9217 22.238 53.3035 22.238 51.3039C22.238 49.307 23.8562 47.686 25.8558 47.686H30.6432C31.7314 47.686 32.612 46.8054 32.612 45.7172C32.612 44.629 31.7314 43.7484 30.6432 43.7484H21.9183C20.1458 43.7484 18.707 42.3097 18.707 40.5372C18.707 38.7647 20.1458 37.326 21.9183 37.326H30.7049C31.0527 37.326 31.3331 37.0455 31.3331 36.6978C31.3331 36.35 31.0527 36.0695 30.7049 36.0695H27.6984C25.2192 36.0695 23.214 34.0362 23.2616 31.5486C23.3065 29.1058 25.4015 27.1931 27.8471 27.1931H86.0108C91.0422 27.1931 95.12 31.2709 95.12 36.3023V37.0119" stroke="black" stroke-width="0.280456" stroke-linecap="round" stroke-linejoin="round"/>
</g>
<g id="Group_10">
<path id="Vector_33" d="M47.7822 35.3489H63.628" stroke="black" stroke-width="0.280456" stroke-linecap="round" stroke-linejoin="round"/>
<path id="Vector_34" d="M37.2485 32.7603H75.7327" stroke="black" stroke-width="0.280456" stroke-linecap="round" stroke-linejoin="round"/>
<path id="Vector_35" d="M37.9749 29.8267H73.4357" stroke="black" stroke-width="0.280456" stroke-linecap="round" stroke-linejoin="round"/>
</g>
</g>
<g id="Group_11" style="mix-blend-mode:multiply">
<path id="Vector_36" d="M93.1056 72.9155H35.3205C32.5833 72.9155 30.3677 70.6971 30.3677 67.9626V69.2051C30.3677 71.9423 32.5861 74.1579 35.3205 74.1579H93.1084C95.8457 74.1579 98.0613 71.9395 98.0613 69.2051V67.9626C98.0613 70.6999 95.8429 72.9155 93.1084 72.9155H93.1056Z" fill="#0088C9"/>
</g>
<g id="Group_12">
<path id="Vector_37" d="M38.2323 71.3C39.0793 73.1202 38.8353 74.3177 36.1738 76.4997C33.5123 78.6788 29.5859 78.289 27.4067 75.6275C25.2276 72.9659 25.6174 69.0396 28.279 66.8604C30.9405 64.6813 36.8581 68.3524 38.2323 71.3028V71.3Z" fill="#F6E3E7" stroke="black" stroke-width="0.280456" stroke-linecap="round" stroke-linejoin="round"/>
<g id="Vector_38" style="mix-blend-mode:multiply">
<path d="M28.691 68.103C31.3442 65.9294 37.2281 69.5697 38.6304 72.5145C38.5715 72.1303 38.4341 71.7349 38.2321 71.3002C36.8579 68.3498 30.9403 64.6786 28.2788 66.8577C26.0463 68.6863 25.4181 71.7405 26.5596 74.2505C26.0772 72.0349 26.8204 69.6371 28.6938 68.1002L28.691 68.103Z" fill="#F6E3E7"/>
</g>
<g id="Vector_39" style="mix-blend-mode:multiply">
<path d="M32.8253 72.5454C32.8253 72.5454 28.4782 69.9259 29.8917 75.0751C29.8917 75.0751 27.0507 71.4067 30.8116 68.2769C30.8116 68.2769 29.7346 69.8474 31.3585 70.6467C34.0032 71.9508 32.8253 72.5454 32.8253 72.5454Z" fill="#F6E3E7"/>
</g>
<path id="Vector_40" d="M29.8382 74.9826C27.1402 71.0058 30.8086 68.3499 30.8086 68.3499" stroke="black" stroke-width="0.280456" stroke-linecap="round" stroke-linejoin="round"/>
<path id="Vector_41" d="M32.755 72.3967C32.755 72.3967 31.6276 70.1138 28.9773 71.0617" stroke="black" stroke-width="0.280456" stroke-linecap="round" stroke-linejoin="round"/>
</g>
<g id="Group_13">
<path id="Vector_42" d="M89.8616 71.3003C89.0146 73.1204 89.2586 74.318 91.9201 76.4999C94.5816 78.6791 98.508 78.2892 100.687 75.6277C102.866 72.9662 102.476 69.0398 99.8149 66.8607C97.1534 64.6815 91.2358 68.3527 89.8616 71.3031V71.3003Z" fill="#F6E3E7" stroke="black" stroke-width="0.280456" stroke-linecap="round" stroke-linejoin="round"/>
<g id="Vector_43" style="mix-blend-mode:multiply">
<path d="M99.3998 68.1032C96.7467 65.9297 90.8627 69.57 89.4604 72.5148C89.5221 72.1305 89.6568 71.7351 89.8587 71.3004C91.2329 68.35 97.1505 64.6788 99.8121 66.858C102.044 68.6866 102.673 71.7407 101.531 74.2508C102.014 72.0352 101.27 69.6373 99.397 68.1004L99.3998 68.1032Z" fill="#F6E3E7"/>
</g>
<g id="Vector_44" style="mix-blend-mode:multiply">
<path d="M95.2688 72.5456C95.2688 72.5456 99.6158 69.9262 98.2023 75.0753C98.2023 75.0753 101.043 71.407 97.2824 68.2771C97.2824 68.2771 98.3594 69.8476 96.7355 70.6469C94.0909 71.9511 95.2688 72.5456 95.2688 72.5456Z" fill="#F6E3E7"/>
</g>
<path id="Vector_45" d="M98.2528 74.9829C100.951 71.006 97.2825 68.3501 97.2825 68.3501" stroke="black" stroke-width="0.280456" stroke-linecap="round" stroke-linejoin="round"/>
<path id="Vector_46" d="M95.3359 72.397C95.3359 72.397 96.4634 70.1141 99.1137 71.062" stroke="black" stroke-width="0.280456" stroke-linecap="round" stroke-linejoin="round"/>
</g>
<g id="Group_14">
<path id="Vector_47" d="M77.8245 37.699H50.3454C41.2487 37.699 33.8743 45.0734 33.8743 54.1701V78.6539C33.8743 87.7507 41.2487 95.125 50.3454 95.125H77.8245C86.9213 95.125 94.2957 87.7507 94.2957 78.6539V54.1701C94.2957 45.0734 86.9213 37.699 77.8245 37.699Z" fill="#F0CCD4" stroke="black" stroke-width="0.280456" stroke-linecap="round" stroke-linejoin="round"/>
<path id="Vector_48" d="M76.7419 39.5359H49.4283C40.8381 39.5359 33.8743 46.4997 33.8743 55.0899V76.9627C33.8743 85.5529 40.8381 92.5167 49.4283 92.5167H76.7419C85.3322 92.5167 92.296 85.5529 92.296 76.9627V55.0899C92.296 46.4997 85.3322 39.5359 76.7419 39.5359Z" fill="#F6E3E7"/>
<path id="Vector_49" d="M77.8245 37.699H50.3454C41.2487 37.699 33.8743 45.0734 33.8743 54.1701V78.6539C33.8743 87.7507 41.2487 95.125 50.3454 95.125H77.8245C86.9213 95.125 94.2957 87.7507 94.2957 78.6539V54.1701C94.2957 45.0734 86.9213 37.699 77.8245 37.699Z" stroke="black" stroke-width="0.280456" stroke-linecap="round" stroke-linejoin="round"/>
</g>
<path id="Vector_50" d="M94.8113 38.8124C94.8113 45.8911 89.0731 51.6292 81.9944 51.6292C76.332 51.6292 71.741 47.0381 71.741 41.3757V38.3721" fill="#F0CCD4"/>
<g id="Group_15">
<g id="Group_16">
<path id="Vector_51" d="M70.9216 54.0017L77.0047 54.299C78.2892 54.3607 79.3829 53.3707 79.4446 52.0862C79.4979 51.0064 78.7996 50.0304 77.7591 49.7331L71.7433 48.0111C70.299 47.5989 68.8462 48.6366 68.7733 50.137L68.7032 51.5645C68.6415 52.849 69.6315 53.9428 70.916 54.0045L70.9216 54.0017Z" fill="#0088C9" stroke="black" stroke-width="0.280456" stroke-linecap="round" stroke-linejoin="round"/>
<path id="Vector_52" d="M70.9215 54.0016L77.0045 54.2989C78.2273 54.3578 79.2734 53.4632 79.4277 52.2712C79.0294 52.8826 78.7181 53.2023 73.6868 53.2023C70.1306 53.2023 69.2023 51.385 68.7648 50.3613L68.7059 51.5617C68.6442 52.8462 69.6342 53.9399 70.9187 54.0016H70.9215Z" fill="#004CA0"/>
<path id="Vector_53" d="M70.9216 54.0017L77.0047 54.299C78.2892 54.3607 79.3829 53.3707 79.4446 52.0862C79.4979 51.0064 78.7996 50.0304 77.7591 49.7331L71.7433 48.0111C70.299 47.5989 68.8462 48.6366 68.7733 50.137L68.7032 51.5645C68.6415 52.849 69.6315 53.9428 70.916 54.0045L70.9216 54.0017Z" stroke="black" stroke-width="0.280456" stroke-linecap="round" stroke-linejoin="round"/>
<path id="Vector_54" d="M71.5301 54.0298C70.9159 52.0694 71.3141 49.9323 72.5594 48.3281" stroke="black" stroke-width="0.280456" stroke-linecap="round" stroke-linejoin="round"/>
<path id="Vector_55" d="M73.8917 54.1447C73.4261 52.3667 73.7739 50.4708 74.8172 48.9788" stroke="black" stroke-width="0.280456" stroke-linecap="round" stroke-linejoin="round"/>
<path id="Vector_56" d="M76.3484 54.299C76.0231 52.692 76.3484 51.0177 77.229 49.6519" stroke="black" stroke-width="0.280456" stroke-linecap="round" stroke-linejoin="round"/>
</g>
<g id="Group_17">
<path id="Vector_57" d="M57.2527 54.0017L51.1696 54.299C49.8851 54.3607 48.7914 53.3707 48.7297 52.0862C48.6764 51.0064 49.3747 50.0304 50.4152 49.7331L56.431 48.0111C57.8753 47.5989 59.3281 48.6366 59.401 50.137L59.4711 51.5645C59.5328 52.849 58.5428 53.9428 57.2583 54.0045L57.2527 54.0017Z" fill="#0088C9" stroke="black" stroke-width="0.280456" stroke-linecap="round" stroke-linejoin="round"/>
<path id="Vector_58" d="M57.2528 54.0016L51.1697 54.2989C49.9469 54.3578 48.9008 53.4632 48.7466 52.2712C49.1448 52.8826 49.4561 53.2023 54.4875 53.2023C58.0437 53.2023 58.972 51.385 59.4095 50.3613L59.4684 51.5617C59.5301 52.8462 58.5401 53.9399 57.2556 54.0016H57.2528Z" fill="#004CA0"/>
<path id="Vector_59" d="M57.2527 54.0017L51.1696 54.299C49.8851 54.3607 48.7914 53.3707 48.7297 52.0862C48.6764 51.0064 49.3747 50.0304 50.4152 49.7331L56.431 48.0111C57.8753 47.5989 59.3281 48.6366 59.401 50.137L59.4711 51.5645C59.5328 52.849 58.5428 53.9428 57.2583 54.0045L57.2527 54.0017Z" stroke="black" stroke-width="0.280456" stroke-linecap="round" stroke-linejoin="round"/>
<path id="Vector_60" d="M56.6443 54.0298C57.2585 52.0694 56.8602 49.9323 55.615 48.3281" stroke="black" stroke-width="0.280456" stroke-linecap="round" stroke-linejoin="round"/>
<path id="Vector_61" d="M54.2856 54.1447C54.7512 52.3667 54.4034 50.4708 53.3601 48.9788" stroke="black" stroke-width="0.280456" stroke-linecap="round" stroke-linejoin="round"/>
<path id="Vector_62" d="M51.8259 54.299C52.1513 52.692 51.8259 51.0177 50.9453 49.6519" stroke="black" stroke-width="0.280456" stroke-linecap="round" stroke-linejoin="round"/>
</g>
<g id="Vector_63" style="mix-blend-mode:multiply">
<path d="M64.4998 75.4033C64.4998 73.9898 63.3527 72.8428 61.9392 72.8428C61.0614 72.8428 60.3603 73.3364 59.8274 73.9534C58.0886 75.9727 56.7424 77.3553 52.3224 78.0929C49.8263 78.508 46.6684 78.3734 42.7897 77.0496C42.4111 76.9038 41.5361 76.6345 40.8125 76.6345C38.0865 76.6345 35.8765 78.8445 35.8765 81.5705C35.8765 83.5758 37.0628 85.3146 38.7876 86.0691C40.2151 86.6945 44.5425 88.3828 49.7843 87.5302C54.036 86.8403 59.1571 84.2461 62.9629 78.7155C63.3275 78.1855 64.5026 76.6766 64.5026 75.4005L64.4998 75.4033Z" fill="#F6E3E7"/>
</g>
<g id="Vector_64" style="mix-blend-mode:multiply">
<path d="M63.6722 75.4033C63.6722 73.9898 64.8193 72.8428 66.2328 72.8428C67.1106 72.8428 67.8118 73.3364 68.3446 73.9534C70.0835 75.9727 71.4296 77.3553 75.8496 78.0929C78.3457 78.508 81.5036 78.3734 85.3823 77.0496C85.7609 76.9038 86.636 76.6345 87.3595 76.6345C90.0856 76.6345 92.2955 78.8445 92.2955 81.5705C92.2955 83.5758 91.1092 85.3146 89.3844 86.0691C87.9569 86.6945 83.6295 88.3828 78.3877 87.5302C74.136 86.8403 69.0149 84.2461 65.2091 78.7155C64.8445 78.1855 63.6694 76.6766 63.6694 75.4005L63.6722 75.4033Z" fill="#F6E3E7"/>
</g>
<path id="Vector_65" d="M61.692 80.631C62.5137 80.6983 63.3074 80.8133 64.0843 80.8133C64.8752 80.8133 65.6605 80.746 66.4794 80.673C66.1176 80.8722 65.7222 81.004 65.3155 81.0881C64.9173 81.1807 64.4966 81.2199 64.0843 81.2255C63.6636 81.2199 63.2457 81.1667 62.8475 81.0601C62.4492 80.9619 62.0594 80.8273 61.6892 80.6282L61.692 80.631Z" fill="#1D1D1B"/>
<g id="Vector_66">
<path d="M68.4512 74.1609C68.4512 76.57 66.4964 78.5248 64.0873 78.5248C61.6782 78.5248 59.7234 76.57 59.7234 74.1609" fill="#F0CCD4"/>
<path d="M68.4512 74.1609C68.4512 76.57 66.4964 78.5248 64.0873 78.5248C61.6782 78.5248 59.7234 76.57 59.7234 74.1609" stroke="black" stroke-width="0.280456" stroke-linecap="round" stroke-linejoin="round"/>
</g>
<g id="Group_18">
<path id="Vector_67" d="M64.0845 74.1609C64.0845 72.7474 62.9374 71.6003 61.5239 71.6003C60.6461 71.6003 59.945 72.0939 59.4121 72.7109C57.6733 74.7302 56.3271 76.1129 51.9071 76.8505C49.411 77.2655 46.2531 77.1309 42.3744 75.8072C41.9958 75.6613 41.1208 75.3921 40.3972 75.3921C37.6712 75.3921 35.4612 77.6021 35.4612 80.3281C35.4612 82.3334 36.6475 84.0722 38.3723 84.8266C39.7998 85.452 44.1273 87.1404 49.369 86.2878C53.6207 85.5979 58.7418 83.0037 62.5476 77.4731C62.9122 76.943 64.0873 75.4342 64.0873 74.1581L64.0845 74.1609Z" fill="#0088C9"/>
<path id="Vector_68" d="M38.3722 84.8267C39.7997 85.4521 44.1272 87.1404 49.3689 86.2878C53.6206 85.5979 58.7417 83.0037 62.5475 77.4731C62.8364 77.0524 63.6272 76.0232 63.947 74.9827C61.6921 77.2684 55.6791 82.5774 47.5908 83.6544C42.335 84.3527 38.2404 82.6055 35.4751 80.7124C35.6153 82.5522 36.7596 84.1199 38.3722 84.8267Z" fill="#004CA0"/>
<path id="Vector_69" d="M64.0845 74.1609C64.0845 72.7474 62.9374 71.6003 61.5239 71.6003C60.6461 71.6003 59.945 72.0939 59.4121 72.7109C57.6733 74.7302 56.3271 76.1129 51.9071 76.8505C49.411 77.2655 46.2531 77.1309 42.3744 75.8072C41.9958 75.6613 41.1208 75.3921 40.3972 75.3921C37.6712 75.3921 35.4612 77.6021 35.4612 80.3281C35.4612 82.3334 36.6475 84.0722 38.3723 84.8266C39.7998 85.452 44.1273 87.1404 49.369 86.2878C53.6207 85.5979 58.7418 83.0037 62.5476 77.4731C62.9122 76.943 64.0873 75.4342 64.0873 74.1581L64.0845 74.1609Z" stroke="black" stroke-width="0.280456" stroke-linecap="round" stroke-linejoin="round"/>
<path id="Vector_70" d="M37.7132 84.4368C37.357 82.5549 37.0906 78.7379 39.7213 75.4846" stroke="black" stroke-width="0.280456" stroke-linecap="round" stroke-linejoin="round"/>
<path id="Vector_71" d="M43.3643 76.2334C42.4108 77.7282 40.6187 81.3461 41.9144 85.9372" stroke="black" stroke-width="0.280456" stroke-linecap="round" stroke-linejoin="round"/>
<path id="Vector_72" d="M61.6025 78.5949C60.6434 77.8461 58.9718 76.2643 58.3408 73.9309" stroke="black" stroke-width="0.280456" stroke-linecap="round" stroke-linejoin="round"/>
<path id="Vector_73" d="M54.9839 76.1719C55.1494 77.4648 55.7664 80.1375 58.0352 82.2718" stroke="black" stroke-width="0.280456" stroke-linecap="round" stroke-linejoin="round"/>
<path id="Vector_74" d="M52.4708 85.4353C51.6687 84.2069 50.2973 81.3378 51.2536 77.0188" stroke="black" stroke-width="0.280456" stroke-linecap="round" stroke-linejoin="round"/>
<path id="Vector_75" d="M47.2068 77.0522C46.5561 78.3956 45.0052 82.3893 47.1255 86.4868" stroke="black" stroke-width="0.280456" stroke-linecap="round" stroke-linejoin="round"/>
</g>
<g id="Group_19">
<path id="Vector_76" d="M64.0848 74.1607C64.0848 72.7472 65.2319 71.6001 66.6454 71.6001C67.5232 71.6001 68.2244 72.0937 68.7572 72.7107C70.4961 74.73 71.8422 76.1126 76.2622 76.8502C78.7583 77.2653 81.9162 77.1307 85.7949 75.8069C86.1735 75.6611 87.0485 75.3919 87.7721 75.3919C90.4982 75.3919 92.7081 77.6018 92.7081 80.3279C92.7081 82.3331 91.5218 84.0719 89.797 84.8264C88.3695 85.4518 84.0421 87.1401 78.8003 86.2876C74.5486 85.5976 69.4275 83.0034 65.6217 77.4728C65.2571 76.9428 64.082 75.4339 64.082 74.1579L64.0848 74.1607Z" fill="#0088C9"/>
<path id="Vector_77" d="M89.7996 84.8264C88.3721 85.4518 84.0447 87.1402 78.8029 86.2876C74.5512 85.5977 69.4301 83.0034 65.6243 77.4729C65.3355 77.0522 64.5446 76.0229 64.2249 74.9824C66.4797 77.2681 72.4927 82.5772 80.581 83.6541C85.8368 84.3524 89.9314 82.6052 92.6967 80.7121C92.5565 82.5519 91.4122 84.1197 89.7996 84.8264Z" fill="#004CA0"/>
<path id="Vector_78" d="M64.0848 74.1607C64.0848 72.7472 65.2319 71.6001 66.6454 71.6001C67.5232 71.6001 68.2244 72.0937 68.7572 72.7107C70.4961 74.73 71.8422 76.1126 76.2622 76.8502C78.7583 77.2653 81.9162 77.1307 85.7949 75.8069C86.1735 75.6611 87.0485 75.3919 87.7721 75.3919C90.4982 75.3919 92.7081 77.6018 92.7081 80.3279C92.7081 82.3331 91.5218 84.0719 89.797 84.8264C88.3695 85.4518 84.0421 87.1401 78.8003 86.2876C74.5486 85.5976 69.4275 83.0034 65.6217 77.4728C65.2571 76.9428 64.082 75.4339 64.082 74.1579L64.0848 74.1607Z" stroke="black" stroke-width="0.280456" stroke-linecap="round" stroke-linejoin="round"/>
<path id="Vector_79" d="M90.4587 84.4365C90.8149 82.5547 91.0814 78.7377 88.4507 75.4844" stroke="black" stroke-width="0.280456" stroke-linecap="round" stroke-linejoin="round"/>
<path id="Vector_80" d="M84.8076 76.2332C85.7612 77.728 87.5533 81.3459 86.2576 85.9369" stroke="black" stroke-width="0.280456" stroke-linecap="round" stroke-linejoin="round"/>
<path id="Vector_81" d="M66.5696 78.5946C67.5287 77.8458 69.2003 76.2641 69.8313 73.9307" stroke="black" stroke-width="0.280456" stroke-linecap="round" stroke-linejoin="round"/>
<path id="Vector_82" d="M73.1856 76.1716C73.0202 77.4645 72.4032 80.1373 70.1343 82.2715" stroke="black" stroke-width="0.280456" stroke-linecap="round" stroke-linejoin="round"/>
<path id="Vector_83" d="M75.7012 85.435C76.5033 84.2066 77.8747 81.3376 76.9183 77.0186" stroke="black" stroke-width="0.280456" stroke-linecap="round" stroke-linejoin="round"/>
<path id="Vector_84" d="M80.9656 77.0522C81.6162 78.3956 83.1672 82.3893 81.0469 86.4868" stroke="black" stroke-width="0.280456" stroke-linecap="round" stroke-linejoin="round"/>
</g>
<g id="Group_20">
<path id="Vector_85" d="M61.6222 70.3914H66.5498C67.2201 70.3914 67.7614 69.8473 67.7614 69.1798C67.7614 68.5095 67.2173 67.9683 66.5498 67.9683H61.6222C60.9519 67.9683 60.4106 68.5123 60.4106 69.1798C60.4106 69.8501 60.9547 70.3914 61.6222 70.3914Z" fill="#F2ADC9" stroke="black" stroke-width="0.280456" stroke-linecap="round" stroke-linejoin="round"/>
<path id="Vector_86" d="M66.5666 69.5109C66.5666 70.8767 65.4616 71.9817 64.0958 71.9817C62.73 71.9817 61.625 70.8767 61.625 69.5109C61.625 66.5885 62.73 59.8015 64.0958 59.8015C65.4616 59.8015 66.5666 66.6474 66.5666 69.5109Z" fill="#F2ADC9" stroke="black" stroke-width="0.280456" stroke-linecap="round" stroke-linejoin="round"/>
<path id="Vector_87" d="M62.73 70.3915C63.2208 70.3859 63.6695 70.442 64.1014 70.442C64.5417 70.4448 64.9876 70.3999 65.4784 70.4196C65.2765 70.571 65.055 70.672 64.8194 70.7477C64.5894 70.8178 64.3482 70.8515 64.0986 70.8571C63.8518 70.8543 63.6078 70.8122 63.3778 70.7337C63.1479 70.6551 62.9263 70.5514 62.73 70.3915Z" fill="#1D1D1B"/>
</g>
<g id="Group_21">
<path id="Vector_88" d="M57.8074 60.0371C57.8074 60.8953 57.1175 61.5908 56.2677 61.5908C55.418 61.5908 54.728 60.8953 54.728 60.0371C54.728 59.1789 55.418 58.4834 56.2677 58.4834C57.1175 58.4834 57.8074 59.1789 57.8074 60.0371Z" fill="#111111"/>
<path id="Vector_89" d="M58.2702 62.2107C57.7906 62.8053 57.095 63.2568 56.307 63.3887C55.9199 63.4504 55.5049 63.4868 55.1234 63.3634C54.9271 63.3213 54.7504 63.226 54.5737 63.1475C54.3999 63.0549 54.24 62.9371 54.0886 62.8193C54.083 62.8137 54.0801 62.8053 54.0886 62.7969C54.0914 62.7913 54.0998 62.7913 54.1054 62.7913C54.2989 62.8334 54.4756 62.8979 54.6551 62.9455C54.8402 62.9764 55.0113 63.0465 55.1936 63.0605C55.2833 63.0774 55.373 63.097 55.46 63.1082L55.7292 63.1362C55.819 63.1531 55.9087 63.1503 56.0013 63.1531C56.091 63.1531 56.1836 63.1587 56.2733 63.1419C56.6379 63.111 56.9969 63.0044 57.3306 62.8362C57.6672 62.6763 57.9813 62.4575 58.2477 62.1883C58.2477 62.1883 58.2645 62.1799 58.2702 62.1883C58.2758 62.1939 58.2758 62.2023 58.2702 62.2079V62.2107Z" fill="#111111"/>
<path id="Vector_90" d="M58.2702 62.9623C58.1384 63.4306 57.872 63.8822 57.4569 64.1794C57.255 64.3309 57.0138 64.4543 56.7558 64.4767C56.5006 64.5132 56.2425 64.4655 56.0126 64.3758C56.007 64.3758 56.0042 64.3674 56.007 64.3617C56.007 64.3589 56.0126 64.3561 56.0154 64.3561C56.1416 64.3365 56.2594 64.3449 56.3772 64.3281C56.495 64.3085 56.6099 64.3056 56.7221 64.272C56.9465 64.2271 57.1652 64.1626 57.3644 64.042C57.5635 63.9214 57.7402 63.7616 57.886 63.5737C58.0347 63.3886 58.1609 63.1782 58.2506 62.9567C58.2506 62.951 58.259 62.9482 58.2646 62.9511C58.2702 62.9511 58.273 62.9595 58.2702 62.9651V62.9623Z" fill="#111111"/>
<g id="Group_22">
<path id="Vector_91" d="M49.8 60.312H50.7732" stroke="black" stroke-width="0.140228" stroke-linecap="round" stroke-linejoin="round"/>
<path id="Vector_92" d="M49.8 59.479H50.7732" stroke="black" stroke-width="0.140228" stroke-linecap="round" stroke-linejoin="round"/>
<path id="Vector_93" d="M49.542 59.8828H50.7732" stroke="black" stroke-width="0.140228" stroke-linecap="round" stroke-linejoin="round"/>
</g>
</g>
<g id="Group_23">
<path id="Vector_94" d="M70.3643 60.0369C70.3643 60.8951 71.0542 61.5906 71.904 61.5906C72.7537 61.5906 73.4437 60.8951 73.4437 60.0369C73.4437 59.1787 72.7537 58.4832 71.904 58.4832C71.0542 58.4832 70.3643 59.1787 70.3643 60.0369Z" fill="#111111"/>
<path id="Vector_95" d="M69.924 62.1907C70.1904 62.4572 70.5045 62.6759 70.8411 62.8386C71.1748 63.0041 71.5338 63.1134 71.8984 63.1443C71.9881 63.1583 72.0807 63.1555 72.1704 63.1555C72.2602 63.1555 72.3527 63.1555 72.4425 63.1387L72.7117 63.1106C72.8015 63.0966 72.8912 63.077 72.9781 63.0629C73.1604 63.0489 73.3315 62.9788 73.5166 62.948C73.6961 62.9003 73.8728 62.833 74.0663 62.7937C74.0663 62.7937 74.0831 62.7965 74.0859 62.8049C74.0859 62.8105 74.0859 62.8161 74.0803 62.8218C73.9289 62.9395 73.769 63.0573 73.5951 63.1499C73.4185 63.2312 73.239 63.3266 73.0455 63.3658C72.664 63.4892 72.249 63.4528 71.8619 63.3911C71.0767 63.2593 70.3811 62.8077 69.8987 62.2132C69.8931 62.2076 69.8931 62.1963 69.8987 62.1907C69.9043 62.1851 69.9128 62.1851 69.9184 62.1907H69.924Z" fill="#111111"/>
<path id="Vector_96" d="M69.9212 62.9564C70.011 63.1808 70.1372 63.3883 70.2858 63.5734C70.4317 63.7613 70.6084 63.9212 70.8075 64.0418C71.0066 64.1624 71.2282 64.2269 71.4497 64.2717C71.5619 64.3054 71.6769 64.3082 71.7947 64.3278C71.9125 64.3419 72.0303 64.3363 72.1565 64.3559C72.1565 64.3559 72.1649 64.3615 72.1649 64.3671C72.1649 64.3699 72.1621 64.3727 72.1593 64.3755C71.9293 64.4625 71.6713 64.5101 71.4161 64.4765C71.1581 64.454 70.9169 64.3306 70.7149 64.1792C70.2999 63.8791 70.0334 63.4304 69.9016 62.962C69.9016 62.9564 69.9016 62.9508 69.91 62.948C69.9156 62.948 69.9212 62.948 69.924 62.9536L69.9212 62.9564Z" fill="#111111"/>
<g id="Group_24">
<path id="Vector_97" d="M78.3686 60.3118H77.3982" stroke="black" stroke-width="0.140228" stroke-linecap="round" stroke-linejoin="round"/>
<path id="Vector_98" d="M78.3686 59.4788H77.3982" stroke="black" stroke-width="0.140228" stroke-linecap="round" stroke-linejoin="round"/>
<path id="Vector_99" d="M78.6294 59.8826H77.3982" stroke="black" stroke-width="0.140228" stroke-linecap="round" stroke-linejoin="round"/>
</g>
</g>
</g>
<g id="Vector_100">
<path d="M80.4688 39.2722C80.4688 41.6196 81.7336 42.5675 84.0811 42.5675C86.4285 42.5675 88.344 40.652 88.3328 38.2962C88.3215 36.0021 86.4116 34.1707 84.1203 34.0669C83.4641 34.0361 82.8611 34.0557 82.3114 34.109C77.4763 34.5942 75.415 40.6408 79.0132 43.9053C80.4632 45.2206 82.4236 45.9807 84.5634 45.846C88.3215 45.6133 91.3785 42.5535 91.6141 38.7954C91.8861 34.4091 88.4113 30.7688 84.0839 30.7688C84.0839 30.7688 75.0784 29.8797 73.4911 38.3859C72.3216 44.6569 77.3866 49.4387 84.0839 49.4022C90.209 49.3686 95.1366 45.1814 95.1366 39.059L95.1002 36.3021" fill="#0088C9"/>
<path d="M80.4688 39.2722C80.4688 41.6196 81.7336 42.5675 84.0811 42.5675C86.4285 42.5675 88.344 40.652 88.3328 38.2962C88.3215 36.0021 86.4116 34.1707 84.1203 34.0669C83.4641 34.0361 82.8611 34.0557 82.3114 34.109C77.4763 34.5942 75.415 40.6408 79.0132 43.9053C80.4632 45.2206 82.4236 45.9807 84.5634 45.846C88.3215 45.6133 91.3785 42.5535 91.6141 38.7954C91.8861 34.4091 88.4113 30.7688 84.0839 30.7688C84.0839 30.7688 75.0784 29.8797 73.4911 38.3859C72.3216 44.6569 77.3866 49.4387 84.0839 49.4022C90.209 49.3686 95.1366 45.1814 95.1366 39.059L95.1002 36.3021" stroke="black" stroke-width="0.280456" stroke-linecap="round" stroke-linejoin="round"/>
</g>
</g>
</g>
<path id="Vector_101" d="M64.21 115.359C64.4966 115.359 64.7288 115.127 64.7288 114.841C64.7288 114.554 64.4966 114.322 64.21 114.322C63.9235 114.322 63.6912 114.554 63.6912 114.841C63.6912 115.127 63.9235 115.359 64.21 115.359Z" fill="#808080" stroke="black" stroke-width="0.280456" stroke-linecap="round" stroke-linejoin="round"/>
<path id="Vector_102" d="M64.21 122.713C64.4966 122.713 64.7288 122.481 64.7288 122.194C64.7288 121.908 64.4966 121.675 64.21 121.675C63.9235 121.675 63.6912 121.908 63.6912 122.194C63.6912 122.481 63.9235 122.713 64.21 122.713Z" fill="#808080" stroke="black" stroke-width="0.280456" stroke-linecap="round" stroke-linejoin="round"/>
<path id="Vector_103" opacity="0.25" d="M74.0627 95.1248L53.2473 95.2397L52.5405 95.6128C52.5405 95.6128 56.1865 95.8932 57.858 95.8932L57.9786 96.2606C57.9786 96.2606 61.3861 108.699 63.6886 112.563C63.6886 112.563 68.8995 103.984 70.2064 95.7221L74.9433 95.6212L74.0627 95.1248ZM63.8008 110.112C63.8008 110.112 60.0539 101.654 59.12 96.37C59.12 96.37 62.2723 98.2967 68.4844 96.2213C68.0077 101.194 63.8036 110.112 63.8036 110.112H63.8008Z" fill="black"/>
<path id="Vector_104" opacity="0.25" d="M62.9903 111.212L62.0339 113.054C61.6581 113.778 61.4562 114.577 61.4449 115.393L61.2122 131.006H62.7715V113.999L63.6886 112.569L62.9874 111.214L62.9903 111.212Z" fill="black"/>
</g>
</g>
</svg>
