<svg width="128" height="128" viewBox="0 0 128 128" fill="none" xmlns="http://www.w3.org/2000/svg">
<g id="Group">
<g id="Layer 1">
<path id="Vector" d="M130.476 -2.47632H-2.47656V130.477H130.476V-2.47632Z" fill="#00B2FF"/>
<g id="Group_2">
<g id="Group_3">
<path id="Vector_2" d="M83.4272 97.6155H44.8029C41.7796 97.6155 39.3284 100.067 39.3284 103.09V103.55C39.3284 105.087 39.9622 106.475 40.9803 107.468C43.3641 109.79 45.0973 112.698 45.7676 115.96L48.547 147.349H79.8458L82.7317 116.527C83.2758 113.108 84.7959 109.877 87.2639 107.454C88.2735 106.461 88.9017 105.078 88.9017 103.55V103.09C88.9017 100.067 86.4505 97.6155 83.4272 97.6155Z" fill="#F7E4E8" stroke="black" stroke-width="0.280456" stroke-linecap="round" stroke-linejoin="round"/>
<path id="Vector_3" fill-rule="evenodd" clip-rule="evenodd" d="M53.6962 114.967C54.0075 114.967 54.2627 115.203 54.2627 115.495C54.2627 115.786 54.0103 116.022 53.6962 116.022C53.3821 116.022 53.1296 115.786 53.1296 115.495C53.1296 115.203 53.3821 114.967 53.6962 114.967Z" fill="#F1BBCE" stroke="#F1BBCE" stroke-width="0.280456" stroke-linecap="round" stroke-linejoin="round"/>
<path id="Vector_4" fill-rule="evenodd" clip-rule="evenodd" d="M74.9435 114.967C75.2548 114.967 75.51 115.203 75.51 115.495C75.51 115.786 75.2576 116.022 74.9435 116.022C74.6294 116.022 74.377 115.786 74.377 115.495C74.377 115.203 74.6294 114.967 74.9435 114.967Z" fill="#F1BBCE" stroke="#F1BBCE" stroke-width="0.280456" stroke-linecap="round" stroke-linejoin="round"/>
</g>
<g id="Group_4">
<path id="Vector_5" d="M89.0923 104.874C89.0923 105.636 88.9716 106.371 88.7529 107.064L88.7333 107.123C88.6996 107.224 88.666 107.325 88.6267 107.423L84.8938 118.894C81.534 128.494 84.5853 144.241 84.5853 154.411V154.624L77.7366 156.407C68.4844 158.934 58.7133 158.864 49.5003 156.2L43.7369 154.624V154.534C43.7369 144.283 46.7603 128.46 43.3499 118.793L39.6255 107.448C39.5834 107.339 39.5441 107.227 39.5077 107.112L39.4908 107.064C39.2721 106.371 39.1543 105.636 39.1543 104.874C39.1543 100.989 40.4276 98.2296 44.6176 97.6603C45.6777 97.5173 46.878 97.3602 48.1541 97.2004C54.9215 96.3422 63.7082 95.3494 63.7082 95.3494C63.7082 95.3494 73.3166 96.3141 80.1541 97.1695C81.5564 97.3434 82.8409 97.5145 83.9038 97.6687C87.4319 98.1848 89.0923 101.099 89.0923 104.874Z" fill="#434343" stroke="black" stroke-width="0.280456" stroke-linecap="round" stroke-linejoin="round"/>
<g id="Group_5">
<path id="Vector_6" d="M66.9782 91.625H61.0466C59.2266 91.625 57.7512 93.1004 57.7512 94.9204V95.0606C57.7512 96.8806 59.2266 98.3559 61.0466 98.3559H66.9782C68.7982 98.3559 70.2736 96.8806 70.2736 95.0606V94.9204C70.2736 93.1004 68.7982 91.625 66.9782 91.625Z" fill="#F7E4E8" stroke="black" stroke-width="0.280456" stroke-linecap="round" stroke-linejoin="round"/>
<path id="Vector_7" fill-rule="evenodd" clip-rule="evenodd" d="M70.153 95.9833C70.296 96.1768 70.3745 96.3787 70.3745 96.5863C70.3745 97.8595 67.5195 98.8916 63.9998 98.8916C60.48 98.8916 57.625 97.8595 57.625 96.5863C57.625 96.3759 57.7035 96.174 57.8466 95.9805C58.5814 96.9621 61.0578 97.6828 63.9998 97.6828C66.9417 97.6828 69.4182 96.9621 70.153 95.9833Z" fill="#5D5D5D" stroke="black" stroke-width="0.280456" stroke-linecap="round" stroke-linejoin="round"/>
</g>
</g>
<g id="Group_6">
<path id="Vector_8" d="M39.4402 101.996C39.4206 102.072 39.4122 102.147 39.3982 102.22L39.3701 102.215L34.3107 129.071C33.7498 131.379 35.1689 133.707 37.4771 134.268C39.7852 134.829 42.113 133.41 42.6739 131.102L50.364 105.249C50.4285 105.067 50.4846 104.879 50.5323 104.688C51.2755 101.626 49.3964 98.5408 46.3338 97.7976C43.2713 97.0544 40.1863 98.9334 39.443 101.996H39.4402Z" stroke="black" stroke-width="0.280456" stroke-linecap="round" stroke-linejoin="round"/>
<path id="Vector_9" d="M34.196 129.859C34.1876 130.014 34.1876 130.168 34.196 130.317L34.2297 157.423C34.1483 158.971 35.3347 160.289 36.88 160.373C38.4281 160.454 39.7462 159.268 39.8304 157.723L42.7387 130.774C42.7639 130.625 42.7808 130.474 42.7892 130.319C42.9154 127.947 41.0952 125.919 38.7198 125.793C36.3471 125.667 34.3194 127.487 34.1932 129.862L34.196 129.859Z" fill="#F7E4E8" stroke="black" stroke-width="0.280456" stroke-linecap="round" stroke-linejoin="round"/>
<path id="Vector_10" d="M50.5269 104.688C50.4821 104.882 50.426 105.07 50.3615 105.252L42.6714 131.105C42.1105 133.413 39.7855 134.832 37.4745 134.271C36.5995 134.058 35.8535 133.592 35.2954 132.97C34.3755 131.949 33.9604 130.507 34.3082 129.074L39.3676 102.218L39.3985 102.223C39.4125 102.148 39.4209 102.072 39.4405 101.999C40.1248 99.1775 42.7948 97.363 45.6049 97.6743C45.8461 97.6995 46.0901 97.7416 46.3313 97.8005C49.3911 98.5437 51.2702 101.629 50.5269 104.688Z" fill="#434343" stroke="black" stroke-width="0.280456" stroke-linecap="round" stroke-linejoin="round"/>
<path id="mask" d="M44.4072 97.8173L55.7909 96.4431L55.7881 118.35H45.0046L44.4072 97.8173Z" fill="#434343"/>
</g>
<g id="Group_7">
<path id="Vector_11" d="M89.0135 101.996C89.0332 102.072 89.0416 102.148 89.0556 102.221L89.0836 102.215L94.143 129.071C94.704 131.38 93.2849 133.707 90.9767 134.268C88.6686 134.829 86.3408 133.41 85.7799 131.102L78.0926 105.25C78.0281 105.067 77.972 104.879 77.9243 104.689C77.1811 101.626 79.0601 98.541 82.1227 97.7978C85.1853 97.0546 88.2703 98.9337 89.0135 101.996Z" stroke="black" stroke-width="0.280456" stroke-linecap="round" stroke-linejoin="round"/>
<path id="Vector_12" d="M94.258 129.86C94.2664 130.014 94.2664 130.168 94.258 130.317L94.2244 157.423C94.3057 158.971 93.1194 160.289 91.5741 160.373C90.026 160.455 88.7078 159.268 88.6237 157.723L85.7154 130.774C85.6901 130.625 85.6733 130.474 85.6649 130.32C85.5387 127.947 87.3588 125.919 89.7343 125.793C92.1069 125.667 94.1346 127.487 94.2608 129.862L94.258 129.86Z" fill="#F7E4E8" stroke="black" stroke-width="0.280456" stroke-linecap="round" stroke-linejoin="round"/>
<path id="Vector_13" d="M89.0135 101.996C89.0332 102.072 89.0416 102.148 89.0556 102.221L89.0836 102.215L94.143 129.071C94.704 131.38 93.2849 133.707 90.9767 134.268C88.6686 134.829 86.3408 133.41 85.7799 131.102L78.0926 105.25C78.0281 105.067 77.972 104.879 77.9243 104.689C77.1811 101.626 79.0601 98.541 82.1227 97.7978C85.1853 97.0546 88.2703 98.9337 89.0135 101.996Z" fill="#434343" stroke="black" stroke-width="0.280456" stroke-linecap="round" stroke-linejoin="round"/>
<path id="mask_2" d="M83.3513 97.7166L72.6631 96.4434V118.353H83.4494L83.9094 98.3589C83.9178 98.0335 83.6766 97.7559 83.3541 97.7194L83.3513 97.7166Z" fill="#434343"/>
</g>
<path id="Vector_14" d="M77.7113 106.876C77.7113 106.876 74.5646 106.57 70.5232 106.722C68.4787 106.798 66.207 106.991 63.9998 107.401C61.7898 106.991 59.5182 106.798 57.4736 106.722C59.0105 104.708 61.1252 102.431 63.9998 100.137C65.7527 98.7373 67.7916 97.3323 70.153 95.9805C71.2833 96.1459 72.3686 96.303 73.3587 96.3731C77.6721 99.6853 77.7113 106.876 77.7113 106.876Z" fill="#434343" stroke="black" stroke-width="0.280456" stroke-linecap="round" stroke-linejoin="round"/>
<g id="Vector_15">
<path d="M74.3711 113.669C76.2698 120.122 75.7341 155.51 75.7341 155.51L74.3711 113.669Z" fill="#434343"/>
<path d="M74.3711 113.669C76.2698 120.122 75.7341 155.51 75.7341 155.51" stroke="black" stroke-width="0.280456" stroke-linecap="round" stroke-linejoin="round"/>
</g>
<path id="Vector_16" d="M62.2412 98.8019L63.9997 100.134L65.7581 98.7991C64.5522 98.8944 63.3771 98.9 62.2412 98.7991V98.8019Z" fill="#767676" stroke="black" stroke-width="0.280456" stroke-linecap="round" stroke-linejoin="round"/>
<path id="Vector_17" d="M56.4191 108.217C57.1548 108.217 57.7512 107.62 57.7512 106.885C57.7512 106.149 57.1548 105.552 56.4191 105.552C55.6833 105.552 55.0869 106.149 55.0869 106.885C55.0869 107.62 55.6833 108.217 56.4191 108.217Z" fill="#1A1A1A" stroke="black" stroke-width="0.280456" stroke-linecap="round" stroke-linejoin="round"/>
<path id="Vector_18" d="M56.4191 117.357C57.1548 117.357 57.7512 116.761 57.7512 116.025C57.7512 115.289 57.1548 114.693 56.4191 114.693C55.6833 114.693 55.0869 115.289 55.0869 116.025C55.0869 116.761 55.6833 117.357 56.4191 117.357Z" fill="#1A1A1A" stroke="black" stroke-width="0.280456" stroke-linecap="round" stroke-linejoin="round"/>
<path id="Vector_19" d="M70.5597 117.357C71.2954 117.357 71.8919 116.761 71.8919 116.025C71.8919 115.289 71.2954 114.693 70.5597 114.693C69.824 114.693 69.2275 115.289 69.2275 116.025C69.2275 116.761 69.824 117.357 70.5597 117.357Z" fill="#1A1A1A" stroke="black" stroke-width="0.280456" stroke-linecap="round" stroke-linejoin="round"/>
<path id="Vector_20" d="M56.4191 126.497C57.1548 126.497 57.7512 125.9 57.7512 125.165C57.7512 124.429 57.1548 123.833 56.4191 123.833C55.6833 123.833 55.0869 124.429 55.0869 125.165C55.0869 125.9 55.6833 126.497 56.4191 126.497Z" fill="#1A1A1A" stroke="black" stroke-width="0.280456" stroke-linecap="round" stroke-linejoin="round"/>
<path id="Vector_21" d="M70.5597 126.497C71.2954 126.497 71.8919 125.9 71.8919 125.165C71.8919 124.429 71.2954 123.833 70.5597 123.833C69.824 123.833 69.2275 124.429 69.2275 125.165C69.2275 125.9 69.824 126.497 70.5597 126.497Z" fill="#1A1A1A" stroke="black" stroke-width="0.280456" stroke-linecap="round" stroke-linejoin="round"/>
<path id="Vector_22" opacity="0.25" d="M51.6064 98.9451C49.1132 103.62 49.9686 105.662 50.0387 107.406C50.0555 107.847 50.4341 108.186 50.8745 108.152C54.8205 107.852 72.5284 106.958 74.6936 114.968C74.6936 114.968 74.0401 107.207 66.2126 103.915C58.3851 100.622 55.0869 97.6157 55.0869 97.6157L52.1674 99.018L51.6064 98.9451Z" fill="black"/>
<path id="Vector_23" d="M74.3711 113.669C72.952 110.045 68.6133 108.253 63.9998 107.401C61.7898 106.991 59.5181 106.798 57.4736 106.722C53.435 106.57 50.2883 106.876 50.2883 106.876C50.2883 106.876 50.3865 104.133 51.3176 101.247C51.8757 99.5254 52.7283 97.7529 54.0352 96.4769C55.0617 96.3591 56.2929 96.1992 57.8438 95.9805C60.2081 97.3323 62.247 98.7373 63.9998 100.137C66.8745 102.431 68.9863 104.708 70.5232 106.722C73.4876 110.603 74.3262 113.509 74.3711 113.669Z" fill="#434343" stroke="black" stroke-width="0.280456" stroke-linecap="round" stroke-linejoin="round"/>
<path id="Vector_24" opacity="0.25" d="M75.8434 98.1766C78.4741 97.5288 79.4052 97.0773 79.4052 97.0773L73.998 96.4462C73.9644 96.4238 73.9335 96.3957 73.897 96.3733L67.8616 90.0771L56.7107 89.1179L54.5736 95.1281L53.4154 96.4462L45.658 97.439C54.4643 101.292 75.2152 98.3589 75.2152 98.3589C76.0902 99.7276 77.7617 103.404 77.7084 106.876L70.5204 106.722C70.5204 106.722 74.6459 110.797 75.1619 117.954C75.6779 125.112 75.7873 129.717 75.7873 129.717L76.424 128.356C76.424 128.356 78.2834 114 72.7668 107.984C72.7668 107.984 76.6091 107.544 78.7125 108.354C79.0658 108.492 79.4417 108.22 79.3996 107.841C79.1892 105.898 78.432 101.323 75.8294 98.1682L75.8406 98.1794L75.8434 98.1766Z" fill="black"/>
</g>
<g id="Group_8">
<path id="Vector_25" d="M77.9241 37.6987H50.445C41.3483 37.6987 33.9739 45.0731 33.9739 54.1699V78.6537C33.9739 87.7505 41.3483 95.1248 50.445 95.1248H77.9241C87.0209 95.1248 94.3953 87.7505 94.3953 78.6537V54.1699C94.3953 45.0731 87.0209 37.6987 77.9241 37.6987Z" fill="#0089CA" stroke="black" stroke-width="0.280456" stroke-linecap="round" stroke-linejoin="round"/>
<g id="Group_9">
<path id="Vector_26" d="M77.9241 37.6987H50.445C41.3483 37.6987 33.9739 45.0731 33.9739 54.1699V78.6537C33.9739 87.7505 41.3483 95.1248 50.445 95.1248H77.9241C87.0209 95.1248 94.3953 87.7505 94.3953 78.6537V54.1699C94.3953 45.0731 87.0209 37.6987 77.9241 37.6987Z" fill="#F1CDD5" stroke="black" stroke-width="0.280456" stroke-linecap="round" stroke-linejoin="round"/>
<path id="Vector_27" d="M76.8415 39.5356H49.528C40.9377 39.5356 33.9739 46.4994 33.9739 55.0897V76.9625C33.9739 85.5527 40.9377 92.5165 49.528 92.5165H76.8415C85.4318 92.5165 92.3956 85.5527 92.3956 76.9625V55.0897C92.3956 46.4994 85.4318 39.5356 76.8415 39.5356Z" fill="#F7E4E8"/>
<path id="Vector_28" d="M77.9241 37.6987H50.445C41.3483 37.6987 33.9739 45.0731 33.9739 54.1699V78.6537C33.9739 87.7505 41.3483 95.1248 50.445 95.1248H77.9241C87.0209 95.1248 94.3953 87.7505 94.3953 78.6537V54.1699C94.3953 45.0731 87.0209 37.6987 77.9241 37.6987Z" stroke="black" stroke-width="0.280456" stroke-linecap="round" stroke-linejoin="round"/>
</g>
<g id="Group_10">
<g id="Group_11">
<path id="Vector_29" d="M71.0222 54.0017L77.1052 54.299C78.3897 54.3607 79.4835 53.3707 79.5452 52.0862C79.5985 51.0064 78.9002 50.0304 77.8597 49.7331L71.8439 48.0111C70.3996 47.5989 68.9468 48.6366 68.8739 50.137L68.8038 51.5645C68.7421 52.849 69.7321 53.9428 71.0166 54.0045L71.0222 54.0017Z" fill="#0089CA" stroke="black" stroke-width="0.280456" stroke-linecap="round" stroke-linejoin="round"/>
<path id="Vector_30" d="M71.022 54.0016L77.1051 54.2989C78.3279 54.3578 79.374 53.4632 79.5283 52.2712C79.13 52.8826 78.8187 53.2023 73.7873 53.2023C70.2312 53.2023 69.3029 51.385 68.8653 50.3613L68.8064 51.5617C68.7447 52.8462 69.7348 53.9399 71.0192 54.0016H71.022Z" fill="#004CA1"/>
<path id="Vector_31" d="M71.0222 54.0017L77.1052 54.299C78.3897 54.3607 79.4835 53.3707 79.5452 52.0862C79.5985 51.0064 78.9002 50.0304 77.8597 49.7331L71.8439 48.0111C70.3996 47.5989 68.9468 48.6366 68.8739 50.137L68.8038 51.5645C68.7421 52.849 69.7321 53.9428 71.0166 54.0045L71.0222 54.0017Z" stroke="black" stroke-width="0.280456" stroke-linecap="round" stroke-linejoin="round"/>
<path id="Vector_32" d="M71.6307 54.0298C71.0165 52.0694 71.4147 49.9323 72.66 48.3281" stroke="black" stroke-width="0.280456" stroke-linecap="round" stroke-linejoin="round"/>
<path id="Vector_33" d="M73.9923 54.1448C73.5267 52.3667 73.8745 50.4708 74.9178 48.9788" stroke="black" stroke-width="0.280456" stroke-linecap="round" stroke-linejoin="round"/>
<path id="Vector_34" d="M76.4489 54.299C76.1236 52.692 76.4489 51.0177 77.3324 49.6519" stroke="black" stroke-width="0.280456" stroke-linecap="round" stroke-linejoin="round"/>
</g>
<g id="Group_12">
<path id="Vector_35" d="M57.3528 54.0017L51.2697 54.299C49.9852 54.3607 48.8915 53.3707 48.8298 52.0862C48.7765 51.0064 49.4748 50.0304 50.5153 49.7331L56.5311 48.0111C57.9754 47.5989 59.4282 48.6366 59.5011 50.137L59.5712 51.5645C59.6329 52.849 58.6429 53.9428 57.3584 54.0045L57.3528 54.0017Z" fill="#0089CA" stroke="black" stroke-width="0.280456" stroke-linecap="round" stroke-linejoin="round"/>
<path id="Vector_36" d="M57.3529 54.0016L51.2698 54.2989C50.047 54.3578 49.0009 53.4632 48.8467 52.2712C49.2449 52.8826 49.5562 53.2023 54.5876 53.2023C58.1438 53.2023 59.0721 51.385 59.5096 50.3613L59.5685 51.5617C59.6302 52.8462 58.6402 53.9399 57.3557 54.0016H57.3529Z" fill="#004CA1"/>
<path id="Vector_37" d="M57.3528 54.0017L51.2697 54.299C49.9852 54.3607 48.8915 53.3707 48.8298 52.0862C48.7765 51.0064 49.4748 50.0304 50.5153 49.7331L56.5311 48.0111C57.9754 47.5989 59.4282 48.6366 59.5011 50.137L59.5712 51.5645C59.6329 52.849 58.6429 53.9428 57.3584 54.0045L57.3528 54.0017Z" stroke="black" stroke-width="0.280456" stroke-linecap="round" stroke-linejoin="round"/>
<path id="Vector_38" d="M56.7441 54.0298C57.3583 52.0694 56.9601 49.9323 55.7148 48.3281" stroke="black" stroke-width="0.280456" stroke-linecap="round" stroke-linejoin="round"/>
<path id="Vector_39" d="M54.3855 54.1448C54.851 52.3667 54.5033 50.4708 53.46 48.9788" stroke="black" stroke-width="0.280456" stroke-linecap="round" stroke-linejoin="round"/>
<path id="Vector_40" d="M51.9262 54.299C52.2515 52.692 51.9262 51.0177 51.0427 49.6519" stroke="black" stroke-width="0.280456" stroke-linecap="round" stroke-linejoin="round"/>
</g>
<g id="Vector_41" style="mix-blend-mode:multiply">
<path d="M64.5996 75.4033C64.5996 73.9898 63.4526 72.8428 62.0391 72.8428C61.1612 72.8428 60.4601 73.3364 59.9272 73.9534C58.1884 75.9727 56.8422 77.3553 52.4222 78.0929C49.9262 78.508 46.7683 78.3734 42.8896 77.0496C42.5109 76.9038 41.6359 76.6345 40.9123 76.6345C38.1863 76.6345 35.9763 78.8445 35.9763 81.5706C35.9763 83.5758 37.1626 85.3146 38.8875 86.0691C40.315 86.6945 44.6424 88.3828 49.8841 87.5302C54.1358 86.8403 59.257 84.2461 63.0627 78.7155C63.4273 78.1855 64.6024 76.6766 64.6024 75.4005L64.5996 75.4033Z" fill="#F7E4E8"/>
</g>
<g id="Vector_42" style="mix-blend-mode:multiply">
<path d="M63.7723 75.4033C63.7723 73.9898 64.9194 72.8428 66.3329 72.8428C67.2107 72.8428 67.9119 73.3364 68.4447 73.9534C70.1836 75.9727 71.5297 77.3553 75.9497 78.0929C78.4458 78.508 81.6037 78.3734 85.4824 77.0496C85.861 76.9038 86.7361 76.6345 87.4596 76.6345C90.1857 76.6345 92.3957 78.8445 92.3957 81.5706C92.3957 83.5758 91.2093 85.3146 89.4845 86.0691C88.057 86.6945 83.7296 88.3828 78.4878 87.5302C74.2361 86.8403 69.115 84.2461 65.3092 78.7155C64.9446 78.1855 63.7695 76.6766 63.7695 75.4005L63.7723 75.4033Z" fill="#F7E4E8"/>
</g>
<path id="Vector_43" d="M61.7924 80.631C62.6141 80.6983 63.4078 80.8133 64.1846 80.8133C64.9755 80.8133 65.7608 80.746 66.5797 80.673C66.2179 80.8722 65.8225 81.004 65.4158 81.0881C65.0176 81.1807 64.5969 81.2199 64.1846 81.2255C63.764 81.2199 63.3461 81.1667 62.9478 81.0601C62.5496 80.9619 62.1598 80.8273 61.7896 80.6282L61.7924 80.631Z" fill="#1D1D1B"/>
<g id="Vector_44">
<path d="M68.5513 74.1609C68.5513 76.57 66.5965 78.5248 64.1874 78.5248C61.7783 78.5248 59.8235 76.57 59.8235 74.1609" fill="#F1CDD5"/>
<path d="M68.5513 74.1609C68.5513 76.57 66.5965 78.5248 64.1874 78.5248C61.7783 78.5248 59.8235 76.57 59.8235 74.1609" stroke="black" stroke-width="0.280456" stroke-linecap="round" stroke-linejoin="round"/>
</g>
<g id="Group_13">
<path id="Vector_45" d="M64.1846 74.1609C64.1846 72.7474 63.0375 71.6003 61.624 71.6003C60.7462 71.6003 60.0451 72.0939 59.5122 72.7109C57.7734 74.7302 56.4272 76.1129 52.0072 76.8505C49.5111 77.2655 46.3532 77.1309 42.4745 75.8072C42.0959 75.6613 41.2209 75.3921 40.4973 75.3921C37.7713 75.3921 35.5613 77.6021 35.5613 80.3281C35.5613 82.3334 36.7476 84.0722 38.4724 84.8266C39.8999 85.452 44.2274 87.1404 49.4691 86.2878C53.7208 85.5979 58.8419 83.0037 62.6477 77.4731C63.0123 76.943 64.1874 75.4342 64.1874 74.1581L64.1846 74.1609Z" fill="#0089CA"/>
<path id="Vector_46" d="M38.4723 84.8267C39.8998 85.4521 44.2273 87.1404 49.469 86.2878C53.7207 85.5979 58.8418 83.0037 62.6476 77.4731C62.9365 77.0524 63.7273 76.0232 64.0471 74.9827C61.7922 77.2684 55.7792 82.5774 47.6909 83.6544C42.4351 84.3527 38.3405 82.6055 35.5752 80.7124C35.7154 82.5522 36.8597 84.1199 38.4723 84.8267Z" fill="#004CA1"/>
<path id="Vector_47" d="M64.1846 74.1609C64.1846 72.7474 63.0375 71.6003 61.624 71.6003C60.7462 71.6003 60.0451 72.0939 59.5122 72.7109C57.7734 74.7302 56.4272 76.1129 52.0072 76.8505C49.5111 77.2655 46.3532 77.1309 42.4745 75.8072C42.0959 75.6613 41.2209 75.3921 40.4973 75.3921C37.7713 75.3921 35.5613 77.6021 35.5613 80.3281C35.5613 82.3334 36.7476 84.0722 38.4724 84.8266C39.8999 85.452 44.2274 87.1404 49.4691 86.2878C53.7208 85.5979 58.8419 83.0037 62.6477 77.4731C63.0123 76.943 64.1874 75.4342 64.1874 74.1581L64.1846 74.1609Z" stroke="black" stroke-width="0.280456" stroke-linecap="round" stroke-linejoin="round"/>
<path id="Vector_48" d="M37.8133 84.4368C37.4571 82.5549 37.1907 78.7379 39.8214 75.4846" stroke="black" stroke-width="0.280456" stroke-linecap="round" stroke-linejoin="round"/>
<path id="Vector_49" d="M43.4644 76.2334C42.5109 77.7282 40.7188 81.3461 42.0145 85.9372" stroke="black" stroke-width="0.280456" stroke-linecap="round" stroke-linejoin="round"/>
<path id="Vector_50" d="M61.7026 78.5949C60.7435 77.8461 59.0719 76.2643 58.4409 73.9309" stroke="black" stroke-width="0.280456" stroke-linecap="round" stroke-linejoin="round"/>
<path id="Vector_51" d="M55.0837 76.1716C55.2492 77.4645 55.8662 80.1373 58.1351 82.2715" stroke="black" stroke-width="0.280456" stroke-linecap="round" stroke-linejoin="round"/>
<path id="Vector_52" d="M52.5709 85.435C51.7688 84.2066 50.3974 81.3376 51.3537 77.0186" stroke="black" stroke-width="0.280456" stroke-linecap="round" stroke-linejoin="round"/>
<path id="Vector_53" d="M47.3066 77.0525C46.656 78.3959 45.1051 82.3896 47.2253 86.487" stroke="black" stroke-width="0.280456" stroke-linecap="round" stroke-linejoin="round"/>
</g>
<g id="Group_14">
<path id="Vector_54" d="M64.1847 74.1609C64.1847 72.7474 65.3318 71.6003 66.7452 71.6003C67.6231 71.6003 68.3242 72.0939 68.8571 72.7109C70.5959 74.7302 71.9421 76.1129 76.3621 76.8505C78.8581 77.2655 82.0161 77.1309 85.8948 75.8072C86.2734 75.6613 87.1484 75.3921 87.872 75.3921C90.598 75.3921 92.808 77.6021 92.808 80.3281C92.808 82.3334 91.6217 84.0722 89.8969 84.8266C88.4694 85.452 84.1419 87.1404 78.9002 86.2878C74.6485 85.5979 69.5274 83.0037 65.7216 77.4731C65.357 76.943 64.1819 75.4342 64.1819 74.1581L64.1847 74.1609Z" fill="#0089CA"/>
<path id="Vector_55" d="M89.8997 84.8267C88.4722 85.4521 84.1448 87.1404 78.903 86.2878C74.6513 85.5979 69.5302 83.0037 65.7244 77.4731C65.4356 77.0524 64.6447 76.0232 64.325 74.9827C66.5798 77.2684 72.5928 82.5774 80.6811 83.6544C85.9369 84.3527 90.0315 82.6055 92.7968 80.7124C92.6566 82.5522 91.5123 84.1199 89.8997 84.8267Z" fill="#004CA1"/>
<path id="Vector_56" d="M64.1847 74.1609C64.1847 72.7474 65.3318 71.6003 66.7453 71.6003C67.6231 71.6003 68.3242 72.0939 68.8571 72.7109C70.5959 74.7302 71.9421 76.1129 76.3621 76.8505C78.8581 77.2655 82.0161 77.1309 85.8948 75.8072C86.2734 75.6613 87.1484 75.3921 87.872 75.3921C90.598 75.3921 92.808 77.6021 92.808 80.3281C92.808 82.3334 91.6217 84.0722 89.8969 84.8266C88.4694 85.452 84.1419 87.1404 78.9002 86.2878C74.6485 85.5979 69.5274 83.0037 65.7216 77.4731C65.357 76.943 64.1819 75.4342 64.1819 74.1581L64.1847 74.1609Z" stroke="black" stroke-width="0.280456" stroke-linecap="round" stroke-linejoin="round"/>
<path id="Vector_57" d="M90.5588 84.4368C90.915 82.5549 91.1815 78.7379 88.5508 75.4846" stroke="black" stroke-width="0.280456" stroke-linecap="round" stroke-linejoin="round"/>
<path id="Vector_58" d="M84.9075 76.2334C85.861 77.7282 87.6531 81.3461 86.3574 85.9372" stroke="black" stroke-width="0.280456" stroke-linecap="round" stroke-linejoin="round"/>
<path id="Vector_59" d="M66.6694 78.5949C67.6286 77.8461 69.3001 76.2643 69.9311 73.9309" stroke="black" stroke-width="0.280456" stroke-linecap="round" stroke-linejoin="round"/>
<path id="Vector_60" d="M73.2855 76.1716C73.12 77.4645 72.503 80.1373 70.2341 82.2715" stroke="black" stroke-width="0.280456" stroke-linecap="round" stroke-linejoin="round"/>
<path id="Vector_61" d="M75.8013 85.435C76.6034 84.2066 77.9748 81.3376 77.0184 77.0186" stroke="black" stroke-width="0.280456" stroke-linecap="round" stroke-linejoin="round"/>
<path id="Vector_62" d="M81.0654 77.0525C81.7161 78.3959 83.267 82.3896 81.1468 86.487" stroke="black" stroke-width="0.280456" stroke-linecap="round" stroke-linejoin="round"/>
</g>
<g id="Group_15">
<path id="Vector_63" d="M61.7223 70.3916H66.6499C67.3202 70.3916 67.8615 69.8476 67.8615 69.1801C67.8615 68.5098 67.3174 67.9685 66.6499 67.9685H61.7223C61.052 67.9685 60.5107 68.5126 60.5107 69.1801C60.5107 69.8504 61.0548 70.3916 61.7223 70.3916Z" fill="#F3AECA" stroke="black" stroke-width="0.280456" stroke-linecap="round" stroke-linejoin="round"/>
<path id="Vector_64" d="M66.6667 69.5109C66.6667 70.8767 65.5617 71.9817 64.1959 71.9817C62.8301 71.9817 61.7251 70.8767 61.7251 69.5109C61.7251 66.5885 62.8301 59.8015 64.1959 59.8015C65.5617 59.8015 66.6667 66.6474 66.6667 69.5109Z" fill="#F3AECA" stroke="black" stroke-width="0.280456" stroke-linecap="round" stroke-linejoin="round"/>
<path id="Vector_65" d="M62.8301 70.3915C63.3209 70.3859 63.7696 70.442 64.2015 70.442C64.6418 70.4448 65.0877 70.3999 65.5785 70.4196C65.3766 70.571 65.1551 70.672 64.9195 70.7477C64.6895 70.8178 64.4455 70.8515 64.1987 70.8571C63.9519 70.8543 63.7079 70.8122 63.4779 70.7337C63.248 70.6551 63.0264 70.5514 62.8301 70.3915Z" fill="#1D1D1B"/>
</g>
<g id="Group_16">
<path id="Vector_66" d="M57.9085 60.0374C57.9085 60.8956 57.2186 61.5911 56.3688 61.5911C55.519 61.5911 54.8291 60.8956 54.8291 60.0374C54.8291 59.1792 55.519 58.4836 56.3688 58.4836C57.2186 58.4836 57.9085 59.1792 57.9085 60.0374Z" fill="#111111"/>
<path id="Vector_67" d="M58.371 62.211C57.8914 62.8056 57.1959 63.2571 56.4078 63.3889C56.0208 63.4506 55.6057 63.4871 55.2243 63.3637C55.028 63.3216 54.8513 63.2262 54.6746 63.1477C54.5007 63.0552 54.3408 62.9374 54.1894 62.8196C54.1838 62.814 54.181 62.8056 54.1894 62.7971C54.1922 62.7915 54.2006 62.7915 54.2062 62.7915C54.3997 62.8336 54.5764 62.8981 54.7559 62.9458C54.941 62.9766 55.1121 63.0467 55.2944 63.0608C55.3841 63.0776 55.4739 63.0972 55.5608 63.1084L55.8301 63.1365C55.9198 63.1533 56.0095 63.1505 56.1021 63.1533C56.1918 63.1533 56.2844 63.1589 56.3741 63.1421C56.7387 63.1113 57.0977 63.0047 57.4315 62.8364C57.768 62.6765 58.0821 62.4578 58.3486 62.1886C58.3486 62.1886 58.3654 62.1801 58.371 62.1886C58.3766 62.1942 58.3766 62.2026 58.371 62.2082V62.211Z" fill="#111111"/>
<path id="Vector_68" d="M58.3711 62.9625C58.2393 63.4309 57.9728 63.8824 57.5577 64.1797C57.3558 64.3311 57.1146 64.4545 56.8566 64.477C56.6014 64.5134 56.3434 64.4658 56.1134 64.376C56.1078 64.376 56.105 64.3676 56.1078 64.362C56.1078 64.3592 56.1134 64.3564 56.1162 64.3564C56.2424 64.3367 56.3602 64.3452 56.478 64.3283C56.5958 64.3087 56.7108 64.3059 56.823 64.2722C57.0473 64.2274 57.2661 64.1629 57.4652 64.0423C57.6643 63.9217 57.841 63.7618 57.9868 63.5739C58.1355 63.3888 58.2617 63.1785 58.3514 62.9569C58.3514 62.9513 58.3598 62.9485 58.3655 62.9513C58.3711 62.9513 58.3739 62.9597 58.3711 62.9653V62.9625Z" fill="#111111"/>
<g id="Group_17">
<path id="Vector_69" d="M49.9014 60.3123H50.8745" stroke="black" stroke-width="0.140228" stroke-linecap="round" stroke-linejoin="round"/>
<path id="Vector_70" d="M49.9014 59.4792H50.8745" stroke="black" stroke-width="0.140228" stroke-linecap="round" stroke-linejoin="round"/>
<path id="Vector_71" d="M49.6433 59.8831H50.8745" stroke="black" stroke-width="0.140228" stroke-linecap="round" stroke-linejoin="round"/>
</g>
</g>
<g id="Group_18">
<path id="Vector_72" d="M70.4639 60.0374C70.4639 60.8956 71.1538 61.5911 72.0036 61.5911C72.8533 61.5911 73.5433 60.8956 73.5433 60.0374C73.5433 59.1792 72.8533 58.4836 72.0036 58.4836C71.1538 58.4836 70.4639 59.1792 70.4639 60.0374Z" fill="#111111"/>
<path id="Vector_73" d="M70.0236 62.1912C70.29 62.4577 70.6041 62.6764 70.9407 62.8391C71.2744 63.0045 71.6334 63.1139 71.998 63.1448C72.0877 63.1588 72.1803 63.156 72.27 63.156C72.3598 63.156 72.4523 63.156 72.5421 63.1392L72.8113 63.1111C72.9011 63.0971 72.9908 63.0775 73.0778 63.0634C73.2601 63.0494 73.4311 62.9793 73.6162 62.9484C73.7957 62.9008 73.9724 62.8335 74.1659 62.7942C74.1659 62.7942 74.1827 62.797 74.1855 62.8054C74.1855 62.811 74.1856 62.8166 74.1799 62.8222C74.0285 62.94 73.8686 63.0578 73.6948 63.1504C73.5181 63.2317 73.3386 63.3271 73.1451 63.3663C72.7636 63.4897 72.3486 63.4533 71.9615 63.3916C71.1763 63.2598 70.4807 62.8082 69.9983 62.2137C69.9927 62.208 69.9927 62.1968 69.9983 62.1912C70.004 62.1856 70.0124 62.1856 70.018 62.1912H70.0236Z" fill="#111111"/>
<path id="Vector_74" d="M70.0209 62.9569C70.1106 63.1813 70.2368 63.3888 70.3854 63.5739C70.5313 63.7618 70.708 63.9217 70.9071 64.0423C71.1062 64.1629 71.3278 64.2274 71.5493 64.2722C71.6615 64.3059 71.7765 64.3087 71.8943 64.3283C72.0121 64.3424 72.1299 64.3367 72.2561 64.3564C72.2561 64.3564 72.2645 64.362 72.2645 64.3676C72.2645 64.3704 72.2617 64.3732 72.2589 64.376C72.0289 64.4629 71.7709 64.5106 71.5157 64.477C71.2577 64.4545 71.0165 64.3311 70.8145 64.1797C70.3995 63.8796 70.133 63.4309 70.0012 62.9625C70.0012 62.9569 70.0012 62.9513 70.0096 62.9485C70.0152 62.9485 70.0208 62.9485 70.0237 62.9541L70.0209 62.9569Z" fill="#111111"/>
<g id="Group_19">
<path id="Vector_75" d="M78.4682 60.3123H77.4978" stroke="black" stroke-width="0.140228" stroke-linecap="round" stroke-linejoin="round"/>
<path id="Vector_76" d="M78.4682 59.4792H77.4978" stroke="black" stroke-width="0.140228" stroke-linecap="round" stroke-linejoin="round"/>
<path id="Vector_77" d="M78.7262 59.8831H77.4978" stroke="black" stroke-width="0.140228" stroke-linecap="round" stroke-linejoin="round"/>
</g>
</g>
</g>
</g>
<g id="Group_20">
<g id="Group_21">
<path id="Vector_78" d="M70.5173 26.4496C70.1947 26.4132 69.8694 26.3823 69.5413 26.3571C69.0898 26.3178 68.6326 26.2841 68.1783 26.2561C66.9947 26.1832 65.8056 26.1467 64.6137 26.1439C64.5127 26.1411 64.4146 26.1411 64.3136 26.1411C64.2126 26.1411 64.1145 26.1411 64.0135 26.1439C62.8216 26.1467 61.6296 26.1832 60.4461 26.2561C59.9918 26.2841 59.5346 26.3178 59.0831 26.3571C58.755 26.3823 58.4296 26.4132 58.1071 26.4496C43.1841 27.9893 29.9521 35.7159 29.9521 58.0065C29.9521 59.5686 29.9746 61.0747 30.0195 62.5218C30.6869 84.5432 36.1082 93.3075 36.1082 93.3075C36.1082 93.3075 39.7933 95.6465 53.1262 96.5439C56.2869 96.7571 59.989 96.8889 64.3136 96.8889C68.6382 96.8889 72.329 96.7571 75.4869 96.5439C88.8282 95.6493 92.5162 93.3075 92.5162 93.3075C92.5162 93.3075 98.675 83.3541 98.675 58.0065C98.675 35.7159 85.4403 27.9865 70.5173 26.4496ZM94.3532 66.9306C94.3532 66.9306 94.3392 66.9446 94.3139 66.9699C94.3027 66.9839 94.2859 66.9979 94.2691 67.0147C94.2494 67.0344 94.227 67.054 94.2046 67.0792C94.1793 67.1045 94.1513 67.1297 94.1232 67.1606C94.1204 67.1578 94.1176 67.1606 94.1176 67.1634C94.0896 67.1942 94.0559 67.2223 94.0251 67.2559C93.9886 67.2924 93.9494 67.3288 93.9101 67.3709C93.868 67.4102 93.826 67.4551 93.7811 67.4999C93.7334 67.5448 93.6857 67.5953 93.6352 67.6458C93.495 67.7888 93.3352 67.9487 93.1557 68.131C93.1024 68.187 93.0463 68.2431 92.993 68.2992C92.8387 68.4619 92.6705 68.6358 92.491 68.8237C92.1881 69.1406 91.8571 69.4912 91.5066 69.8726C91.3299 70.0633 91.1476 70.2596 90.9625 70.4643C90.9513 70.4756 90.9401 70.4868 90.9316 70.498C90.6596 70.7981 90.3763 71.1122 90.0875 71.4375C89.7874 71.7769 89.4817 72.1275 89.1676 72.492C85.3029 76.9962 80.5716 83.3934 79.8845 88.4163L70.7697 90.7076L69.1486 88.7024H59.4757L57.8519 90.7076L48.7399 88.4163C48.0528 83.3962 43.3299 77.0046 39.4624 72.5033C39.4624 72.5005 39.4596 72.4976 39.4568 72.4948C36.6354 69.2107 34.2712 66.9334 34.2712 66.9334C31.7863 58.1495 34.2712 49.5592 34.2712 49.5592C34.2712 49.5592 35.407 48.8889 37.7348 48.0111C39.7681 47.2426 42.7045 46.3199 46.5888 45.543C47.7471 45.3131 48.9867 45.0971 50.316 44.898C52.2035 44.6175 54.2649 44.382 56.5001 44.2137C58.9008 44.0314 61.5034 43.9248 64.3108 43.9248C67.1181 43.9248 69.7236 44.0314 72.1243 44.2137C74.3595 44.382 76.4209 44.6203 78.3083 44.9008C79.6349 45.0971 80.8773 45.3159 82.0356 45.5458C85.9199 46.3199 88.8591 47.2426 90.8896 48.0111C91.1055 48.0924 91.3131 48.1709 91.5094 48.2494C92.7406 48.7402 93.5651 49.1441 93.997 49.3657C94.0812 49.4105 94.1513 49.4498 94.2074 49.4778C94.2494 49.5003 94.2803 49.5199 94.3027 49.5311C94.3111 49.5339 94.3167 49.5367 94.3195 49.5395C94.3336 49.548 94.342 49.5508 94.3476 49.5564H94.3504C94.3588 49.5844 94.4093 49.7639 94.485 50.0808C94.5103 50.1762 94.5355 50.2855 94.5635 50.4061C94.5776 50.4678 94.5916 50.5324 94.6056 50.6025C94.6505 50.8016 94.6982 51.0288 94.7486 51.2784C94.7655 51.3653 94.7823 51.4522 94.7991 51.542C94.8328 51.7215 94.8664 51.9094 94.9029 52.1085C94.9197 52.2095 94.9366 52.3132 94.9534 52.417C95.0039 52.7311 95.0543 53.0677 95.1048 53.4239C95.1217 53.5416 95.1385 53.665 95.1525 53.7884C95.1974 54.1558 95.2422 54.5457 95.2815 54.9495C95.5115 57.3671 95.5704 60.3876 95.074 63.5848C94.9057 64.6842 94.6673 65.806 94.3504 66.9306H94.3532Z" fill="#0A3899" stroke="black" stroke-width="0.280456" stroke-linecap="round" stroke-linejoin="round"/>
<path id="Vector_79" opacity="0.25" d="M89.1675 72.492C85.3028 76.9962 80.5715 83.3933 79.8844 88.4163L70.7696 90.7076L70.3208 90.1523L77.1499 88.4359C77.9745 88.2284 78.6251 87.5946 78.8439 86.7728C79.9994 82.4089 83.8669 77.2345 87.0809 73.4905C91.3186 66.8128 90.8446 57.684 89.3105 52.7704C88.974 51.6934 88.1354 50.8549 87.064 50.5015C85.3617 49.9378 83.1938 49.3348 80.5463 48.8075C79.4861 48.5972 78.3475 48.3953 77.1331 48.2158C75.4027 47.9578 73.5152 47.7418 71.4679 47.5876C69.2691 47.4193 66.8853 47.3211 64.3107 47.3211C61.7361 47.3211 59.355 47.4193 57.1562 47.5876C55.1089 47.7418 53.2215 47.955 51.491 48.213C50.2739 48.3953 49.138 48.5944 48.0779 48.8047C45.4304 49.332 43.2625 49.9378 41.5601 50.5015C40.4888 50.8577 39.6502 51.6962 39.3137 52.7704C37.7796 57.684 37.3056 66.8128 41.5433 73.4933C41.5461 73.4933 41.5489 73.4933 41.5489 73.4989C44.7629 77.2401 48.6248 82.4117 49.7803 86.7728C49.999 87.5946 50.6497 88.2284 51.4742 88.4359L58.3005 90.1523L57.8518 90.7076L48.7398 88.4163C48.0527 83.3961 43.3298 77.0046 39.4623 72.5032C34.2206 64.2494 35.5724 52.5628 37.7375 48.011C39.7708 47.2426 42.7072 46.3199 46.5915 45.543C47.7498 45.3131 48.9894 45.0971 50.3187 44.898C52.2062 44.6175 54.2676 44.3819 56.5028 44.2137C58.9035 44.0314 61.5061 43.9248 64.3135 43.9248C67.1208 43.9248 69.7263 44.0314 72.127 44.2137C74.3622 44.3819 76.4236 44.6203 78.311 44.9008C79.6376 45.0971 80.88 45.3159 82.0383 45.5458C85.9226 46.3199 88.8618 47.2426 90.8923 48.011C93.0574 52.5685 94.4064 64.2438 89.1703 72.492H89.1675Z" fill="black"/>
<path id="Vector_80" d="M59.4756 88.7024H59.5878L58.3931 90.1748L58.3005 90.1524L59.4756 88.7024Z" fill="#0D49CC" stroke="black" stroke-width="0.280456" stroke-linecap="round" stroke-linejoin="round"/>
<path id="Vector_81" d="M70.3209 90.1524L70.2283 90.1748L69.0364 88.7024H69.1486L70.3209 90.1524Z" fill="#0D49CC" stroke="black" stroke-width="0.280456" stroke-linecap="round" stroke-linejoin="round"/>
<path id="Vector_82" d="M39.4567 72.4948C36.6354 69.2106 34.2711 66.9333 34.2711 66.9333C31.7863 58.1495 34.2711 49.5591 34.2711 49.5591C34.2711 49.5591 35.407 48.8888 37.7348 48.011C35.5724 52.5628 34.2206 64.2438 39.4567 72.4948Z" fill="#072566" stroke="black" stroke-width="0.280456" stroke-linecap="round" stroke-linejoin="round"/>
</g>
<path id="Vector_83" d="M95.0767 63.5849C94.9084 64.6843 94.67 65.8061 94.3531 66.9308C94.3531 66.9308 94.3391 66.9448 94.3138 66.97C94.3026 66.9813 94.2858 66.9953 94.269 67.0149C94.2493 67.0317 94.2297 67.0514 94.2045 67.0794C94.1792 67.099 94.154 67.1271 94.1231 67.1607C94.1203 67.1579 94.1175 67.1607 94.1175 67.1636C94.0895 67.1888 94.0586 67.2196 94.025 67.2561C93.9885 67.287 93.9521 67.3262 93.91 67.3711C93.8707 67.4075 93.8259 67.4496 93.781 67.5001C93.7361 67.5422 93.6856 67.5898 93.6351 67.6459C93.4921 67.7862 93.3322 67.9488 93.1556 68.1311C93.1023 68.1872 93.0462 68.2433 92.9929 68.2994C92.833 68.4621 92.6676 68.6359 92.4909 68.8238C92.188 69.1408 91.857 69.4913 91.5065 69.8728C91.3298 70.0607 91.1475 70.2598 90.9624 70.4645C90.9512 70.4757 90.94 70.487 90.9315 70.4982C90.6595 70.7955 90.3762 71.1096 90.0874 71.4377C89.7873 71.7771 89.4816 72.1276 89.1675 72.4922C94.4036 64.244 93.0546 52.5686 90.8895 48.0112C91.1054 48.0898 91.313 48.1711 91.5093 48.2496C92.7405 48.7376 93.5678 49.1415 93.9969 49.3658C94.0839 49.4079 94.154 49.4472 94.2073 49.478C94.2493 49.4976 94.2802 49.5173 94.3026 49.5313C94.311 49.5341 94.3166 49.5369 94.3195 49.5397C94.3335 49.5481 94.3419 49.5509 94.3475 49.5565H94.3503C94.3587 49.5846 94.4092 49.7641 94.4849 50.081C94.5102 50.1764 94.5354 50.2857 94.5634 50.4063C94.5775 50.468 94.5915 50.5325 94.6055 50.6026C94.6504 50.8018 94.7009 51.0289 94.7485 51.2785C94.7654 51.3655 94.7822 51.4524 94.799 51.5422C94.8327 51.7217 94.8691 51.9096 94.9028 52.1087C94.9196 52.2097 94.9365 52.3134 94.9533 52.4172C95.0066 52.7313 95.057 53.0678 95.1047 53.424C95.1216 53.5418 95.1384 53.6652 95.1524 53.7886C95.2001 54.156 95.245 54.5458 95.2814 54.9497C95.5142 57.3672 95.5731 60.3877 95.0739 63.5849H95.0767Z" fill="#072566" stroke="black" stroke-width="0.280456" stroke-linecap="round" stroke-linejoin="round"/>
<g id="Vector_84">
<path d="M73.3274 28.7186C72.4692 27.1424 67.7435 24.9941 67.7435 24.9941H60.8864C60.8864 24.9941 56.1607 27.1424 55.3025 28.7186" fill="#0D49CC"/>
<path d="M73.3274 28.7186C72.4692 27.1424 67.7435 24.9941 67.7435 24.9941H60.8864C60.8864 24.9941 56.1607 27.1424 55.3025 28.7186" stroke="black" stroke-width="0.280456" stroke-linecap="round" stroke-linejoin="round"/>
</g>
<g id="Group_22">
<path id="Vector_85" d="M59.4786 25.6868C59.3468 25.9111 59.2122 26.1327 59.0832 26.3571C55.2465 32.8664 52.1587 38.9103 50.3161 44.898C48.9868 45.0971 47.7471 45.3131 46.5889 45.543C49.6318 38.4699 53.1235 32.844 57.9249 26.5506L58.1072 26.4496L59.4786 25.6868Z" fill="#FFCC00" stroke="black" stroke-width="0.280456" stroke-linecap="round" stroke-linejoin="round"/>
<path id="Vector_86" d="M82.0357 45.5458C80.8775 45.3159 79.635 45.0971 78.3085 44.9008C76.4659 38.9103 73.3781 32.8692 69.5414 26.3571C69.4124 26.1327 69.2778 25.9111 69.146 25.6868L70.5174 26.4496L70.6997 26.5506C75.5011 32.8468 78.9956 38.4699 82.0357 45.5458Z" fill="#FFCC00" stroke="black" stroke-width="0.280456" stroke-linecap="round" stroke-linejoin="round"/>
<path id="Vector_87" d="M72.1242 44.2138C69.7235 44.0315 67.1209 43.9249 64.3107 43.9249C61.5005 43.9249 58.9007 44.0315 56.5 44.2138C57.2067 38.0325 58.4968 32.0392 60.446 26.2562C60.589 25.8355 60.7349 25.4148 60.8835 24.9941H67.7407C67.8893 25.4148 68.0351 25.8355 68.1782 26.2562C70.1273 32.0392 71.4174 38.0325 72.1242 44.2138Z" fill="#FFCC00" stroke="black" stroke-width="0.280456" stroke-linecap="round" stroke-linejoin="round"/>
</g>
<path id="Vector_88" d="M75.487 96.5439C72.329 96.7571 68.6326 96.8889 64.3136 96.8889C59.9946 96.8889 56.287 96.7571 53.1262 96.5439L57.8519 90.7076L59.4757 88.7024H69.1487L70.7697 90.7076L75.487 96.5439Z" fill="#FFCC00" stroke="black" stroke-width="0.280456" stroke-linecap="round" stroke-linejoin="round"/>
</g>
<g id="Group_23">
<path id="Vector_89" opacity="0.5" d="M99.2276 61.8406C99.194 62.0734 99.0706 62.2781 98.8967 62.424C98.72 62.5698 98.49 62.6568 98.2432 62.6568C97.629 62.6568 97.1719 62.1379 97.2644 61.563C99.3118 48.8107 87.7121 38.7928 80.2492 38.7928C72.7863 38.7928 78.6842 41.0392 65.6487 41.1795C65.2224 41.1851 64.782 41.1879 64.3165 41.1879C62.2551 41.1879 60.6117 41.143 59.2823 41.0617C56.862 40.9158 55.499 40.6578 54.6043 40.3689C52.4756 39.6734 53.0366 38.7928 48.3838 38.7928C45.181 38.7928 41.2182 40.6382 37.8976 43.754C33.4804 47.8964 30.199 54.2852 31.3686 61.563C31.377 61.6107 31.3798 61.6611 31.3798 61.7088C31.3798 62.2192 30.9479 62.6568 30.3898 62.6568C29.8905 62.6568 29.4699 62.3062 29.4054 61.8406C28.7295 57.171 26.2951 33.6857 43.8404 23.4687C48.3698 20.8296 54.2313 19.0739 61.8008 18.757C62.6197 18.7206 63.4583 18.7065 64.3193 18.7065C64.8606 18.7065 65.3962 18.715 65.9207 18.729C68.212 18.7879 70.3491 18.9786 72.3459 19.2815C103.339 23.9875 100.038 56.282 99.2332 61.8434L99.2276 61.8406Z" fill="#00FFFF" stroke="black" stroke-width="0.280456" stroke-linecap="round" stroke-linejoin="round"/>
<path id="Vector_90" opacity="0.6" d="M61.7979 18.7542C58.6596 25.4879 56.3206 32.7293 54.6042 40.3661C52.4755 39.6705 53.0365 38.7899 48.3837 38.7899C45.1809 38.7899 41.2181 40.6353 37.8975 43.7512C39.2829 36.4649 41.176 29.605 43.8403 23.4658C48.3697 20.8267 54.2312 19.0711 61.8007 18.7542H61.7979Z" fill="white"/>
<path id="Vector_91" opacity="0.6" d="M72.3402 19.2787C69.3927 26.1246 67.2191 33.4613 65.6486 41.1823C65.2223 41.1879 64.782 41.1907 64.3164 41.1907C62.2551 41.1907 60.6116 41.1458 59.2822 41.0645C60.7686 32.979 62.8664 25.4067 65.9178 18.729C68.2091 18.7879 70.3462 18.9786 72.3431 19.2815L72.3402 19.2787Z" fill="white"/>
<path id="Vector_92" d="M99.2276 61.8406C99.194 62.0734 99.0706 62.2781 98.8967 62.424C98.72 62.5698 98.49 62.6568 98.2432 62.6568C97.629 62.6568 97.1719 62.1379 97.2644 61.563C99.3118 48.8107 87.7121 38.7928 80.2492 38.7928C72.7863 38.7928 78.6842 41.0392 65.6487 41.1795C65.2224 41.1851 64.782 41.1879 64.3165 41.1879C62.2551 41.1879 60.6117 41.143 59.2823 41.0617C56.862 40.9158 55.499 40.6578 54.6043 40.3689C52.4756 39.6734 53.0366 38.7928 48.3838 38.7928C45.181 38.7928 41.2182 40.6382 37.8976 43.754C33.4804 47.8964 30.199 54.2852 31.3686 61.563C31.377 61.6107 31.3798 61.6611 31.3798 61.7088C31.3798 62.2193 30.9479 62.6568 30.3898 62.6568C29.8905 62.6568 29.4699 62.3062 29.4054 61.8406C28.7295 57.171 26.2951 33.6857 43.8404 23.4687C48.3698 20.8296 54.2313 19.0739 61.8008 18.757C62.6197 18.7206 63.4583 18.7065 64.3193 18.7065C64.8606 18.7065 65.3962 18.715 65.9207 18.729C68.212 18.7879 70.3491 18.9786 72.3459 19.2815C103.339 23.9875 100.038 56.282 99.2332 61.8434L99.2276 61.8406Z" stroke="black" stroke-width="0.280456" stroke-linecap="round" stroke-linejoin="round"/>
</g>
<path id="Vector_93" opacity="0.25" d="M92.5168 93.3076C92.5168 93.3076 88.8288 95.6494 75.4875 96.5441C72.3296 96.7572 68.6332 96.889 64.3141 96.889C59.9951 96.889 56.2875 96.7572 53.1268 96.5441C39.7939 95.6466 36.1087 93.3076 36.1087 93.3076C36.1087 93.3076 30.6875 84.5434 30.02 62.522L30.3874 62.6594C33.9744 87.1123 42.0628 103.37 92.5168 93.3076Z" fill="black"/>
</g>
</g>
</svg>
