<svg width="128" height="128" viewBox="0 0 128 128" fill="none" xmlns="http://www.w3.org/2000/svg">
<g clip-path="url(#clip0_3173_310803)">
<path d="M130.477 -2.47632H-2.47632V130.477H130.477V-2.47632Z" fill="#00B2FF"/>
<path d="M83.4272 97.6155H44.8029C41.7796 97.6155 39.3284 100.067 39.3284 103.09V103.55C39.3284 105.087 39.9622 106.475 40.9803 107.468C43.3641 109.79 45.0973 112.698 45.7676 115.96L48.547 147.349H79.8458L82.7317 116.527C83.2758 113.108 84.7959 109.877 87.2639 107.454C88.2735 106.461 88.9017 105.078 88.9017 103.55V103.09C88.9017 100.067 86.4505 97.6155 83.4272 97.6155Z" fill="#F8E5E9" stroke="black" stroke-width="0.280456" stroke-linecap="round" stroke-linejoin="round"/>
<path fill-rule="evenodd" clip-rule="evenodd" d="M53.6962 114.967C54.0075 114.967 54.2627 115.203 54.2627 115.495C54.2627 115.786 54.0103 116.022 53.6962 116.022C53.3821 116.022 53.1296 115.786 53.1296 115.495C53.1296 115.203 53.3821 114.967 53.6962 114.967Z" fill="#F2BCCF" stroke="#F2BCCF" stroke-width="0.280456" stroke-linecap="round" stroke-linejoin="round"/>
<path fill-rule="evenodd" clip-rule="evenodd" d="M74.9435 114.967C75.2548 114.967 75.51 115.203 75.51 115.495C75.51 115.786 75.2576 116.022 74.9435 116.022C74.6294 116.022 74.377 115.786 74.377 115.495C74.377 115.203 74.6294 114.967 74.9435 114.967Z" fill="#F2BCCF" stroke="#F2BCCF" stroke-width="0.280456" stroke-linecap="round" stroke-linejoin="round"/>
<path d="M89.0898 104.874C89.0898 101.099 87.4295 98.1848 83.9042 97.6687C77.6612 96.7516 63.7058 95.3494 63.7058 95.3494C63.7058 95.3494 51.2984 96.7516 44.6151 97.6603C40.4251 98.2296 39.1519 100.989 39.1519 104.874C39.1519 105.636 39.2696 106.371 39.4912 107.064L39.508 107.112C39.5445 107.224 39.5838 107.336 39.6258 107.448L43.3475 118.793C46.7578 128.46 43.7345 144.283 43.7345 154.534V154.624L49.4979 156.2C58.7108 158.864 68.4819 158.934 77.7342 156.407L84.5829 154.626V154.413C84.5829 144.241 81.5315 128.496 84.8914 118.896L88.6242 107.426C88.6607 107.328 88.6972 107.227 88.728 107.126L88.7476 107.067C88.9664 106.377 89.087 105.639 89.087 104.876L89.0898 104.874Z" fill="#008ACB" stroke="black" stroke-width="0.280456" stroke-linecap="round" stroke-linejoin="round"/>
<path d="M66.6476 91.625H60.716C58.896 91.625 57.4207 93.1004 57.4207 94.9204V95.0606C57.4207 96.8806 58.896 98.3559 60.716 98.3559H66.6476C68.4676 98.3559 69.943 96.8806 69.943 95.0606V94.9204C69.943 93.1004 68.4676 91.625 66.6476 91.625Z" fill="#F8E5E9" stroke="black" stroke-width="0.280456" stroke-linecap="round" stroke-linejoin="round"/>
<path fill-rule="evenodd" clip-rule="evenodd" d="M69.8224 95.9833C69.9654 96.1768 70.044 96.3787 70.044 96.5863C70.044 97.8595 67.1889 98.8916 63.6692 98.8916C60.1495 98.8916 57.2944 97.8595 57.2944 96.5863C57.2944 96.3759 57.373 96.174 57.516 95.9805C58.2508 96.9621 60.7272 97.6828 63.6692 97.6828C66.6112 97.6828 69.0876 96.9621 69.8224 95.9833Z" fill="#00408B" stroke="black" stroke-width="0.280456" stroke-linecap="round" stroke-linejoin="round"/>
<path opacity="0.25" d="M57.7178 96.2048C57.2915 104.116 56.3184 114.561 56.711 118.622C56.7951 119.485 57.5552 120.119 58.4218 120.049L68.3219 119.23C69.1127 119.166 69.7325 118.529 69.7746 117.735C70.0214 113.147 69.6961 96.129 69.6961 96.129L70.9161 96.6367L73.9001 132.616L52.9529 132.182C52.9529 132.182 54.7506 97.4219 56.3352 95.8121C57.9198 94.2023 57.7206 96.2076 57.7206 96.2076L57.7178 96.2048Z" fill="black"/>
<path d="M70.0441 95.5234C71.4576 102.086 73.1263 150.319 72.0129 158.245C72.0129 158.245 83.2311 157.221 85.0793 155.073C85.0793 155.073 85.5813 138.733 85.0793 132.661C84.5773 126.59 86.3834 115.262 85.9824 110.536C85.5813 105.811 82.6674 97.7166 82.6674 97.7166L70.0413 95.5234H70.0441Z" fill="#4CD34F" stroke="black" stroke-width="0.280456" stroke-linecap="round" stroke-linejoin="round"/>
<path d="M72.7475 97.3238C72.7475 97.3238 75.0669 97.45 76.0765 96.7236C76.6543 96.3085 77.4115 96.6367 77.4115 96.6367C77.2685 96.1683 77.0778 95.3101 76.8702 95.125C75.883 95.125 74.8313 95.125 69.9458 95.125C69.9738 95.6635 69.699 96.129 69.699 96.129L70.2795 96.3141L70.445 97.2509L71.3368 97.2228" fill="#4CD34F"/>
<path d="M72.7475 97.3238C72.7475 97.3238 75.0669 97.45 76.0765 96.7236C76.6543 96.3085 77.4115 96.6367 77.4115 96.6367C77.2685 96.1683 77.0778 95.3101 76.8702 95.125C75.883 95.125 74.8313 95.125 69.9458 95.125C69.9738 95.6635 69.699 96.129 69.699 96.129L70.2795 96.3141L70.445 97.2509L71.3368 97.2228" stroke="black" stroke-width="0.280456" stroke-linecap="round" stroke-linejoin="round"/>
<path d="M70.2766 96.317L72.4249 96.2048" stroke="black" stroke-width="0.280456" stroke-linecap="round" stroke-linejoin="round"/>
<path d="M74.0237 111.105H74.0181C73.8246 111.103 73.6703 110.943 73.6731 110.749C73.7208 107.524 73.202 104.694 72.6972 101.957C72.3887 100.28 72.097 98.6953 71.9259 97.0238C71.9063 96.8302 72.0465 96.6592 72.24 96.6395C72.4335 96.6171 72.6046 96.7601 72.6242 96.9536C72.7925 98.5971 73.0814 100.168 73.3871 101.831C73.8975 104.602 74.422 107.465 74.3743 110.758C74.3715 110.951 74.2144 111.103 74.0237 111.103V111.105Z" fill="#00408B" stroke="black" stroke-width="0.280456" stroke-linecap="round" stroke-linejoin="round"/>
<path d="M57.1402 96.3171C55.7267 102.88 54.058 150.319 55.1714 158.247C55.1714 158.247 43.9532 157.224 42.105 155.075C42.105 155.075 41.603 138.736 42.105 132.664C42.607 126.592 40.8009 115.265 41.2019 110.539C41.603 105.813 44.6375 97.439 44.6375 97.439L57.1402 96.3199V96.3171Z" fill="#4CD34F" stroke="black" stroke-width="0.280456" stroke-linecap="round" stroke-linejoin="round"/>
<path d="M54.6693 97.3238C54.6693 97.3238 52.3499 97.45 51.3403 96.7236C50.7626 96.3085 50.9477 95.355 50.9477 95.355H57.5047C57.4234 95.7476 57.7207 96.2076 57.7207 96.2076L57.1429 96.3169L56.9775 97.2537L56.0856 97.2256" fill="#4CD34F"/>
<path d="M54.6693 97.3238C54.6693 97.3238 52.3499 97.45 51.3403 96.7236C50.7626 96.3085 50.9477 95.355 50.9477 95.355H57.5047C57.4234 95.7476 57.7207 96.2076 57.7207 96.2076L57.1429 96.3169L56.9775 97.2537L56.0856 97.2256" stroke="black" stroke-width="0.280456" stroke-linecap="round" stroke-linejoin="round"/>
<path d="M57.1402 96.317L55.0957 96.0955" stroke="black" stroke-width="0.280456" stroke-linecap="round" stroke-linejoin="round"/>
<path d="M53.1351 111.198H53.1407C53.3342 111.195 53.4885 111.035 53.4857 110.842C53.438 107.617 53.9568 104.787 54.4616 102.049C54.7701 100.372 55.0618 98.7878 55.2329 97.1163C55.2525 96.9228 55.1123 96.7517 54.9188 96.7321C54.7253 96.7096 54.5542 96.8526 54.5346 97.0462C54.3663 98.6896 54.0774 100.26 53.7717 101.923C53.2613 104.694 52.7368 107.558 52.7845 110.85C52.7873 111.044 52.9444 111.195 53.1351 111.195V111.198Z" fill="#00408B" stroke="black" stroke-width="0.280456" stroke-linecap="round" stroke-linejoin="round"/>
<path d="M58.0629 113.201C58.5172 115.565 58.3237 115.801 58.3237 115.801C58.3237 115.801 56.8849 115.815 55.6005 114.533C54.316 113.248 58.0629 113.201 58.0629 113.201Z" fill="#4CD34F" stroke="black" stroke-width="0.280456" stroke-linecap="round" stroke-linejoin="round"/>
<path d="M40.0211 100.673C39.9875 100.743 39.9622 100.813 39.9314 100.883L39.9061 100.872L29.0974 125.973C28.0456 128.104 28.9207 130.684 31.0521 131.736C33.1836 132.788 35.7638 131.913 36.8155 129.781L49.9689 106.234C50.0726 106.071 50.168 105.9 50.2549 105.721C51.6488 102.897 50.4905 99.4751 47.6635 98.0784C44.8393 96.6845 41.4178 97.8428 40.0211 100.67V100.673Z" stroke="black" stroke-width="0.280456" stroke-linecap="round" stroke-linejoin="round"/>
<path d="M51.8312 119.836C51.8312 119.836 57.6506 116.041 58.722 113.767C60.2252 113.851 63.8122 112.163 64.5274 110.228C65.3996 107.877 63.0242 109.585 61.9584 108.318C60.7272 106.851 58.1695 105.401 57.2384 105.847C56.4671 107 55.1798 109.728 53.957 111.621C52.0976 114.513 51.8284 119.833 51.8284 119.833L51.8312 119.836Z" fill="#F8E5E9"/>
<path d="M51.8312 119.836C51.8312 119.836 57.6506 116.041 58.722 113.767C60.2252 113.851 63.8122 112.163 64.5274 110.228C65.3996 107.877 63.0242 109.585 61.9584 108.318C60.7272 106.851 58.1695 105.401 57.2384 105.847C56.4671 107 55.1798 109.728 53.957 111.621C52.0976 114.513 51.8284 119.833 51.8284 119.833L51.8312 119.836Z" fill="#FBE3E9" stroke="black" stroke-width="0.280456" stroke-linecap="round" stroke-linejoin="round"/>
<path d="M40.0211 100.673C39.9875 100.743 39.9622 100.813 39.9314 100.883L39.9061 100.872L29.0974 125.973C28.0456 128.104 28.9207 130.684 31.0521 131.736C33.1836 132.788 35.7638 131.913 36.8155 129.781L49.9689 106.234C50.0726 106.071 50.168 105.9 50.2549 105.721C51.6488 102.897 50.4905 99.4751 47.6635 98.0784C44.8393 96.6845 41.4178 97.8428 40.0211 100.67V100.673Z" fill="#4CD34F" stroke="black" stroke-width="0.280456" stroke-linecap="round" stroke-linejoin="round"/>
<path d="M44.4075 97.5539L50.6925 97.0884L52.3332 114.157L45.0048 114.608L44.4075 97.5539Z" fill="#4CD34F"/>
<path d="M33.5706 122.326L54.414 109.978C54.2514 112.583 54.9974 115.497 58.3236 115.8L35.817 131.127C35.6964 131.22 35.5702 131.304 35.4384 131.385" fill="#4CD34F"/>
<path d="M33.5706 122.326L54.414 109.978C54.2514 112.583 54.9974 115.497 58.3236 115.8L35.817 131.127C35.6964 131.22 35.5702 131.304 35.4384 131.385" stroke="black" stroke-width="0.280456" stroke-linecap="round" stroke-linejoin="round"/>
<path opacity="0.25" d="M64 111.114C60.2812 111.005 51.0458 113.773 47.0605 122.674L43.552 124.281L48.6114 114.608L60.9851 109.072L64.4684 110.149L64.0028 111.117L64 111.114Z" fill="black"/>
<path d="M89.014 101.996C89.0336 102.072 89.0421 102.148 89.0561 102.221L89.0841 102.215L94.1435 129.071C94.7044 131.38 93.2853 133.707 90.9772 134.268C88.669 134.829 86.3413 133.41 85.7803 131.102L78.0931 105.25C78.0286 105.067 77.9725 104.879 77.9248 104.689C77.1816 101.626 79.0606 98.541 82.1232 97.7978C85.1858 97.0546 88.2708 98.9337 89.014 101.996Z" stroke="black" stroke-width="0.280456" stroke-linecap="round" stroke-linejoin="round"/>
<path d="M94.2585 129.86C94.2669 130.014 94.2669 130.168 94.2585 130.317L94.2249 157.423C94.3062 158.971 93.1199 160.289 91.5746 160.373C90.0264 160.455 88.7083 159.268 88.6242 157.723L85.7158 130.774C85.6906 130.625 85.6738 130.474 85.6654 130.32C85.5392 127.947 87.3593 125.919 89.7348 125.793C92.1074 125.667 94.1351 127.487 94.2613 129.862L94.2585 129.86Z" fill="#F8E5E9" stroke="black" stroke-width="0.280456" stroke-linecap="round" stroke-linejoin="round"/>
<path d="M89.014 101.996C89.0336 102.072 89.0421 102.148 89.0561 102.221L89.0841 102.215L94.1435 129.071C94.7044 131.38 93.2853 133.707 90.9772 134.268C88.669 134.829 86.3413 133.41 85.7803 131.102L78.0931 105.25C78.0286 105.067 77.9725 104.879 77.9248 104.689C77.1816 101.626 79.0606 98.541 82.1232 97.7978C85.1858 97.0546 88.2708 98.9337 89.014 101.996Z" fill="#4CD34F" stroke="black" stroke-width="0.280456" stroke-linecap="round" stroke-linejoin="round"/>
<path d="M83.3517 97.7166L77.0218 96.9622L74.3743 118.571L83.447 118.35L83.907 98.356C83.9154 98.0307 83.6742 97.753 83.3517 97.7166Z" fill="#4CD34F"/>
<path d="M77.8238 37.699H50.3447C41.2479 37.699 33.8735 45.0734 33.8735 54.1701V78.6539C33.8735 87.7507 41.2479 95.1251 50.3447 95.1251H77.8238C86.9205 95.1251 94.2949 87.7507 94.2949 78.6539V54.1701C94.2949 45.0734 86.9205 37.699 77.8238 37.699Z" fill="#008ACB" stroke="black" stroke-width="0.280456" stroke-linecap="round" stroke-linejoin="round"/>
<path d="M35.3208 48.7575L93.1087 32.7603C95.8459 32.7603 98.0615 34.9787 98.0615 37.7131V69.2055C98.0615 71.9427 95.8431 74.1583 93.1087 74.1583H35.3208C32.5835 74.1583 30.3679 71.9399 30.3679 69.2055V53.7103C30.3679 50.973 32.5863 48.7575 35.3208 48.7575Z" fill="#008ACB" stroke="black" stroke-width="0.280456" stroke-linecap="round" stroke-linejoin="round"/>
<path d="M30.3679 61.0217V56.8906C30.3679 55.8024 29.4873 54.9218 28.3991 54.9218H25.8554C23.8585 54.9218 22.2375 53.3035 22.2375 51.3039C22.2375 49.307 23.8557 47.686 25.8554 47.686H30.6427C31.7309 47.686 32.6115 46.8054 32.6115 45.7172C32.6115 44.629 31.7309 43.7484 30.6427 43.7484H21.9178C20.1453 43.7484 18.7065 42.3097 18.7065 40.5372C18.7065 38.7647 20.1453 37.326 21.9178 37.326H30.7044C31.0522 37.326 31.3327 37.0455 31.3327 36.6978C31.3327 36.35 31.0522 36.0695 30.7044 36.0695H27.698C25.2187 36.0695 23.2135 34.0362 23.2611 31.5486C23.306 29.1058 25.401 27.1931 27.8466 27.1931H86.0103C91.0417 27.1931 95.1195 31.2709 95.1195 36.3023V37.0119" fill="#008ACB"/>
<path d="M30.3679 61.0217V56.8906C30.3679 55.8024 29.4873 54.9218 28.3991 54.9218H25.8554C23.8585 54.9218 22.2375 53.3035 22.2375 51.3039C22.2375 49.307 23.8557 47.686 25.8554 47.686H30.6427C31.7309 47.686 32.6115 46.8054 32.6115 45.7172C32.6115 44.629 31.7309 43.7484 30.6427 43.7484H21.9178C20.1453 43.7484 18.7065 42.3097 18.7065 40.5372C18.7065 38.7647 20.1453 37.326 21.9178 37.326H30.7044C31.0522 37.326 31.3327 37.0455 31.3327 36.6978C31.3327 36.35 31.0522 36.0695 30.7044 36.0695H27.698C25.2187 36.0695 23.2135 34.0362 23.2611 31.5486C23.306 29.1058 25.401 27.1931 27.8466 27.1931H86.0103C91.0417 27.1931 95.1195 31.2709 95.1195 36.3023V37.0119" stroke="black" stroke-width="0.280456" stroke-linecap="round" stroke-linejoin="round"/>
<path d="M47.7815 35.3489H63.6272" stroke="black" stroke-width="0.280456" stroke-linecap="round" stroke-linejoin="round"/>
<path d="M37.2476 32.7603H75.7317" stroke="black" stroke-width="0.280456" stroke-linecap="round" stroke-linejoin="round"/>
<path d="M37.9739 29.8267H73.4347" stroke="black" stroke-width="0.280456" stroke-linecap="round" stroke-linejoin="round"/>
<g style="mix-blend-mode:multiply">
<path d="M93.1061 72.9157H35.321C32.5838 72.9157 30.3682 70.6973 30.3682 67.9629V69.2053C30.3682 71.9426 32.5866 74.1582 35.321 74.1582H93.1089C95.8462 74.1582 98.0618 71.9398 98.0618 69.2053V67.9629C98.0618 70.7001 95.8434 72.9157 93.1089 72.9157H93.1061Z" fill="#008ACB"/>
</g>
<path d="M38.2318 71.3003C39.0788 73.1204 38.8348 74.318 36.1733 76.4999C33.5118 78.6791 29.5854 78.2892 27.4062 75.6277C25.2271 72.9662 25.6169 69.0398 28.2785 66.8607C30.94 64.6815 36.8576 68.3527 38.2318 71.3031V71.3003Z" fill="#F8E5E9" stroke="black" stroke-width="0.280456" stroke-linecap="round" stroke-linejoin="round"/>
<g style="mix-blend-mode:multiply">
<path d="M28.6908 68.1032C31.3439 65.9297 37.2279 69.57 38.6301 72.5148C38.5713 72.1306 38.4338 71.7351 38.2319 71.3004C36.8577 68.35 30.94 64.6788 28.2785 66.858C26.0461 68.6866 25.4179 71.7407 26.5593 74.2508C26.0769 72.0352 26.8202 69.6373 28.6936 68.1004L28.6908 68.1032Z" fill="#F8E5E9"/>
</g>
<g style="mix-blend-mode:multiply">
<path d="M32.8245 72.5456C32.8245 72.5456 28.4775 69.9262 29.891 75.0753C29.891 75.0753 27.0499 71.407 30.8108 68.2771C30.8108 68.2771 29.7339 69.8477 31.3577 70.6469C34.0024 71.9511 32.8245 72.5456 32.8245 72.5456Z" fill="#F8E5E9"/>
</g>
<path d="M29.8377 74.9829C27.1398 71.006 30.8081 68.3501 30.8081 68.3501" stroke="black" stroke-width="0.280456" stroke-linecap="round" stroke-linejoin="round"/>
<path d="M32.7545 72.397C32.7545 72.397 31.6271 70.1141 28.9768 71.062" stroke="black" stroke-width="0.280456" stroke-linecap="round" stroke-linejoin="round"/>
<path d="M89.8611 71.3003C89.0141 73.1204 89.2581 74.318 91.9196 76.4999C94.5811 78.6791 98.5075 78.2892 100.687 75.6277C102.866 72.9662 102.476 69.0398 99.8145 66.8607C97.1529 64.6815 91.2353 68.3527 89.8611 71.3031V71.3003Z" fill="#F8E5E9" stroke="black" stroke-width="0.280456" stroke-linecap="round" stroke-linejoin="round"/>
<g style="mix-blend-mode:multiply">
<path d="M99.3993 68.1032C96.7462 65.9297 90.8622 69.57 89.46 72.5148C89.5217 72.1306 89.6563 71.7351 89.8582 71.3004C91.2324 68.35 97.1501 64.6788 99.8116 66.858C102.044 68.6866 102.672 71.7407 101.531 74.2508C102.013 72.0352 101.27 69.6373 99.3965 68.1004L99.3993 68.1032Z" fill="#F8E5E9"/>
</g>
<g style="mix-blend-mode:multiply">
<path d="M95.2683 72.5456C95.2683 72.5456 99.6153 69.9262 98.2018 75.0753C98.2018 75.0753 101.043 71.407 97.2819 68.2771C97.2819 68.2771 98.3589 69.8477 96.7351 70.6469C94.0904 71.9511 95.2683 72.5456 95.2683 72.5456Z" fill="#F8E5E9"/>
</g>
<path d="M98.2524 74.9829C100.95 71.006 97.282 68.3501 97.282 68.3501" stroke="black" stroke-width="0.280456" stroke-linecap="round" stroke-linejoin="round"/>
<path d="M95.3357 72.397C95.3357 72.397 96.4631 70.1141 99.1134 71.062" stroke="black" stroke-width="0.280456" stroke-linecap="round" stroke-linejoin="round"/>
<path d="M77.8238 37.699H50.3447C41.2479 37.699 33.8735 45.0734 33.8735 54.1701V78.6539C33.8735 87.7507 41.2479 95.1251 50.3447 95.1251H77.8238C86.9205 95.1251 94.2949 87.7507 94.2949 78.6539V54.1701C94.2949 45.0734 86.9205 37.699 77.8238 37.699Z" fill="#F2CED6" stroke="black" stroke-width="0.280456" stroke-linecap="round" stroke-linejoin="round"/>
<path d="M76.7412 39.5359H49.4276C40.8373 39.5359 33.8735 46.4997 33.8735 55.09V76.9627C33.8735 85.553 40.8373 92.5168 49.4276 92.5168H76.7412C85.3315 92.5168 92.2953 85.553 92.2953 76.9627V55.09C92.2953 46.4997 85.3315 39.5359 76.7412 39.5359Z" fill="#F8E5E9"/>
<path d="M77.8238 37.699H50.3447C41.2479 37.699 33.8735 45.0734 33.8735 54.1701V78.6539C33.8735 87.7507 41.2479 95.1251 50.3447 95.1251H77.8238C86.9205 95.1251 94.2949 87.7507 94.2949 78.6539V54.1701C94.2949 45.0734 86.9205 37.699 77.8238 37.699Z" stroke="black" stroke-width="0.280456" stroke-linecap="round" stroke-linejoin="round"/>
<path d="M94.811 38.8124C94.811 45.8911 89.0729 51.6292 81.9942 51.6292C76.3318 51.6292 71.7407 47.0382 71.7407 41.3757V38.3721" fill="#F2CED6"/>
<path d="M70.9218 54.0019L77.0049 54.2992C78.2894 54.3609 79.3832 53.3709 79.4449 52.0864C79.4982 51.0067 78.7998 50.0307 77.7593 49.7334L71.7436 48.0114C70.2992 47.5991 68.8465 48.6368 68.7735 50.1372L68.7034 51.5648C68.6417 52.8493 69.6317 53.943 70.9162 54.0047L70.9218 54.0019Z" fill="#008ACB" stroke="black" stroke-width="0.280456" stroke-linecap="round" stroke-linejoin="round"/>
<path d="M70.9217 54.0019L77.0048 54.2992C78.2276 54.3581 79.2737 53.4634 79.4279 52.2715C79.0297 52.8829 78.7184 53.2026 73.687 53.2026C70.1308 53.2026 69.2025 51.3852 68.765 50.3616L68.7061 51.5619C68.6444 52.8464 69.6344 53.9402 70.9189 54.0019H70.9217Z" fill="#004CA2"/>
<path d="M70.9218 54.0019L77.0049 54.2992C78.2894 54.3609 79.3832 53.3709 79.4449 52.0864C79.4982 51.0067 78.7998 50.0307 77.7593 49.7334L71.7436 48.0114C70.2992 47.5991 68.8465 48.6368 68.7735 50.1372L68.7034 51.5648C68.6417 52.8493 69.6317 53.943 70.9162 54.0047L70.9218 54.0019Z" stroke="black" stroke-width="0.280456" stroke-linecap="round" stroke-linejoin="round"/>
<path d="M71.5303 54.03C70.9161 52.0696 71.3144 49.9326 72.5596 48.3284" stroke="black" stroke-width="0.280456" stroke-linecap="round" stroke-linejoin="round"/>
<path d="M73.8919 54.145C73.4264 52.3669 73.7741 50.471 74.8174 48.979" stroke="black" stroke-width="0.280456" stroke-linecap="round" stroke-linejoin="round"/>
<path d="M76.3486 54.2993C76.0233 52.6922 76.3486 51.0179 77.2293 49.6521" stroke="black" stroke-width="0.280456" stroke-linecap="round" stroke-linejoin="round"/>
<path d="M57.2525 54.0019L51.1694 54.2992C49.8849 54.3609 48.7911 53.3709 48.7294 52.0864C48.6761 51.0067 49.3745 50.0307 50.415 49.7334L56.4307 48.0114C57.8751 47.5991 59.3278 48.6368 59.4008 50.1372L59.4709 51.5648C59.5326 52.8493 58.5426 53.943 57.2581 54.0047L57.2525 54.0019Z" fill="#008ACB" stroke="black" stroke-width="0.280456" stroke-linecap="round" stroke-linejoin="round"/>
<path d="M57.2526 54.0019L51.1695 54.2992C49.9467 54.3581 48.9006 53.4634 48.7463 52.2715C49.1446 52.8829 49.4559 53.2026 54.4873 53.2026C58.0434 53.2026 58.9718 51.3852 59.4093 50.3616L59.4682 51.5619C59.5299 52.8464 58.5399 53.9402 57.2554 54.0019H57.2526Z" fill="#004CA2"/>
<path d="M57.2525 54.0019L51.1694 54.2992C49.8849 54.3609 48.7911 53.3709 48.7294 52.0864C48.6761 51.0067 49.3745 50.0307 50.415 49.7334L56.4307 48.0114C57.8751 47.5991 59.3278 48.6368 59.4008 50.1372L59.4709 51.5648C59.5326 52.8493 58.5426 53.943 57.2581 54.0047L57.2525 54.0019Z" stroke="black" stroke-width="0.280456" stroke-linecap="round" stroke-linejoin="round"/>
<path d="M56.6438 54.03C57.258 52.0696 56.8597 49.9326 55.6145 48.3284" stroke="black" stroke-width="0.280456" stroke-linecap="round" stroke-linejoin="round"/>
<path d="M54.2851 54.145C54.7507 52.3669 54.4029 50.471 53.3596 48.979" stroke="black" stroke-width="0.280456" stroke-linecap="round" stroke-linejoin="round"/>
<path d="M51.8258 54.2993C52.1511 52.6922 51.8258 51.0179 50.9424 49.6521" stroke="black" stroke-width="0.280456" stroke-linecap="round" stroke-linejoin="round"/>
<g style="mix-blend-mode:multiply">
<path d="M64.4993 75.4036C64.4993 73.9901 63.3522 72.843 61.9387 72.843C61.0609 72.843 60.3598 73.3366 59.8269 73.9536C58.0881 75.9729 56.7419 77.3556 52.3219 78.0931C49.8258 78.5082 46.6679 78.3736 42.7892 77.0499C42.4106 76.904 41.5356 76.6348 40.812 76.6348C38.086 76.6348 35.876 78.8448 35.876 81.5708C35.876 83.5761 37.0623 85.3149 38.7871 86.0693C40.2146 86.6947 44.5421 88.3831 49.7838 87.5305C54.0355 86.8406 59.1566 84.2463 62.9624 78.7158C63.327 78.1857 64.5021 76.6768 64.5021 75.4008L64.4993 75.4036Z" fill="#F8E5E9"/>
</g>
<g style="mix-blend-mode:multiply">
<path d="M63.672 75.4036C63.672 73.9901 64.8191 72.843 66.2326 72.843C67.1104 72.843 67.8115 73.3366 68.3444 73.9536C70.0832 75.9729 71.4294 77.3556 75.8494 78.0931C78.3454 78.5082 81.5034 78.3736 85.3821 77.0499C85.7607 76.904 86.6357 76.6348 87.3593 76.6348C90.0853 76.6348 92.2953 78.8448 92.2953 81.5708C92.2953 83.5761 91.109 85.3149 89.3842 86.0693C87.9567 86.6947 83.6292 88.3831 78.3875 87.5305C74.1358 86.8406 69.0147 84.2463 65.2089 78.7158C64.8443 78.1857 63.6692 76.6768 63.6692 75.4008L63.672 75.4036Z" fill="#F8E5E9"/>
</g>
<path d="M61.692 80.6312C62.5137 80.6985 63.3074 80.8135 64.0843 80.8135C64.8752 80.8135 65.6605 80.7462 66.4794 80.6733C66.1176 80.8724 65.7222 81.0042 65.3155 81.0884C64.9173 81.1809 64.4966 81.2202 64.0843 81.2258C63.6636 81.2202 63.2457 81.1669 62.8475 81.0603C62.4492 80.9622 62.0594 80.8275 61.6892 80.6284L61.692 80.6312Z" fill="#1D1D1B"/>
<path d="M68.4509 74.1611C68.4509 76.5702 66.4962 78.525 64.087 78.525C61.6779 78.525 59.7231 76.5702 59.7231 74.1611" fill="#F2CED6"/>
<path d="M68.4509 74.1611C68.4509 76.5702 66.4962 78.525 64.087 78.525C61.6779 78.525 59.7231 76.5702 59.7231 74.1611" stroke="black" stroke-width="0.280456" stroke-linecap="round" stroke-linejoin="round"/>
<path d="M64.0842 74.1611C64.0842 72.7476 62.9372 71.6006 61.5237 71.6006C60.6459 71.6006 59.9447 72.0942 59.4119 72.7112C57.673 74.7305 56.3268 76.1131 51.9069 76.8507C49.4108 77.2658 46.2529 77.1312 42.3742 75.8074C41.9956 75.6616 41.1205 75.3923 40.397 75.3923C37.6709 75.3923 35.4609 77.6023 35.4609 80.3284C35.4609 82.3336 36.6473 84.0724 38.3721 84.8269C39.7996 85.4523 44.127 87.1406 49.3687 86.2881C53.6204 85.5981 58.7416 83.0039 62.5474 77.4733C62.9119 76.9433 64.0871 75.4344 64.0871 74.1583L64.0842 74.1611Z" fill="#008ACB"/>
<path d="M38.372 84.8269C39.7995 85.4523 44.1269 87.1407 49.3686 86.2881C53.6203 85.5982 58.7415 83.0039 62.5472 77.4734C62.8361 77.0527 63.627 76.0234 63.9467 74.9829C61.6919 77.2686 55.6789 82.5777 47.5905 83.6546C42.3348 84.3529 38.2401 82.6057 35.4749 80.7126C35.6151 82.5524 36.7593 84.1202 38.372 84.8269Z" fill="#004CA2"/>
<path d="M64.0842 74.1611C64.0842 72.7476 62.9372 71.6006 61.5237 71.6006C60.6459 71.6006 59.9447 72.0942 59.4119 72.7112C57.673 74.7305 56.3268 76.1131 51.9069 76.8507C49.4108 77.2658 46.2529 77.1312 42.3742 75.8074C41.9956 75.6616 41.1205 75.3923 40.397 75.3923C37.6709 75.3923 35.4609 77.6023 35.4609 80.3284C35.4609 82.3336 36.6473 84.0724 38.3721 84.8269C39.7996 85.4523 44.127 87.1406 49.3687 86.2881C53.6204 85.5981 58.7416 83.0039 62.5474 77.4733C62.9119 76.9433 64.0871 75.4344 64.0871 74.1583L64.0842 74.1611Z" stroke="black" stroke-width="0.280456" stroke-linecap="round" stroke-linejoin="round"/>
<path d="M37.7129 84.437C37.3568 82.5552 37.0903 78.7381 39.721 75.4849" stroke="black" stroke-width="0.280456" stroke-linecap="round" stroke-linejoin="round"/>
<path d="M43.3641 76.2336C42.4105 77.7285 40.6184 81.3464 41.9141 85.9374" stroke="black" stroke-width="0.280456" stroke-linecap="round" stroke-linejoin="round"/>
<path d="M61.6023 78.5951C60.6431 77.8463 58.9716 76.2645 58.3406 73.9312" stroke="black" stroke-width="0.280456" stroke-linecap="round" stroke-linejoin="round"/>
<path d="M54.9834 76.1721C55.1489 77.465 55.7659 80.1378 58.0348 82.272" stroke="black" stroke-width="0.280456" stroke-linecap="round" stroke-linejoin="round"/>
<path d="M52.4706 85.4355C51.6685 84.2071 50.297 81.3381 51.2534 77.019" stroke="black" stroke-width="0.280456" stroke-linecap="round" stroke-linejoin="round"/>
<path d="M47.2063 77.0527C46.5557 78.3961 45.0047 82.3898 47.125 86.4873" stroke="black" stroke-width="0.280456" stroke-linecap="round" stroke-linejoin="round"/>
<path d="M64.0843 74.1611C64.0843 72.7476 65.2314 71.6006 66.6449 71.6006C67.5227 71.6006 68.2239 72.0942 68.7567 72.7112C70.4956 74.7305 71.8418 76.1131 76.2617 76.8507C78.7578 77.2658 81.9157 77.1312 85.7944 75.8074C86.173 75.6616 87.0481 75.3923 87.7716 75.3923C90.4977 75.3923 92.7077 77.6023 92.7077 80.3284C92.7077 82.3336 91.5213 84.0724 89.7965 84.8269C88.369 85.4523 84.0416 87.1406 78.7999 86.2881C74.5482 85.5981 69.427 83.0039 65.6212 77.4733C65.2566 76.9433 64.0815 75.4344 64.0815 74.1583L64.0843 74.1611Z" fill="#008ACB"/>
<path d="M89.7994 84.8269C88.3718 85.4523 84.0444 87.1407 78.8027 86.2881C74.551 85.5982 69.4299 83.0039 65.6241 77.4734C65.3352 77.0527 64.5443 76.0234 64.2246 74.9829C66.4795 77.2686 72.4924 82.5777 80.5808 83.6546C85.8365 84.3529 89.9312 82.6057 92.6965 80.7126C92.5562 82.5524 91.412 84.1202 89.7994 84.8269Z" fill="#004CA2"/>
<path d="M64.0843 74.1611C64.0843 72.7476 65.2314 71.6006 66.6449 71.6006C67.5227 71.6006 68.2239 72.0942 68.7567 72.7112C70.4956 74.7305 71.8418 76.1131 76.2617 76.8507C78.7578 77.2658 81.9157 77.1312 85.7944 75.8074C86.173 75.6616 87.0481 75.3923 87.7716 75.3923C90.4977 75.3923 92.7077 77.6023 92.7077 80.3284C92.7077 82.3336 91.5213 84.0724 89.7965 84.8269C88.369 85.4523 84.0416 87.1406 78.7999 86.2881C74.5481 85.5981 69.427 83.0039 65.6212 77.4733C65.2566 76.9433 64.0815 75.4344 64.0815 74.1583L64.0843 74.1611Z" stroke="black" stroke-width="0.280456" stroke-linecap="round" stroke-linejoin="round"/>
<path d="M90.4585 84.437C90.8147 82.5552 91.0811 78.7381 88.4504 75.4849" stroke="black" stroke-width="0.280456" stroke-linecap="round" stroke-linejoin="round"/>
<path d="M84.8071 76.2336C85.7607 77.7285 87.5528 81.3464 86.2571 85.9374" stroke="black" stroke-width="0.280456" stroke-linecap="round" stroke-linejoin="round"/>
<path d="M66.5691 78.5951C67.5283 77.8463 69.1998 76.2645 69.8308 73.9312" stroke="black" stroke-width="0.280456" stroke-linecap="round" stroke-linejoin="round"/>
<path d="M73.1851 76.1721C73.0197 77.465 72.4027 80.1378 70.1338 82.272" stroke="black" stroke-width="0.280456" stroke-linecap="round" stroke-linejoin="round"/>
<path d="M75.7009 85.4355C76.503 84.2071 77.8745 81.3381 76.9181 77.019" stroke="black" stroke-width="0.280456" stroke-linecap="round" stroke-linejoin="round"/>
<path d="M80.9651 77.0527C81.6157 78.3961 83.1667 82.3898 81.0464 86.4873" stroke="black" stroke-width="0.280456" stroke-linecap="round" stroke-linejoin="round"/>
<path d="M61.6217 70.3919H66.5493C67.2196 70.3919 67.7609 69.8478 67.7609 69.1803C67.7609 68.51 67.2168 67.9688 66.5493 67.9688H61.6217C60.9514 67.9688 60.4102 68.5128 60.4102 69.1803C60.4102 69.8506 60.9542 70.3919 61.6217 70.3919Z" fill="#F4AFCB" stroke="black" stroke-width="0.280456" stroke-linecap="round" stroke-linejoin="round"/>
<path d="M66.5661 69.5111C66.5661 70.877 65.4611 71.982 64.0953 71.982C62.7295 71.982 61.6245 70.877 61.6245 69.5111C61.6245 66.5888 62.7295 59.8018 64.0953 59.8018C65.4611 59.8018 66.5661 66.6477 66.5661 69.5111Z" fill="#F4AFCB" stroke="black" stroke-width="0.280456" stroke-linecap="round" stroke-linejoin="round"/>
<path d="M62.7295 70.3918C63.2203 70.3861 63.669 70.4422 64.1009 70.4422C64.5412 70.445 64.9872 70.4002 65.478 70.4198C65.276 70.5712 65.0545 70.6722 64.8189 70.7479C64.5889 70.818 64.3477 70.8517 64.0981 70.8573C63.8513 70.8545 63.6073 70.8124 63.3773 70.7339C63.1474 70.6554 62.9258 70.5516 62.7295 70.3918Z" fill="#1D1D1B"/>
<path d="M57.8079 60.0374C57.8079 60.8956 57.118 61.5911 56.2682 61.5911C55.4184 61.5911 54.7285 60.8956 54.7285 60.0374C54.7285 59.1792 55.4184 58.4836 56.2682 58.4836C57.118 58.4836 57.8079 59.1792 57.8079 60.0374Z" fill="#111111"/>
<path d="M58.2704 62.211C57.7908 62.8056 57.0953 63.2571 56.3072 63.3889C55.9202 63.4506 55.5051 63.4871 55.1237 63.3637C54.9274 63.3216 54.7507 63.2262 54.574 63.1477C54.4001 63.0552 54.2403 62.9374 54.0888 62.8196C54.0832 62.814 54.0804 62.8056 54.0888 62.7971C54.0916 62.7915 54.1 62.7915 54.1056 62.7915C54.2991 62.8336 54.4758 62.8981 54.6553 62.9458C54.8404 62.9766 55.0115 63.0467 55.1938 63.0608C55.2835 63.0776 55.3733 63.0972 55.4602 63.1084L55.7295 63.1365C55.8192 63.1533 55.909 63.1505 56.0015 63.1533C56.0913 63.1533 56.1838 63.1589 56.2736 63.1421C56.6381 63.1113 56.9971 63.0047 57.3309 62.8364C57.6674 62.6765 57.9815 62.4578 58.248 62.1886C58.248 62.1886 58.2648 62.1801 58.2704 62.1886C58.276 62.1942 58.276 62.2026 58.2704 62.2082V62.211Z" fill="#111111"/>
<path d="M58.2705 62.9625C58.1387 63.4309 57.8722 63.8824 57.4572 64.1797C57.2552 64.3311 57.014 64.4545 56.756 64.477C56.5008 64.5134 56.2428 64.4658 56.0128 64.376C56.0072 64.376 56.0044 64.3676 56.0072 64.362C56.0072 64.3592 56.0128 64.3564 56.0156 64.3564C56.1418 64.3367 56.2596 64.3452 56.3774 64.3283C56.4952 64.3087 56.6102 64.3059 56.7224 64.2722C56.9467 64.2274 57.1655 64.1629 57.3646 64.0423C57.5637 63.9217 57.7404 63.7618 57.8863 63.5739C58.0349 63.3888 58.1611 63.1785 58.2508 62.9569C58.2508 62.9513 58.2593 62.9485 58.2649 62.9513C58.2705 62.9513 58.2733 62.9597 58.2705 62.9653V62.9625Z" fill="#111111"/>
<path d="M49.8008 60.3123H50.774" stroke="black" stroke-width="0.140228" stroke-linecap="round" stroke-linejoin="round"/>
<path d="M49.8008 59.4792H50.774" stroke="black" stroke-width="0.140228" stroke-linecap="round" stroke-linejoin="round"/>
<path d="M49.5427 59.8831H50.7739" stroke="black" stroke-width="0.140228" stroke-linecap="round" stroke-linejoin="round"/>
<path d="M70.3635 60.0374C70.3635 60.8956 71.0534 61.5911 71.9032 61.5911C72.753 61.5911 73.4429 60.8956 73.4429 60.0374C73.4429 59.1792 72.753 58.4836 71.9032 58.4836C71.0534 58.4836 70.3635 59.1792 70.3635 60.0374Z" fill="#111111"/>
<path d="M69.9232 62.1912C70.1897 62.4577 70.5038 62.6764 70.8403 62.8391C71.1741 63.0045 71.5331 63.1139 71.8977 63.1448C71.9874 63.1588 72.0799 63.156 72.1697 63.156C72.2594 63.156 72.352 63.156 72.4417 63.1392L72.711 63.1111C72.8007 63.0971 72.8905 63.0775 72.9774 63.0634C73.1597 63.0494 73.3308 62.9793 73.5159 62.9484C73.6954 62.9008 73.8721 62.8335 74.0656 62.7942C74.0656 62.7942 74.0824 62.797 74.0852 62.8054C74.0852 62.811 74.0852 62.8166 74.0796 62.8222C73.9282 62.94 73.7683 63.0578 73.5944 63.1504C73.4177 63.2317 73.2382 63.3271 73.0447 63.3663C72.6633 63.4897 72.2482 63.4533 71.8612 63.3916C71.0759 63.2598 70.3804 62.8082 69.898 62.2137C69.8924 62.208 69.8924 62.1968 69.898 62.1912C69.9036 62.1856 69.912 62.1856 69.9176 62.1912H69.9232Z" fill="#111111"/>
<path d="M69.9205 62.9569C70.0103 63.1813 70.1365 63.3888 70.2851 63.5739C70.4309 63.7618 70.6076 63.9217 70.8067 64.0423C71.0059 64.1629 71.2274 64.2274 71.449 64.2722C71.5612 64.3059 71.6762 64.3087 71.794 64.3283C71.9117 64.3424 72.0295 64.3367 72.1557 64.3564C72.1557 64.3564 72.1642 64.362 72.1642 64.3676C72.1642 64.3704 72.1614 64.3732 72.1585 64.376C71.9286 64.4629 71.6706 64.5106 71.4153 64.477C71.1573 64.4545 70.9161 64.3311 70.7142 64.1797C70.2991 63.8796 70.0327 63.4309 69.9009 62.9625C69.9009 62.9569 69.9009 62.9513 69.9093 62.9485C69.9149 62.9485 69.9205 62.9485 69.9233 62.9541L69.9205 62.9569Z" fill="#111111"/>
<path d="M78.3678 60.3123H77.3975" stroke="black" stroke-width="0.140228" stroke-linecap="round" stroke-linejoin="round"/>
<path d="M78.3678 59.4792H77.3975" stroke="black" stroke-width="0.140228" stroke-linecap="round" stroke-linejoin="round"/>
<path d="M78.6287 59.8831H77.3975" stroke="black" stroke-width="0.140228" stroke-linecap="round" stroke-linejoin="round"/>
<path d="M80.4686 39.2724C80.4686 41.6198 81.7334 42.5678 84.0808 42.5678C86.4282 42.5678 88.3437 40.6523 88.3325 38.2964C88.3213 36.0023 86.4114 34.1709 84.1201 34.0672C83.4638 34.0363 82.8608 34.0559 82.3111 34.1092C77.4761 34.5944 75.4147 40.641 79.013 43.9056C80.4629 45.2209 82.4233 45.9809 84.5632 45.8463C88.3213 45.6135 91.3783 42.5538 91.6139 38.7957C91.8859 34.4093 88.4111 30.769 84.0836 30.769C84.0836 30.769 75.0782 29.88 73.4908 38.3862C72.3213 44.6572 77.3863 49.4389 84.0836 49.4025C90.2088 49.3688 95.1364 45.1816 95.1364 39.0593L95.0999 36.3024" fill="#008ACB"/>
<path d="M80.4685 39.2724C80.4685 41.6198 81.7334 42.5678 84.0808 42.5678C86.4282 42.5678 88.3437 40.6523 88.3325 38.2964C88.3213 36.0023 86.4114 34.1709 84.1201 34.0672C83.4638 34.0363 82.8608 34.0559 82.3111 34.1092C77.4761 34.5944 75.4147 40.641 79.013 43.9056C80.4629 45.2209 82.4233 45.9809 84.5632 45.8463C88.3213 45.6135 91.3783 42.5538 91.6139 38.7957C91.8859 34.4093 88.4111 30.769 84.0836 30.769C84.0836 30.769 75.0782 29.88 73.4908 38.3862C72.3213 44.6572 77.3863 49.4389 84.0836 49.4025C90.2088 49.3688 95.1364 45.1816 95.1364 39.0593L95.0999 36.3024" stroke="black" stroke-width="0.280456" stroke-linecap="round" stroke-linejoin="round"/>
<path opacity="0.25" d="M71.1181 107.19C71.1181 107.19 85.326 111.854 86.0159 128C86.7058 144.146 82.9814 130.827 82.9814 130.827C82.9814 130.827 80.9761 130.151 80.9761 128C80.9761 125.849 79.3663 121.911 79.3663 121.911C79.3663 121.911 77.3526 125.487 71.3424 126.099C65.3323 126.71 75.7147 121.185 75.7147 121.185L78.0734 118.874C78.0734 118.874 75.1426 114.647 71.3116 112.32L71.1209 107.193L71.1181 107.19Z" fill="black"/>
<path opacity="0.25" d="M56.1081 107.19C54.7703 108.45 49.3996 109.524 45.7116 114C39.7463 117.688 34.5691 121.735 34.5691 121.735L47.6383 113.991L55.808 108.604L56.1081 107.188V107.19Z" fill="black"/>
<path d="M63.515 107.19C51.5732 107.19 41.8918 116.872 41.8918 128.813C41.8918 140.755 51.5732 150.436 63.515 150.436C75.4568 150.436 85.1381 140.755 85.1381 128.813C85.1381 116.872 75.4568 107.19 63.515 107.19ZM63.515 110.522C69.7495 110.522 75.2521 113.641 78.553 118.403C77.6163 119.418 75.4904 120.961 70.8433 121.824C70.8433 121.824 70.647 120.346 67.5788 120.627C63.8992 120.963 58.3658 121.482 58.3658 121.482C58.3658 121.482 55.4883 121.404 55.2556 124.281C55.2556 124.281 48.0254 123.776 46.438 122.251C49.0743 115.391 55.7267 110.522 63.515 110.522ZM45.2237 128.813C45.2237 127.515 45.3611 126.247 45.6191 125.024C46.5979 125.453 50.0615 126.929 53.0652 127.689C53.6429 127.835 54.0328 127.944 55.0873 128.093C54.6722 133.853 57.7544 137.036 61.8491 137.667C62.6231 137.788 63.184 138.469 63.1336 139.252C62.8447 143.821 61.9921 145.977 61.3443 146.976C52.2631 145.904 45.2209 138.183 45.2209 128.813H45.2237ZM68.0303 146.541C67.0824 145.06 66.3672 141.254 66.0082 138.98C65.8904 138.231 66.3448 137.507 67.0712 137.294C72.024 135.853 71.7239 131.466 71.3397 126.099C74.2761 124.834 76.9684 123.025 79.6412 120.178C81.021 122.75 81.8035 125.689 81.8035 128.813C81.8035 137.356 75.9476 144.53 68.0303 146.541Z" fill="#4D4D4D" stroke="black" stroke-width="0.280456" stroke-linecap="round" stroke-linejoin="round"/>
<path d="M63.2793 138.528C67.2136 138.528 70.4029 135.339 70.4029 131.405C70.4029 127.471 67.2136 124.281 63.2793 124.281C59.3451 124.281 56.1558 127.471 56.1558 131.405C56.1558 135.339 59.3451 138.528 63.2793 138.528Z" fill="#4D4D4D" stroke="black" stroke-width="0.280456" stroke-linecap="round" stroke-linejoin="round"/>
<g style="mix-blend-mode:multiply" opacity="0.25">
<path d="M81.1304 134.066L82.8047 130.771C82.8047 130.771 82.2999 120.602 80.2414 119.685C78.1856 118.767 76.7413 123.35 71.5753 125.019C67.691 126.275 68.1874 123.922 63.1392 124.102C60.7048 124.189 62.1996 124.713 64.1348 124.808C66.2326 124.909 67.0151 126.693 67.189 128.034C67.3152 129.01 69.1549 130.078 71.5052 131.04C71.5837 129.548 71.4659 127.877 71.3397 126.096C74.2761 124.831 76.9684 123.022 79.6412 120.175C81.021 122.747 81.8035 125.686 81.8035 128.811C81.8035 130.628 81.5371 132.386 81.0435 134.044C81.0996 134.058 81.1276 134.066 81.1276 134.066H81.1304Z" fill="#4D4D4D"/>
</g>
<g style="mix-blend-mode:multiply" opacity="0.25">
<path d="M45.2264 128.813C45.2264 127.515 45.3638 126.247 45.6219 125.024C46.6006 125.453 50.0643 126.929 53.068 127.689C53.6457 127.835 54.0355 127.944 55.09 128.093C54.9021 130.709 55.435 132.793 56.4559 134.347C57.7936 134.111 58.5733 133.547 58.2311 132.445C56.9242 128.261 59.7737 125.622 59.7737 125.622C60.8758 124.186 59.4147 125.302 56.5568 126.816C53.699 128.334 47.93 124.34 45.3442 124.393C42.7584 124.447 44.6094 133.073 44.6094 133.073C44.6094 133.073 45.0581 133.18 45.7929 133.334C45.4255 131.887 45.2292 130.373 45.2292 128.813H45.2264Z" fill="#4D4D4D"/>
</g>
<g style="mix-blend-mode:multiply" opacity="0.25">
<path d="M45.678 122.394C46.1997 123.353 48.4265 123.586 50.1794 123.616C48.5808 123.3 47.0663 122.856 46.4353 122.253C49.0716 115.393 55.724 110.525 63.5122 110.525C69.7468 110.525 75.2493 113.643 78.5503 118.406C78.3539 118.619 78.1043 118.857 77.7874 119.107C77.7874 119.107 78.8251 119.586 78.9822 118.122C79.1392 116.658 72.6551 108.413 61.7229 109.54C48.6621 110.887 44.7862 120.761 45.6752 122.396L45.678 122.394Z" fill="#4D4D4D"/>
</g>
<g style="mix-blend-mode:multiply" opacity="0.25">
<path d="M55.2555 124.281C55.2555 124.281 54.2711 124.214 52.9502 124.048C52.9502 124.048 56.2932 125.7 57.502 123.614C58.1751 122.453 60.0457 121.656 61.5686 121.182C59.7372 121.353 58.3658 121.482 58.3658 121.482C58.3658 121.482 55.4883 121.404 55.2555 124.281Z" fill="#4D4D4D"/>
</g>
<path d="M58.7305 106.024L64.8136 104.916L64.9482 109.468L61.3247 110.065L58.7305 106.024Z" fill="#FBE3E9"/>
<path d="M56.3325 107.423C56.5625 107.022 56.9832 106.332 57.1178 106.046C57.2019 105.867 57.2945 105.693 57.3898 105.519C57.6815 104.997 58.2649 104.708 58.8566 104.804L59.0557 104.834C59.2016 104.857 59.353 104.82 59.4708 104.731L59.8859 104.414C60.1944 104.178 60.5898 104.094 60.9656 104.184L61.7734 104.374C61.8855 104.403 61.908 104.397 62.0061 104.338L62.0819 104.304C62.2473 104.226 62.4268 104.173 62.6091 104.153C62.7129 104.142 62.8138 104.133 62.926 104.125C63.128 104.108 63.4673 104.142 63.6748 104.212C63.7422 104.234 63.8067 104.268 63.8684 104.307L63.9777 104.38L64.003 104.391C64.0422 104.408 64.0843 104.417 64.1264 104.408C64.4181 104.355 64.5779 104.324 64.8976 104.383L65.0323 104.453C65.0968 104.487 65.1613 104.523 65.223 104.565C65.338 104.638 65.3548 104.663 65.4782 104.815L65.5062 104.854C65.6969 105.151 65.7727 105.235 65.983 105.611L66.5607 106.702C66.6365 106.842 66.6841 106.997 66.7038 107.157C66.7374 107.462 66.6926 107.656 66.5523 108.11L66.1316 109.274C66.0924 109.383 66.0447 109.487 65.983 109.588C65.8203 109.855 65.6128 110.115 65.3856 110.261L65.2847 110.303C65.1977 110.34 65.1052 110.365 65.0126 110.379C64.777 110.416 64.6901 110.354 64.4685 110.155C64.4012 110.062 64.3423 109.961 64.2975 109.855C64.2245 109.678 64.2442 109.731 64.2105 109.468L64.7097 108.304C64.8443 107.99 64.85 107.633 64.7238 107.314L64.2414 106.091" fill="#FBE3E9"/>
<path d="M56.3325 107.423C56.5625 107.022 56.9832 106.332 57.1178 106.046C57.2019 105.867 57.2945 105.693 57.3898 105.519C57.6815 104.997 58.2649 104.708 58.8566 104.804L59.0557 104.834C59.2016 104.857 59.353 104.82 59.4708 104.731L59.8859 104.414C60.1944 104.178 60.5898 104.094 60.9656 104.184L61.7734 104.374C61.8855 104.403 61.908 104.397 62.0061 104.338L62.0819 104.304C62.2473 104.226 62.4268 104.173 62.6091 104.153C62.7129 104.142 62.8139 104.133 62.926 104.125C63.128 104.108 63.4673 104.142 63.6748 104.212C63.7422 104.234 63.8067 104.268 63.8684 104.307L63.9777 104.38L64.003 104.391C64.0422 104.408 64.0843 104.417 64.1264 104.408C64.4181 104.355 64.5779 104.324 64.8976 104.383L65.0323 104.453C65.0968 104.487 65.1613 104.523 65.223 104.565C65.338 104.638 65.3548 104.663 65.4782 104.815L65.5062 104.854C65.6969 105.151 65.7727 105.235 65.983 105.611L66.5607 106.702C66.6365 106.842 66.6841 106.997 66.7038 107.157C66.7374 107.462 66.6926 107.656 66.5523 108.11L66.1316 109.274C66.0924 109.383 66.0447 109.487 65.983 109.588C65.8203 109.855 65.6128 110.115 65.3856 110.261L65.2847 110.303C65.1977 110.34 65.1052 110.365 65.0126 110.379C64.777 110.416 64.6901 110.354 64.4685 110.155C64.4012 110.062 64.3423 109.961 64.2975 109.855C64.2245 109.678 64.2442 109.731 64.2105 109.468L64.7097 108.304C64.8443 107.99 64.85 107.633 64.7238 107.314L64.2414 106.091" stroke="black" stroke-width="0.280456" stroke-linecap="round" stroke-linejoin="round"/>
<path d="M57.9873 107.084L58.3968 107.956C58.4613 108.116 58.4781 108.29 58.4473 108.461L58.1668 109.978C58.1247 110.211 58.2285 110.536 58.4136 110.682C58.7165 110.92 59.1624 110.915 59.5242 110.693C59.5382 110.685 59.5551 110.671 59.5747 110.651C59.7093 110.528 59.8131 110.371 59.8748 110.199L60.5114 108.856C60.7638 108.323 60.7582 107.706 60.4946 107.179L59.8944 105.976" fill="#FBE3E9"/>
<path d="M57.9873 107.084L58.3968 107.956C58.4613 108.116 58.4781 108.29 58.4473 108.461L58.1668 109.978C58.1247 110.211 58.2285 110.536 58.4136 110.682C58.7165 110.92 59.1624 110.915 59.5242 110.693C59.5382 110.685 59.5551 110.671 59.5747 110.651C59.7093 110.528 59.8131 110.371 59.8748 110.199L60.5114 108.856C60.7638 108.323 60.7582 107.706 60.4946 107.179L59.8944 105.976" stroke="black" stroke-width="0.280456" stroke-linecap="round" stroke-linejoin="round"/>
<path d="M64.1573 109.512C64.1573 109.512 63.8684 110.068 63.6076 110.222C63.1869 110.471 63.0214 110.488 62.6624 110.443C62.5839 110.435 62.5138 110.385 62.4465 110.342L62.4128 110.32C62.2053 110.163 62.0426 109.824 62.152 109.588L62.6063 108.601C62.7634 108.259 62.7943 107.869 62.6933 107.507L62.0679 105.937" fill="#FBE3E9"/>
<path d="M64.1573 109.512C64.1573 109.512 63.8684 110.068 63.6076 110.222C63.1869 110.471 63.0214 110.488 62.6624 110.443C62.5839 110.435 62.5138 110.385 62.4465 110.342L62.4128 110.32C62.2053 110.163 62.0426 109.824 62.152 109.588L62.6063 108.601C62.7634 108.259 62.7943 107.869 62.6933 107.507L62.0679 105.937" stroke="black" stroke-width="0.280456" stroke-linecap="round" stroke-linejoin="round"/>
<path d="M62.0678 109.751L61.8266 110.101C61.7565 110.202 61.6724 110.295 61.5742 110.371C61.5097 110.421 61.448 110.472 61.4368 110.477C61.1956 110.637 61.0049 110.769 60.6964 110.716C60.5926 110.699 60.4047 110.637 60.329 110.564C60.2 110.441 60.1074 110.281 60.0878 110.101C60.0682 109.941 60.0878 109.779 60.1439 109.627L60.6235 108.346C60.7329 108.051 60.7244 107.726 60.601 107.437L59.8999 105.976" fill="#FBE3E9"/>
<path d="M62.0678 109.751L61.8266 110.101C61.7565 110.202 61.6724 110.295 61.5742 110.371C61.5097 110.421 61.448 110.472 61.4368 110.477C61.1956 110.637 61.0049 110.769 60.6964 110.716C60.5926 110.699 60.4047 110.637 60.329 110.564C60.2 110.441 60.1074 110.281 60.0878 110.101C60.0682 109.941 60.0878 109.779 60.1439 109.627L60.6235 108.346C60.7329 108.051 60.7244 107.726 60.601 107.437L59.8999 105.976" stroke="black" stroke-width="0.280456" stroke-linecap="round" stroke-linejoin="round"/>
</g>
<defs>
<clipPath id="clip0_3173_310803">
<rect width="128" height="128" rx="16" fill="white"/>
</clipPath>
</defs>
</svg>
