<svg width="128" height="128" viewBox="0 0 128 128" fill="none" xmlns="http://www.w3.org/2000/svg">
<g clip-path="url(#clip0_3173_17941)">
<path d="M130.476 -2.47632H-2.47656V130.477H130.476V-2.47632Z" fill="#00B2FF"/>
<path d="M83.427 97.6155H44.8026C41.7793 97.6155 39.3281 100.067 39.3281 103.09V103.55C39.3281 105.087 39.962 106.475 40.98 107.468C43.3639 109.79 45.0971 112.698 45.7674 115.96L48.5467 147.349H79.8456L82.7315 116.527C83.2755 113.108 84.7956 109.877 87.2636 107.454C88.2733 106.461 88.9015 105.078 88.9015 103.55V103.09C88.9015 100.067 86.4503 97.6155 83.427 97.6155Z" fill="#F8E5E9" stroke="black" stroke-width="0.280456" stroke-linecap="round" stroke-linejoin="round"/>
<path fill-rule="evenodd" clip-rule="evenodd" d="M53.6959 114.967C54.0072 114.967 54.2624 115.203 54.2624 115.495C54.2624 115.786 54.01 116.022 53.6959 116.022C53.3818 116.022 53.1294 115.786 53.1294 115.495C53.1294 115.203 53.3818 114.967 53.6959 114.967Z" fill="#F2BCCF" stroke="#F2BCCF" stroke-width="0.280456" stroke-linecap="round" stroke-linejoin="round"/>
<path fill-rule="evenodd" clip-rule="evenodd" d="M74.9432 114.967C75.2545 114.967 75.5097 115.203 75.5097 115.495C75.5097 115.786 75.2573 116.022 74.9432 116.022C74.6291 116.022 74.3767 115.786 74.3767 115.495C74.3767 115.203 74.6291 114.967 74.9432 114.967Z" fill="#F2BCCF" stroke="#F2BCCF" stroke-width="0.280456" stroke-linecap="round" stroke-linejoin="round"/>
<path d="M89.0896 104.874C89.0896 101.099 87.4293 98.1848 83.9039 97.6687C77.661 96.7516 63.7055 95.3494 63.7055 95.3494C63.7055 95.3494 51.2981 96.7516 44.6149 97.6603C40.4249 98.2296 39.1516 100.989 39.1516 104.874C39.1516 105.636 39.2694 106.371 39.491 107.064L39.5078 107.112C39.5442 107.224 39.5835 107.336 39.6256 107.448L43.3472 118.793C46.7576 128.46 43.7343 144.283 43.7343 154.534V154.624L49.4976 156.2C58.7106 158.864 68.4817 158.934 77.7339 156.407L84.5826 154.626V154.413C84.5826 144.241 81.5313 128.496 84.8911 118.896L88.624 107.426C88.6605 107.328 88.6969 107.227 88.7278 107.126L88.7474 107.067C88.9662 106.377 89.0868 105.639 89.0868 104.876L89.0896 104.874Z" fill="#C1172C" stroke="black" stroke-width="0.280456" stroke-linecap="round" stroke-linejoin="round"/>
<path d="M39.4405 101.996C39.4209 102.072 39.4124 102.148 39.3984 102.221L39.3704 102.215L34.3109 129.071C33.75 131.38 35.1691 133.707 37.4773 134.268C39.7854 134.829 42.1132 133.41 42.6741 131.102L50.3642 105.25C50.4287 105.067 50.4848 104.879 50.5325 104.689C51.2757 101.626 49.3967 98.541 46.3341 97.7978C43.2715 97.0546 40.1865 98.9337 39.4433 101.996H39.4405Z" stroke="black" stroke-width="0.280456" stroke-linecap="round" stroke-linejoin="round"/>
<path d="M34.196 129.86C34.1876 130.014 34.1876 130.168 34.196 130.317L34.2297 157.423C34.1483 158.971 35.3347 160.289 36.88 160.373C38.4281 160.455 39.7462 159.268 39.8304 157.723L42.7387 130.774C42.7639 130.625 42.7808 130.474 42.7892 130.32C42.9154 127.947 41.0952 125.919 38.7198 125.793C36.3471 125.667 34.3194 127.487 34.1932 129.862L34.196 129.86Z" fill="#F8E5E9" stroke="black" stroke-width="0.280456" stroke-linecap="round" stroke-linejoin="round"/>
<path d="M39.4405 101.996C39.4209 102.072 39.4124 102.148 39.3984 102.221L39.3704 102.215L34.3109 129.071C33.75 131.38 35.1691 133.707 37.4773 134.268C39.7854 134.829 42.1132 133.41 42.6741 131.102L50.3642 105.25C50.4287 105.067 50.4848 104.879 50.5325 104.689C51.2757 101.626 49.3967 98.541 46.3341 97.7978C43.2715 97.0546 40.1865 98.9337 39.4433 101.996H39.4405Z" fill="#C1172C" stroke="black" stroke-width="0.280456" stroke-linecap="round" stroke-linejoin="round"/>
<path d="M44.4072 97.8176L55.7909 96.4434L55.7881 118.35H45.0046L44.4072 97.8176Z" fill="#C1172C"/>
<path d="M89.0136 101.996C89.0333 102.072 89.0417 102.148 89.0557 102.221L89.0838 102.215L94.1432 129.071C94.7041 131.38 93.285 133.707 90.9768 134.268C88.6687 134.829 86.3409 133.41 85.78 131.102L78.0899 105.25C78.0254 105.067 77.9693 104.879 77.9216 104.689C77.1784 101.626 79.0575 98.541 82.12 97.7978C85.1826 97.0546 88.2676 98.9337 89.0108 101.996H89.0136Z" stroke="black" stroke-width="0.280456" stroke-linecap="round" stroke-linejoin="round"/>
<path d="M94.2583 129.86C94.2667 130.014 94.2667 130.168 94.2583 130.317L94.2246 157.423C94.306 158.971 93.1196 160.289 91.5743 160.373C90.0262 160.455 88.7081 159.268 88.6239 157.723L85.7156 130.774C85.6904 130.625 85.6735 130.474 85.6651 130.32C85.5389 127.947 87.3591 125.919 89.7345 125.793C92.1072 125.667 94.1349 127.487 94.2611 129.862L94.2583 129.86Z" fill="#F8E5E9" stroke="black" stroke-width="0.280456" stroke-linecap="round" stroke-linejoin="round"/>
<path d="M89.0136 101.996C89.0333 102.072 89.0417 102.148 89.0557 102.221L89.0838 102.215L94.1432 129.071C94.7041 131.38 93.285 133.707 90.9768 134.268C88.6687 134.829 86.3409 133.41 85.78 131.102L78.0899 105.25C78.0254 105.067 77.9693 104.879 77.9216 104.689C77.1784 101.626 79.0575 98.541 82.12 97.7978C85.1826 97.0546 88.2676 98.9337 89.0108 101.996H89.0136Z" fill="#C1172C" stroke="black" stroke-width="0.280456" stroke-linecap="round" stroke-linejoin="round"/>
<path d="M83.9066 98.3589L83.4494 118.35H72.6659V102.12L72.6631 96.4434L75.9024 96.8304L82.8913 97.6633L83.3513 97.7166C83.6738 97.7559 83.915 98.0335 83.9066 98.3589Z" fill="#C1172C"/>
<path opacity="0.25" d="M82.5581 97.4779L75.9028 96.8301C74.8427 98.6082 73.763 100.372 72.6636 102.119C70.563 105.463 68.3922 108.752 66.1514 111.992C65.9074 110.076 64.5332 109.622 63.8909 109.322C64.1489 109.591 64.4154 109.854 64.6902 110.112C65.2595 110.651 65.5737 111.405 65.5737 112.191V112.827C60.1805 120.562 54.3779 128.003 48.1602 135.168C50.272 136.666 51.3293 137.415 53.4383 138.91C56.8935 135.488 61.2602 129.904 65.5737 123.886V156.264C66.5581 151.303 66.516 135.328 66.3701 124.152C66.3589 123.269 66.6282 122.405 67.1358 121.681C74.1584 111.686 80.7211 101.082 82.5581 97.4807V97.4779Z" fill="black"/>
<path d="M63.8909 109.322C64.1377 109.58 64.3929 109.832 64.6537 110.079C65.2343 110.628 65.5736 111.391 65.5736 112.191V158.101" stroke="black" stroke-width="0.280456" stroke-linecap="round" stroke-linejoin="round"/>
<path d="M63.8909 109.322C63.8264 109.26 63.7647 109.198 63.7058 109.134C63.6469 109.075 63.588 109.013 63.5319 108.951C63.4169 108.831 63.3047 108.71 63.1953 108.59C63.1421 108.536 63.0916 108.48 63.0411 108.421C62.87 108.233 62.7017 108.043 62.5391 107.852C62.4241 107.72 62.3119 107.588 62.1997 107.454C62.0146 107.232 61.8295 107.005 61.65 106.781C61.5238 106.624 61.4004 106.467 61.2798 106.31C60.2365 104.961 59.3138 103.592 58.5314 102.319C58.464 102.209 58.3967 102.103 58.335 101.996C57.3927 100.448 56.6607 99.0625 56.1643 98.0585C56.1419 98.0164 56.1222 97.9744 56.1026 97.9323C55.9091 97.5397 55.752 97.2115 55.6371 96.9619C55.6202 96.9255 55.6062 96.8918 55.5894 96.8581C55.5557 96.7824 55.5249 96.7179 55.4996 96.659C55.48 96.617 55.466 96.5805 55.452 96.5497C55.4323 96.5076 55.4183 96.4767 55.4071 96.4515C55.3987 96.4319 55.3931 96.4178 55.3903 96.4094C55.3874 96.4094 55.3875 96.4038 55.3875 96.4038" stroke="black" stroke-width="0.280456" stroke-linecap="round" stroke-linejoin="round"/>
<path d="M72.613 96.2944C72.613 96.2944 69.4495 103.269 64.5023 108.668C64.3031 108.89 64.0984 109.108 63.8909 109.322H63.8881C63.8264 109.263 63.7647 109.198 63.7058 109.134C63.6469 109.075 63.588 109.013 63.5319 108.951C63.4169 108.831 63.3047 108.71 63.1953 108.59C63.1421 108.536 63.0916 108.48 63.0411 108.421C62.87 108.233 62.7017 108.043 62.5391 107.852C62.4241 107.72 62.3119 107.588 62.1997 107.454C62.0146 107.232 61.8295 107.005 61.65 106.781C61.5238 106.624 61.4004 106.467 61.2798 106.309C60.2365 104.961 59.3138 103.592 58.5314 102.319C58.464 102.209 58.3967 102.103 58.335 101.996C57.3927 100.448 56.6607 99.0625 56.1643 98.0585C56.1419 98.0164 56.1222 97.9744 56.1026 97.9323C55.9091 97.5396 55.752 97.2115 55.6371 96.9619C55.6202 96.9255 55.6062 96.8918 55.5894 96.8581C55.5557 96.7824 55.5249 96.7179 55.4996 96.659C55.48 96.6169 55.466 96.5805 55.452 96.5496C55.4323 96.5076 55.4183 96.4767 55.4071 96.4515C55.3987 96.4318 55.3931 96.4178 55.3903 96.4094C55.3874 96.4066 55.3875 96.4038 55.3875 96.4038L64.4995 95.1249C64.7406 95.1081 65.2343 95.4222 65.4782 95.439L72.613 96.2916V96.2944Z" fill="#A9DDF3" stroke="black" stroke-width="0.280456" stroke-linecap="round" stroke-linejoin="round"/>
<g style="mix-blend-mode:darken">
<path d="M72.613 96.2944C72.613 96.2944 69.4495 103.269 64.5023 108.668C64.3031 108.89 64.0984 109.108 63.8881 109.324C63.8264 109.263 63.7647 109.198 63.7058 109.134C63.6469 109.075 63.588 109.013 63.5319 108.951C63.4169 108.831 63.3047 108.71 63.1953 108.59C63.1421 108.536 63.0916 108.48 63.0411 108.421C62.87 108.233 62.7017 108.043 62.5391 107.852C62.4241 107.72 62.3119 107.588 62.1997 107.454C62.0146 107.232 61.8295 107.005 61.65 106.781C61.5238 106.624 61.4004 106.467 61.2798 106.309C60.2365 104.96 59.3138 103.592 58.5314 102.319C58.464 102.209 58.3967 102.103 58.335 101.996C57.3927 100.448 56.6607 99.0625 56.1643 98.0585C56.1419 98.0164 56.1222 97.9743 56.1026 97.9323C55.9091 97.5396 55.752 97.2115 55.6371 96.9619C55.6202 96.9254 55.6062 96.8918 55.5894 96.8581C55.5557 96.7824 55.5249 96.7179 55.4996 96.659C55.48 96.6169 55.466 96.5805 55.452 96.5496C55.4323 96.5076 55.4183 96.4767 55.4071 96.4515C55.3987 96.4318 55.3931 96.4178 55.3875 96.4038L55.5725 96.3926C55.5669 96.4627 60.8479 105.395 63.8656 108.287C66.9506 105.479 71.7548 97.3882 72.3831 96.2776L72.613 96.2944Z" fill="#6A99A5"/>
</g>
<path fill-rule="evenodd" clip-rule="evenodd" d="M69.8197 94.3507V95.7082L67.0656 97.6096L64.9398 99.8982H64.9369L63.6693 101.02L62.9738 100.355L61.0162 97.6068L58.0798 95.5791C58.0714 95.5932 58.0602 95.6128 58.0518 95.6324V94.3507C58.0518 92.64 59.44 91.2517 61.1508 91.2517H66.7234C68.4314 91.2517 69.8197 92.64 69.8197 94.3507Z" fill="#F3CFD7" stroke="black" stroke-width="0.280456" stroke-linecap="round" stroke-linejoin="round"/>
<path d="M62.9738 100.353L60.4497 98.5044C60.7863 98.2688 61.1929 98.0416 61.6893 97.8257L62.9738 100.353Z" fill="#6A99A5" stroke="black" stroke-width="0.280456" stroke-linecap="round" stroke-linejoin="round"/>
<path d="M61.6894 97.8256C61.193 98.0415 60.7863 98.2687 60.4498 98.5043C60.2563 98.6445 60.0852 98.7819 59.9281 98.9221C59.7346 99.1016 59.5607 99.2867 59.3981 99.4971C59.2046 99.7467 59.0223 100.033 58.826 100.381C58.7923 100.442 58.7586 100.507 58.725 100.568C57.3395 99.1128 57.7294 96.2718 58.0519 95.6324C58.0603 95.6128 58.0715 95.5931 58.0799 95.5791L61.6894 97.8256Z" fill="#A9DDF3" stroke="black" stroke-width="0.280456" stroke-linecap="round" stroke-linejoin="round"/>
<path d="M64.5022 100.285L67.4302 98.5044C67.0936 98.2688 66.6869 98.0416 66.1905 97.8257L64.5022 100.285Z" fill="#6A99A5" stroke="black" stroke-width="0.280456" stroke-linecap="round" stroke-linejoin="round"/>
<path d="M66.1907 97.8256C66.6871 98.0415 67.0937 98.2687 67.4303 98.5043C67.6238 98.6445 67.7949 98.7819 67.9519 98.9221C68.1454 99.1016 68.3193 99.2867 68.482 99.4971C68.6755 99.7467 68.8578 100.033 69.0541 100.381C69.0878 100.442 69.1214 100.507 69.1551 100.568C70.5405 99.1128 70.1507 96.2718 69.8282 95.6324C69.8198 95.6128 69.8086 95.5931 69.8001 95.5791L66.1907 97.8256Z" fill="#A9DDF3" stroke="black" stroke-width="0.280456" stroke-linecap="round" stroke-linejoin="round"/>
<path d="M62.9739 100.355L63.4759 100.835L63.6694 101.02L63.9218 101.261L63.8882 109.324" stroke="black" stroke-width="0.280456" stroke-linecap="round" stroke-linejoin="round"/>
<path d="M64.1067 112.463C64.4692 112.463 64.763 112.169 64.763 111.806C64.763 111.444 64.4692 111.15 64.1067 111.15C63.7443 111.15 63.4504 111.444 63.4504 111.806C63.4504 112.169 63.7443 112.463 64.1067 112.463Z" fill="#AF2542" stroke="black" stroke-width="0.280456" stroke-linecap="round" stroke-linejoin="round"/>
<path d="M64.1067 123.392C64.4692 123.392 64.763 123.098 64.763 122.736C64.763 122.373 64.4692 122.079 64.1067 122.079C63.7443 122.079 63.4504 122.373 63.4504 122.736C63.4504 123.098 63.7443 123.392 64.1067 123.392Z" fill="#AF2542" stroke="black" stroke-width="0.280456" stroke-linecap="round" stroke-linejoin="round"/>
<path d="M63.1728 102.004C63.3695 102.004 63.529 101.845 63.529 101.648C63.529 101.451 63.3695 101.292 63.1728 101.292C62.9761 101.292 62.8167 101.451 62.8167 101.648C62.8167 101.845 62.9761 102.004 63.1728 102.004Z" fill="#6A99A5" stroke="black" stroke-width="0.280456" stroke-linecap="round" stroke-linejoin="round"/>
<path d="M63.1728 106.59C63.3695 106.59 63.529 106.43 63.529 106.234C63.529 106.037 63.3695 105.877 63.1728 105.877C62.9761 105.877 62.8167 106.037 62.8167 106.234C62.8167 106.43 62.9761 106.59 63.1728 106.59Z" fill="#6A99A5" stroke="black" stroke-width="0.280456" stroke-linecap="round" stroke-linejoin="round"/>
<path d="M82.0363 97.6489C73.5189 112.339 63.717 126.07 52.5773 138.91C50.4682 137.415 49.4109 136.666 47.2991 135.168C57.7853 123.083 67.088 110.205 75.2493 96.4794C75.4204 96.1934 75.7401 96.0335 76.071 96.0728L81.5652 96.7122C82.0139 96.7655 82.2635 97.2591 82.0363 97.6517V97.6489Z" fill="#333333" stroke="black" stroke-width="0.280456" stroke-linecap="round" stroke-linejoin="round"/>
<path d="M77.8235 37.699H50.3445C41.2477 37.699 33.8733 45.0734 33.8733 54.1701V78.6539C33.8733 87.7507 41.2477 95.1251 50.3445 95.1251H77.8235C86.9203 95.1251 94.2947 87.7507 94.2947 78.6539V54.1701C94.2947 45.0734 86.9203 37.699 77.8235 37.699Z" fill="#008ACB" stroke="black" stroke-width="0.280456" stroke-linecap="round" stroke-linejoin="round"/>
<path d="M35.3205 48.7575L93.1084 32.7603C95.8457 32.7603 98.0613 34.9787 98.0613 37.7131V69.2055C98.0613 71.9427 95.8429 74.1583 93.1084 74.1583H35.3205C32.5833 74.1583 30.3677 71.9399 30.3677 69.2055V53.7103C30.3677 50.973 32.5861 48.7575 35.3205 48.7575Z" fill="#008ACB" stroke="black" stroke-width="0.280456" stroke-linecap="round" stroke-linejoin="round"/>
<path d="M30.3676 61.0217V56.8906C30.3676 55.8024 29.487 54.9218 28.3989 54.9218H25.8551C23.8583 54.9218 22.2372 53.3035 22.2372 51.3039C22.2372 49.307 23.8555 47.686 25.8551 47.686H30.6425C31.7307 47.686 32.6113 46.8054 32.6113 45.7172C32.6113 44.629 31.7307 43.7484 30.6425 43.7484H21.9175C20.145 43.7484 18.7063 42.3097 18.7063 40.5372C18.7063 38.7647 20.145 37.326 21.9175 37.326H30.7042C31.052 37.326 31.3324 37.0455 31.3324 36.6978C31.3324 36.35 31.052 36.0695 30.7042 36.0695H27.6977C25.2185 36.0695 23.2132 34.0362 23.2609 31.5486C23.3058 29.1058 25.4008 27.1931 27.8464 27.1931H86.0101C91.0414 27.1931 95.1193 31.2709 95.1193 36.3023V37.0119" fill="#008ACB"/>
<path d="M30.3676 61.0217V56.8906C30.3676 55.8024 29.487 54.9218 28.3989 54.9218H25.8551C23.8583 54.9218 22.2372 53.3035 22.2372 51.3039C22.2372 49.307 23.8555 47.686 25.8551 47.686H30.6425C31.7307 47.686 32.6113 46.8054 32.6113 45.7172C32.6113 44.629 31.7307 43.7484 30.6425 43.7484H21.9175C20.145 43.7484 18.7063 42.3097 18.7063 40.5372C18.7063 38.7647 20.145 37.326 21.9175 37.326H30.7042C31.052 37.326 31.3324 37.0455 31.3324 36.6978C31.3324 36.35 31.052 36.0695 30.7042 36.0695H27.6977C25.2185 36.0695 23.2132 34.0362 23.2609 31.5486C23.3058 29.1058 25.4008 27.1931 27.8464 27.1931H86.0101C91.0414 27.1931 95.1193 31.2709 95.1193 36.3023V37.0119" stroke="black" stroke-width="0.280456" stroke-linecap="round" stroke-linejoin="round"/>
<path d="M47.7812 35.3489H63.627" stroke="black" stroke-width="0.280456" stroke-linecap="round" stroke-linejoin="round"/>
<path d="M37.2473 32.7603H75.7315" stroke="black" stroke-width="0.280456" stroke-linecap="round" stroke-linejoin="round"/>
<path d="M37.9736 29.8267H73.4345" stroke="black" stroke-width="0.280456" stroke-linecap="round" stroke-linejoin="round"/>
<g style="mix-blend-mode:multiply">
<path d="M93.1059 72.9155H35.3208C32.5863 72.9155 30.3679 70.6971 30.3679 67.9626V69.2051C30.3679 71.9423 32.5863 74.1579 35.3208 74.1579H93.1087C95.8459 74.1579 98.0615 71.9395 98.0615 69.2051V67.9626C98.0615 70.6999 95.8431 72.9155 93.1087 72.9155H93.1059Z" fill="#008ACB"/>
</g>
<path d="M38.2316 71.3003C39.0786 73.1204 38.8346 74.318 36.173 76.4999C33.5115 78.6791 29.5851 78.2892 27.406 75.6277C25.2269 72.9662 25.6167 69.0398 28.2782 66.8607C30.9397 64.6815 36.8574 68.3527 38.2316 71.3031V71.3003Z" fill="#F8E5E9" stroke="black" stroke-width="0.280456" stroke-linecap="round" stroke-linejoin="round"/>
<g style="mix-blend-mode:multiply">
<path d="M28.6906 68.1032C31.3437 65.9297 37.2276 69.57 38.6299 72.5148C38.571 72.1306 38.4336 71.7351 38.2317 71.3004C36.8574 68.35 30.9398 64.6788 28.2783 66.858C26.0459 68.6866 25.4176 71.7407 26.5591 74.2508C26.0767 72.0352 26.8199 69.6373 28.6934 68.1004L28.6906 68.1032Z" fill="#F8E5E9"/>
</g>
<g style="mix-blend-mode:multiply">
<path d="M32.8243 72.5456C32.8243 72.5456 28.4772 69.9262 29.8907 75.0753C29.8907 75.0753 27.0497 71.407 30.8106 68.2771C30.8106 68.2771 29.7337 69.8477 31.3575 70.6469C34.0022 71.9511 32.8243 72.5456 32.8243 72.5456Z" fill="#F8E5E9"/>
</g>
<path d="M29.8375 74.9829C27.1395 71.006 30.8079 68.3501 30.8079 68.3501" stroke="black" stroke-width="0.280456" stroke-linecap="round" stroke-linejoin="round"/>
<path d="M32.7541 72.397C32.7541 72.397 31.6266 70.1141 28.9763 71.062" stroke="black" stroke-width="0.280456" stroke-linecap="round" stroke-linejoin="round"/>
<path d="M89.8608 71.3003C89.0139 73.1204 89.2579 74.318 91.9194 76.4999C94.5809 78.6791 98.5073 78.2892 100.686 75.6277C102.866 72.9662 102.476 69.0398 99.8142 66.8607C97.1527 64.6815 91.2351 68.3527 89.8608 71.3031V71.3003Z" fill="#F8E5E9" stroke="black" stroke-width="0.280456" stroke-linecap="round" stroke-linejoin="round"/>
<g style="mix-blend-mode:multiply">
<path d="M99.3991 68.1032C96.746 65.9297 90.862 69.57 89.4597 72.5148C89.5214 72.1306 89.656 71.7351 89.858 71.3004C91.2322 68.35 97.1498 64.6788 99.8113 66.858C102.044 68.6866 102.672 71.7407 101.531 74.2508C102.013 72.0352 101.27 69.6373 99.3963 68.1004L99.3991 68.1032Z" fill="#F8E5E9"/>
</g>
<g style="mix-blend-mode:multiply">
<path d="M95.268 72.5456C95.268 72.5456 99.6151 69.9262 98.2016 75.0753C98.2016 75.0753 101.043 71.407 97.2817 68.2771C97.2817 68.2771 98.3587 69.8477 96.7348 70.6469C94.0901 71.9511 95.268 72.5456 95.268 72.5456Z" fill="#F8E5E9"/>
</g>
<path d="M98.2521 74.9829C100.95 71.006 97.2817 68.3501 97.2817 68.3501" stroke="black" stroke-width="0.280456" stroke-linecap="round" stroke-linejoin="round"/>
<path d="M95.3354 72.397C95.3354 72.397 96.4629 70.1141 99.1132 71.062" stroke="black" stroke-width="0.280456" stroke-linecap="round" stroke-linejoin="round"/>
<path d="M77.8235 37.699H50.3445C41.2477 37.699 33.8733 45.0734 33.8733 54.1701V78.6539C33.8733 87.7507 41.2477 95.1251 50.3445 95.1251H77.8235C86.9203 95.1251 94.2947 87.7507 94.2947 78.6539V54.1701C94.2947 45.0734 86.9203 37.699 77.8235 37.699Z" fill="#F2CED6" stroke="black" stroke-width="0.280456" stroke-linecap="round" stroke-linejoin="round"/>
<path d="M76.741 39.5359H49.4274C40.8371 39.5359 33.8733 46.4997 33.8733 55.09V76.9627C33.8733 85.553 40.8371 92.5168 49.4274 92.5168H76.741C85.3312 92.5168 92.295 85.553 92.295 76.9627V55.09C92.295 46.4997 85.3312 39.5359 76.741 39.5359Z" fill="#F8E5E9"/>
<path d="M77.8235 37.699H50.3445C41.2477 37.699 33.8733 45.0734 33.8733 54.1701V78.6539C33.8733 87.7507 41.2477 95.1251 50.3445 95.1251H77.8235C86.9203 95.1251 94.2947 87.7507 94.2947 78.6539V54.1701C94.2947 45.0734 86.9203 37.699 77.8235 37.699Z" stroke="black" stroke-width="0.280456" stroke-linecap="round" stroke-linejoin="round"/>
<path d="M94.8108 38.8124C94.8108 45.8911 89.0726 51.6292 81.9939 51.6292C76.3315 51.6292 71.7405 47.0382 71.7405 41.3757V38.3721" fill="#F2CED6"/>
<path d="M70.9216 54.0019L77.0047 54.2992C78.2892 54.3609 79.3829 53.3709 79.4446 52.0864C79.4979 51.0067 78.7996 50.0307 77.7591 49.7334L71.7433 48.0114C70.299 47.5991 68.8462 48.6368 68.7733 50.1372L68.7032 51.5648C68.6415 52.8493 69.6315 53.943 70.916 54.0047L70.9216 54.0019Z" fill="#008ACB" stroke="black" stroke-width="0.280456" stroke-linecap="round" stroke-linejoin="round"/>
<path d="M70.9215 54.0021L77.0045 54.2994C78.2273 54.3583 79.2734 53.4637 79.4277 52.2717C79.0294 52.8831 78.7181 53.2028 73.6868 53.2028C70.1306 53.2028 69.2023 51.3855 68.7648 50.3618L68.7059 51.5622C68.6442 52.8467 69.6342 53.9404 70.9187 54.0021H70.9215Z" fill="#004CA2"/>
<path d="M70.9216 54.0019L77.0047 54.2992C78.2892 54.3609 79.3829 53.3709 79.4446 52.0864C79.4979 51.0067 78.7996 50.0307 77.7591 49.7334L71.7433 48.0114C70.299 47.5991 68.8462 48.6368 68.7733 50.1372L68.7032 51.5648C68.6415 52.8493 69.6315 53.943 70.916 54.0047L70.9216 54.0019Z" stroke="black" stroke-width="0.280456" stroke-linecap="round" stroke-linejoin="round"/>
<path d="M71.5301 54.03C70.9159 52.0696 71.3141 49.9326 72.5594 48.3284" stroke="black" stroke-width="0.280456" stroke-linecap="round" stroke-linejoin="round"/>
<path d="M73.8917 54.145C73.4261 52.3669 73.7739 50.471 74.8172 48.979" stroke="black" stroke-width="0.280456" stroke-linecap="round" stroke-linejoin="round"/>
<path d="M76.3483 54.2993C76.023 52.6922 76.3483 51.0179 77.2318 49.6521" stroke="black" stroke-width="0.280456" stroke-linecap="round" stroke-linejoin="round"/>
<path d="M57.2522 54.0019L51.1691 54.2992C49.8846 54.3609 48.7909 53.3709 48.7292 52.0864C48.6759 51.0067 49.3742 50.0307 50.4147 49.7334L56.4305 48.0114C57.8748 47.5991 59.3276 48.6368 59.4005 50.1372L59.4706 51.5648C59.5323 52.8493 58.5423 53.943 57.2578 54.0047L57.2522 54.0019Z" fill="#008ACB" stroke="black" stroke-width="0.280456" stroke-linecap="round" stroke-linejoin="round"/>
<path d="M57.2523 54.0021L51.1692 54.2994C49.9464 54.3583 48.9003 53.4637 48.7461 52.2717C49.1443 52.8831 49.4556 53.2028 54.487 53.2028C58.0432 53.2028 58.9715 51.3855 59.409 50.3618L59.4679 51.5622C59.5296 52.8467 58.5396 53.9404 57.2551 54.0021H57.2523Z" fill="#004CA2"/>
<path d="M57.2522 54.0019L51.1691 54.2992C49.8846 54.3609 48.7909 53.3709 48.7292 52.0864C48.6759 51.0067 49.3742 50.0307 50.4147 49.7334L56.4305 48.0114C57.8748 47.5991 59.3276 48.6368 59.4005 50.1372L59.4706 51.5648C59.5323 52.8493 58.5423 53.943 57.2578 54.0047L57.2522 54.0019Z" stroke="black" stroke-width="0.280456" stroke-linecap="round" stroke-linejoin="round"/>
<path d="M56.6435 54.03C57.2577 52.0696 56.8595 49.9326 55.6143 48.3284" stroke="black" stroke-width="0.280456" stroke-linecap="round" stroke-linejoin="round"/>
<path d="M54.2849 54.145C54.7504 52.3669 54.4027 50.471 53.3594 48.979" stroke="black" stroke-width="0.280456" stroke-linecap="round" stroke-linejoin="round"/>
<path d="M51.8256 54.2993C52.1509 52.6922 51.8256 51.0179 50.9421 49.6521" stroke="black" stroke-width="0.280456" stroke-linecap="round" stroke-linejoin="round"/>
<g style="mix-blend-mode:multiply">
<path d="M64.499 75.4036C64.499 73.9901 63.352 72.843 61.9385 72.843C61.0607 72.843 60.3595 73.3366 59.8267 73.9536C58.0878 75.9729 56.7416 77.3556 52.3217 78.0931C49.8256 78.5082 46.6677 78.3736 42.789 77.0499C42.4104 76.904 41.5353 76.6348 40.8118 76.6348C38.0857 76.6348 35.8757 78.8448 35.8757 81.5708C35.8757 83.5761 37.0621 85.3149 38.7869 86.0693C40.2144 86.6947 44.5418 88.3831 49.7835 87.5305C54.0352 86.8406 59.1564 84.2463 62.9621 78.7158C63.3267 78.1857 64.5019 76.6768 64.5019 75.4008L64.499 75.4036Z" fill="#F8E5E9"/>
</g>
<g style="mix-blend-mode:multiply">
<path d="M63.6717 75.4036C63.6717 73.9901 64.8188 72.843 66.2323 72.843C67.1101 72.843 67.8113 73.3366 68.3441 73.9536C70.083 75.9729 71.4292 77.3556 75.8491 78.0931C78.3452 78.5082 81.5031 78.3736 85.3818 77.0499C85.7604 76.904 86.6355 76.6348 87.359 76.6348C90.0851 76.6348 92.2951 78.8448 92.2951 81.5708C92.2951 83.5761 91.1087 85.3149 89.3839 86.0693C87.9564 86.6947 83.629 88.3831 78.3873 87.5305C74.1356 86.8406 69.0144 84.2463 65.2086 78.7158C64.8441 78.1857 63.6689 76.6768 63.6689 75.4008L63.6717 75.4036Z" fill="#F8E5E9"/>
</g>
<path d="M61.6918 80.6312C62.5135 80.6985 63.3072 80.8135 64.0841 80.8135C64.8749 80.8135 65.6602 80.7462 66.4791 80.6733C66.1174 80.8724 65.7219 81.0042 65.3153 81.0884C64.917 81.1809 64.4963 81.2202 64.0841 81.2258C63.6634 81.2202 63.2455 81.1669 62.8472 81.0603C62.449 80.9622 62.0592 80.8275 61.689 80.6284L61.6918 80.6312Z" fill="#1D1D1B"/>
<path d="M68.4507 74.1611C68.4507 76.5702 66.4959 78.525 64.0868 78.525C61.6777 78.525 59.7229 76.5702 59.7229 74.1611" fill="#F2CED6"/>
<path d="M68.4507 74.1611C68.4507 76.5702 66.4959 78.525 64.0868 78.525C61.6777 78.525 59.7229 76.5702 59.7229 74.1611" stroke="black" stroke-width="0.280456" stroke-linecap="round" stroke-linejoin="round"/>
<path d="M64.084 74.1611C64.084 72.7476 62.9369 71.6006 61.5234 71.6006C60.6456 71.6006 59.9445 72.0942 59.4116 72.7112C57.6728 74.7305 56.3266 76.1131 51.9066 76.8507C49.4106 77.2658 46.2526 77.1312 42.3739 75.8074C41.9953 75.6616 41.1203 75.3923 40.3967 75.3923C37.6707 75.3923 35.4607 77.6023 35.4607 80.3284C35.4607 82.3336 36.647 84.0724 38.3718 84.8269C39.7993 85.4523 44.1268 87.1406 49.3685 86.2881C53.6202 85.5981 58.7413 83.0039 62.5471 77.4733C62.9117 76.9433 64.0868 75.4344 64.0868 74.1583L64.084 74.1611Z" fill="#008ACB"/>
<path d="M38.3717 84.8269C39.7992 85.4523 44.1267 87.1407 49.3684 86.2881C53.6201 85.5982 58.7412 83.0039 62.547 77.4734C62.8359 77.0527 63.6268 76.0234 63.9465 74.9829C61.6916 77.2686 55.6786 82.5777 47.5903 83.6546C42.3346 84.3529 38.2399 82.6057 35.4746 80.7126C35.6148 82.5524 36.7591 84.1202 38.3717 84.8269Z" fill="#004CA2"/>
<path d="M64.084 74.1611C64.084 72.7476 62.9369 71.6006 61.5234 71.6006C60.6456 71.6006 59.9445 72.0942 59.4116 72.7112C57.6728 74.7305 56.3266 76.1131 51.9066 76.8507C49.4106 77.2658 46.2526 77.1312 42.3739 75.8074C41.9953 75.6616 41.1203 75.3923 40.3967 75.3923C37.6707 75.3923 35.4607 77.6023 35.4607 80.3284C35.4607 82.3336 36.647 84.0724 38.3718 84.8269C39.7993 85.4523 44.1268 87.1406 49.3685 86.2881C53.6202 85.5981 58.7413 83.0039 62.5471 77.4733C62.9117 76.9433 64.0868 75.4344 64.0868 74.1583L64.084 74.1611Z" stroke="black" stroke-width="0.280456" stroke-linecap="round" stroke-linejoin="round"/>
<path d="M37.7127 84.437C37.3565 82.5552 37.0901 78.7381 39.7208 75.4849" stroke="black" stroke-width="0.280456" stroke-linecap="round" stroke-linejoin="round"/>
<path d="M43.3638 76.2336C42.4103 77.7285 40.6182 81.3464 41.9139 85.9374" stroke="black" stroke-width="0.280456" stroke-linecap="round" stroke-linejoin="round"/>
<path d="M61.602 78.5951C60.6429 77.8463 58.9714 76.2645 58.3403 73.9312" stroke="black" stroke-width="0.280456" stroke-linecap="round" stroke-linejoin="round"/>
<path d="M54.9832 76.1721C55.1486 77.465 55.7656 80.1378 58.0345 82.272" stroke="black" stroke-width="0.280456" stroke-linecap="round" stroke-linejoin="round"/>
<path d="M52.4703 85.4355C51.6682 84.2071 50.2968 81.3381 51.2532 77.019" stroke="black" stroke-width="0.280456" stroke-linecap="round" stroke-linejoin="round"/>
<path d="M47.2061 77.0527C46.5554 78.3961 45.0045 82.3898 47.1247 86.4873" stroke="black" stroke-width="0.280456" stroke-linecap="round" stroke-linejoin="round"/>
<path d="M64.0841 74.1611C64.0841 72.7476 65.2312 71.6006 66.6447 71.6006C67.5225 71.6006 68.2236 72.0942 68.7565 72.7112C70.4953 74.7305 71.8415 76.1131 76.2615 76.8507C78.7575 77.2658 81.9155 77.1312 85.7942 75.8074C86.1728 75.6616 87.0478 75.3923 87.7714 75.3923C90.4974 75.3923 92.7074 77.6023 92.7074 80.3284C92.7074 82.3336 91.5211 84.0724 89.7963 84.8269C88.3688 85.4523 84.0413 87.1406 78.7996 86.2881C74.5479 85.5981 69.4268 83.0039 65.621 77.4733C65.2564 76.9433 64.0813 75.4344 64.0813 74.1583L64.0841 74.1611Z" fill="#008ACB"/>
<path d="M89.7991 84.8269C88.3716 85.4523 84.0442 87.1407 78.8025 86.2881C74.5507 85.5982 69.4296 83.0039 65.6238 77.4734C65.335 77.0527 64.5441 76.0234 64.2244 74.9829C66.4792 77.2686 72.4922 82.5777 80.5805 83.6546C85.8363 84.3529 89.9309 82.6057 92.6962 80.7126C92.556 82.5524 91.4117 84.1202 89.7991 84.8269Z" fill="#004CA2"/>
<path d="M64.0841 74.1611C64.0841 72.7476 65.2312 71.6006 66.6447 71.6006C67.5225 71.6006 68.2236 72.0942 68.7565 72.7112C70.4953 74.7305 71.8415 76.1131 76.2615 76.8507C78.7575 77.2658 81.9155 77.1312 85.7942 75.8074C86.1728 75.6616 87.0478 75.3923 87.7714 75.3923C90.4974 75.3923 92.7074 77.6023 92.7074 80.3284C92.7074 82.3336 91.5211 84.0724 89.7963 84.8269C88.3688 85.4523 84.0413 87.1406 78.7996 86.2881C74.5479 85.5981 69.4268 83.0039 65.621 77.4733C65.2564 76.9433 64.0813 75.4344 64.0813 74.1583L64.0841 74.1611Z" stroke="black" stroke-width="0.280456" stroke-linecap="round" stroke-linejoin="round"/>
<path d="M90.4583 84.437C90.8144 82.5552 91.0809 78.7381 88.4502 75.4849" stroke="black" stroke-width="0.280456" stroke-linecap="round" stroke-linejoin="round"/>
<path d="M84.8069 76.2336C85.7604 77.7285 87.5525 81.3464 86.2568 85.9374" stroke="black" stroke-width="0.280456" stroke-linecap="round" stroke-linejoin="round"/>
<path d="M66.5688 78.5951C67.528 77.8463 69.1995 76.2645 69.8305 73.9312" stroke="black" stroke-width="0.280456" stroke-linecap="round" stroke-linejoin="round"/>
<path d="M73.1849 76.1721C73.0194 77.465 72.4024 80.1378 70.1335 82.272" stroke="black" stroke-width="0.280456" stroke-linecap="round" stroke-linejoin="round"/>
<path d="M75.7007 85.4355C76.5028 84.2071 77.8742 81.3381 76.9179 77.019" stroke="black" stroke-width="0.280456" stroke-linecap="round" stroke-linejoin="round"/>
<path d="M80.9648 77.0527C81.6155 78.3961 83.1664 82.3898 81.0462 86.4873" stroke="black" stroke-width="0.280456" stroke-linecap="round" stroke-linejoin="round"/>
<path d="M61.6217 70.3919H66.5493C67.2196 70.3919 67.7609 69.8478 67.7609 69.1803C67.7609 68.51 67.2168 67.9688 66.5493 67.9688H61.6217C60.9514 67.9688 60.4102 68.5128 60.4102 69.1803C60.4102 69.8506 60.9542 70.3919 61.6217 70.3919Z" fill="#F4AFCB" stroke="black" stroke-width="0.280456" stroke-linecap="round" stroke-linejoin="round"/>
<path d="M66.5661 69.5111C66.5661 70.877 65.4611 71.982 64.0953 71.982C62.7295 71.982 61.6245 70.877 61.6245 69.5111C61.6245 66.5888 62.7295 59.8018 64.0953 59.8018C65.4611 59.8018 66.5661 66.6477 66.5661 69.5111Z" fill="#F4AFCB" stroke="black" stroke-width="0.280456" stroke-linecap="round" stroke-linejoin="round"/>
<path d="M62.7295 70.3918C63.2203 70.3861 63.669 70.4422 64.1009 70.4422C64.5412 70.445 64.9872 70.4002 65.478 70.4198C65.276 70.5712 65.0545 70.6722 64.8189 70.7479C64.5889 70.818 64.3477 70.8517 64.0981 70.8573C63.8513 70.8545 63.6073 70.8124 63.3773 70.7339C63.1474 70.6554 62.9258 70.5516 62.7295 70.3918Z" fill="#1D1D1B"/>
<path d="M57.8077 60.0374C57.8077 60.8956 57.1178 61.5911 56.268 61.5911C55.4182 61.5911 54.7283 60.8956 54.7283 60.0374C54.7283 59.1792 55.4182 58.4836 56.268 58.4836C57.1178 58.4836 57.8077 59.1792 57.8077 60.0374Z" fill="#111111"/>
<path d="M58.2704 62.211C57.7908 62.8056 57.0953 63.2571 56.3072 63.3889C55.9202 63.4506 55.5051 63.4871 55.1237 63.3637C54.9274 63.3216 54.7507 63.2262 54.574 63.1477C54.4001 63.0552 54.2403 62.9374 54.0888 62.8196C54.0832 62.814 54.0804 62.8056 54.0888 62.7971C54.0916 62.7915 54.1 62.7915 54.1056 62.7915C54.2991 62.8336 54.4758 62.8981 54.6553 62.9458C54.8404 62.9766 55.0115 63.0467 55.1938 63.0608C55.2835 63.0776 55.3733 63.0972 55.4602 63.1084L55.7295 63.1365C55.8192 63.1533 55.909 63.1505 56.0015 63.1533C56.0913 63.1533 56.1838 63.1589 56.2736 63.1421C56.6381 63.1113 56.9971 63.0047 57.3309 62.8364C57.6674 62.6765 57.9815 62.4578 58.248 62.1886C58.248 62.1886 58.2648 62.1801 58.2704 62.1886C58.276 62.1942 58.276 62.2026 58.2704 62.2082V62.211Z" fill="#111111"/>
<path d="M58.2705 62.9625C58.1387 63.4309 57.8722 63.8824 57.4572 64.1797C57.2552 64.3311 57.014 64.4545 56.756 64.477C56.5008 64.5134 56.2428 64.4658 56.0128 64.376C56.0072 64.376 56.0044 64.3676 56.0072 64.362C56.0072 64.3592 56.0128 64.3564 56.0156 64.3564C56.1418 64.3367 56.2596 64.3452 56.3774 64.3283C56.4952 64.3087 56.6102 64.3059 56.7224 64.2722C56.9467 64.2274 57.1655 64.1629 57.3646 64.0423C57.5637 63.9217 57.7404 63.7618 57.8863 63.5739C58.0349 63.3888 58.1611 63.1785 58.2508 62.9569C58.2508 62.9513 58.2593 62.9485 58.2649 62.9513C58.2705 62.9513 58.2733 62.9597 58.2705 62.9653V62.9625Z" fill="#111111"/>
<path d="M49.8008 60.3123H50.774" stroke="black" stroke-width="0.140228" stroke-linecap="round" stroke-linejoin="round"/>
<path d="M49.8008 59.4792H50.774" stroke="black" stroke-width="0.140228" stroke-linecap="round" stroke-linejoin="round"/>
<path d="M49.5427 59.8831H50.7739" stroke="black" stroke-width="0.140228" stroke-linecap="round" stroke-linejoin="round"/>
<path d="M70.3633 60.0374C70.3633 60.8956 71.0532 61.5911 71.903 61.5911C72.7528 61.5911 73.4427 60.8956 73.4427 60.0374C73.4427 59.1792 72.7528 58.4836 71.903 58.4836C71.0532 58.4836 70.3633 59.1792 70.3633 60.0374Z" fill="#111111"/>
<path d="M69.923 62.1912C70.1894 62.4577 70.5035 62.6764 70.8401 62.8391C71.1738 63.0045 71.5328 63.1139 71.8974 63.1448C71.9872 63.1588 72.0797 63.156 72.1695 63.156C72.2592 63.156 72.3517 63.156 72.4415 63.1392L72.7107 63.1111C72.8005 63.0971 72.8902 63.0775 72.9772 63.0634C73.1595 63.0494 73.3305 62.9793 73.5156 62.9484C73.6951 62.9008 73.8718 62.8335 74.0653 62.7942C74.0653 62.7942 74.0822 62.797 74.085 62.8054C74.085 62.811 74.085 62.8166 74.0794 62.8222C73.9279 62.94 73.7681 63.0578 73.5942 63.1504C73.4175 63.2317 73.238 63.3271 73.0445 63.3663C72.6631 63.4897 72.248 63.4533 71.861 63.3916C71.0757 63.2598 70.3801 62.8082 69.8978 62.2137C69.8922 62.208 69.8922 62.1968 69.8978 62.1912C69.9034 62.1856 69.9118 62.1856 69.9174 62.1912H69.923Z" fill="#111111"/>
<path d="M69.9203 62.9569C70.01 63.1813 70.1362 63.3888 70.2849 63.5739C70.4307 63.7618 70.6074 63.9217 70.8065 64.0423C71.0056 64.1629 71.2272 64.2274 71.4487 64.2722C71.5581 64.3059 71.6759 64.3087 71.7937 64.3283C71.9115 64.3424 72.0293 64.3367 72.1555 64.3564C72.1555 64.3564 72.1639 64.362 72.1639 64.3676C72.1639 64.3704 72.1611 64.3732 72.1583 64.376C71.9283 64.4629 71.6703 64.5106 71.4151 64.477C71.1571 64.4545 70.9159 64.3311 70.714 64.1797C70.2989 63.8796 70.0324 63.4309 69.9006 62.9625C69.9006 62.9569 69.9006 62.9513 69.909 62.9485C69.9147 62.9485 69.9203 62.9485 69.9231 62.9541L69.9203 62.9569Z" fill="#111111"/>
<path d="M78.3676 60.3123H77.3972" stroke="black" stroke-width="0.140228" stroke-linecap="round" stroke-linejoin="round"/>
<path d="M78.3676 59.4792H77.3972" stroke="black" stroke-width="0.140228" stroke-linecap="round" stroke-linejoin="round"/>
<path d="M78.6284 59.8831H77.3972" stroke="black" stroke-width="0.140228" stroke-linecap="round" stroke-linejoin="round"/>
<path d="M80.4683 39.2724C80.4683 41.6198 81.7332 42.5678 84.0806 42.5678C86.428 42.5678 88.3435 40.6523 88.3323 38.2964C88.3211 36.0023 86.4112 34.1709 84.1198 34.0672C83.4636 34.0363 82.8606 34.0559 82.3109 34.1092C77.4758 34.5944 75.4145 40.641 79.0127 43.9056C80.4627 45.2209 82.4231 45.9809 84.563 45.8463C88.3211 45.6135 91.378 42.5538 91.6136 38.7957C91.8857 34.4093 88.4108 30.769 84.0834 30.769C84.0834 30.769 75.0779 29.88 73.4906 38.3862C72.3211 44.6572 77.3861 49.4389 84.0834 49.4025C90.2085 49.3688 95.1361 45.1816 95.1361 39.0593L95.0997 36.3024" fill="#008ACB"/>
<path d="M80.4683 39.2724C80.4683 41.6198 81.7332 42.5678 84.0806 42.5678C86.428 42.5678 88.3435 40.6523 88.3323 38.2964C88.3211 36.0023 86.4112 34.1709 84.1198 34.0672C83.4636 34.0363 82.8606 34.0559 82.3109 34.1092C77.4758 34.5944 75.4145 40.641 79.0127 43.9056C80.4627 45.2209 82.4231 45.9809 84.563 45.8463C88.3211 45.6135 91.378 42.5538 91.6136 38.7957C91.8857 34.4093 88.4108 30.769 84.0834 30.769C84.0834 30.769 75.0779 29.88 73.4906 38.3862C72.3211 44.6572 77.3861 49.4389 84.0834 49.4025C90.2085 49.3688 95.1361 45.1816 95.1361 39.0593L95.0997 36.3024" stroke="black" stroke-width="0.280456" stroke-linecap="round" stroke-linejoin="round"/>
</g>
<defs>
<clipPath id="clip0_3173_17941">
<rect width="128" height="128" rx="16" fill="white"/>
</clipPath>
</defs>
</svg>
