<svg width="128" height="128" viewBox="0 0 128 128" fill="none" xmlns="http://www.w3.org/2000/svg">
<g id="Group">
<g id="Layer 1">
<path id="Vector" d="M130.476 -2.47632H-2.47656V130.477H130.476V-2.47632Z" fill="#00B2FF"/>
<path id="Vector_2" d="M64.4374 55.8192C74.5507 55.8192 104.882 63.6972 104.882 56.6073C104.882 50.3587 92.5054 40.4951 64.4374 40.4951C36.3694 40.4951 23.9929 50.3587 23.9929 56.6073C23.9929 63.6972 54.3242 55.8192 64.4374 55.8192Z" fill="#BE272D" stroke="black" stroke-width="0.210342" stroke-linecap="round" stroke-linejoin="round"/>
<path id="Vector_3" d="M28.4324 51.1077H100.445V78.9092C100.445 86.4198 94.3479 92.517 86.8373 92.517H42.0429C34.5323 92.517 28.4352 86.4198 28.4352 78.9092V51.1077H28.4324Z" fill="#8B161A" stroke="black" stroke-width="0.280456" stroke-linecap="round" stroke-linejoin="round"/>
<g id="Group_2">
<path id="Vector_4" d="M83.3821 97.6155H44.7577C41.7344 97.6155 39.2832 100.067 39.2832 103.09V103.55C39.2832 105.087 39.917 106.475 40.9351 107.468C43.319 109.79 45.0522 112.698 45.7225 115.96L48.5018 147.349H79.8006L82.6865 116.527C83.2306 113.108 84.7507 109.877 87.2187 107.454C88.2283 106.461 88.8566 105.078 88.8566 103.55V103.09C88.8566 100.067 86.4054 97.6155 83.3821 97.6155Z" fill="#F6E3E7" stroke="black" stroke-width="0.280456" stroke-linecap="round" stroke-linejoin="round"/>
<path id="Vector_5" fill-rule="evenodd" clip-rule="evenodd" d="M53.651 114.967C53.9623 114.967 54.2175 115.203 54.2175 115.495C54.2175 115.786 53.9651 116.022 53.651 116.022C53.3369 116.022 53.0845 115.786 53.0845 115.495C53.0845 115.203 53.3369 114.967 53.651 114.967Z" fill="#F0BACD" stroke="#F0BACD" stroke-width="0.280456" stroke-linecap="round" stroke-linejoin="round"/>
<path id="Vector_6" fill-rule="evenodd" clip-rule="evenodd" d="M74.8954 114.967C75.2067 114.967 75.4619 115.203 75.4619 115.495C75.4619 115.786 75.2095 116.022 74.8954 116.022C74.5813 116.022 74.3289 115.786 74.3289 115.495C74.3289 115.203 74.5813 114.967 74.8954 114.967Z" fill="#F0BACD" stroke="#F0BACD" stroke-width="0.280456" stroke-linecap="round" stroke-linejoin="round"/>
</g>
<g id="Group_3">
<path id="Vector_7" d="M88.969 104.874C88.969 101.099 87.3087 98.1848 83.7833 97.6687C77.5404 96.7516 63.5849 95.3494 63.5849 95.3494C63.5849 95.3494 51.1775 96.7516 44.4943 97.6603C40.3043 98.2296 39.031 100.989 39.031 104.874C39.031 105.636 39.1488 106.371 39.3704 107.064L39.3872 107.112C39.4236 107.224 39.4629 107.336 39.505 107.448L43.2266 118.793C44.6233 128.429 43.6137 144.283 43.6137 154.534V154.624L49.377 156.2C58.59 158.864 68.3611 158.934 77.6133 156.407L84.462 154.626V154.413C84.462 144.241 84.7201 129.299 84.7705 118.896L88.5034 107.426C88.5399 107.328 88.5763 107.227 88.6072 107.126L88.6268 107.067C88.8456 106.377 88.9662 105.639 88.9662 104.876L88.969 104.874Z" fill="#1B1464" stroke="black" stroke-width="0.280456" stroke-linecap="round" stroke-linejoin="round"/>
<g id="Group_4">
<path id="Vector_8" d="M66.9785 91.625H61.0468C59.2268 91.625 57.7515 93.1004 57.7515 94.9204V95.0606C57.7515 96.8806 59.2268 98.3559 61.0468 98.3559H66.9785C68.7984 98.3559 70.2738 96.8806 70.2738 95.0606V94.9204C70.2738 93.1004 68.7984 91.625 66.9785 91.625Z" fill="#F6E3E7" stroke="black" stroke-width="0.280456" stroke-linecap="round" stroke-linejoin="round"/>
<path id="Vector_9" fill-rule="evenodd" clip-rule="evenodd" d="M70.1532 95.9833C70.2962 96.1768 70.3748 96.3787 70.3748 96.5863C70.3748 97.8595 67.5197 98.8916 64 98.8916C60.4803 98.8916 57.6252 97.8595 57.6252 96.5863C57.6252 96.3759 57.7038 96.174 57.8468 95.9805C58.5816 96.9621 61.058 97.6828 64 97.6828C66.942 97.6828 69.4184 96.9621 70.1532 95.9833Z" fill="#004089" stroke="black" stroke-width="0.280456" stroke-linecap="round" stroke-linejoin="round"/>
</g>
</g>
<g id="Group_5">
<path id="Vector_10" d="M39.3951 101.996C39.3754 102.072 39.367 102.148 39.353 102.221L39.325 102.215L34.2655 129.072C33.7046 131.38 35.1237 133.708 37.4319 134.269C39.74 134.829 42.0678 133.41 42.6287 131.102L50.3188 105.25C50.3833 105.067 50.4394 104.88 50.4871 104.689C51.2303 101.626 49.3513 98.5413 46.2887 97.7981C43.2261 97.0549 40.1411 98.9339 39.3979 101.996H39.3951Z" stroke="black" stroke-width="0.280456" stroke-linecap="round" stroke-linejoin="round"/>
<path id="Vector_11" d="M34.1506 129.86C34.1422 130.014 34.1422 130.168 34.1506 130.317L34.1843 157.423C34.1029 158.971 35.2892 160.289 36.8346 160.373C38.3827 160.455 39.7008 159.268 39.785 157.723L42.6933 130.774C42.7185 130.625 42.7353 130.474 42.7438 130.32C42.87 127.947 41.0498 125.919 38.6743 125.793C36.3017 125.667 34.274 127.487 34.1478 129.862L34.1506 129.86Z" fill="#F6E3E7" stroke="black" stroke-width="0.280456" stroke-linecap="round" stroke-linejoin="round"/>
<path id="Vector_12" d="M50.4842 104.689C50.4365 104.882 50.3804 105.07 50.3159 105.252L49.5138 107.95L47.2702 115.498L44.6816 124.203L42.6286 131.105C42.0677 133.413 39.7399 134.832 37.4318 134.271C35.1208 133.71 33.7045 131.383 34.2654 129.074L35.1825 124.203L36.8232 115.498L38.2451 107.95L39.3249 102.218L39.3529 102.224C39.3669 102.148 39.3782 102.072 39.395 101.999C40.1382 98.9366 43.2232 97.0576 46.2858 97.8008C49.3484 98.544 51.2274 101.629 50.4842 104.689Z" fill="#1B1464" stroke="black" stroke-width="0.280456" stroke-linecap="round" stroke-linejoin="round"/>
<path id="mask" d="M44.3618 97.8176L55.7455 96.4434L55.7399 118.35H44.9592L44.3618 97.8176Z" fill="#1B1464"/>
</g>
<g id="Group_6">
<path id="Vector_13" d="M94.2134 130.364C94.0956 132.196 92.8083 133.817 90.932 134.271C88.6239 134.832 86.2961 133.413 85.7352 131.105L85.6903 130.953L85.6791 130.914L81.9434 118.349L81.405 116.546L79.1613 108.999L78.0479 105.252C77.9834 105.07 77.9273 104.882 77.8796 104.688C77.1364 101.629 79.0155 98.5437 82.078 97.8005C82.3473 97.736 82.6165 97.6911 82.8858 97.6659C85.6651 97.3966 88.2901 99.2056 88.9688 101.999C88.9857 102.072 88.9969 102.148 89.0109 102.223L89.039 102.218L90.3178 108.999L91.7369 116.546L94.0984 129.074C94.1124 129.125 94.1236 129.178 94.132 129.228C94.1461 129.298 94.1601 129.366 94.1685 129.436C94.1797 129.503 94.1881 129.573 94.1965 129.643C94.1965 129.652 94.1965 129.66 94.1965 129.666C94.2021 129.73 94.2078 129.795 94.2106 129.859C94.2218 130.03 94.219 130.199 94.2106 130.364H94.2134Z" stroke="black" stroke-width="0.280456" stroke-linecap="round" stroke-linejoin="round"/>
<path id="Vector_14" d="M94.2134 129.859C94.2218 130.014 94.2218 130.168 94.2134 130.317L94.1797 157.423C94.261 158.971 93.0747 160.289 91.5294 160.373C89.9813 160.454 88.6631 159.268 88.579 157.723L85.6707 130.774C85.6454 130.625 85.6286 130.474 85.6202 130.319C85.494 127.947 87.3141 125.919 89.6896 125.793C92.0623 125.667 94.09 127.487 94.2162 129.862L94.2134 129.859Z" fill="#F6E3E7" stroke="black" stroke-width="0.280456" stroke-linecap="round" stroke-linejoin="round"/>
<path id="Vector_15" d="M94.2134 130.364C94.0956 132.196 92.8083 133.817 90.932 134.271C88.6239 134.832 86.2961 133.413 85.7352 131.105L85.6903 130.953L85.6791 130.914L83.6851 124.203L81.9434 118.349L81.405 116.546L79.1613 108.999L78.0479 105.252C77.9834 105.07 77.9273 104.882 77.8796 104.688C77.1364 101.629 79.0155 98.5437 82.078 97.8005C82.3473 97.736 82.6165 97.6911 82.8858 97.6659C85.6651 97.3966 88.2901 99.2056 88.9688 101.999C88.9857 102.072 88.9969 102.148 89.0109 102.223L89.039 102.218L90.3178 108.999L91.7369 116.546L93.1813 124.203L94.0984 129.074C94.1124 129.125 94.1236 129.178 94.132 129.228C94.1461 129.298 94.1601 129.366 94.1685 129.436C94.1797 129.503 94.1881 129.573 94.1965 129.643C94.1965 129.652 94.1965 129.66 94.1965 129.666C94.2021 129.73 94.2078 129.795 94.2106 129.859C94.2218 130.03 94.219 130.199 94.2106 130.364H94.2134Z" fill="#1B1464" stroke="black" stroke-width="0.280456" stroke-linecap="round" stroke-linejoin="round"/>
<path id="mask_2" d="M83.3063 97.7164L72.6182 96.4431V118.352H83.4045L83.8644 98.3586C83.8729 98.0333 83.6317 97.7556 83.3091 97.7192L83.3063 97.7164Z" fill="#1B1464"/>
</g>
<g id="Group_7">
<path id="Vector_16" d="M77.7786 37.699H50.2995C41.2028 37.699 33.8284 45.0734 33.8284 54.1701V78.6539C33.8284 87.7507 41.2028 95.1251 50.2995 95.1251H77.7786C86.8754 95.1251 94.2498 87.7507 94.2498 78.6539V54.1701C94.2498 45.0734 86.8754 37.699 77.7786 37.699Z" fill="#0088C9" stroke="black" stroke-width="0.280456" stroke-linecap="round" stroke-linejoin="round"/>
<g id="Group_8">
<path id="Vector_17" d="M35.2756 48.7575L93.0635 32.7603C95.8008 32.7603 98.0164 34.9787 98.0164 37.7131V69.2055C98.0164 71.9427 95.798 74.1583 93.0635 74.1583H35.2756C32.5384 74.1583 30.3228 71.9399 30.3228 69.2055V53.7103C30.3228 50.973 32.5412 48.7575 35.2756 48.7575Z" fill="#0088C9" stroke="black" stroke-width="0.280456" stroke-linecap="round" stroke-linejoin="round"/>
<g id="Vector_18">
<path d="M95.0716 37.0119V36.3023C95.0716 31.2709 90.9937 27.1931 85.9624 27.1931H46.7827C37.6931 27.1931 30.3228 34.5635 30.3228 43.6531V61.0217" fill="#0088C9"/>
<path d="M95.0716 37.0119V36.3023C95.0716 31.2709 90.9937 27.1931 85.9624 27.1931H46.7827C37.6931 27.1931 30.3228 34.5635 30.3228 43.6531V61.0217" stroke="black" stroke-width="0.280456" stroke-linecap="round" stroke-linejoin="round"/>
</g>
<g id="Group_9">
<path id="Vector_19" d="M47.7363 35.3489H63.5821" stroke="black" stroke-width="0.280456" stroke-linecap="round" stroke-linejoin="round"/>
<path id="Vector_20" d="M37.2024 32.7603H75.6865" stroke="black" stroke-width="0.280456" stroke-linecap="round" stroke-linejoin="round"/>
<path id="Vector_21" d="M37.9287 29.8267H73.3895" stroke="black" stroke-width="0.280456" stroke-linecap="round" stroke-linejoin="round"/>
</g>
</g>
<g id="Group_10" style="mix-blend-mode:multiply">
<path id="Vector_22" d="M93.0607 72.9157H35.2756C32.5384 72.9157 30.3228 70.6973 30.3228 67.9629V69.2053C30.3228 71.9426 32.5412 74.1582 35.2756 74.1582H93.0635C95.8008 74.1582 98.0164 71.9398 98.0164 69.2053V67.9629C98.0164 70.7001 95.798 72.9157 93.0635 72.9157H93.0607Z" fill="#0088C9"/>
</g>
<g id="Group_11">
<path id="Vector_23" d="M38.1867 71.3003C39.0336 73.1204 38.7897 74.318 36.1281 76.4999C33.4666 78.6791 29.5402 78.2892 27.3611 75.6277C25.1819 72.9662 25.5718 69.0398 28.2333 66.8607C30.8948 64.6815 36.8124 68.3527 38.1867 71.3031V71.3003Z" fill="#F6E3E7" stroke="black" stroke-width="0.280456" stroke-linecap="round" stroke-linejoin="round"/>
<g id="Vector_24" style="mix-blend-mode:multiply">
<path d="M28.6456 68.1032C31.2987 65.9297 37.1827 69.57 38.585 72.5148C38.5261 72.1306 38.3887 71.7351 38.1867 71.3004C36.8125 68.35 30.8949 64.6788 28.2334 66.858C26.0009 68.6866 25.3727 71.7407 26.5142 74.2508C26.0318 72.0352 26.775 69.6373 28.6484 68.1004L28.6456 68.1032Z" fill="#F6E3E7"/>
</g>
<g id="Vector_25" style="mix-blend-mode:multiply">
<path d="M32.7796 72.5456C32.7796 72.5456 28.4325 69.9262 29.846 75.0753C29.846 75.0753 27.005 71.407 30.7659 68.2771C30.7659 68.2771 29.689 69.8477 31.3128 70.6469C33.9575 71.9511 32.7796 72.5456 32.7796 72.5456Z" fill="#F6E3E7"/>
</g>
<path id="Vector_26" d="M29.7926 74.9829C27.0946 71.006 30.763 68.3501 30.763 68.3501" stroke="black" stroke-width="0.280456" stroke-linecap="round" stroke-linejoin="round"/>
<path id="Vector_27" d="M32.7094 72.397C32.7094 72.397 31.5819 70.1141 28.9316 71.062" stroke="black" stroke-width="0.280456" stroke-linecap="round" stroke-linejoin="round"/>
</g>
<g id="Group_12">
<path id="Vector_28" d="M89.8154 71.3C88.9684 73.1202 89.2124 74.3177 91.874 76.4997C94.5355 78.6788 98.4619 78.289 100.641 75.6275C102.82 72.9659 102.43 69.0396 99.7688 66.8604C97.1073 64.6813 91.1897 68.3525 89.8154 71.3028V71.3Z" fill="#F6E3E7" stroke="black" stroke-width="0.280456" stroke-linecap="round" stroke-linejoin="round"/>
<g id="Vector_29" style="mix-blend-mode:multiply">
<path d="M99.3537 68.103C96.7005 65.9294 90.8166 69.5697 89.4143 72.5145C89.476 72.1303 89.6106 71.7349 89.8125 71.3002C91.1868 68.3498 97.1044 64.6786 99.7659 66.8577C101.998 68.6863 102.627 71.7405 101.485 74.2506C101.967 72.035 101.224 69.6371 99.3509 68.1002L99.3537 68.103Z" fill="#F6E3E7"/>
</g>
<g id="Vector_30" style="mix-blend-mode:multiply">
<path d="M95.2226 72.5454C95.2226 72.5454 99.5697 69.9259 98.1562 75.0751C98.1562 75.0751 100.997 71.4067 97.2363 68.2769C97.2363 68.2769 98.3132 69.8474 96.6894 70.6467C94.0447 71.9508 95.2226 72.5454 95.2226 72.5454Z" fill="#F6E3E7"/>
</g>
<path id="Vector_31" d="M98.2065 74.9826C100.904 71.0058 97.2361 68.3499 97.2361 68.3499" stroke="black" stroke-width="0.280456" stroke-linecap="round" stroke-linejoin="round"/>
<path id="Vector_32" d="M95.29 72.3967C95.29 72.3967 96.4175 70.1138 99.0678 71.0617" stroke="black" stroke-width="0.280456" stroke-linecap="round" stroke-linejoin="round"/>
</g>
<g id="Group_13">
<path id="Vector_33" d="M77.7786 37.699H50.2995C41.2028 37.699 33.8284 45.0734 33.8284 54.1701V78.6539C33.8284 87.7507 41.2028 95.1251 50.2995 95.1251H77.7786C86.8754 95.1251 94.2498 87.7507 94.2498 78.6539V54.1701C94.2498 45.0734 86.8754 37.699 77.7786 37.699Z" fill="#F0CCD4" stroke="black" stroke-width="0.280456" stroke-linecap="round" stroke-linejoin="round"/>
<path id="Vector_34" d="M92.2501 55.0927V76.9627C92.2501 85.553 85.2864 92.5168 76.6932 92.5168H49.3824C40.7921 92.5168 33.8284 85.553 33.8284 76.9627V55.0927C33.8284 55.0927 33.8284 55.0675 33.8284 55.0563C33.834 52.9024 35.1718 50.9729 37.1658 50.1567C39.7404 49.0994 42.7441 48.1655 46.1937 47.4251C49.4021 46.7352 52.9975 46.2191 56.994 45.9275C59.3358 45.7592 61.815 45.6694 64.4373 45.6694C67.0596 45.6694 69.5388 45.7592 71.8806 45.9275C75.8743 46.2163 79.4697 46.7352 82.6781 47.4223C84.3749 47.7869 85.9651 48.1963 87.4487 48.6479C90.2673 49.5005 92.2389 52.0947 92.2473 55.0395C92.2473 55.0563 92.2473 55.0759 92.2473 55.0927H92.2501Z" fill="#F6E3E7"/>
<path id="Vector_35" d="M77.7786 37.699H50.2995C41.2028 37.699 33.8284 45.0734 33.8284 54.1701V78.6539C33.8284 87.7507 41.2028 95.1251 50.2995 95.1251H77.7786C86.8754 95.1251 94.2498 87.7507 94.2498 78.6539V54.1701C94.2498 45.0734 86.8754 37.699 77.7786 37.699Z" stroke="black" stroke-width="0.280456" stroke-linecap="round" stroke-linejoin="round"/>
</g>
<g id="Group_14">
<g id="Group_15">
<path id="Vector_36" d="M70.8767 54.0019L76.9597 54.2992C78.2442 54.3609 79.338 53.3709 79.3997 52.0864C79.453 51.0067 78.7547 50.0307 77.7142 49.7334L71.6984 48.0114C70.254 47.5991 68.8013 48.6368 68.7284 50.1372L68.6583 51.5648C68.5966 52.8493 69.5866 53.943 70.871 54.0047L70.8767 54.0019Z" fill="#0088C9" stroke="black" stroke-width="0.280456" stroke-linecap="round" stroke-linejoin="round"/>
<path id="Vector_37" d="M70.8765 54.0019L76.9596 54.2992C78.1824 54.3581 79.2285 53.4634 79.3828 52.2715C78.9845 52.8829 78.6732 53.2026 73.6418 53.2026C70.0856 53.2026 69.1573 51.3852 68.7198 50.3616L68.6609 51.5619C68.5992 52.8464 69.5892 53.9402 70.8737 54.0019H70.8765Z" fill="#004CA0"/>
<path id="Vector_38" d="M70.8767 54.0019L76.9597 54.2992C78.2442 54.3609 79.338 53.3709 79.3997 52.0864C79.453 51.0067 78.7547 50.0307 77.7142 49.7334L71.6984 48.0114C70.254 47.5991 68.8013 48.6368 68.7284 50.1372L68.6583 51.5648C68.5966 52.8493 69.5866 53.943 70.871 54.0047L70.8767 54.0019Z" stroke="black" stroke-width="0.280456" stroke-linecap="round" stroke-linejoin="round"/>
<path id="Vector_39" d="M71.4852 54.03C70.871 52.0696 71.2692 49.9326 72.5145 48.3284" stroke="black" stroke-width="0.280456" stroke-linecap="round" stroke-linejoin="round"/>
<path id="Vector_40" d="M73.8468 54.145C73.3812 52.3669 73.729 50.471 74.7723 48.979" stroke="black" stroke-width="0.280456" stroke-linecap="round" stroke-linejoin="round"/>
<path id="Vector_41" d="M76.3034 54.2993C75.9781 52.6922 76.3034 51.0179 77.1869 49.6521" stroke="black" stroke-width="0.280456" stroke-linecap="round" stroke-linejoin="round"/>
</g>
<g id="Group_16">
<path id="Vector_42" d="M57.2073 54.0019L51.1242 54.2992C49.8397 54.3609 48.7459 53.3709 48.6842 52.0864C48.631 51.0067 49.3293 50.0307 50.3698 49.7334L56.3856 48.0114C57.8299 47.5991 59.2827 48.6368 59.3556 50.1372L59.4257 51.5648C59.4874 52.8493 58.4974 53.943 57.2129 54.0047L57.2073 54.0019Z" fill="#0088C9" stroke="black" stroke-width="0.280456" stroke-linecap="round" stroke-linejoin="round"/>
<path id="Vector_43" d="M57.2074 54.0019L51.1243 54.2992C49.9015 54.3581 48.8554 53.4634 48.7012 52.2715C49.0994 52.8829 49.4107 53.2026 54.4421 53.2026C57.9983 53.2026 58.9266 51.3852 59.3641 50.3616L59.423 51.5619C59.4847 52.8464 58.4947 53.9402 57.2102 54.0019H57.2074Z" fill="#004CA0"/>
<path id="Vector_44" d="M57.2073 54.0019L51.1242 54.2992C49.8397 54.3609 48.7459 53.3709 48.6842 52.0864C48.631 51.0067 49.3293 50.0307 50.3698 49.7334L56.3856 48.0114C57.8299 47.5991 59.2827 48.6368 59.3556 50.1372L59.4257 51.5648C59.4874 52.8493 58.4974 53.943 57.2129 54.0047L57.2073 54.0019Z" stroke="black" stroke-width="0.280456" stroke-linecap="round" stroke-linejoin="round"/>
<path id="Vector_45" d="M56.5986 54.03C57.2128 52.0696 56.8146 49.9326 55.5693 48.3284" stroke="black" stroke-width="0.280456" stroke-linecap="round" stroke-linejoin="round"/>
<path id="Vector_46" d="M54.24 54.145C54.7055 52.3669 54.3577 50.471 53.3145 48.979" stroke="black" stroke-width="0.280456" stroke-linecap="round" stroke-linejoin="round"/>
<path id="Vector_47" d="M51.7804 54.2993C52.1057 52.6922 51.7804 51.0179 50.897 49.6521" stroke="black" stroke-width="0.280456" stroke-linecap="round" stroke-linejoin="round"/>
</g>
<g id="Vector_48" style="mix-blend-mode:multiply">
<path d="M64.4541 75.4036C64.4541 73.9901 63.3071 72.843 61.8936 72.843C61.0157 72.843 60.3146 73.3366 59.7817 73.9536C58.0429 75.9729 56.6967 77.3556 52.2767 78.0931C49.7807 78.5082 46.6227 78.3736 42.744 77.0499C42.3654 76.904 41.4904 76.6348 40.7668 76.6348C38.0408 76.6348 35.8308 78.8448 35.8308 81.5708C35.8308 83.5761 37.0171 85.3149 38.7419 86.0693C40.1695 86.6947 44.4969 88.3831 49.7386 87.5305C53.9903 86.8406 59.1114 84.2463 62.9172 78.7158C63.2818 78.1857 64.4569 76.6768 64.4569 75.4008L64.4541 75.4036Z" fill="#F6E3E7"/>
</g>
<g id="Vector_49" style="mix-blend-mode:multiply">
<path d="M63.6268 75.4036C63.6268 73.9901 64.7739 72.843 66.1874 72.843C67.0652 72.843 67.7664 73.3366 68.2992 73.9536C70.038 75.9729 71.3842 77.3556 75.8042 78.0931C78.3003 78.5082 81.4582 78.3736 85.3369 77.0499C85.7155 76.904 86.5905 76.6348 87.3141 76.6348C90.0401 76.6348 92.2501 78.8448 92.2501 81.5708C92.2501 83.5761 91.0638 85.3149 89.339 86.0693C87.9115 86.6947 83.5841 88.3831 78.3423 87.5305C74.0906 86.8406 68.9695 84.2463 65.1637 78.7158C64.7991 78.1857 63.624 76.6768 63.624 75.4008L63.6268 75.4036Z" fill="#F6E3E7"/>
</g>
<path id="Vector_50" d="M61.6468 80.6312C62.4686 80.6985 63.2623 80.8135 64.0391 80.8135C64.83 80.8135 65.6153 80.7462 66.4342 80.6733C66.0724 80.8724 65.677 81.0042 65.2703 81.0884C64.8721 81.1809 64.4514 81.2202 64.0391 81.2258C63.6184 81.2202 63.2006 81.1669 62.8023 81.0603C62.4041 80.9622 62.0142 80.8275 61.644 80.6284L61.6468 80.6312Z" fill="#1D1D1B"/>
<g id="Vector_51">
<path d="M68.4058 74.1611C68.4058 76.5702 66.451 78.525 64.0419 78.525C61.6328 78.525 59.678 76.5702 59.678 74.1611" fill="#F0CCD4"/>
<path d="M68.4058 74.1611C68.4058 76.5702 66.451 78.525 64.0419 78.525C61.6328 78.525 59.678 76.5702 59.678 74.1611" stroke="black" stroke-width="0.280456" stroke-linecap="round" stroke-linejoin="round"/>
</g>
<g id="Group_17">
<path id="Vector_52" d="M64.0391 74.1611C64.0391 72.7476 62.892 71.6006 61.4785 71.6006C60.6007 71.6006 59.8996 72.0942 59.3667 72.7112C57.6279 74.7305 56.2817 76.1131 51.8617 76.8507C49.3656 77.2658 46.2077 77.1312 42.329 75.8074C41.9504 75.6616 41.0754 75.3923 40.3518 75.3923C37.6258 75.3923 35.4158 77.6023 35.4158 80.3284C35.4158 82.3336 36.6021 84.0724 38.3269 84.8269C39.7544 85.4523 44.0819 87.1406 49.3236 86.2881C53.5753 85.5981 58.6964 83.0039 62.5022 77.4733C62.8668 76.9433 64.0419 75.4344 64.0419 74.1583L64.0391 74.1611Z" fill="#0088C9"/>
<path id="Vector_53" d="M38.3268 84.8269C39.7543 85.4523 44.0817 87.1407 49.3235 86.2881C53.5752 85.5982 58.6963 83.0039 62.5021 77.4734C62.7909 77.0527 63.5818 76.0234 63.9016 74.9829C61.6467 77.2686 55.6337 82.5777 47.5454 83.6546C42.2896 84.3529 38.195 82.6057 35.4297 80.7126C35.5699 82.5524 36.7142 84.1202 38.3268 84.8269Z" fill="#004CA0"/>
<path id="Vector_54" d="M64.0391 74.1611C64.0391 72.7476 62.892 71.6006 61.4785 71.6006C60.6007 71.6006 59.8996 72.0942 59.3667 72.7112C57.6279 74.7305 56.2817 76.1131 51.8617 76.8507C49.3656 77.2658 46.2077 77.1312 42.329 75.8074C41.9504 75.6616 41.0754 75.3923 40.3518 75.3923C37.6258 75.3923 35.4158 77.6023 35.4158 80.3284C35.4158 82.3336 36.6021 84.0724 38.3269 84.8269C39.7544 85.4523 44.0819 87.1406 49.3236 86.2881C53.5753 85.5981 58.6964 83.0039 62.5022 77.4733C62.8668 76.9433 64.0419 75.4344 64.0419 74.1583L64.0391 74.1611Z" stroke="black" stroke-width="0.280456" stroke-linecap="round" stroke-linejoin="round"/>
<path id="Vector_55" d="M37.6678 84.437C37.3116 82.5552 37.0452 78.7381 39.6758 75.4849" stroke="black" stroke-width="0.280456" stroke-linecap="round" stroke-linejoin="round"/>
<path id="Vector_56" d="M43.3189 76.2336C42.3654 77.7285 40.5733 81.3464 41.869 85.9374" stroke="black" stroke-width="0.280456" stroke-linecap="round" stroke-linejoin="round"/>
<path id="Vector_57" d="M61.5571 78.5951C60.598 77.8463 58.9264 76.2645 58.2954 73.9312" stroke="black" stroke-width="0.280456" stroke-linecap="round" stroke-linejoin="round"/>
<path id="Vector_58" d="M54.9382 76.1721C55.1037 77.465 55.7207 80.1378 57.9896 82.272" stroke="black" stroke-width="0.280456" stroke-linecap="round" stroke-linejoin="round"/>
<path id="Vector_59" d="M52.4254 85.4355C51.6233 84.2071 50.2519 81.3381 51.2082 77.019" stroke="black" stroke-width="0.280456" stroke-linecap="round" stroke-linejoin="round"/>
<path id="Vector_60" d="M47.1611 77.0527C46.5105 78.3961 44.9596 82.3898 47.0798 86.4873" stroke="black" stroke-width="0.280456" stroke-linecap="round" stroke-linejoin="round"/>
</g>
<g id="Group_18">
<path id="Vector_61" d="M64.0392 74.1611C64.0392 72.7476 65.1862 71.6006 66.5997 71.6006C67.4776 71.6006 68.1787 72.0942 68.7116 72.7112C70.4504 74.7305 71.7966 76.1131 76.2166 76.8507C78.7126 77.2658 81.8706 77.1312 85.7493 75.8074C86.1279 75.6616 87.0029 75.3923 87.7265 75.3923C90.4525 75.3923 92.6625 77.6023 92.6625 80.3284C92.6625 82.3336 91.4762 84.0724 89.7514 84.8269C88.3238 85.4523 83.9964 87.1406 78.7547 86.2881C74.503 85.5981 69.3819 83.0039 65.5761 77.4733C65.2115 76.9433 64.0364 75.4344 64.0364 74.1583L64.0392 74.1611Z" fill="#0088C9"/>
<path id="Vector_62" d="M89.754 84.8269C88.3264 85.4523 83.999 87.1407 78.7573 86.2881C74.5056 85.5982 69.3845 83.0039 65.5787 77.4734C65.2898 77.0527 64.4989 76.0234 64.1792 74.9829C66.4341 77.2686 72.447 82.5777 80.5354 83.6546C85.7911 84.3529 89.8858 82.6057 92.6511 80.7126C92.5108 82.5524 91.3666 84.1202 89.754 84.8269Z" fill="#004CA0"/>
<path id="Vector_63" d="M64.0392 74.1611C64.0392 72.7476 65.1862 71.6006 66.5997 71.6006C67.4776 71.6006 68.1787 72.0942 68.7116 72.7112C70.4504 74.7305 71.7966 76.1131 76.2166 76.8507C78.7126 77.2658 81.8706 77.1312 85.7493 75.8074C86.1279 75.6616 87.0029 75.3923 87.7265 75.3923C90.4525 75.3923 92.6625 77.6023 92.6625 80.3284C92.6625 82.3336 91.4762 84.0724 89.7514 84.8269C88.3238 85.4523 83.9964 87.1406 78.7547 86.2881C74.503 85.5981 69.3819 83.0039 65.5761 77.4733C65.2115 76.9433 64.0364 75.4344 64.0364 74.1583L64.0392 74.1611Z" stroke="black" stroke-width="0.280456" stroke-linecap="round" stroke-linejoin="round"/>
<path id="Vector_64" d="M90.4133 84.437C90.7695 82.5552 91.0359 78.7381 88.4053 75.4849" stroke="black" stroke-width="0.280456" stroke-linecap="round" stroke-linejoin="round"/>
<path id="Vector_65" d="M84.762 76.2336C85.7155 77.7285 87.5076 81.3464 86.2119 85.9374" stroke="black" stroke-width="0.280456" stroke-linecap="round" stroke-linejoin="round"/>
<path id="Vector_66" d="M66.5239 78.5951C67.4831 77.8463 69.1546 76.2645 69.7856 73.9312" stroke="black" stroke-width="0.280456" stroke-linecap="round" stroke-linejoin="round"/>
<path id="Vector_67" d="M73.14 76.1721C72.9745 77.465 72.3575 80.1378 70.0886 82.272" stroke="black" stroke-width="0.280456" stroke-linecap="round" stroke-linejoin="round"/>
<path id="Vector_68" d="M75.6558 85.4355C76.4579 84.2071 77.8293 81.3381 76.8729 77.019" stroke="black" stroke-width="0.280456" stroke-linecap="round" stroke-linejoin="round"/>
<path id="Vector_69" d="M80.9199 77.0527C81.5706 78.3961 83.1215 82.3898 81.0013 86.4873" stroke="black" stroke-width="0.280456" stroke-linecap="round" stroke-linejoin="round"/>
</g>
<g id="Group_19">
<path id="Vector_70" d="M61.577 70.3916H66.5047C67.1749 70.3916 67.7162 69.8476 67.7162 69.1801C67.7162 68.5098 67.1721 67.9685 66.5047 67.9685H61.577C60.9068 67.9685 60.3655 68.5126 60.3655 69.1801C60.3655 69.8504 60.9096 70.3916 61.577 70.3916Z" fill="#F2ADC9" stroke="black" stroke-width="0.280456" stroke-linecap="round" stroke-linejoin="round"/>
<path id="Vector_71" d="M66.5215 69.5109C66.5215 70.8767 65.4165 71.9817 64.0506 71.9817C62.6848 71.9817 61.5798 70.8767 61.5798 69.5109C61.5798 66.5885 62.6848 59.8015 64.0506 59.8015C65.4165 59.8015 66.5215 66.6474 66.5215 69.5109Z" fill="#F2ADC9" stroke="black" stroke-width="0.280456" stroke-linecap="round" stroke-linejoin="round"/>
<path id="Vector_72" d="M62.6848 70.3915C63.1756 70.3859 63.6243 70.442 64.0562 70.442C64.4966 70.4448 64.9425 70.3999 65.4333 70.4196C65.2314 70.571 65.0098 70.672 64.7742 70.7477C64.5442 70.8178 64.3002 70.8515 64.0534 70.8571C63.8066 70.8543 63.5626 70.8122 63.3327 70.7337C63.1027 70.6551 62.8811 70.5514 62.6848 70.3915Z" fill="#1D1D1B"/>
</g>
<g id="Group_20">
<path id="Vector_73" d="M57.7628 60.0371C57.7628 60.8953 57.0728 61.5908 56.2231 61.5908C55.3733 61.5908 54.6833 60.8953 54.6833 60.0371C54.6833 59.1789 55.3733 58.4834 56.2231 58.4834C57.0728 58.4834 57.7628 59.1789 57.7628 60.0371Z" fill="#111111"/>
<path id="Vector_74" d="M58.2255 62.2107C57.7459 62.8053 57.0504 63.2568 56.2623 63.3887C55.8753 63.4504 55.4602 63.4868 55.0788 63.3634C54.8824 63.3213 54.7058 63.226 54.5291 63.1475C54.3552 63.0549 54.1953 62.9371 54.0439 62.8193C54.0383 62.8137 54.0355 62.8053 54.0439 62.7969C54.0467 62.7913 54.0551 62.7913 54.0607 62.7913C54.2542 62.8334 54.4309 62.8979 54.6104 62.9455C54.7955 62.9764 54.9666 63.0465 55.1489 63.0605C55.2386 63.0774 55.3284 63.097 55.4153 63.1082L55.6846 63.1362C55.7743 63.1531 55.864 63.1503 55.9566 63.1531C56.0463 63.1531 56.1389 63.1587 56.2286 63.1419C56.5932 63.111 56.9522 63.0044 57.286 62.8362C57.6225 62.6763 57.9366 62.4575 58.203 62.1883C58.203 62.1883 58.2199 62.1799 58.2255 62.1883C58.2311 62.1939 58.2311 62.2023 58.2255 62.2079V62.2107Z" fill="#111111"/>
<path id="Vector_75" d="M58.2256 62.9623C58.0937 63.4306 57.8273 63.8822 57.4122 64.1794C57.2103 64.3309 56.9691 64.4543 56.7111 64.4767C56.4559 64.5132 56.1979 64.4655 55.9679 64.3758C55.9623 64.3758 55.9595 64.3674 55.9623 64.3617C55.9623 64.3589 55.9679 64.3561 55.9707 64.3561C56.0969 64.3365 56.2147 64.3449 56.3325 64.3281C56.4503 64.3085 56.5653 64.3057 56.6774 64.272C56.9018 64.2271 57.1206 64.1626 57.3197 64.042C57.5188 63.9214 57.6955 63.7616 57.8413 63.5737C57.99 63.3886 58.1162 63.1782 58.2059 62.9567C58.2059 62.951 58.2143 62.9482 58.22 62.9511C58.2256 62.9511 58.2284 62.9595 58.2256 62.9651V62.9623Z" fill="#111111"/>
<g id="Group_21">
<path id="Vector_76" d="M49.7559 60.312H50.729" stroke="black" stroke-width="0.140228" stroke-linecap="round" stroke-linejoin="round"/>
<path id="Vector_77" d="M49.7559 59.479H50.729" stroke="black" stroke-width="0.140228" stroke-linecap="round" stroke-linejoin="round"/>
<path id="Vector_78" d="M49.4978 59.8828H50.729" stroke="black" stroke-width="0.140228" stroke-linecap="round" stroke-linejoin="round"/>
</g>
</g>
<g id="Group_22">
<path id="Vector_79" d="M70.3184 60.0374C70.3184 60.8956 71.0083 61.5911 71.8581 61.5911C72.7078 61.5911 73.3978 60.8956 73.3978 60.0374C73.3978 59.1792 72.7078 58.4836 71.8581 58.4836C71.0083 58.4836 70.3184 59.1792 70.3184 60.0374Z" fill="#111111"/>
<path id="Vector_80" d="M69.8781 62.1912C70.1445 62.4577 70.4586 62.6764 70.7952 62.8391C71.1289 63.0045 71.4879 63.1139 71.8525 63.1448C71.9422 63.1588 72.0348 63.156 72.1245 63.156C72.2143 63.156 72.3068 63.156 72.3966 63.1392L72.6658 63.1111C72.7556 63.0971 72.8453 63.0775 72.9322 63.0634C73.1145 63.0494 73.2856 62.9793 73.4707 62.9484C73.6502 62.9008 73.8269 62.8335 74.0204 62.7942C74.0204 62.7942 74.0372 62.797 74.04 62.8054C74.04 62.811 74.04 62.8166 74.0344 62.8222C73.883 62.94 73.7231 63.0578 73.5492 63.1504C73.3726 63.2317 73.1931 63.3271 72.9996 63.3663C72.6181 63.4897 72.2031 63.4533 71.816 63.3916C71.0308 63.2598 70.3352 62.8082 69.8528 62.2137C69.8472 62.208 69.8472 62.1968 69.8528 62.1912C69.8584 62.1856 69.8669 62.1856 69.8725 62.1912H69.8781Z" fill="#111111"/>
<path id="Vector_81" d="M69.8753 62.9569C69.9651 63.1813 70.0913 63.3888 70.2399 63.5739C70.3858 63.7618 70.5625 63.9217 70.7616 64.0423C70.9607 64.1629 71.1823 64.2274 71.4038 64.2722C71.5132 64.3059 71.631 64.3087 71.7488 64.3283C71.8666 64.3424 71.9844 64.3367 72.1106 64.3564C72.1106 64.3564 72.119 64.362 72.119 64.3676C72.119 64.3704 72.1162 64.3732 72.1134 64.376C71.8834 64.4629 71.6254 64.5106 71.3702 64.477C71.1122 64.4545 70.871 64.3311 70.669 64.1797C70.254 63.8796 69.9875 63.4309 69.8557 62.9625C69.8557 62.9569 69.8557 62.9513 69.8641 62.9485C69.8697 62.9485 69.8753 62.9485 69.8781 62.9541L69.8753 62.9569Z" fill="#111111"/>
<g id="Group_23">
<path id="Vector_82" d="M78.3227 60.3123H77.3523" stroke="black" stroke-width="0.140228" stroke-linecap="round" stroke-linejoin="round"/>
<path id="Vector_83" d="M78.3227 59.4792H77.3523" stroke="black" stroke-width="0.140228" stroke-linecap="round" stroke-linejoin="round"/>
<path id="Vector_84" d="M78.5807 59.8831H77.3523" stroke="black" stroke-width="0.140228" stroke-linecap="round" stroke-linejoin="round"/>
</g>
</g>
</g>
</g>
<path id="Vector_85" d="M71.2832 95.125V98.2381C69.7042 98.7906 67.0315 99.1523 63.9997 99.1523C60.968 99.1523 58.2953 98.7906 56.7163 98.2409V95.1278C57.1342 95.2708 57.625 95.4027 58.1775 95.5204C59.7284 95.843 61.7673 96.0393 63.9997 96.0393C66.2322 96.0393 68.2711 95.843 69.8192 95.5204C70.3745 95.4027 70.8681 95.2708 71.286 95.125H71.2832Z" fill="#1B1464" stroke="black" stroke-width="0.210342" stroke-linecap="round" stroke-linejoin="round"/>
<path id="Vector_86" d="M102.347 40.5962C102.347 45.3948 102.257 48.4489 101.903 51.1778C97.7752 48.5387 91.8463 46.1632 83.9599 44.646C78.4321 43.583 71.9424 42.9464 64.4402 42.9464C56.938 42.9464 50.4483 43.583 44.9177 44.646C37.0341 46.1632 31.1024 48.5387 26.9741 51.1778C26.6208 48.4461 26.531 45.392 26.531 40.5962C26.531 31.2906 48.2944 17.7502 64.4402 17.7502C80.586 17.7502 102.347 31.2906 102.347 40.5962Z" fill="#C40B0D" stroke="black" stroke-width="0.280456" stroke-linecap="round" stroke-linejoin="round"/>
<path id="Vector_87" opacity="0.42" d="M78.1629 20.3472L78.8416 20.5884L83.887 42.9547L45.8403 43.1454L50.1145 20.5603L50.7119 20.3472H78.1629Z" fill="black"/>
<path id="Vector_88" d="M82.0557 42.0292C77.0664 41.0701 71.2076 40.4951 64.4374 40.4951C57.6672 40.4951 51.8085 41.0701 46.8164 42.0292L50.8718 19.4469C51.1102 18.1176 52.0581 17.021 53.3454 16.6087C56.8427 15.4897 60.57 14.8867 64.4374 14.8867C68.3049 14.8867 72.0294 15.4897 75.5267 16.6087C76.814 17.021 77.7619 18.1176 78.0003 19.4469L82.0557 42.0292Z" fill="#E00506" stroke="black" stroke-width="0.280456" stroke-linecap="round" stroke-linejoin="round"/>
<path id="Vector_89" d="M72.5734 29.8238C72.5734 34.356 71.1796 38.5628 68.7929 42.0377C67.385 42.3238 65.9294 42.4752 64.4374 42.4752C62.9454 42.4752 61.4898 42.3238 60.0819 42.0377C59.765 41.5777 59.4649 41.1038 59.1845 40.6186C57.3503 37.441 56.2986 33.7558 56.2986 29.8238C56.2986 25.2917 57.6953 21.0848 60.0791 17.6156H60.0819C61.4898 17.3267 62.9454 17.1753 64.4374 17.1753C65.9294 17.1753 67.385 17.3267 68.7929 17.6156H68.7957C71.1796 21.0848 72.5734 25.2917 72.5734 29.8238Z" fill="#FF0000" stroke="black" stroke-width="0.280456" stroke-linecap="round" stroke-linejoin="round"/>
<path id="Vector_90" opacity="0.1" d="M75.5265 16.6086C78.6339 27.4651 78.4685 42.9687 59.1843 43.0584L82.0555 42.0292L78.0001 19.4469C78.0001 19.4469 77.6579 17.22 75.5265 16.6086Z" fill="black"/>
<path id="Vector_91" opacity="0.3" d="M72.5733 29.8237C72.5733 34.3559 71.1794 38.5627 68.7927 42.0376C67.3849 42.3236 65.9293 42.4751 64.4373 42.4751C62.9452 42.4751 61.4897 42.3236 60.0818 42.0376C59.7649 41.5776 59.4648 41.1036 59.1843 40.6185H59.1871C70.6213 39.85 70.9971 25.6253 68.7955 17.6155C71.1794 21.0847 72.5733 25.2916 72.5733 29.8237Z" fill="black"/>
<path id="Vector_92" d="M104.882 56.6073C104.882 57.4487 104.456 58.0797 103.685 58.5368C103.124 56.2708 101.149 53.6934 97.6351 51.3319C94.1799 49.0126 89.2355 46.9035 82.6784 45.4984C79.47 44.8113 75.8745 44.2925 71.8809 44.0036C69.539 43.8353 67.0598 43.7456 64.4376 43.7456C61.8153 43.7456 59.3361 43.8353 56.9943 44.0036C52.9978 44.2953 49.4023 44.8113 46.1939 45.5013C39.6397 46.9035 34.6924 49.0154 31.2372 51.3347C27.7231 53.6962 25.7515 56.2708 25.1906 58.5368C24.4193 58.0797 23.9902 57.4487 23.9902 56.6073C23.9902 54.0131 26.1217 50.7991 30.6202 47.9244C34.3475 45.5433 39.7014 43.3978 46.8165 42.0292C51.8086 41.0701 57.6674 40.4951 64.4376 40.4951C71.2078 40.4951 77.0665 41.0701 82.0558 42.0292C89.1738 43.3978 94.5248 45.5433 98.2521 47.9244C102.751 50.7991 104.882 54.0131 104.882 56.6073Z" fill="#FF0000"/>
<path id="Vector_93" d="M53.0874 108.466V116.563C47.2875 117.034 41.8916 116.269 36.8237 115.495L38.3494 107.395C42.7498 108.447 48.1766 108.887 53.0874 108.466Z" fill="#FFCA00" stroke="black" stroke-width="0.280456" stroke-linecap="round" stroke-linejoin="round"/>
<path id="Vector_94" opacity="0.42" d="M56.1949 96.2048L55.8668 97.851L50.1623 102.936L48.7544 131.22L55.5807 133.059L56.7165 98.2409V96.1431L56.1949 96.2048Z" fill="black"/>
<g id="Vector_95">
<path d="M56.7164 98.241L50.8801 102.866V136.877H81.5732" fill="#1B1464"/>
<path d="M56.7164 98.241L50.8801 102.866V136.877H81.5732" stroke="black" stroke-width="0.280456" stroke-linecap="round" stroke-linejoin="round"/>
</g>
<path id="Vector_96" d="M91.3723 114.6C77.8431 116.159 64.0587 117.149 50.9614 117.186V108.999C63.5399 108.996 76.5726 108.208 89.9195 106.871L91.3723 114.603V114.6Z" fill="#FFCA00" stroke="black" stroke-width="0.280456" stroke-linecap="round" stroke-linejoin="round"/>
<path id="Vector_97" d="M35.183 124.203L44.0707 126.256L42.6291 131.105C42.0682 133.413 39.7404 134.832 37.4323 134.271C35.1213 133.71 33.705 131.382 34.2659 129.074L35.183 124.203Z" fill="#FFCA00" stroke="black" stroke-width="0.280456" stroke-linecap="round" stroke-linejoin="round"/>
<path id="Vector_98" d="M94.2134 130.364C94.0956 132.196 92.8083 133.817 90.9321 134.271C88.6239 134.832 86.2961 133.413 85.7352 131.105L85.6903 130.953L85.6791 130.914L84.1562 125.787L93.1813 124.203L94.0984 129.074C94.1124 129.125 94.1236 129.178 94.1321 129.228C94.1461 129.299 94.1601 129.366 94.1685 129.436C94.1797 129.503 94.1881 129.573 94.1966 129.643C94.1966 129.652 94.1966 129.66 94.1966 129.666C94.2022 129.73 94.2078 129.795 94.2106 129.859C94.2218 130.031 94.219 130.199 94.2106 130.364H94.2134Z" fill="#FFCA00" stroke="black" stroke-width="0.280456" stroke-linecap="round" stroke-linejoin="round"/>
<path id="Vector_99" d="M102.201 55.5332C101.177 54.1281 99.6628 52.6949 97.6351 51.3319C94.1799 49.0126 89.2354 46.9035 82.6784 45.4985C79.47 44.8113 75.8745 44.2925 71.8808 44.0036C69.539 43.8354 67.0598 43.7456 64.4376 43.7456C61.8153 43.7456 59.3361 43.8354 56.9943 44.0036C52.9978 44.2953 49.4023 44.8113 46.1939 45.5013C39.6397 46.9035 34.6924 49.0154 31.2372 51.3347C29.2095 52.6978 27.6979 54.1309 26.6714 55.5332" stroke="black" stroke-width="0.280456" stroke-linecap="round" stroke-linejoin="round"/>
<path id="Vector_100" d="M25.1906 58.5368C24.4193 58.0797 23.9902 57.4487 23.9902 56.6073C23.9902 55.1966 24.6213 53.6008 25.9226 51.977C30.379 46.4071 42.705 40.4951 64.4376 40.4951C86.1701 40.4951 98.4933 46.4071 102.95 51.977C104.251 53.6008 104.882 55.1966 104.882 56.6073C104.882 57.4487 104.456 58.0797 103.685 58.5368" stroke="black" stroke-width="0.280456" stroke-linecap="round" stroke-linejoin="round"/>
<path id="Vector_101" opacity="0.42" fill-rule="evenodd" clip-rule="evenodd" d="M46.3311 118.655L45.2682 126.8V129.68H43.9417V126.685L46.3311 118.655Z" fill="black"/>
<path id="Vector_102" opacity="0.42" fill-rule="evenodd" clip-rule="evenodd" d="M82.0725 118.655L83.1382 126.8V129.68H84.6779L84.7649 127.703L82.0725 118.655Z" fill="black"/>
<g id="Group_24">
<path id="Vector_103" d="M75.3724 108.884L72.3098 109.274C71.6844 109.353 71.2413 109.925 71.3198 110.55L71.7096 113.613C71.7882 114.238 72.3603 114.681 72.9857 114.603L76.0483 114.213C76.6737 114.134 77.1168 113.562 77.0383 112.937L76.6485 109.874C76.5699 109.249 75.9978 108.806 75.3724 108.884ZM75.6725 112.9L73.0222 113.237L72.6856 110.587L75.3359 110.25L75.6725 112.9Z" fill="black"/>
<path id="Vector_104" d="M74.7078 110.329L75.0752 113.223C75.2491 114.6 73.973 114.538 73.9926 115.413C73.9926 115.413 73.8384 114.202 73.6645 112.825C73.4542 111.167 74.8116 111.134 74.7078 110.329Z" fill="#E40613" stroke="black" stroke-width="0.280456" stroke-linecap="round" stroke-linejoin="round"/>
</g>
</g>
</g>
</svg>
