<svg width="176" height="176" viewBox="0 0 176 176" fill="none" xmlns="http://www.w3.org/2000/svg">
<path d="M118.872 114.56C119.09 114.052 118.623 113.587 118.071 113.587H72.9668C72.4145 113.587 71.9483 114.052 72.1663 114.56C72.5431 115.436 73.4138 116.054 74.4341 116.054H116.603C117.617 116.054 118.493 115.44 118.872 114.56Z" fill="url(#paint0_linear_253_8787)" stroke="url(#paint1_linear_253_8787)" stroke-opacity="0.4" stroke-width="0.8" stroke-linejoin="round"/>
<path d="M115.811 114.56C116.028 114.052 116.457 113.587 117.009 113.587H118.071C118.623 113.587 119.09 114.052 118.873 114.56C118.497 115.441 117.625 116.054 116.603 116.054H113.542C114.564 116.054 115.435 115.441 115.811 114.56Z" fill="url(#paint2_linear_253_8787)" stroke="url(#paint3_linear_253_8787)" stroke-opacity="0.4" stroke-width="0.8" stroke-linejoin="round"/>
<path d="M97.8275 134.839V128.133C97.8275 126.159 96.235 124.566 94.2723 124.566H71.5L74.5801 116.043H113.889L107 135.5C106 139.5 103.5 139.74 103.5 139.74H101.484C99.3192 139.09 97.85 137.094 97.85 134.839H97.8275Z" fill="#ABDBFF"/>
<path d="M83.4048 128.458V139.752H101.461C99.2968 139.101 97.8276 137.094 97.8276 134.84V128.144C97.8276 126.17 96.235 124.578 94.2723 124.578H87.2853C85.1431 124.578 83.416 126.316 83.416 128.458H83.4048Z" fill="url(#paint4_linear_253_8787)" stroke="url(#paint5_linear_253_8787)" stroke-opacity="0.4" stroke-width="0.8" stroke-linejoin="round"/>
<path d="M87.1636 139.763H102.692C104.377 139.763 105.881 138.707 106.454 137.122L113 119" stroke="url(#paint6_linear_253_8787)" stroke-width="0.8" stroke-linecap="round" stroke-linejoin="round"/>
<path d="M101.461 139.763C99.2965 139.112 97.8273 137.116 97.8273 134.851V128.155C97.8273 126.181 96.2348 124.589 94.2721 124.589H91.1318" stroke="url(#paint7_linear_253_8787)" stroke-width="0.8" stroke-linecap="round" stroke-linejoin="round"/>
<path d="M74.5684 116.199L71.5 124.5" stroke="url(#paint8_linear_253_8787)" stroke-width="0.8" stroke-linecap="round" stroke-linejoin="round"/>
<path d="M57.7242 124.5H90.5H94.5L93.5871 124.614C91.697 124.85 90.1054 126.14 89.4823 127.94L81.5 151H44L53.0641 127.688C53.8114 125.766 55.6621 124.5 57.7242 124.5Z" fill="#DBEEFF"/>
<path d="M95.923 124.577H65.8957Z" stroke="url(#paint9_linear_253_8787)" stroke-width="0.8" stroke-linecap="round" stroke-linejoin="round"/>
<path d="M117.086 110.929L145.651 42.426C146.829 39.5885 144.754 36.4483 141.681 36.4483H148.208C150.373 36.4483 151.831 38.6465 151.001 40.6428L121.651 111.041C121.011 112.577 119.508 113.575 117.849 113.575H113.116C114.854 113.575 116.413 112.532 117.086 110.929Z" fill="url(#paint10_linear_253_8787)" stroke="url(#paint11_linear_253_8787)" stroke-opacity="0.4" stroke-width="0.8" stroke-linejoin="round"/>
<path d="M117.086 110.929L145.651 42.426C146.829 39.5885 144.754 36.4483 141.681 36.4483H148.208C150.373 36.4483 151.831 38.6465 151.001 40.6428L121.651 111.041C121.011 112.577 119.508 113.575 117.849 113.575H113.116C114.854 113.575 116.413 112.532 117.086 110.929Z" fill="url(#paint12_linear_253_8787)" stroke="url(#paint13_linear_253_8787)" stroke-opacity="0.4" stroke-width="0.8" stroke-linejoin="round"/>
<path d="M141.681 36.4595H148.208C150.372 36.4595 151.83 38.6577 151.001 40.654L148.174 47.4392" stroke="url(#paint14_linear_253_8787)" stroke-width="0.8" stroke-linecap="round" stroke-linejoin="round"/>
<path d="M117.085 110.929L145.651 42.426C146.828 39.5885 144.753 36.4483 141.68 36.4483H148.208C150.372 36.4483 151.83 38.6465 151 40.6428L121.65 111.041C121.011 112.577 119.508 113.575 117.848 113.575H113.115C114.854 113.575 116.413 112.532 117.085 110.929Z" fill="url(#paint15_linear_253_8787)" stroke="url(#paint16_linear_253_8787)" stroke-opacity="0.4" stroke-width="0.8" stroke-linejoin="round"/>
<path d="M141.68 36.4595H148.207C150.372 36.4595 151.83 38.6577 151 40.654L148.174 47.4392" stroke="url(#paint17_linear_253_8787)" stroke-width="0.8" stroke-linecap="round" stroke-linejoin="round"/>
<path d="M133.92 81.612L121.651 111.052C121.011 112.588 119.508 113.587 117.849 113.587H113.116" stroke="url(#paint18_linear_253_8787)" stroke-width="0.8" stroke-linecap="round" stroke-linejoin="round"/>
<path d="M148.174 47.4392L136.679 75.0287" stroke="url(#paint19_linear_253_8787)" stroke-width="0.8" stroke-linecap="round" stroke-linejoin="round"/>
<path d="M68.8492 113.587H113.116C114.854 113.587 116.413 112.544 117.086 110.94L145.64 42.426C146.817 39.5885 144.743 36.4483 141.67 36.4483H97.4032C95.6648 36.4483 94.1059 37.4913 93.433 39.0951L64.8678 107.598C63.6902 110.435 65.765 113.575 68.838 113.575L68.8492 113.587Z" fill="#DBEEFF"/>
<path d="M141.68 36.4595H103.111L141.288 37.5698C143.295 37.5698 144.664 39.6222 143.89 41.4839L113.811 113.531C115.257 113.295 116.514 112.33 117.097 110.94L145.662 42.4372C146.839 39.5998 144.753 36.4595 141.692 36.4595H141.68Z" fill="white"/>
<path opacity="0.9" d="M73.2118 102.035H110.334C111.927 102.035 113.351 101.082 113.968 99.6124L136.746 44.9831C137.823 42.3923 135.927 39.5325 133.112 39.5325H98.4012C96.9881 39.5325 95.7096 40.3848 95.1713 41.6858L71.2492 99.0853C70.6548 100.498 71.6978 102.046 73.2118 102.046V102.035Z" fill="white"/>
<path d="M113.968 99.6124L136.746 44.9831C137.822 42.3923 135.927 39.5325 133.112 39.5325H134.85C137.654 39.5325 139.561 42.3923 138.484 44.9831L115.706 99.6124C115.089 101.082 113.665 102.035 112.072 102.035H110.334C111.927 102.035 113.351 101.082 113.968 99.6124Z" fill="#EBF5FF"/>
<path d="M77.689 96.9131L80.1323 91H95.5091C96.052 91 96.4212 91.5595 96.2149 92.0642L94.4123 96.4304C94.2928 96.7157 94.0213 96.9021 93.7064 96.9021H77.6998L77.689 96.9131Z" fill="#FFBB00"/>
<path d="M76.0645 95.7722L77.6673 91.8009C77.8584 91.3182 78.3255 91 78.835 91H92.9424C93.5156 91 93.8977 91.5924 93.6748 92.141L92.0719 96.1123C91.8809 96.595 91.4138 96.9131 90.9043 96.9131H76.7969C76.2237 96.9131 75.8415 96.3207 76.0645 95.7722Z" fill="#FFDC7A"/>
<path d="M84.7524 56.3329H86.2664L88.2179 51.6673H86.4234C85.9748 51.6673 85.5823 51.9365 85.4029 52.3515L84.1355 55.3908C83.9561 55.8394 84.2813 56.3329 84.7524 56.3329Z" fill="#0D95FF"/>
<path d="M78.7967 68.1649L82.1164 60.2021C82.2622 59.8545 82.5987 59.6301 82.9688 59.6301H84.8754L82.9239 64.2957L80.9725 68.9612H79.3126C78.9089 68.9612 78.6285 68.5463 78.7855 68.1649H78.7967Z" fill="#0D95FF"/>
<path d="M143.565 47.4392L145.651 42.4372C146.828 39.5998 144.753 36.4595 141.68 36.4595H105.265" stroke="url(#paint20_linear_253_8787)" stroke-width="0.8" stroke-linecap="round" stroke-linejoin="round"/>
<path d="M90.6965 45.656L64.8903 107.609C63.7127 110.446 65.7875 113.587 68.8605 113.587H113.127C114.865 113.587 116.424 112.544 117.097 110.94L131.711 75.881" stroke="url(#paint21_linear_253_8787)" stroke-width="0.8" stroke-linecap="round" stroke-linejoin="round"/>
<path d="M104.5 57.4818C103.786 57.4818 103.302 56.7559 103.577 56.0972L106.278 49.6155C106.433 49.2428 106.797 49.0001 107.201 49.0001H129.002C129.716 49.0001 130.2 49.726 129.925 50.3847L127.225 56.8664C127.069 57.2391 126.705 57.4818 126.301 57.4818H104.5Z" fill="#FFF4D7"/>
<path d="M120.866 55.6865C119.561 54.7894 119.335 52.8684 120.34 51.3823C121.355 49.9052 123.231 49.4249 124.536 50.322C125.841 51.2191 126.067 53.1402 125.062 54.6263C124.047 56.1034 122.171 56.5837 120.866 55.6865Z" fill="#FFECBB"/>
<path d="M86.9447 73.9702C86.2292 73.9702 85.7452 73.2407 86.0233 72.5815L91.1083 60.5275C91.4209 59.7865 92.1469 59.3049 92.9511 59.3049H124.785C125.5 59.3049 125.984 60.0343 125.706 60.6935L120.621 72.7475C120.308 73.4885 119.582 73.9702 118.778 73.9702H86.9447Z" fill="#CCE9FF"/>
<path d="M94.6326 69.9503C92.9733 68.8095 92.6852 66.3667 93.9643 64.477C95.2548 62.5988 97.64 61.9881 99.2993 63.1288C100.959 64.2696 101.247 66.7124 99.9676 68.6021C98.6771 70.4803 96.2919 71.091 94.6326 69.9503Z" fill="#A8DAFF"/>
<path d="M94.5015 84.2644C93.7875 84.2644 93.3036 83.5377 93.5788 82.8789L96.1956 76.6146C96.3511 76.2424 96.7149 76.0001 97.1183 76.0001H118.305C119.019 76.0001 119.503 76.7267 119.227 77.3855L116.61 83.6498C116.455 84.022 116.091 84.2644 115.688 84.2644H94.5015Z" fill="#FFF4D7"/>
<path d="M111.301 82.7442C110.03 81.8701 109.809 79.9983 110.789 78.5502C111.778 77.111 113.606 76.6431 114.877 77.5172C116.149 78.3913 116.369 80.2631 115.389 81.7112C114.4 83.1503 112.573 83.6183 111.301 82.7442Z" fill="#FFECBB"/>
<path d="M75.7657 50.2783L66.6464 70.3284C66.3221 71.0415 65.3409 71.1217 64.9052 70.4707L61.9067 65.9917C61.7211 65.7145 61.4094 65.548 61.0757 65.548H27.0581C25.5419 65.5346 24.5489 63.9513 25.2064 62.5826L31.2848 49.9965C32.063 48.3863 33.6866 47.3665 35.4712 47.3665H73.9006C75.4034 47.3665 76.3964 48.9096 75.7792 50.2783H75.7657Z" fill="#EBF5FF"/>
<path opacity="0.6" d="M62.2117 53.861L62.99 52.1703H37.9787L37.1602 53.861H62.2117Z" fill="#9ED1FF"/>
<path opacity="0.6" d="M60.5113 59.1211L61.2761 57.417H36.2782L35.4463 59.1211H60.5113Z" fill="#9ED1FF"/>
<path d="M44.3623 54.5075C44.2296 54.9215 43.8447 55.2024 43.41 55.2024H42.3669C41.6902 55.2024 41.2089 54.5444 41.4139 53.8995L42.4316 50.6971C42.5636 50.282 42.949 50 43.3846 50H44.436C45.1136 50 45.595 50.6598 45.3883 51.3051L44.3623 54.5075Z" fill="url(#paint22_linear_253_8787)" stroke="url(#paint23_linear_253_8787)" stroke-opacity="0.4" stroke-width="0.8" stroke-linejoin="round"/>
<path d="M55.3623 60.5075C55.2296 60.9215 54.8447 61.2024 54.41 61.2024H53.3669C52.6902 61.2024 52.2089 60.5444 52.4139 59.8995L53.4316 56.6971C53.5636 56.282 53.949 56 54.3846 56H55.436C56.1136 56 56.595 56.6598 56.3883 57.3051L55.3623 60.5075Z" fill="url(#paint24_linear_253_8787)" stroke="url(#paint25_linear_253_8787)" stroke-opacity="0.4" stroke-width="0.8" stroke-linejoin="round"/>
<path d="M109.466 24C110.193 24 110.677 24.7517 110.376 25.4138L101.12 45.7781C100.75 46.5926 99.5784 46.5483 99.2707 45.7083L97.199 40.053H57.5936C56.8562 40.053 56.3724 39.282 56.6932 38.618L63.4817 24.565C63.6486 24.2195 63.9984 24 64.3821 24H109.466Z" fill="#EBF5FF"/>
<path d="M67.6124 25.6145C66.4437 25.6145 65.3814 26.2932 64.8902 27.3536L59.0119 40.0446H57.602C56.8647 40.0446 56.3809 39.2738 56.7015 38.6098L62.9364 25.6957C63.4369 24.6589 64.4867 24 65.638 24H109.228C110.01 24 110.49 24.8586 110.079 25.5248L110.023 25.6145H67.6124Z" fill="white"/>
<path d="M77.9007 40.0613H57.6013C56.8641 40.0613 56.3804 39.2909 56.7006 38.6269L62.9367 25.6968C63.437 24.6594 64.4871 24 65.6389 24H109.466C110.193 24 110.677 24.7517 110.376 25.4138L101.119 45.7804C100.749 46.5945 99.5785 46.5507 99.2703 45.7113L97.4397 40.7251C97.2952 40.3314 96.9204 40.0697 96.501 40.0697H84.7937" stroke="url(#paint26_linear_253_8787)" stroke-width="0.8" stroke-linecap="round" stroke-linejoin="round"/>
<path d="M80.6978 40.0532H81.894" stroke="url(#paint27_linear_253_8787)" stroke-width="0.8" stroke-linecap="round" stroke-linejoin="round"/>
<defs>
<linearGradient id="paint0_linear_253_8787" x1="117.887" y1="115.752" x2="72.6773" y2="115.752" gradientUnits="userSpaceOnUse">
<stop stop-color="#008FFF"/>
<stop offset="1" stop-color="#33A5FF"/>
</linearGradient>
<linearGradient id="paint1_linear_253_8787" x1="120.39" y1="116.054" x2="109.898" y2="91.3122" gradientUnits="userSpaceOnUse">
<stop stop-color="white"/>
<stop offset="1" stop-color="white" stop-opacity="0"/>
</linearGradient>
<linearGradient id="paint2_linear_253_8787" x1="118.932" y1="115.752" x2="113.625" y2="115.752" gradientUnits="userSpaceOnUse">
<stop stop-color="#008FFF"/>
<stop offset="1" stop-color="#33A5FF"/>
</linearGradient>
<linearGradient id="paint3_linear_253_8787" x1="119.225" y1="116.054" x2="111.72" y2="113.977" gradientUnits="userSpaceOnUse">
<stop stop-color="white"/>
<stop offset="1" stop-color="white" stop-opacity="0"/>
</linearGradient>
<linearGradient id="paint4_linear_253_8787" x1="101.007" y1="137.894" x2="83.6771" y2="137.894" gradientUnits="userSpaceOnUse">
<stop stop-color="#008FFF"/>
<stop offset="1" stop-color="#33A5FF"/>
</linearGradient>
<linearGradient id="paint5_linear_253_8787" x1="101.967" y1="139.753" x2="76.1366" y2="135.956" gradientUnits="userSpaceOnUse">
<stop stop-color="white"/>
<stop offset="1" stop-color="white" stop-opacity="0"/>
</linearGradient>
<linearGradient id="paint6_linear_253_8787" x1="94.8061" y1="129.668" x2="115.802" y2="129.668" gradientUnits="userSpaceOnUse">
<stop stop-color="#1B217C"/>
<stop offset="1" stop-color="#1B217C" stop-opacity="0"/>
</linearGradient>
<linearGradient id="paint7_linear_253_8787" x1="97.5" y1="139" x2="91" y2="124" gradientUnits="userSpaceOnUse">
<stop stop-color="#1B217C"/>
<stop offset="1" stop-color="#1B217C" stop-opacity="0"/>
</linearGradient>
<linearGradient id="paint8_linear_253_8787" x1="74.6477" y1="118.472" x2="75.6618" y2="118.472" gradientUnits="userSpaceOnUse">
<stop stop-color="#1B217C"/>
<stop offset="1" stop-color="#1B217C" stop-opacity="0"/>
</linearGradient>
<linearGradient id="paint9_linear_253_8787" x1="55.2167" y1="138.01" x2="96.0485" y2="138.01" gradientUnits="userSpaceOnUse">
<stop stop-color="#1B217C"/>
<stop offset="1" stop-color="#1B217C" stop-opacity="0"/>
</linearGradient>
<linearGradient id="paint10_linear_253_8787" x1="150.279" y1="104.135" x2="113.691" y2="104.135" gradientUnits="userSpaceOnUse">
<stop stop-color="#008FFF"/>
<stop offset="1" stop-color="#33A5FF"/>
</linearGradient>
<linearGradient id="paint11_linear_253_8787" x1="152.305" y1="113.582" x2="96.7996" y2="110.193" gradientUnits="userSpaceOnUse">
<stop stop-color="white"/>
<stop offset="1" stop-color="white" stop-opacity="0"/>
</linearGradient>
<linearGradient id="paint12_linear_253_8787" x1="150.279" y1="104.135" x2="113.691" y2="104.135" gradientUnits="userSpaceOnUse">
<stop stop-color="#008FFF"/>
<stop offset="1" stop-color="#33A5FF"/>
</linearGradient>
<linearGradient id="paint13_linear_253_8787" x1="152.305" y1="113.582" x2="96.7996" y2="110.193" gradientUnits="userSpaceOnUse">
<stop stop-color="white"/>
<stop offset="1" stop-color="white" stop-opacity="0"/>
</linearGradient>
<linearGradient id="paint14_linear_253_8787" x1="142.439" y1="42.0505" x2="152.13" y2="42.0505" gradientUnits="userSpaceOnUse">
<stop stop-color="#1B217C"/>
<stop offset="1" stop-color="#1B217C" stop-opacity="0"/>
</linearGradient>
<linearGradient id="paint15_linear_253_8787" x1="150.278" y1="104.135" x2="113.69" y2="104.135" gradientUnits="userSpaceOnUse">
<stop stop-color="#008FFF"/>
<stop offset="1" stop-color="#33A5FF"/>
</linearGradient>
<linearGradient id="paint16_linear_253_8787" x1="152.304" y1="113.582" x2="96.7991" y2="110.193" gradientUnits="userSpaceOnUse">
<stop stop-color="white"/>
<stop offset="1" stop-color="white" stop-opacity="0"/>
</linearGradient>
<linearGradient id="paint17_linear_253_8787" x1="142.438" y1="42.0505" x2="152.129" y2="42.0505" gradientUnits="userSpaceOnUse">
<stop stop-color="#1B217C"/>
<stop offset="1" stop-color="#1B217C" stop-opacity="0"/>
</linearGradient>
<linearGradient id="paint18_linear_253_8787" x1="114.766" y1="97.894" x2="135.865" y2="97.894" gradientUnits="userSpaceOnUse">
<stop stop-color="#1B217C"/>
<stop offset="1" stop-color="#1B217C" stop-opacity="0"/>
</linearGradient>
<linearGradient id="paint19_linear_253_8787" x1="137.591" y1="61.4882" x2="149.249" y2="61.4882" gradientUnits="userSpaceOnUse">
<stop stop-color="#1B217C"/>
<stop offset="1" stop-color="#1B217C" stop-opacity="0"/>
</linearGradient>
<linearGradient id="paint20_linear_253_8787" x1="108.495" y1="42.0505" x2="149.791" y2="42.0505" gradientUnits="userSpaceOnUse">
<stop stop-color="#1B217C"/>
<stop offset="1" stop-color="#1B217C" stop-opacity="0"/>
</linearGradient>
<linearGradient id="paint21_linear_253_8787" x1="69.8833" y1="80.2474" x2="137.988" y2="80.2474" gradientUnits="userSpaceOnUse">
<stop stop-color="#1B217C"/>
<stop offset="1" stop-color="#1B217C" stop-opacity="0"/>
</linearGradient>
<linearGradient id="paint22_linear_253_8787" x1="45.6895" y1="53.0028" x2="41.2336" y2="53.0028" gradientUnits="userSpaceOnUse">
<stop stop-color="#008FFF"/>
<stop offset="1" stop-color="#33A5FF"/>
</linearGradient>
<linearGradient id="paint23_linear_253_8787" x1="45.9363" y1="53.4219" x2="39.3367" y2="52.3157" gradientUnits="userSpaceOnUse">
<stop stop-color="white"/>
<stop offset="1" stop-color="white" stop-opacity="0"/>
</linearGradient>
<linearGradient id="paint24_linear_253_8787" x1="56.6895" y1="59.0028" x2="52.2336" y2="59.0028" gradientUnits="userSpaceOnUse">
<stop stop-color="#008FFF"/>
<stop offset="1" stop-color="#33A5FF"/>
</linearGradient>
<linearGradient id="paint25_linear_253_8787" x1="56.9363" y1="59.4219" x2="50.3367" y2="58.3157" gradientUnits="userSpaceOnUse">
<stop stop-color="white"/>
<stop offset="1" stop-color="white" stop-opacity="0"/>
</linearGradient>
<linearGradient id="paint26_linear_253_8787" x1="60.373" y1="36.2212" x2="116.161" y2="36.2212" gradientUnits="userSpaceOnUse">
<stop stop-color="#1B217C"/>
<stop offset="1" stop-color="#1B217C" stop-opacity="0"/>
</linearGradient>
<linearGradient id="paint27_linear_253_8787" x1="80.7927" y1="40.5624" x2="82.0058" y2="40.5624" gradientUnits="userSpaceOnUse">
<stop stop-color="#1B217C"/>
<stop offset="1" stop-color="#1B217C" stop-opacity="0"/>
</linearGradient>
</defs>
</svg>
