<svg width="48" height="48" viewBox="0 0 48 48" fill="none" xmlns="http://www.w3.org/2000/svg">
<path d="M45 21.799C45 19.4156 43.3177 17.3636 40.9806 16.8961L40.1961 16.7392C39.5773 16.6155 39 17.0888 39 17.7198V27.2802C39 27.9113 39.5773 28.3846 40.1961 28.2608L40.9806 28.1039C43.3177 27.6365 45 25.5844 45 23.201V21.799Z" fill="#2341DF" fill-opacity="0.3"/>
<path d="M3 21.799C3 19.4156 4.6823 17.3636 7.01942 16.8961L7.80388 16.7392C8.42268 16.6155 9 17.0888 9 17.7198V27.2802C9 27.9113 8.42268 28.3846 7.80388 28.2608L7.01942 28.1039C4.6823 27.6365 3 25.5844 3 23.201V21.799Z" fill="#2341DF" fill-opacity="0.3"/>
<path d="M15 3C11.4101 3 8.5 5.91015 8.5 9.5V12.5C8.5 12.7761 8.72386 13 9 13C9.27614 13 9.5 12.7761 9.5 12.5V9.5C9.5 6.46243 11.9624 4 15 4H33C36.0376 4 38.5 6.46243 38.5 9.5V29.0714C38.5 32.7298 35.6646 35.726 32.0715 35.9822C31.796 36.0019 31.5714 36.2239 31.5714 36.5C31.5714 36.7761 31.7959 37.0016 32.0715 36.9845C36.2174 36.7265 39.5 33.2823 39.5 29.0714V9.5C39.5 5.91015 36.5899 3 33 3H15Z" fill="#040A1F" fill-opacity="0.87"/>
<path d="M9.5 14.5C9.5 14.2239 9.27614 14 9 14C8.72386 14 8.5 14.2239 8.5 14.5V27.7961C8.5 28.0723 8.72386 28.2961 9 28.2961C9.27614 28.2961 9.5 28.0723 9.5 27.7961V14.5Z" fill="#040A1F" fill-opacity="0.87"/>
<path d="M23 36.3857C23 35.3443 23.9498 34.5 25.1214 34.5H28.8786C30.0502 34.5 31 35.3443 31 36.3857V36.6143C31 37.6557 30.0502 38.5 28.8786 38.5H25.1214C23.9498 38.5 23 37.6557 23 36.6143V36.3857Z" fill="#2341DF" fill-opacity="0.8"/>
<path fillRule="evenodd" clipRule="evenodd" d="M13.606 12.8409C13.8821 12.8409 14.106 13.0647 14.106 13.3409V18.3788C14.106 23.6673 18.3932 27.9545 23.6817 27.9545H24.7423C30.0309 27.9545 34.3181 23.6673 34.3181 18.3788V16.5227C34.3181 16.2466 34.5419 16.0227 34.8181 16.0227C35.0942 16.0227 35.3181 16.2466 35.3181 16.5227V18.3788C35.3181 24.2196 30.5832 28.9545 24.7423 28.9545H23.6817C17.8409 28.9545 13.106 24.2196 13.106 18.3788V13.3409C13.106 13.0647 13.3298 12.8409 13.606 12.8409Z" fill="#040A1F" fill-opacity="0.87"/>
<path d="M16.5077 6.18182H30.5757C33.5044 6.18182 35.8787 8.55607 35.8787 11.4849V14.4456V14.4456C35.8787 15.3653 34.8181 16.2531 34.8181 17.1728V18.9091C34.8181 24.1809 30.5444 28.4546 25.2726 28.4546C31.3076 26.0405 32.017 20.7143 31.848 17.2771C31.7862 16.0212 30.8183 15.0267 29.5873 14.7704L15.9648 11.9342C14.5961 11.6735 13.606 10.4769 13.606 9.08361C13.606 7.481 14.9051 6.18182 16.5077 6.18182Z" fill="#2341DF" fill-opacity="0.15"/>
<path d="M19.4655 22C19.0313 22 18.7434 22.4415 19.0283 22.7692C19.5144 23.3283 20.2309 23.6818 21.03 23.6818C22.314 23.6818 23.3848 22.7692 23.6292 21.5572C23.6871 21.2701 23.4441 21.0303 23.1512 21.0303C22.8583 21.0303 22.6296 21.2742 22.5337 21.551C22.3181 22.1739 21.7263 22.6212 21.03 22.6212C20.6254 22.6212 20.256 22.4701 19.9753 22.2213C19.8322 22.0945 19.6567 22 19.4655 22Z" fill="#040A1F" fill-opacity="0.87"/>
<path d="M20 35.0403C20 34.166 19.023 33.6831 18.3695 34.2344L15.7301 36.4607C15.5518 36.611 15.3292 36.6931 15.0996 36.6931H5.72727C4.22104 36.6931 3 37.9805 3 39.5685L3 42.1245C3 43.7126 4.22104 45 5.72727 45H17.2727C18.779 45 20 43.7126 20 42.1245V35.0403Z" fill="#2341DF" fill-opacity="0.15"/>
<path d="M7 40C6.44772 40 6 40.4477 6 41C6 41.5523 6.44772 42 7 42H12C12.5523 42 13 41.5523 13 41C13 40.4477 12.5523 40 12 40H7Z" fill="#BDC5E9"/>
<path d="M16 42C16.5523 42 17 41.5523 17 41C17 40.4477 16.5523 40 16 40C15.4477 40 15 40.4477 15 41C15 41.5523 15.4477 42 16 42Z" fill="#BDC5E9"/>
<path d="M3 5C3 6.10457 3.89543 7 5 7C6.10457 7 7 6.10457 7 5C7 3.89543 6.10457 3 5 3C3.89543 3 3 3.89543 3 5Z" fill="#2341DF" fill-opacity="0.08"/>
<path d="M40.1496 36.2439C40.27 35.9187 40.73 35.9187 40.8504 36.2439L41.5756 38.2037C41.6134 38.306 41.694 38.3866 41.7963 38.4244L43.7561 39.1496C44.0813 39.27 44.0813 39.73 43.7561 39.8504L41.7963 40.5756C41.694 40.6134 41.6134 40.694 41.5756 40.7963L40.8504 42.7561C40.73 43.0813 40.27 43.0813 40.1496 42.7561L39.4244 40.7963C39.3866 40.694 39.306 40.6134 39.2037 40.5756L37.2439 39.8504C36.9187 39.73 36.9187 39.27 37.2439 39.1496L39.2037 38.4244C39.306 38.3866 39.3866 38.306 39.4244 38.2037L40.1496 36.2439Z" fill="#2341DF" fill-opacity="0.08"/>
<path d="M12.4749 27.5C12.4749 27.2239 12.251 27 11.9749 27C11.6987 27 11.4749 27.2239 11.4749 27.5V28.4749H10.5C10.2239 28.4749 10 28.6987 10 28.9749C10 29.251 10.2239 29.4749 10.5 29.4749H11.4749V30.4498C11.4749 30.7259 11.6987 30.9498 11.9749 30.9498C12.251 30.9498 12.4749 30.7259 12.4749 30.4498V29.4749H13.4498C13.7259 29.4749 13.9498 29.251 13.9498 28.9749C13.9498 28.6987 13.7259 28.4749 13.4498 28.4749H12.4749V27.5Z" fill="#2341DF" fill-opacity="0.08"/>
</svg>
