<svg width="176" height="176" viewBox="0 0 176 176" fill="none" xmlns="http://www.w3.org/2000/svg">
<path d="M43.6093 50.6008C47.4703 50.6008 50.6053 53.7358 50.6053 57.5968V66.8418H38.6133C37.5087 66.8418 36.6133 65.9464 36.6133 64.8418V57.5968C36.6133 53.7358 39.7483 50.6008 43.6093 50.6008Z" fill="url(#paint0_linear_253_8788)" stroke="url(#paint1_linear_253_8788)" stroke-opacity="0.4" stroke-width="0.8" stroke-linejoin="round"/>
<path d="M43.6088 50.6015C41.1888 50.6015 39.0548 51.8335 37.8008 53.7035C38.9118 52.9555 40.2428 52.5265 41.6838 52.5265C45.5448 52.5265 48.6798 55.6615 48.6798 59.5225V66.7775H50.6048V57.5975C50.6048 53.7365 47.4698 50.6015 43.6088 50.6015Z" fill="#0187FF"/>
<path d="M48.2843 66.8418H38.6133C37.5087 66.8418 36.6133 65.9464 36.6133 64.8418V57.5968C36.6133 54.2198 39.0113 51.4038 42.1903 50.7438" stroke="url(#paint2_linear_253_8788)" stroke-width="0.8" stroke-linecap="round" stroke-linejoin="round"/>
<path d="M50.7264 50.6008H43.6094C47.4704 50.6008 50.6054 53.7358 50.6054 57.5968V59.6428C50.6824 60.1928 50.7264 60.7538 50.7264 61.3258V100.644C50.7264 101.678 51.5734 102.525 52.6074 102.525H117.106V56.8598C117.106 53.3948 114.301 50.5898 110.836 50.5898H50.7264V50.6008Z" fill="#DBEEFF"/>
<path d="M43.6094 50.5898C47.5364 50.5898 50.7264 53.7798 50.7264 57.7068V100.559C50.7264 101.663 51.6218 102.559 52.7264 102.559H117V78.5" stroke="url(#paint3_linear_253_8788)" stroke-width="0.8" stroke-linecap="round" stroke-linejoin="round"/>
<path d="M43.5 50.5H103.714" stroke="url(#paint4_linear_253_8788)" stroke-width="0.8" stroke-linecap="round" stroke-linejoin="round"/>
<path d="M104 87H61C59.8954 87 59 87.8954 59 89V90C59 91.1046 59.8954 92 61 92H104C105.105 92 106 91.1046 106 90V89C106 87.8954 105.105 87 104 87Z" fill="#CEE8FF"/>
<path d="M88 80H61C59.8954 80 59 80.8954 59 82V83C59 84.1046 59.8954 85 61 85H88C89.1046 85 90 84.1046 90 83V82C90 80.8954 89.1046 80 88 80Z" fill="#CEE8FF"/>
<path d="M71.2929 60.4269C71.6834 60.0364 71.6834 59.4032 71.2929 59.0127L69.9873 57.7071C69.5968 57.3166 68.9636 57.3166 68.5731 57.7071L66.2152 60.065C65.8247 60.4555 65.1915 60.4555 64.801 60.065L62.441 57.705C62.0513 57.3153 61.4197 57.3144 61.0289 57.7029L59.7128 59.0112C59.3197 59.402 59.3195 60.0379 59.7122 60.429L62.0782 62.7848C62.4701 63.1751 62.4708 63.8094 62.0797 64.2005L59.7092 66.571C59.3179 66.9623 59.3188 67.5971 59.7113 67.9873L61.0289 69.2971C61.4197 69.6856 62.0513 69.6847 62.441 69.295L64.801 66.935C65.1915 66.5445 65.8247 66.5445 66.2152 66.935L68.5731 69.2929C68.9636 69.6834 69.5968 69.6834 69.9873 69.2929L71.2944 67.9858C71.6843 67.5959 71.685 66.9639 71.2959 66.5731L68.932 64.199C68.5429 63.8082 68.5436 63.1762 68.9335 62.7863L71.2929 60.4269Z" fill="url(#paint5_linear_253_8788)" stroke="url(#paint6_linear_253_8788)" stroke-opacity="0.4" stroke-width="0.8" stroke-linejoin="round"/>
<path opacity="0.1" d="M103.824 54.6016H116.661" stroke="url(#paint7_linear_253_8788)" stroke-width="0.8" stroke-linecap="round" stroke-linejoin="round"/>
<path fill-rule="evenodd" clip-rule="evenodd" d="M97.7006 50.5898L94.001 50.5898C94.0376 55.5582 95.1526 60.2519 97.1025 64.4652C97.2104 64.6984 97.2282 64.9636 97.1483 65.2078L95.4674 70.3452C95.2606 70.9773 95.717 71.6314 96.3816 71.6555L101.377 71.8367C101.658 71.847 101.921 71.9751 102.106 72.1871C105.715 76.3083 111.435 80.1589 117.107 81.4995V77.5313C111.303 75.8516 106.941 72.33 104.2 69.0791C104.196 69.0743 104.19 69.0716 104.184 69.0716L99.8902 68.9153C99.2258 68.8911 98.7695 68.2375 98.9759 67.6055L100.28 63.6137C100.36 63.369 100.341 63.1033 100.233 62.8696C98.5998 59.3311 97.6885 55.3784 97.6885 51.1962C97.6885 51.0009 97.6927 50.7984 97.7006 50.5898Z" fill="url(#paint8_linear_253_8788)"/>
<path d="M97.7006 50.5898L98.1003 50.6051C98.1045 50.4964 98.0642 50.3908 97.9888 50.3124C97.9134 50.2341 97.8094 50.1898 97.7006 50.1898V50.5898ZM94.001 50.5898V50.1898C93.8944 50.1898 93.7922 50.2324 93.7171 50.308C93.642 50.3837 93.6002 50.4862 93.601 50.5928L94.001 50.5898ZM97.1025 64.4652L97.4655 64.2972L97.4655 64.2972L97.1025 64.4652ZM97.1483 65.2078L97.5284 65.3322L97.5284 65.3322L97.1483 65.2078ZM95.4674 70.3452L95.8476 70.4696L95.8476 70.4696L95.4674 70.3452ZM96.3816 71.6555L96.3961 71.2558L96.3961 71.2558L96.3816 71.6555ZM101.377 71.8367L101.362 72.2365L101.377 71.8367ZM102.106 72.1871L102.407 71.9236L102.407 71.9236L102.106 72.1871ZM117.107 81.4995L117.015 81.8887C117.134 81.9169 117.259 81.889 117.355 81.8132C117.451 81.7373 117.507 81.6217 117.507 81.4995H117.107ZM117.107 77.5313H117.507C117.507 77.3533 117.389 77.1966 117.218 77.1471L117.107 77.5313ZM104.2 69.0791L103.895 69.3369L103.895 69.3369L104.2 69.0791ZM104.184 69.0716L104.17 69.4713C104.174 69.4715 104.179 69.4716 104.184 69.4716V69.0716ZM99.8902 68.9153L99.9047 68.5156L99.9047 68.5156L99.8902 68.9153ZM98.9759 67.6055L98.5957 67.4813L98.5957 67.4813L98.9759 67.6055ZM100.28 63.6137L99.8994 63.4895L99.8994 63.4895L100.28 63.6137ZM100.233 62.8696L100.597 62.7019L100.597 62.7019L100.233 62.8696ZM97.7006 50.1898L94.001 50.1898V50.9898L97.7006 50.9898V50.1898ZM93.601 50.5928C93.6381 55.6197 94.7663 60.3696 96.7395 64.6332L97.4655 64.2972C95.5389 60.1342 94.4372 55.4967 94.401 50.5869L93.601 50.5928ZM96.7395 64.6332C96.806 64.7768 96.8158 64.9377 96.7681 65.0835L97.5284 65.3322C97.6406 64.9895 97.6148 64.6199 97.4655 64.2972L96.7395 64.6332ZM96.7681 65.0835L95.0872 70.2208L95.8476 70.4696L97.5284 65.3322L96.7681 65.0835ZM95.0872 70.2208C94.7977 71.1057 95.4366 72.0215 96.3671 72.0552L96.3961 71.2558C95.9973 71.2413 95.7235 70.8488 95.8476 70.4696L95.0872 70.2208ZM96.3671 72.0552L101.362 72.2365L101.391 71.437L96.3961 71.2558L96.3671 72.0552ZM101.362 72.2365C101.53 72.2426 101.69 72.3192 101.805 72.4506L102.407 71.9236C102.151 71.6311 101.786 71.4513 101.391 71.437L101.362 72.2365ZM101.805 72.4506C105.46 76.6239 111.249 80.526 117.015 81.8887L117.199 81.1102C111.62 79.7917 105.97 75.9926 102.407 71.9236L101.805 72.4506ZM117.507 81.4995V77.5313H116.707V81.4995H117.507ZM117.218 77.1471C111.506 75.4938 107.207 72.0252 104.506 68.8213L103.895 69.3369C106.675 72.6347 111.101 76.2094 116.995 77.9156L117.218 77.1471ZM104.506 68.8213C104.425 68.7246 104.306 68.6716 104.184 68.6716V69.4716C104.075 69.4716 103.968 69.424 103.895 69.3369L104.506 68.8213ZM104.199 68.6718L99.9047 68.5156L99.8756 69.315L104.17 69.4713L104.199 68.6718ZM99.9047 68.5156C99.5061 68.5011 99.2323 68.1089 99.3562 67.7297L98.5957 67.4813C98.3068 68.3661 98.9455 69.2812 99.8756 69.315L99.9047 68.5156ZM99.3562 67.7297L100.66 63.7378L99.8994 63.4895L98.5957 67.4813L99.3562 67.7297ZM100.66 63.7378C100.772 63.3943 100.746 63.0244 100.597 62.7019L99.8703 63.0372C99.9372 63.1821 99.9471 63.3437 99.8994 63.4895L100.66 63.7378ZM100.597 62.7019C98.9869 59.2153 98.0885 55.3197 98.0885 51.1962H97.2885C97.2885 55.437 98.2127 59.4469 99.8703 63.0372L100.597 62.7019ZM98.0885 51.1962C98.0885 51.0065 98.0926 50.8091 98.1003 50.6051L97.3009 50.5746C97.2928 50.7877 97.2885 50.9953 97.2885 51.1962H98.0885Z" fill="url(#paint9_linear_253_8788)" fill-opacity="0.4"/>
<path d="M124.332 25C109.549 25 97.564 36.9848 97.564 51.7676C97.564 56.0099 98.5568 60.0115 100.302 63.5719L98.873 67.8276C98.6602 68.4615 99.1174 69.1216 99.7856 69.1453L104.113 69.2985C109.017 74.9549 116.258 78.5353 124.332 78.5353C139.114 78.5353 151.099 66.5505 151.099 51.7676C151.099 36.9848 139.114 25 124.332 25Z" fill="#F5FAFF"/>
<path d="M129 69.5L129.5 53.5L126 51L121.5 58L120 70.5L129 69.5Z" fill="white"/>
<path d="M127.5 55.5C127.1 61.5 123.5 64.3333 121 65L121.5 62L123.5 52L127.5 55.5Z" fill="#CEE8FF"/>
<path d="M129 69.5L129.5 53.5L126 51L121.5 58L120 70.5L129 69.5Z" stroke="url(#paint10_linear_253_8788)" stroke-width="0.8" stroke-linecap="round" stroke-linejoin="round"/>
<path fill-rule="evenodd" clip-rule="evenodd" d="M141.639 72.0142L138.217 68.6326L137.524 68.0848C136.65 67.3932 135.526 67.0982 134.424 67.271L111.52 70.8635C110.621 71.0047 109.796 71.4486 109.183 72.1218L108.391 72.9914C112.854 76.3296 118.395 78.3077 124.396 78.3077C130.965 78.3077 136.982 75.9411 141.639 72.0142Z" fill="#FFCF49"/>
<path d="M102.629 69.2483L103.922 65.3871C102.167 61.8268 101.184 57.8252 101.184 53.5829C101.184 38.8 113.169 26.8153 127.952 26.8153C131.532 26.8153 134.952 27.5273 138.071 28.801C134.05 26.394 129.356 25 124.332 25C109.549 25 97.564 36.9848 97.564 51.7676C97.564 56.0099 98.5568 60.0115 100.302 63.5719L98.8728 67.8284C98.66 68.462 99.1168 69.122 99.7848 69.146L102.629 69.2483Z" fill="white"/>
<path d="M124.332 25C109.549 25 97.564 36.9848 97.564 51.7676C97.564 55.8635 98.4895 59.735 100.124 63.2016C100.236 63.4397 100.255 63.7118 100.171 63.9614L98.873 67.8276C98.6602 68.4615 99.1174 69.1216 99.7856 69.1453L103.678 69.2831C103.955 69.2929 104.216 69.4183 104.401 69.6251C109.298 75.0923 116.415 78.5353 124.332 78.5353C139.114 78.5353 151.099 66.5505 151.099 51.7676C151.099 36.9848 139.114 25 124.332 25Z" stroke="url(#paint11_linear_253_8788)" stroke-width="0.8" stroke-linecap="round" stroke-linejoin="round"/>
<path fill-rule="evenodd" clip-rule="evenodd" d="M115.687 44.3676L122.636 45.7985L125.065 49.3883L125.431 49.4955L125.851 46.4593L127.369 52.5763L127.653 53.3526L126.781 56.9221C126.04 59.9672 123.317 62.1015 120.182 62.1015H117.512C114.369 62.1015 112.056 59.1546 112.806 56.1095L115.566 44.7865C115.599 44.6449 115.64 44.5052 115.687 44.3676Z" fill="white"/>
<path fill-rule="evenodd" clip-rule="evenodd" d="M123.117 55.8683L126.314 42.7771L126.296 42.7682C126.448 42.1505 126.328 41.5422 126.023 41.0539H127.789C129.239 41.0539 130.306 42.4135 129.96 43.8221L129.978 43.8311L126.781 56.9223C126.04 59.9673 123.317 62.1016 120.182 62.1016H117.512C116.356 62.1016 115.312 61.703 114.492 61.0476H116.518C119.652 61.0476 122.376 58.9134 123.117 55.8683Z" fill="#F5FAFF"/>
<path d="M115.687 44.3676C115.64 44.5051 115.599 44.6449 115.566 44.7864L112.806 56.1095C112.056 59.1545 114.369 62.1014 117.512 62.1014H120.182C123.317 62.1014 126.04 59.9672 126.781 56.9221L127.653 53.3525" stroke="url(#paint12_linear_253_8788)" stroke-width="0.8" stroke-linecap="round" stroke-linejoin="round"/>
<path d="M125.524 38H121.5C117.888 37.5977 114.249 39.7034 113.261 42.816C112.963 43.7546 113.717 44.6126 114.69 44.7653L122.062 45.9229C122.47 45.9868 122.837 46.2037 123.089 46.5293L123.556 47.1313C124.274 48.0575 125.755 47.6428 125.887 46.4782V46.4782V55.2886C125.887 56.2738 126.605 57.1123 127.578 57.2645L128.6 57.4243C128.702 57.4403 128.806 57.4491 128.909 57.446C131.557 57.3674 133.721 55.2903 133.898 52.6344L134.179 48.4623C134.53 43.2471 130.719 38.5716 125.524 38Z" fill="#CEE8FF"/>
<path d="M134.559 48.1173C137.076 48.1173 139.117 46.0763 139.117 43.5586C139.117 41.0409 137.076 38.9999 134.559 38.9999C132.041 38.9999 130 41.0409 130 43.5586C130 46.0763 132.041 48.1173 134.559 48.1173Z" fill="#CEE8FF"/>
<rect x="43.8018" y="118.308" width="64.8944" height="32.0027" fill="#B7DDFF"/>
<path d="M90.9638 139.714C90.5404 139.714 90.1169 139.544 89.8205 139.234L85.7129 134.971C85.106 134.336 85.1201 133.334 85.7553 132.727C86.3905 132.12 87.3927 132.134 87.9996 132.769L90.2202 135.075C90.6171 135.487 91.278 135.482 91.6695 135.065L100.929 125.203C101.522 124.568 102.524 124.526 103.174 125.132C103.809 125.725 103.837 126.728 103.244 127.377L92.1354 139.22C91.839 139.53 91.4296 139.714 90.9921 139.714H90.9638Z" fill="url(#paint13_linear_253_8788)" stroke="url(#paint14_linear_253_8788)" stroke-opacity="0.4" stroke-width="0.8" stroke-linejoin="round"/>
<path d="M90.9638 139.714C90.5404 139.714 90.1169 139.544 89.8205 139.234L85.7129 134.971C85.106 134.336 85.1201 133.334 85.7553 132.727C86.3905 132.12 87.3927 132.134 87.9996 132.769L90.2202 135.075C90.6171 135.487 91.278 135.482 91.6695 135.065L100.929 125.203C101.522 124.568 102.524 124.526 103.174 125.132C103.809 125.725 103.837 126.728 103.244 127.377L92.1354 139.22C91.839 139.53 91.4296 139.714 90.9921 139.714H90.9638Z" fill="url(#paint15_linear_253_8788)" stroke="url(#paint16_linear_253_8788)" stroke-opacity="0.4" stroke-width="0.8" stroke-linejoin="round"/>
<path d="M43.6685 138.309V149.559C43.6685 150.111 44.1162 150.559 44.6685 150.559H107.563C108.115 150.559 108.563 150.111 108.563 149.559V119.556C108.563 119.004 108.115 118.556 107.563 118.556H44.6685C44.1162 118.556 43.6685 119.004 43.6685 119.556V121.419" stroke="url(#paint17_linear_253_8788)" stroke-width="0.8" stroke-linecap="round" stroke-linejoin="round"/>
<path d="M70.4139 133.594H55.7456C54.641 133.594 53.7456 134.489 53.7456 135.594V136.038C53.7456 137.143 54.641 138.038 55.7456 138.038H70.4139C71.5184 138.038 72.4139 137.143 72.4139 136.038V135.594C72.4139 134.489 71.5184 133.594 70.4139 133.594Z" fill="#9ED1FF"/>
<path d="M43.8018 132.946C43.8018 133.621 44.1418 134.25 44.7061 134.62L49.1596 137.536C49.4872 137.75 49.8705 137.864 50.262 137.863L58.5132 137.835C59.958 137.83 60.9211 136.342 60.3336 135.022L56.8768 127.255C56.7207 126.904 56.4668 126.605 56.1456 126.395L46.8978 120.336C45.5677 119.465 43.8018 120.419 43.8018 122.009V132.946Z" fill="#9ED1FF"/>
<path d="M25.7626 117.22C24.3251 119.469 24.9803 122.451 27.2196 123.889L28.1192 124.466L33.3214 116.34L32.4218 115.763C30.1727 114.325 27.1902 114.98 25.7528 117.22H25.7626Z" fill="#F19E39"/>
<g filter="url(#filter0_d_253_8788)">
<path d="M25.7626 117.22C24.3251 119.469 24.9803 122.451 27.2196 123.889L28.1192 124.466L33.3214 116.34L32.4218 115.763C30.1727 114.325 27.1902 114.98 25.7528 117.22H25.7626Z" fill="url(#paint18_linear_253_8788)"/>
</g>
<path d="M33.3409 116.339L28.1289 124.465L48.2631 137.353L57.1518 137.324L53.4653 129.227L33.3409 116.339Z" fill="white"/>
<path opacity="0.7" fill-rule="evenodd" clip-rule="evenodd" d="M30.9265 120.103L28.1289 124.465L48.2631 137.353L57.1518 137.323L57.076 137.157L30.9265 120.103Z" fill="#EEF0FD"/>
<path d="M34.1824 116.878C33.7176 116.58 33.0994 116.715 32.8014 117.18L28.6693 123.622C28.3709 124.087 28.5064 124.706 28.9719 125.004L48.0151 137.194C48.177 137.298 48.3653 137.353 48.5575 137.352L55.6034 137.329C56.3295 137.326 56.8111 136.575 56.5102 135.914L53.5876 129.495C53.5078 129.32 53.379 129.172 53.2168 129.068L34.1824 116.878Z" stroke="url(#paint19_linear_253_8788)" stroke-width="0.8" stroke-linecap="round" stroke-linejoin="round"/>
<path d="M53.8164 137.333L57.1509 137.323L55.8015 134.351L53.8164 137.333Z" fill="#0893FF" stroke="url(#paint20_linear_253_8788)" stroke-width="0.8" stroke-linecap="round" stroke-linejoin="round"/>
<path d="M44 112H137" stroke="url(#paint21_linear_253_8788)" stroke-width="0.8" stroke-linecap="round" stroke-linejoin="round" stroke-dasharray="3 3"/>
<path d="M125.5 55L121.796 63.2311C121.312 64.3076 120.241 65 119.06 65H115.5" stroke="url(#paint22_linear_253_8788)" stroke-width="0.8" stroke-linecap="round" stroke-linejoin="round"/>
<path d="M126 56C128.761 56 131 53.7614 131 51C131 48.2386 128.761 46 126 46C123.239 46 121 48.2386 121 51C121 53.7614 123.239 56 126 56Z" fill="url(#paint23_linear_253_8788)"/>
<path d="M121.992 37.126L120.172 37.3535C119.949 37.3814 119.935 37.7003 120.155 37.7475L124.473 38.6728C125.408 38.8731 126.147 39.5877 126.379 40.515C126.459 40.8352 126.475 41.168 126.426 41.4944L125 51H127.5L129.033 43.3362C129.569 40.6546 127.852 38.0396 125.177 37.4666L123.993 37.2129C123.336 37.072 122.659 37.0426 121.992 37.126Z" fill="url(#paint24_linear_253_8788)"/>
<rect x="114" y="64" width="5" height="3" rx="1" fill="url(#paint25_linear_253_8788)"/>
<path d="M115.5 56.5L115.544 56.6325C115.816 57.4491 116.594 58.0451 117.429 57.8322C119.166 57.3885 119.865 56.1727 120 55.5C118.8 56.7 116.333 56.6667 115.5 56.5Z" fill="#CEE8FF"/>
<defs>
<filter id="filter0_d_253_8788" x="20" y="112" width="16.3213" height="17.4655" filterUnits="userSpaceOnUse" color-interpolation-filters="sRGB">
<feFlood flood-opacity="0" result="BackgroundImageFix"/>
<feColorMatrix in="SourceAlpha" type="matrix" values="0 0 0 0 0 0 0 0 0 0 0 0 0 0 0 0 0 0 127 0" result="hardAlpha"/>
<feOffset dx="-1" dy="1"/>
<feGaussianBlur stdDeviation="2"/>
<feComposite in2="hardAlpha" operator="out"/>
<feColorMatrix type="matrix" values="0 0 0 0 1 0 0 0 0 0.823529 0 0 0 0 0.341176 0 0 0 0.36 0"/>
<feBlend mode="normal" in2="BackgroundImageFix" result="effect1_dropShadow_253_8788"/>
<feBlend mode="normal" in="SourceGraphic" in2="effect1_dropShadow_253_8788" result="shape"/>
</filter>
<linearGradient id="paint0_linear_253_8788" x1="50.1381" y1="64.8524" x2="36.7409" y2="64.8524" gradientUnits="userSpaceOnUse">
<stop stop-color="#008FFF"/>
<stop offset="1" stop-color="#8BCEFF"/>
</linearGradient>
<linearGradient id="paint1_linear_253_8788" x1="50.8799" y1="66.8418" x2="30.7077" y2="64.7002" gradientUnits="userSpaceOnUse">
<stop stop-color="white"/>
<stop offset="1" stop-color="white" stop-opacity="0"/>
</linearGradient>
<linearGradient id="paint2_linear_253_8788" x1="37.5392" y1="61.4873" x2="49.3752" y2="61.4873" gradientUnits="userSpaceOnUse">
<stop stop-color="#1B217C"/>
<stop offset="1" stop-color="#1B217C" stop-opacity="0"/>
</linearGradient>
<linearGradient id="paint3_linear_253_8788" x1="44.174" y1="73.7348" x2="51.3916" y2="73.7348" gradientUnits="userSpaceOnUse">
<stop stop-color="#1B217C"/>
<stop offset="1" stop-color="#1B217C" stop-opacity="0"/>
</linearGradient>
<linearGradient id="paint4_linear_253_8788" x1="49.777" y1="51.5092" x2="110.842" y2="51.5092" gradientUnits="userSpaceOnUse">
<stop stop-color="#1B217C"/>
<stop offset="1" stop-color="#1B217C" stop-opacity="0"/>
</linearGradient>
<linearGradient id="paint5_linear_253_8788" x1="71.5659" y1="68.4076" x2="59.1186" y2="68.4076" gradientUnits="userSpaceOnUse">
<stop stop-color="#008FFF"/>
<stop offset="1" stop-color="#8BCEFF"/>
</linearGradient>
<linearGradient id="paint6_linear_253_8788" x1="72.2551" y1="70" x2="53.5854" y2="67.6993" gradientUnits="userSpaceOnUse">
<stop stop-color="white"/>
<stop offset="1" stop-color="white" stop-opacity="0"/>
</linearGradient>
<linearGradient id="paint7_linear_253_8788" x1="104.843" y1="55.1108" x2="117.861" y2="55.1108" gradientUnits="userSpaceOnUse">
<stop stop-color="#1B217C"/>
<stop offset="1" stop-color="#1B217C" stop-opacity="0"/>
</linearGradient>
<linearGradient id="paint8_linear_253_8788" x1="116.335" y1="77.7133" x2="94.2118" y2="77.7133" gradientUnits="userSpaceOnUse">
<stop stop-color="#008FFF"/>
<stop offset="1" stop-color="#8BCEFF"/>
</linearGradient>
<linearGradient id="paint9_linear_253_8788" x1="117.56" y1="81.4995" x2="84.1567" y2="78.4224" gradientUnits="userSpaceOnUse">
<stop stop-color="white"/>
<stop offset="1" stop-color="white" stop-opacity="0"/>
</linearGradient>
<linearGradient id="paint10_linear_253_8788" x1="133.5" y1="70" x2="123" y2="61" gradientUnits="userSpaceOnUse">
<stop stop-color="#1B217C"/>
<stop offset="1" stop-color="#1B217C" stop-opacity="0"/>
</linearGradient>
<linearGradient id="paint11_linear_253_8788" x1="101.811" y1="52.2611" x2="156.103" y2="52.2611" gradientUnits="userSpaceOnUse">
<stop stop-color="#1B217C"/>
<stop offset="1" stop-color="#1B217C" stop-opacity="0"/>
</linearGradient>
<linearGradient id="paint12_linear_253_8788" x1="102.5" y1="53.0001" x2="127.5" y2="57.5001" gradientUnits="userSpaceOnUse">
<stop stop-color="#1B217C"/>
<stop offset="1" stop-color="#1B217C" stop-opacity="0"/>
</linearGradient>
<linearGradient id="paint13_linear_253_8788" x1="103.208" y1="137.876" x2="85.5456" y2="137.876" gradientUnits="userSpaceOnUse">
<stop stop-color="#008FFF"/>
<stop offset="1" stop-color="#33A5FF"/>
</linearGradient>
<linearGradient id="paint14_linear_253_8788" x1="104.186" y1="139.715" x2="77.8948" y2="135.734" gradientUnits="userSpaceOnUse">
<stop stop-color="white"/>
<stop offset="1" stop-color="white" stop-opacity="0"/>
</linearGradient>
<linearGradient id="paint15_linear_253_8788" x1="103.208" y1="137.876" x2="85.5456" y2="137.876" gradientUnits="userSpaceOnUse">
<stop stop-color="#008FFF"/>
<stop offset="1" stop-color="#33A5FF"/>
</linearGradient>
<linearGradient id="paint16_linear_253_8788" x1="104.186" y1="139.715" x2="77.8948" y2="135.734" gradientUnits="userSpaceOnUse">
<stop stop-color="white"/>
<stop offset="1" stop-color="white" stop-opacity="0"/>
</linearGradient>
<linearGradient id="paint17_linear_253_8788" x1="48.8168" y1="134.852" x2="114.629" y2="134.852" gradientUnits="userSpaceOnUse">
<stop stop-color="#1B217C"/>
<stop offset="1" stop-color="#1B217C" stop-opacity="0"/>
</linearGradient>
<linearGradient id="paint18_linear_253_8788" x1="33.0471" y1="123.306" x2="25.1829" y2="123.306" gradientUnits="userSpaceOnUse">
<stop stop-color="#FFBB00"/>
<stop offset="1" stop-color="#FFE18F"/>
</linearGradient>
<linearGradient id="paint19_linear_253_8788" x1="30.4314" y1="127.039" x2="59.8646" y2="127.039" gradientUnits="userSpaceOnUse">
<stop stop-color="#1B217C"/>
<stop offset="1" stop-color="#1B217C" stop-opacity="0"/>
</linearGradient>
<linearGradient id="paint20_linear_253_8788" x1="54.0809" y1="135.869" x2="57.4626" y2="135.869" gradientUnits="userSpaceOnUse">
<stop stop-color="#1B217C"/>
<stop offset="1" stop-color="#1B217C" stop-opacity="0"/>
</linearGradient>
<linearGradient id="paint21_linear_253_8788" x1="51.3781" y1="112.509" x2="145.693" y2="112.509" gradientUnits="userSpaceOnUse">
<stop stop-color="#1B217C"/>
<stop offset="1" stop-color="#1B217C" stop-opacity="0"/>
</linearGradient>
<linearGradient id="paint22_linear_253_8788" x1="121.5" y1="68" x2="125" y2="53.5" gradientUnits="userSpaceOnUse">
<stop stop-color="#1B217C"/>
<stop offset="0.857654" stop-color="#1B217C" stop-opacity="0"/>
</linearGradient>
<linearGradient id="paint23_linear_253_8788" x1="129.802" y1="55.4416" x2="121.437" y2="55.4416" gradientUnits="userSpaceOnUse">
<stop stop-color="#008FFF"/>
<stop offset="1" stop-color="#8BCEFF"/>
</linearGradient>
<linearGradient id="paint24_linear_253_8788" x1="130.003" y1="50.1346" x2="119.546" y2="50.1346" gradientUnits="userSpaceOnUse">
<stop stop-color="#008FFF"/>
<stop offset="1" stop-color="#8BCEFF"/>
</linearGradient>
<linearGradient id="paint25_linear_253_8788" x1="118.401" y1="66.8325" x2="114.218" y2="66.8325" gradientUnits="userSpaceOnUse">
<stop stop-color="#008FFF"/>
<stop offset="1" stop-color="#8BCEFF"/>
</linearGradient>
</defs>
</svg>
